G04 #@! TF.GenerationSoftware,KiCad,Pcbnew,9.0.0*
G04 #@! TF.CreationDate,2025-04-29T16:13:28+03:00*
G04 #@! TF.ProjectId,LED-BOARD,4c45442d-424f-4415-9244-2e6b69636164,rev?*
G04 #@! TF.SameCoordinates,Original*
G04 #@! TF.FileFunction,Legend,Bot*
G04 #@! TF.FilePolarity,Positive*
%FSLAX46Y46*%
G04 Gerber Fmt 4.6, Leading zero omitted, Abs format (unit mm)*
G04 Created by KiCad (PCBNEW 9.0.0) date 2025-04-29 16:13:28*
%MOMM*%
%LPD*%
G01*
G04 APERTURE LIST*
%ADD10C,0.150000*%
%ADD11C,0.200000*%
%ADD12C,0.120000*%
%ADD13C,0.000000*%
%ADD14C,5.500000*%
%ADD15C,2.400000*%
%ADD16O,2.400000X2.400000*%
%ADD17R,1.500000X1.500000*%
%ADD18C,1.500000*%
%ADD19R,1.700000X1.700000*%
%ADD20O,1.700000X1.700000*%
G04 APERTURE END LIST*
D10*
X143314285Y-65662294D02*
X143695237Y-65662294D01*
X143695237Y-65662294D02*
X143695237Y-64862294D01*
X143047618Y-65243246D02*
X142780952Y-65243246D01*
X142666666Y-65662294D02*
X143047618Y-65662294D01*
X143047618Y-65662294D02*
X143047618Y-64862294D01*
X143047618Y-64862294D02*
X142666666Y-64862294D01*
X142323808Y-65662294D02*
X142323808Y-64862294D01*
X142323808Y-64862294D02*
X142133332Y-64862294D01*
X142133332Y-64862294D02*
X142019046Y-64900389D01*
X142019046Y-64900389D02*
X141942856Y-64976579D01*
X141942856Y-64976579D02*
X141904761Y-65052770D01*
X141904761Y-65052770D02*
X141866665Y-65205151D01*
X141866665Y-65205151D02*
X141866665Y-65319437D01*
X141866665Y-65319437D02*
X141904761Y-65471818D01*
X141904761Y-65471818D02*
X141942856Y-65548008D01*
X141942856Y-65548008D02*
X142019046Y-65624199D01*
X142019046Y-65624199D02*
X142133332Y-65662294D01*
X142133332Y-65662294D02*
X142323808Y-65662294D01*
X124545238Y-105057533D02*
X124507143Y-105019438D01*
X124507143Y-105019438D02*
X124430952Y-104981342D01*
X124430952Y-104981342D02*
X124278571Y-105057533D01*
X124278571Y-105057533D02*
X124202381Y-105019438D01*
X124202381Y-105019438D02*
X124164286Y-104981342D01*
X123440476Y-105362295D02*
X123897619Y-105362295D01*
X123669047Y-105362295D02*
X123669047Y-104562295D01*
X123669047Y-104562295D02*
X123745238Y-104676580D01*
X123745238Y-104676580D02*
X123821428Y-104752771D01*
X123821428Y-104752771D02*
X123897619Y-104790866D01*
X122945237Y-104562295D02*
X122869047Y-104562295D01*
X122869047Y-104562295D02*
X122792856Y-104600390D01*
X122792856Y-104600390D02*
X122754761Y-104638485D01*
X122754761Y-104638485D02*
X122716666Y-104714676D01*
X122716666Y-104714676D02*
X122678571Y-104867057D01*
X122678571Y-104867057D02*
X122678571Y-105057533D01*
X122678571Y-105057533D02*
X122716666Y-105209914D01*
X122716666Y-105209914D02*
X122754761Y-105286104D01*
X122754761Y-105286104D02*
X122792856Y-105324200D01*
X122792856Y-105324200D02*
X122869047Y-105362295D01*
X122869047Y-105362295D02*
X122945237Y-105362295D01*
X122945237Y-105362295D02*
X123021428Y-105324200D01*
X123021428Y-105324200D02*
X123059523Y-105286104D01*
X123059523Y-105286104D02*
X123097618Y-105209914D01*
X123097618Y-105209914D02*
X123135714Y-105057533D01*
X123135714Y-105057533D02*
X123135714Y-104867057D01*
X123135714Y-104867057D02*
X123097618Y-104714676D01*
X123097618Y-104714676D02*
X123059523Y-104638485D01*
X123059523Y-104638485D02*
X123021428Y-104600390D01*
X123021428Y-104600390D02*
X122945237Y-104562295D01*
X122335713Y-105362295D02*
X122335713Y-104562295D01*
X122259523Y-105057533D02*
X122030951Y-105362295D01*
X122030951Y-104828961D02*
X122335713Y-105133723D01*
X135857533Y-66304761D02*
X135819438Y-66342856D01*
X135819438Y-66342856D02*
X135781342Y-66419047D01*
X135781342Y-66419047D02*
X135857533Y-66571428D01*
X135857533Y-66571428D02*
X135819438Y-66647618D01*
X135819438Y-66647618D02*
X135781342Y-66685713D01*
X136162295Y-67409523D02*
X136162295Y-66952380D01*
X136162295Y-67180952D02*
X135362295Y-67180952D01*
X135362295Y-67180952D02*
X135476580Y-67104761D01*
X135476580Y-67104761D02*
X135552771Y-67028571D01*
X135552771Y-67028571D02*
X135590866Y-66952380D01*
X135362295Y-67904762D02*
X135362295Y-67980952D01*
X135362295Y-67980952D02*
X135400390Y-68057143D01*
X135400390Y-68057143D02*
X135438485Y-68095238D01*
X135438485Y-68095238D02*
X135514676Y-68133333D01*
X135514676Y-68133333D02*
X135667057Y-68171428D01*
X135667057Y-68171428D02*
X135857533Y-68171428D01*
X135857533Y-68171428D02*
X136009914Y-68133333D01*
X136009914Y-68133333D02*
X136086104Y-68095238D01*
X136086104Y-68095238D02*
X136124200Y-68057143D01*
X136124200Y-68057143D02*
X136162295Y-67980952D01*
X136162295Y-67980952D02*
X136162295Y-67904762D01*
X136162295Y-67904762D02*
X136124200Y-67828571D01*
X136124200Y-67828571D02*
X136086104Y-67790476D01*
X136086104Y-67790476D02*
X136009914Y-67752381D01*
X136009914Y-67752381D02*
X135857533Y-67714285D01*
X135857533Y-67714285D02*
X135667057Y-67714285D01*
X135667057Y-67714285D02*
X135514676Y-67752381D01*
X135514676Y-67752381D02*
X135438485Y-67790476D01*
X135438485Y-67790476D02*
X135400390Y-67828571D01*
X135400390Y-67828571D02*
X135362295Y-67904762D01*
X136162295Y-68514286D02*
X135362295Y-68514286D01*
X135857533Y-68590476D02*
X136162295Y-68819048D01*
X135628961Y-68819048D02*
X135933723Y-68514286D01*
D11*
X104594656Y-60590475D02*
X104642275Y-60733332D01*
X104642275Y-60733332D02*
X104642275Y-60971427D01*
X104642275Y-60971427D02*
X104594656Y-61066665D01*
X104594656Y-61066665D02*
X104547036Y-61114284D01*
X104547036Y-61114284D02*
X104451798Y-61161903D01*
X104451798Y-61161903D02*
X104356560Y-61161903D01*
X104356560Y-61161903D02*
X104261322Y-61114284D01*
X104261322Y-61114284D02*
X104213703Y-61066665D01*
X104213703Y-61066665D02*
X104166084Y-60971427D01*
X104166084Y-60971427D02*
X104118465Y-60780951D01*
X104118465Y-60780951D02*
X104070846Y-60685713D01*
X104070846Y-60685713D02*
X104023227Y-60638094D01*
X104023227Y-60638094D02*
X103927989Y-60590475D01*
X103927989Y-60590475D02*
X103832751Y-60590475D01*
X103832751Y-60590475D02*
X103737513Y-60638094D01*
X103737513Y-60638094D02*
X103689894Y-60685713D01*
X103689894Y-60685713D02*
X103642275Y-60780951D01*
X103642275Y-60780951D02*
X103642275Y-61019046D01*
X103642275Y-61019046D02*
X103689894Y-61161903D01*
X103975608Y-61590475D02*
X104975608Y-61590475D01*
X104023227Y-61590475D02*
X103975608Y-61685713D01*
X103975608Y-61685713D02*
X103975608Y-61876189D01*
X103975608Y-61876189D02*
X104023227Y-61971427D01*
X104023227Y-61971427D02*
X104070846Y-62019046D01*
X104070846Y-62019046D02*
X104166084Y-62066665D01*
X104166084Y-62066665D02*
X104451798Y-62066665D01*
X104451798Y-62066665D02*
X104547036Y-62019046D01*
X104547036Y-62019046D02*
X104594656Y-61971427D01*
X104594656Y-61971427D02*
X104642275Y-61876189D01*
X104642275Y-61876189D02*
X104642275Y-61685713D01*
X104642275Y-61685713D02*
X104594656Y-61590475D01*
X104594656Y-62876189D02*
X104642275Y-62780951D01*
X104642275Y-62780951D02*
X104642275Y-62590475D01*
X104642275Y-62590475D02*
X104594656Y-62495237D01*
X104594656Y-62495237D02*
X104499417Y-62447618D01*
X104499417Y-62447618D02*
X104118465Y-62447618D01*
X104118465Y-62447618D02*
X104023227Y-62495237D01*
X104023227Y-62495237D02*
X103975608Y-62590475D01*
X103975608Y-62590475D02*
X103975608Y-62780951D01*
X103975608Y-62780951D02*
X104023227Y-62876189D01*
X104023227Y-62876189D02*
X104118465Y-62923808D01*
X104118465Y-62923808D02*
X104213703Y-62923808D01*
X104213703Y-62923808D02*
X104308941Y-62447618D01*
X104594656Y-63780951D02*
X104642275Y-63685713D01*
X104642275Y-63685713D02*
X104642275Y-63495237D01*
X104642275Y-63495237D02*
X104594656Y-63399999D01*
X104594656Y-63399999D02*
X104547036Y-63352380D01*
X104547036Y-63352380D02*
X104451798Y-63304761D01*
X104451798Y-63304761D02*
X104166084Y-63304761D01*
X104166084Y-63304761D02*
X104070846Y-63352380D01*
X104070846Y-63352380D02*
X104023227Y-63399999D01*
X104023227Y-63399999D02*
X103975608Y-63495237D01*
X103975608Y-63495237D02*
X103975608Y-63685713D01*
X103975608Y-63685713D02*
X104023227Y-63780951D01*
X103975608Y-64066666D02*
X103975608Y-64447618D01*
X103642275Y-64209523D02*
X104499417Y-64209523D01*
X104499417Y-64209523D02*
X104594656Y-64257142D01*
X104594656Y-64257142D02*
X104642275Y-64352380D01*
X104642275Y-64352380D02*
X104642275Y-64447618D01*
X104642275Y-64780952D02*
X103975608Y-64780952D01*
X104166084Y-64780952D02*
X104070846Y-64828571D01*
X104070846Y-64828571D02*
X104023227Y-64876190D01*
X104023227Y-64876190D02*
X103975608Y-64971428D01*
X103975608Y-64971428D02*
X103975608Y-65066666D01*
X104642275Y-65542857D02*
X104594656Y-65447619D01*
X104594656Y-65447619D02*
X104547036Y-65400000D01*
X104547036Y-65400000D02*
X104451798Y-65352381D01*
X104451798Y-65352381D02*
X104166084Y-65352381D01*
X104166084Y-65352381D02*
X104070846Y-65400000D01*
X104070846Y-65400000D02*
X104023227Y-65447619D01*
X104023227Y-65447619D02*
X103975608Y-65542857D01*
X103975608Y-65542857D02*
X103975608Y-65685714D01*
X103975608Y-65685714D02*
X104023227Y-65780952D01*
X104023227Y-65780952D02*
X104070846Y-65828571D01*
X104070846Y-65828571D02*
X104166084Y-65876190D01*
X104166084Y-65876190D02*
X104451798Y-65876190D01*
X104451798Y-65876190D02*
X104547036Y-65828571D01*
X104547036Y-65828571D02*
X104594656Y-65780952D01*
X104594656Y-65780952D02*
X104642275Y-65685714D01*
X104642275Y-65685714D02*
X104642275Y-65542857D01*
X104642275Y-66304762D02*
X103975608Y-66304762D01*
X104070846Y-66304762D02*
X104023227Y-66352381D01*
X104023227Y-66352381D02*
X103975608Y-66447619D01*
X103975608Y-66447619D02*
X103975608Y-66590476D01*
X103975608Y-66590476D02*
X104023227Y-66685714D01*
X104023227Y-66685714D02*
X104118465Y-66733333D01*
X104118465Y-66733333D02*
X104642275Y-66733333D01*
X104118465Y-66733333D02*
X104023227Y-66780952D01*
X104023227Y-66780952D02*
X103975608Y-66876190D01*
X103975608Y-66876190D02*
X103975608Y-67019047D01*
X103975608Y-67019047D02*
X104023227Y-67114286D01*
X104023227Y-67114286D02*
X104118465Y-67161905D01*
X104118465Y-67161905D02*
X104642275Y-67161905D01*
X104594656Y-68019047D02*
X104642275Y-67923809D01*
X104642275Y-67923809D02*
X104642275Y-67733333D01*
X104642275Y-67733333D02*
X104594656Y-67638095D01*
X104594656Y-67638095D02*
X104499417Y-67590476D01*
X104499417Y-67590476D02*
X104118465Y-67590476D01*
X104118465Y-67590476D02*
X104023227Y-67638095D01*
X104023227Y-67638095D02*
X103975608Y-67733333D01*
X103975608Y-67733333D02*
X103975608Y-67923809D01*
X103975608Y-67923809D02*
X104023227Y-68019047D01*
X104023227Y-68019047D02*
X104118465Y-68066666D01*
X104118465Y-68066666D02*
X104213703Y-68066666D01*
X104213703Y-68066666D02*
X104308941Y-67590476D01*
X103975608Y-68352381D02*
X103975608Y-68733333D01*
X103642275Y-68495238D02*
X104499417Y-68495238D01*
X104499417Y-68495238D02*
X104594656Y-68542857D01*
X104594656Y-68542857D02*
X104642275Y-68638095D01*
X104642275Y-68638095D02*
X104642275Y-68733333D01*
X104594656Y-69447619D02*
X104642275Y-69352381D01*
X104642275Y-69352381D02*
X104642275Y-69161905D01*
X104642275Y-69161905D02*
X104594656Y-69066667D01*
X104594656Y-69066667D02*
X104499417Y-69019048D01*
X104499417Y-69019048D02*
X104118465Y-69019048D01*
X104118465Y-69019048D02*
X104023227Y-69066667D01*
X104023227Y-69066667D02*
X103975608Y-69161905D01*
X103975608Y-69161905D02*
X103975608Y-69352381D01*
X103975608Y-69352381D02*
X104023227Y-69447619D01*
X104023227Y-69447619D02*
X104118465Y-69495238D01*
X104118465Y-69495238D02*
X104213703Y-69495238D01*
X104213703Y-69495238D02*
X104308941Y-69019048D01*
X104642275Y-69923810D02*
X103975608Y-69923810D01*
X104166084Y-69923810D02*
X104070846Y-69971429D01*
X104070846Y-69971429D02*
X104023227Y-70019048D01*
X104023227Y-70019048D02*
X103975608Y-70114286D01*
X103975608Y-70114286D02*
X103975608Y-70209524D01*
X104118465Y-71638096D02*
X104166084Y-71780953D01*
X104166084Y-71780953D02*
X104213703Y-71828572D01*
X104213703Y-71828572D02*
X104308941Y-71876191D01*
X104308941Y-71876191D02*
X104451798Y-71876191D01*
X104451798Y-71876191D02*
X104547036Y-71828572D01*
X104547036Y-71828572D02*
X104594656Y-71780953D01*
X104594656Y-71780953D02*
X104642275Y-71685715D01*
X104642275Y-71685715D02*
X104642275Y-71304763D01*
X104642275Y-71304763D02*
X103642275Y-71304763D01*
X103642275Y-71304763D02*
X103642275Y-71638096D01*
X103642275Y-71638096D02*
X103689894Y-71733334D01*
X103689894Y-71733334D02*
X103737513Y-71780953D01*
X103737513Y-71780953D02*
X103832751Y-71828572D01*
X103832751Y-71828572D02*
X103927989Y-71828572D01*
X103927989Y-71828572D02*
X104023227Y-71780953D01*
X104023227Y-71780953D02*
X104070846Y-71733334D01*
X104070846Y-71733334D02*
X104118465Y-71638096D01*
X104118465Y-71638096D02*
X104118465Y-71304763D01*
X104642275Y-72447620D02*
X104594656Y-72352382D01*
X104594656Y-72352382D02*
X104547036Y-72304763D01*
X104547036Y-72304763D02*
X104451798Y-72257144D01*
X104451798Y-72257144D02*
X104166084Y-72257144D01*
X104166084Y-72257144D02*
X104070846Y-72304763D01*
X104070846Y-72304763D02*
X104023227Y-72352382D01*
X104023227Y-72352382D02*
X103975608Y-72447620D01*
X103975608Y-72447620D02*
X103975608Y-72590477D01*
X103975608Y-72590477D02*
X104023227Y-72685715D01*
X104023227Y-72685715D02*
X104070846Y-72733334D01*
X104070846Y-72733334D02*
X104166084Y-72780953D01*
X104166084Y-72780953D02*
X104451798Y-72780953D01*
X104451798Y-72780953D02*
X104547036Y-72733334D01*
X104547036Y-72733334D02*
X104594656Y-72685715D01*
X104594656Y-72685715D02*
X104642275Y-72590477D01*
X104642275Y-72590477D02*
X104642275Y-72447620D01*
X104642275Y-73638096D02*
X104118465Y-73638096D01*
X104118465Y-73638096D02*
X104023227Y-73590477D01*
X104023227Y-73590477D02*
X103975608Y-73495239D01*
X103975608Y-73495239D02*
X103975608Y-73304763D01*
X103975608Y-73304763D02*
X104023227Y-73209525D01*
X104594656Y-73638096D02*
X104642275Y-73542858D01*
X104642275Y-73542858D02*
X104642275Y-73304763D01*
X104642275Y-73304763D02*
X104594656Y-73209525D01*
X104594656Y-73209525D02*
X104499417Y-73161906D01*
X104499417Y-73161906D02*
X104404179Y-73161906D01*
X104404179Y-73161906D02*
X104308941Y-73209525D01*
X104308941Y-73209525D02*
X104261322Y-73304763D01*
X104261322Y-73304763D02*
X104261322Y-73542858D01*
X104261322Y-73542858D02*
X104213703Y-73638096D01*
X104642275Y-74114287D02*
X103975608Y-74114287D01*
X104166084Y-74114287D02*
X104070846Y-74161906D01*
X104070846Y-74161906D02*
X104023227Y-74209525D01*
X104023227Y-74209525D02*
X103975608Y-74304763D01*
X103975608Y-74304763D02*
X103975608Y-74400001D01*
X104642275Y-75161906D02*
X103642275Y-75161906D01*
X104594656Y-75161906D02*
X104642275Y-75066668D01*
X104642275Y-75066668D02*
X104642275Y-74876192D01*
X104642275Y-74876192D02*
X104594656Y-74780954D01*
X104594656Y-74780954D02*
X104547036Y-74733335D01*
X104547036Y-74733335D02*
X104451798Y-74685716D01*
X104451798Y-74685716D02*
X104166084Y-74685716D01*
X104166084Y-74685716D02*
X104070846Y-74733335D01*
X104070846Y-74733335D02*
X104023227Y-74780954D01*
X104023227Y-74780954D02*
X103975608Y-74876192D01*
X103975608Y-74876192D02*
X103975608Y-75066668D01*
X103975608Y-75066668D02*
X104023227Y-75161906D01*
X106252219Y-64757142D02*
X106252219Y-64280952D01*
X106252219Y-64280952D02*
X105252219Y-64280952D01*
X105728409Y-65090476D02*
X105728409Y-65423809D01*
X106252219Y-65566666D02*
X106252219Y-65090476D01*
X106252219Y-65090476D02*
X105252219Y-65090476D01*
X105252219Y-65090476D02*
X105252219Y-65566666D01*
X106252219Y-65995238D02*
X105252219Y-65995238D01*
X105252219Y-65995238D02*
X105252219Y-66233333D01*
X105252219Y-66233333D02*
X105299838Y-66376190D01*
X105299838Y-66376190D02*
X105395076Y-66471428D01*
X105395076Y-66471428D02*
X105490314Y-66519047D01*
X105490314Y-66519047D02*
X105680790Y-66566666D01*
X105680790Y-66566666D02*
X105823647Y-66566666D01*
X105823647Y-66566666D02*
X106014123Y-66519047D01*
X106014123Y-66519047D02*
X106109361Y-66471428D01*
X106109361Y-66471428D02*
X106204600Y-66376190D01*
X106204600Y-66376190D02*
X106252219Y-66233333D01*
X106252219Y-66233333D02*
X106252219Y-65995238D01*
X106252219Y-67757143D02*
X105252219Y-67757143D01*
X105633171Y-67757143D02*
X105585552Y-67852381D01*
X105585552Y-67852381D02*
X105585552Y-68042857D01*
X105585552Y-68042857D02*
X105633171Y-68138095D01*
X105633171Y-68138095D02*
X105680790Y-68185714D01*
X105680790Y-68185714D02*
X105776028Y-68233333D01*
X105776028Y-68233333D02*
X106061742Y-68233333D01*
X106061742Y-68233333D02*
X106156980Y-68185714D01*
X106156980Y-68185714D02*
X106204600Y-68138095D01*
X106204600Y-68138095D02*
X106252219Y-68042857D01*
X106252219Y-68042857D02*
X106252219Y-67852381D01*
X106252219Y-67852381D02*
X106204600Y-67757143D01*
X106252219Y-68804762D02*
X106204600Y-68709524D01*
X106204600Y-68709524D02*
X106156980Y-68661905D01*
X106156980Y-68661905D02*
X106061742Y-68614286D01*
X106061742Y-68614286D02*
X105776028Y-68614286D01*
X105776028Y-68614286D02*
X105680790Y-68661905D01*
X105680790Y-68661905D02*
X105633171Y-68709524D01*
X105633171Y-68709524D02*
X105585552Y-68804762D01*
X105585552Y-68804762D02*
X105585552Y-68947619D01*
X105585552Y-68947619D02*
X105633171Y-69042857D01*
X105633171Y-69042857D02*
X105680790Y-69090476D01*
X105680790Y-69090476D02*
X105776028Y-69138095D01*
X105776028Y-69138095D02*
X106061742Y-69138095D01*
X106061742Y-69138095D02*
X106156980Y-69090476D01*
X106156980Y-69090476D02*
X106204600Y-69042857D01*
X106204600Y-69042857D02*
X106252219Y-68947619D01*
X106252219Y-68947619D02*
X106252219Y-68804762D01*
X106252219Y-69995238D02*
X105728409Y-69995238D01*
X105728409Y-69995238D02*
X105633171Y-69947619D01*
X105633171Y-69947619D02*
X105585552Y-69852381D01*
X105585552Y-69852381D02*
X105585552Y-69661905D01*
X105585552Y-69661905D02*
X105633171Y-69566667D01*
X106204600Y-69995238D02*
X106252219Y-69900000D01*
X106252219Y-69900000D02*
X106252219Y-69661905D01*
X106252219Y-69661905D02*
X106204600Y-69566667D01*
X106204600Y-69566667D02*
X106109361Y-69519048D01*
X106109361Y-69519048D02*
X106014123Y-69519048D01*
X106014123Y-69519048D02*
X105918885Y-69566667D01*
X105918885Y-69566667D02*
X105871266Y-69661905D01*
X105871266Y-69661905D02*
X105871266Y-69900000D01*
X105871266Y-69900000D02*
X105823647Y-69995238D01*
X106252219Y-70471429D02*
X105585552Y-70471429D01*
X105776028Y-70471429D02*
X105680790Y-70519048D01*
X105680790Y-70519048D02*
X105633171Y-70566667D01*
X105633171Y-70566667D02*
X105585552Y-70661905D01*
X105585552Y-70661905D02*
X105585552Y-70757143D01*
X106252219Y-71519048D02*
X105252219Y-71519048D01*
X106204600Y-71519048D02*
X106252219Y-71423810D01*
X106252219Y-71423810D02*
X106252219Y-71233334D01*
X106252219Y-71233334D02*
X106204600Y-71138096D01*
X106204600Y-71138096D02*
X106156980Y-71090477D01*
X106156980Y-71090477D02*
X106061742Y-71042858D01*
X106061742Y-71042858D02*
X105776028Y-71042858D01*
X105776028Y-71042858D02*
X105680790Y-71090477D01*
X105680790Y-71090477D02*
X105633171Y-71138096D01*
X105633171Y-71138096D02*
X105585552Y-71233334D01*
X105585552Y-71233334D02*
X105585552Y-71423810D01*
X105585552Y-71423810D02*
X105633171Y-71519048D01*
X107195496Y-62376190D02*
X107862163Y-62614285D01*
X107862163Y-62614285D02*
X107195496Y-62852380D01*
X107862163Y-63757142D02*
X107862163Y-63185714D01*
X107862163Y-63471428D02*
X106862163Y-63471428D01*
X106862163Y-63471428D02*
X107005020Y-63376190D01*
X107005020Y-63376190D02*
X107100258Y-63280952D01*
X107100258Y-63280952D02*
X107147877Y-63185714D01*
X107766924Y-64185714D02*
X107814544Y-64233333D01*
X107814544Y-64233333D02*
X107862163Y-64185714D01*
X107862163Y-64185714D02*
X107814544Y-64138095D01*
X107814544Y-64138095D02*
X107766924Y-64185714D01*
X107766924Y-64185714D02*
X107862163Y-64185714D01*
X106862163Y-64852380D02*
X106862163Y-64947618D01*
X106862163Y-64947618D02*
X106909782Y-65042856D01*
X106909782Y-65042856D02*
X106957401Y-65090475D01*
X106957401Y-65090475D02*
X107052639Y-65138094D01*
X107052639Y-65138094D02*
X107243115Y-65185713D01*
X107243115Y-65185713D02*
X107481210Y-65185713D01*
X107481210Y-65185713D02*
X107671686Y-65138094D01*
X107671686Y-65138094D02*
X107766924Y-65090475D01*
X107766924Y-65090475D02*
X107814544Y-65042856D01*
X107814544Y-65042856D02*
X107862163Y-64947618D01*
X107862163Y-64947618D02*
X107862163Y-64852380D01*
X107862163Y-64852380D02*
X107814544Y-64757142D01*
X107814544Y-64757142D02*
X107766924Y-64709523D01*
X107766924Y-64709523D02*
X107671686Y-64661904D01*
X107671686Y-64661904D02*
X107481210Y-64614285D01*
X107481210Y-64614285D02*
X107243115Y-64614285D01*
X107243115Y-64614285D02*
X107052639Y-64661904D01*
X107052639Y-64661904D02*
X106957401Y-64709523D01*
X106957401Y-64709523D02*
X106909782Y-64757142D01*
X106909782Y-64757142D02*
X106862163Y-64852380D01*
X107576448Y-66328571D02*
X107576448Y-66804761D01*
X107862163Y-66233333D02*
X106862163Y-66566666D01*
X106862163Y-66566666D02*
X107862163Y-66899999D01*
X107195496Y-67233333D02*
X108195496Y-67233333D01*
X107243115Y-67233333D02*
X107195496Y-67328571D01*
X107195496Y-67328571D02*
X107195496Y-67519047D01*
X107195496Y-67519047D02*
X107243115Y-67614285D01*
X107243115Y-67614285D02*
X107290734Y-67661904D01*
X107290734Y-67661904D02*
X107385972Y-67709523D01*
X107385972Y-67709523D02*
X107671686Y-67709523D01*
X107671686Y-67709523D02*
X107766924Y-67661904D01*
X107766924Y-67661904D02*
X107814544Y-67614285D01*
X107814544Y-67614285D02*
X107862163Y-67519047D01*
X107862163Y-67519047D02*
X107862163Y-67328571D01*
X107862163Y-67328571D02*
X107814544Y-67233333D01*
X107862163Y-68138095D02*
X107195496Y-68138095D01*
X107385972Y-68138095D02*
X107290734Y-68185714D01*
X107290734Y-68185714D02*
X107243115Y-68233333D01*
X107243115Y-68233333D02*
X107195496Y-68328571D01*
X107195496Y-68328571D02*
X107195496Y-68423809D01*
X107766924Y-68757143D02*
X107814544Y-68804762D01*
X107814544Y-68804762D02*
X107862163Y-68757143D01*
X107862163Y-68757143D02*
X107814544Y-68709524D01*
X107814544Y-68709524D02*
X107766924Y-68757143D01*
X107766924Y-68757143D02*
X107862163Y-68757143D01*
X106957401Y-69947619D02*
X106909782Y-69995238D01*
X106909782Y-69995238D02*
X106862163Y-70090476D01*
X106862163Y-70090476D02*
X106862163Y-70328571D01*
X106862163Y-70328571D02*
X106909782Y-70423809D01*
X106909782Y-70423809D02*
X106957401Y-70471428D01*
X106957401Y-70471428D02*
X107052639Y-70519047D01*
X107052639Y-70519047D02*
X107147877Y-70519047D01*
X107147877Y-70519047D02*
X107290734Y-70471428D01*
X107290734Y-70471428D02*
X107862163Y-69900000D01*
X107862163Y-69900000D02*
X107862163Y-70519047D01*
X106862163Y-71138095D02*
X106862163Y-71233333D01*
X106862163Y-71233333D02*
X106909782Y-71328571D01*
X106909782Y-71328571D02*
X106957401Y-71376190D01*
X106957401Y-71376190D02*
X107052639Y-71423809D01*
X107052639Y-71423809D02*
X107243115Y-71471428D01*
X107243115Y-71471428D02*
X107481210Y-71471428D01*
X107481210Y-71471428D02*
X107671686Y-71423809D01*
X107671686Y-71423809D02*
X107766924Y-71376190D01*
X107766924Y-71376190D02*
X107814544Y-71328571D01*
X107814544Y-71328571D02*
X107862163Y-71233333D01*
X107862163Y-71233333D02*
X107862163Y-71138095D01*
X107862163Y-71138095D02*
X107814544Y-71042857D01*
X107814544Y-71042857D02*
X107766924Y-70995238D01*
X107766924Y-70995238D02*
X107671686Y-70947619D01*
X107671686Y-70947619D02*
X107481210Y-70900000D01*
X107481210Y-70900000D02*
X107243115Y-70900000D01*
X107243115Y-70900000D02*
X107052639Y-70947619D01*
X107052639Y-70947619D02*
X106957401Y-70995238D01*
X106957401Y-70995238D02*
X106909782Y-71042857D01*
X106909782Y-71042857D02*
X106862163Y-71138095D01*
X106957401Y-71852381D02*
X106909782Y-71900000D01*
X106909782Y-71900000D02*
X106862163Y-71995238D01*
X106862163Y-71995238D02*
X106862163Y-72233333D01*
X106862163Y-72233333D02*
X106909782Y-72328571D01*
X106909782Y-72328571D02*
X106957401Y-72376190D01*
X106957401Y-72376190D02*
X107052639Y-72423809D01*
X107052639Y-72423809D02*
X107147877Y-72423809D01*
X107147877Y-72423809D02*
X107290734Y-72376190D01*
X107290734Y-72376190D02*
X107862163Y-71804762D01*
X107862163Y-71804762D02*
X107862163Y-72423809D01*
X106862163Y-73328571D02*
X106862163Y-72852381D01*
X106862163Y-72852381D02*
X107338353Y-72804762D01*
X107338353Y-72804762D02*
X107290734Y-72852381D01*
X107290734Y-72852381D02*
X107243115Y-72947619D01*
X107243115Y-72947619D02*
X107243115Y-73185714D01*
X107243115Y-73185714D02*
X107290734Y-73280952D01*
X107290734Y-73280952D02*
X107338353Y-73328571D01*
X107338353Y-73328571D02*
X107433591Y-73376190D01*
X107433591Y-73376190D02*
X107671686Y-73376190D01*
X107671686Y-73376190D02*
X107766924Y-73328571D01*
X107766924Y-73328571D02*
X107814544Y-73280952D01*
X107814544Y-73280952D02*
X107862163Y-73185714D01*
X107862163Y-73185714D02*
X107862163Y-72947619D01*
X107862163Y-72947619D02*
X107814544Y-72852381D01*
X107814544Y-72852381D02*
X107766924Y-72804762D01*
D10*
X108207533Y-105367618D02*
X108169438Y-105405713D01*
X108169438Y-105405713D02*
X108131342Y-105481904D01*
X108131342Y-105481904D02*
X108207533Y-105634285D01*
X108207533Y-105634285D02*
X108169438Y-105710475D01*
X108169438Y-105710475D02*
X108131342Y-105748570D01*
X107978961Y-106396190D02*
X108512295Y-106396190D01*
X107674200Y-106205714D02*
X108245628Y-106015237D01*
X108245628Y-106015237D02*
X108245628Y-106510476D01*
X107712295Y-106739047D02*
X107712295Y-107272381D01*
X107712295Y-107272381D02*
X108512295Y-106929523D01*
X107712295Y-107729524D02*
X107712295Y-107805714D01*
X107712295Y-107805714D02*
X107750390Y-107881905D01*
X107750390Y-107881905D02*
X107788485Y-107920000D01*
X107788485Y-107920000D02*
X107864676Y-107958095D01*
X107864676Y-107958095D02*
X108017057Y-107996190D01*
X108017057Y-107996190D02*
X108207533Y-107996190D01*
X108207533Y-107996190D02*
X108359914Y-107958095D01*
X108359914Y-107958095D02*
X108436104Y-107920000D01*
X108436104Y-107920000D02*
X108474200Y-107881905D01*
X108474200Y-107881905D02*
X108512295Y-107805714D01*
X108512295Y-107805714D02*
X108512295Y-107729524D01*
X108512295Y-107729524D02*
X108474200Y-107653333D01*
X108474200Y-107653333D02*
X108436104Y-107615238D01*
X108436104Y-107615238D02*
X108359914Y-107577143D01*
X108359914Y-107577143D02*
X108207533Y-107539047D01*
X108207533Y-107539047D02*
X108017057Y-107539047D01*
X108017057Y-107539047D02*
X107864676Y-107577143D01*
X107864676Y-107577143D02*
X107788485Y-107615238D01*
X107788485Y-107615238D02*
X107750390Y-107653333D01*
X107750390Y-107653333D02*
X107712295Y-107729524D01*
X144280952Y-67512295D02*
X143785714Y-67512295D01*
X143785714Y-67512295D02*
X144052380Y-67817057D01*
X144052380Y-67817057D02*
X143938095Y-67817057D01*
X143938095Y-67817057D02*
X143861904Y-67855152D01*
X143861904Y-67855152D02*
X143823809Y-67893247D01*
X143823809Y-67893247D02*
X143785714Y-67969438D01*
X143785714Y-67969438D02*
X143785714Y-68159914D01*
X143785714Y-68159914D02*
X143823809Y-68236104D01*
X143823809Y-68236104D02*
X143861904Y-68274200D01*
X143861904Y-68274200D02*
X143938095Y-68312295D01*
X143938095Y-68312295D02*
X144166666Y-68312295D01*
X144166666Y-68312295D02*
X144242857Y-68274200D01*
X144242857Y-68274200D02*
X144280952Y-68236104D01*
X143442856Y-68236104D02*
X143404761Y-68274200D01*
X143404761Y-68274200D02*
X143442856Y-68312295D01*
X143442856Y-68312295D02*
X143480952Y-68274200D01*
X143480952Y-68274200D02*
X143442856Y-68236104D01*
X143442856Y-68236104D02*
X143442856Y-68312295D01*
X143138095Y-67512295D02*
X142642857Y-67512295D01*
X142642857Y-67512295D02*
X142909523Y-67817057D01*
X142909523Y-67817057D02*
X142795238Y-67817057D01*
X142795238Y-67817057D02*
X142719047Y-67855152D01*
X142719047Y-67855152D02*
X142680952Y-67893247D01*
X142680952Y-67893247D02*
X142642857Y-67969438D01*
X142642857Y-67969438D02*
X142642857Y-68159914D01*
X142642857Y-68159914D02*
X142680952Y-68236104D01*
X142680952Y-68236104D02*
X142719047Y-68274200D01*
X142719047Y-68274200D02*
X142795238Y-68312295D01*
X142795238Y-68312295D02*
X143023809Y-68312295D01*
X143023809Y-68312295D02*
X143100000Y-68274200D01*
X143100000Y-68274200D02*
X143138095Y-68236104D01*
X142414285Y-67512295D02*
X142147618Y-68312295D01*
X142147618Y-68312295D02*
X141880952Y-67512295D01*
X143609524Y-70000389D02*
X143685714Y-69962294D01*
X143685714Y-69962294D02*
X143800000Y-69962294D01*
X143800000Y-69962294D02*
X143914286Y-70000389D01*
X143914286Y-70000389D02*
X143990476Y-70076579D01*
X143990476Y-70076579D02*
X144028571Y-70152770D01*
X144028571Y-70152770D02*
X144066667Y-70305151D01*
X144066667Y-70305151D02*
X144066667Y-70419437D01*
X144066667Y-70419437D02*
X144028571Y-70571818D01*
X144028571Y-70571818D02*
X143990476Y-70648008D01*
X143990476Y-70648008D02*
X143914286Y-70724199D01*
X143914286Y-70724199D02*
X143800000Y-70762294D01*
X143800000Y-70762294D02*
X143723809Y-70762294D01*
X143723809Y-70762294D02*
X143609524Y-70724199D01*
X143609524Y-70724199D02*
X143571428Y-70686103D01*
X143571428Y-70686103D02*
X143571428Y-70419437D01*
X143571428Y-70419437D02*
X143723809Y-70419437D01*
X143228571Y-70762294D02*
X143228571Y-69962294D01*
X143228571Y-69962294D02*
X142771428Y-70762294D01*
X142771428Y-70762294D02*
X142771428Y-69962294D01*
X142390476Y-70762294D02*
X142390476Y-69962294D01*
X142390476Y-69962294D02*
X142200000Y-69962294D01*
X142200000Y-69962294D02*
X142085714Y-70000389D01*
X142085714Y-70000389D02*
X142009524Y-70076579D01*
X142009524Y-70076579D02*
X141971429Y-70152770D01*
X141971429Y-70152770D02*
X141933333Y-70305151D01*
X141933333Y-70305151D02*
X141933333Y-70419437D01*
X141933333Y-70419437D02*
X141971429Y-70571818D01*
X141971429Y-70571818D02*
X142009524Y-70648008D01*
X142009524Y-70648008D02*
X142085714Y-70724199D01*
X142085714Y-70724199D02*
X142200000Y-70762294D01*
X142200000Y-70762294D02*
X142390476Y-70762294D01*
X115407533Y-65947618D02*
X115369438Y-65985713D01*
X115369438Y-65985713D02*
X115331342Y-66061904D01*
X115331342Y-66061904D02*
X115407533Y-66214285D01*
X115407533Y-66214285D02*
X115369438Y-66290475D01*
X115369438Y-66290475D02*
X115331342Y-66328570D01*
X115178961Y-66976190D02*
X115712295Y-66976190D01*
X114874200Y-66785714D02*
X115445628Y-66595237D01*
X115445628Y-66595237D02*
X115445628Y-67090476D01*
X114912295Y-67319047D02*
X114912295Y-67852381D01*
X114912295Y-67852381D02*
X115712295Y-67509523D01*
X114912295Y-68309524D02*
X114912295Y-68385714D01*
X114912295Y-68385714D02*
X114950390Y-68461905D01*
X114950390Y-68461905D02*
X114988485Y-68500000D01*
X114988485Y-68500000D02*
X115064676Y-68538095D01*
X115064676Y-68538095D02*
X115217057Y-68576190D01*
X115217057Y-68576190D02*
X115407533Y-68576190D01*
X115407533Y-68576190D02*
X115559914Y-68538095D01*
X115559914Y-68538095D02*
X115636104Y-68500000D01*
X115636104Y-68500000D02*
X115674200Y-68461905D01*
X115674200Y-68461905D02*
X115712295Y-68385714D01*
X115712295Y-68385714D02*
X115712295Y-68309524D01*
X115712295Y-68309524D02*
X115674200Y-68233333D01*
X115674200Y-68233333D02*
X115636104Y-68195238D01*
X115636104Y-68195238D02*
X115559914Y-68157143D01*
X115559914Y-68157143D02*
X115407533Y-68119047D01*
X115407533Y-68119047D02*
X115217057Y-68119047D01*
X115217057Y-68119047D02*
X115064676Y-68157143D01*
X115064676Y-68157143D02*
X114988485Y-68195238D01*
X114988485Y-68195238D02*
X114950390Y-68233333D01*
X114950390Y-68233333D02*
X114912295Y-68309524D01*
X137857533Y-105347617D02*
X137819438Y-105385712D01*
X137819438Y-105385712D02*
X137781342Y-105461903D01*
X137781342Y-105461903D02*
X137857533Y-105614284D01*
X137857533Y-105614284D02*
X137819438Y-105690474D01*
X137819438Y-105690474D02*
X137781342Y-105728569D01*
X137628961Y-106376189D02*
X138162295Y-106376189D01*
X137324200Y-106185713D02*
X137895628Y-105995236D01*
X137895628Y-105995236D02*
X137895628Y-106490475D01*
X137362295Y-106719046D02*
X137362295Y-107252380D01*
X137362295Y-107252380D02*
X138162295Y-106909522D01*
X137362295Y-107709523D02*
X137362295Y-107785713D01*
X137362295Y-107785713D02*
X137400390Y-107861904D01*
X137400390Y-107861904D02*
X137438485Y-107899999D01*
X137438485Y-107899999D02*
X137514676Y-107938094D01*
X137514676Y-107938094D02*
X137667057Y-107976189D01*
X137667057Y-107976189D02*
X137857533Y-107976189D01*
X137857533Y-107976189D02*
X138009914Y-107938094D01*
X138009914Y-107938094D02*
X138086104Y-107899999D01*
X138086104Y-107899999D02*
X138124200Y-107861904D01*
X138124200Y-107861904D02*
X138162295Y-107785713D01*
X138162295Y-107785713D02*
X138162295Y-107709523D01*
X138162295Y-107709523D02*
X138124200Y-107633332D01*
X138124200Y-107633332D02*
X138086104Y-107595237D01*
X138086104Y-107595237D02*
X138009914Y-107557142D01*
X138009914Y-107557142D02*
X137857533Y-107519046D01*
X137857533Y-107519046D02*
X137667057Y-107519046D01*
X137667057Y-107519046D02*
X137514676Y-107557142D01*
X137514676Y-107557142D02*
X137438485Y-107595237D01*
X137438485Y-107595237D02*
X137400390Y-107633332D01*
X137400390Y-107633332D02*
X137362295Y-107709523D01*
X141507533Y-85954762D02*
X141469438Y-85992857D01*
X141469438Y-85992857D02*
X141431342Y-86069048D01*
X141431342Y-86069048D02*
X141507533Y-86221429D01*
X141507533Y-86221429D02*
X141469438Y-86297619D01*
X141469438Y-86297619D02*
X141431342Y-86335714D01*
X141812295Y-87059524D02*
X141812295Y-86602381D01*
X141812295Y-86830953D02*
X141012295Y-86830953D01*
X141012295Y-86830953D02*
X141126580Y-86754762D01*
X141126580Y-86754762D02*
X141202771Y-86678572D01*
X141202771Y-86678572D02*
X141240866Y-86602381D01*
X141012295Y-87554763D02*
X141012295Y-87630953D01*
X141012295Y-87630953D02*
X141050390Y-87707144D01*
X141050390Y-87707144D02*
X141088485Y-87745239D01*
X141088485Y-87745239D02*
X141164676Y-87783334D01*
X141164676Y-87783334D02*
X141317057Y-87821429D01*
X141317057Y-87821429D02*
X141507533Y-87821429D01*
X141507533Y-87821429D02*
X141659914Y-87783334D01*
X141659914Y-87783334D02*
X141736104Y-87745239D01*
X141736104Y-87745239D02*
X141774200Y-87707144D01*
X141774200Y-87707144D02*
X141812295Y-87630953D01*
X141812295Y-87630953D02*
X141812295Y-87554763D01*
X141812295Y-87554763D02*
X141774200Y-87478572D01*
X141774200Y-87478572D02*
X141736104Y-87440477D01*
X141736104Y-87440477D02*
X141659914Y-87402382D01*
X141659914Y-87402382D02*
X141507533Y-87364286D01*
X141507533Y-87364286D02*
X141317057Y-87364286D01*
X141317057Y-87364286D02*
X141164676Y-87402382D01*
X141164676Y-87402382D02*
X141088485Y-87440477D01*
X141088485Y-87440477D02*
X141050390Y-87478572D01*
X141050390Y-87478572D02*
X141012295Y-87554763D01*
X141812295Y-88164287D02*
X141012295Y-88164287D01*
X141507533Y-88240477D02*
X141812295Y-88469049D01*
X141278961Y-88469049D02*
X141583723Y-88164287D01*
X101450000Y-59150000D02*
X110000000Y-59150000D01*
X110000000Y-76750000D01*
X101450000Y-76750000D01*
X101450000Y-59150000D01*
X123235239Y-69630059D02*
X123330477Y-69582440D01*
X123330477Y-69582440D02*
X123425715Y-69487202D01*
X123425715Y-69487202D02*
X123568572Y-69344344D01*
X123568572Y-69344344D02*
X123663810Y-69296725D01*
X123663810Y-69296725D02*
X123759048Y-69296725D01*
X123711429Y-69534821D02*
X123806667Y-69487202D01*
X123806667Y-69487202D02*
X123901905Y-69391963D01*
X123901905Y-69391963D02*
X123949524Y-69201487D01*
X123949524Y-69201487D02*
X123949524Y-68868154D01*
X123949524Y-68868154D02*
X123901905Y-68677678D01*
X123901905Y-68677678D02*
X123806667Y-68582440D01*
X123806667Y-68582440D02*
X123711429Y-68534821D01*
X123711429Y-68534821D02*
X123520953Y-68534821D01*
X123520953Y-68534821D02*
X123425715Y-68582440D01*
X123425715Y-68582440D02*
X123330477Y-68677678D01*
X123330477Y-68677678D02*
X123282858Y-68868154D01*
X123282858Y-68868154D02*
X123282858Y-69201487D01*
X123282858Y-69201487D02*
X123330477Y-69391963D01*
X123330477Y-69391963D02*
X123425715Y-69487202D01*
X123425715Y-69487202D02*
X123520953Y-69534821D01*
X123520953Y-69534821D02*
X123711429Y-69534821D01*
X122378096Y-68534821D02*
X122854286Y-68534821D01*
X122854286Y-68534821D02*
X122901905Y-69011011D01*
X122901905Y-69011011D02*
X122854286Y-68963392D01*
X122854286Y-68963392D02*
X122759048Y-68915773D01*
X122759048Y-68915773D02*
X122520953Y-68915773D01*
X122520953Y-68915773D02*
X122425715Y-68963392D01*
X122425715Y-68963392D02*
X122378096Y-69011011D01*
X122378096Y-69011011D02*
X122330477Y-69106249D01*
X122330477Y-69106249D02*
X122330477Y-69344344D01*
X122330477Y-69344344D02*
X122378096Y-69439582D01*
X122378096Y-69439582D02*
X122425715Y-69487202D01*
X122425715Y-69487202D02*
X122520953Y-69534821D01*
X122520953Y-69534821D02*
X122759048Y-69534821D01*
X122759048Y-69534821D02*
X122854286Y-69487202D01*
X122854286Y-69487202D02*
X122901905Y-69439582D01*
X130455240Y-102570057D02*
X130550478Y-102522438D01*
X130550478Y-102522438D02*
X130645716Y-102427200D01*
X130645716Y-102427200D02*
X130788573Y-102284342D01*
X130788573Y-102284342D02*
X130883811Y-102236723D01*
X130883811Y-102236723D02*
X130979049Y-102236723D01*
X130931430Y-102474819D02*
X131026668Y-102427200D01*
X131026668Y-102427200D02*
X131121906Y-102331961D01*
X131121906Y-102331961D02*
X131169525Y-102141485D01*
X131169525Y-102141485D02*
X131169525Y-101808152D01*
X131169525Y-101808152D02*
X131121906Y-101617676D01*
X131121906Y-101617676D02*
X131026668Y-101522438D01*
X131026668Y-101522438D02*
X130931430Y-101474819D01*
X130931430Y-101474819D02*
X130740954Y-101474819D01*
X130740954Y-101474819D02*
X130645716Y-101522438D01*
X130645716Y-101522438D02*
X130550478Y-101617676D01*
X130550478Y-101617676D02*
X130502859Y-101808152D01*
X130502859Y-101808152D02*
X130502859Y-102141485D01*
X130502859Y-102141485D02*
X130550478Y-102331961D01*
X130550478Y-102331961D02*
X130645716Y-102427200D01*
X130645716Y-102427200D02*
X130740954Y-102474819D01*
X130740954Y-102474819D02*
X130931430Y-102474819D01*
X129645716Y-101808152D02*
X129645716Y-102474819D01*
X129883811Y-101427200D02*
X130121906Y-102141485D01*
X130121906Y-102141485D02*
X129502859Y-102141485D01*
X115505238Y-102270057D02*
X115600476Y-102222438D01*
X115600476Y-102222438D02*
X115695714Y-102127200D01*
X115695714Y-102127200D02*
X115838571Y-101984342D01*
X115838571Y-101984342D02*
X115933809Y-101936723D01*
X115933809Y-101936723D02*
X116029047Y-101936723D01*
X115981428Y-102174819D02*
X116076666Y-102127200D01*
X116076666Y-102127200D02*
X116171904Y-102031961D01*
X116171904Y-102031961D02*
X116219523Y-101841485D01*
X116219523Y-101841485D02*
X116219523Y-101508152D01*
X116219523Y-101508152D02*
X116171904Y-101317676D01*
X116171904Y-101317676D02*
X116076666Y-101222438D01*
X116076666Y-101222438D02*
X115981428Y-101174819D01*
X115981428Y-101174819D02*
X115790952Y-101174819D01*
X115790952Y-101174819D02*
X115695714Y-101222438D01*
X115695714Y-101222438D02*
X115600476Y-101317676D01*
X115600476Y-101317676D02*
X115552857Y-101508152D01*
X115552857Y-101508152D02*
X115552857Y-101841485D01*
X115552857Y-101841485D02*
X115600476Y-102031961D01*
X115600476Y-102031961D02*
X115695714Y-102127200D01*
X115695714Y-102127200D02*
X115790952Y-102174819D01*
X115790952Y-102174819D02*
X115981428Y-102174819D01*
X115219523Y-101174819D02*
X114600476Y-101174819D01*
X114600476Y-101174819D02*
X114933809Y-101555771D01*
X114933809Y-101555771D02*
X114790952Y-101555771D01*
X114790952Y-101555771D02*
X114695714Y-101603390D01*
X114695714Y-101603390D02*
X114648095Y-101651009D01*
X114648095Y-101651009D02*
X114600476Y-101746247D01*
X114600476Y-101746247D02*
X114600476Y-101984342D01*
X114600476Y-101984342D02*
X114648095Y-102079580D01*
X114648095Y-102079580D02*
X114695714Y-102127200D01*
X114695714Y-102127200D02*
X114790952Y-102174819D01*
X114790952Y-102174819D02*
X115076666Y-102174819D01*
X115076666Y-102174819D02*
X115171904Y-102127200D01*
X115171904Y-102127200D02*
X115219523Y-102079580D01*
D12*
X139529999Y-82180000D02*
X140010000Y-82180001D01*
X139530000Y-92319998D02*
X139529999Y-82180000D01*
X140010001Y-92319997D02*
X139530000Y-92319998D01*
X142889999Y-92320000D02*
X143369999Y-92320001D01*
X143369999Y-92320001D02*
X143370000Y-82180000D01*
X143370000Y-82180000D02*
X142890000Y-82180001D01*
X124949999Y-75120000D02*
X121350000Y-75120000D01*
X120794542Y-72171629D02*
G75*
G02*
X122040000Y-70920000I2355458J-1098371D01*
G01*
X121350000Y-75120000D02*
G75*
G02*
X120825816Y-74392794I1800000J1850000D01*
G01*
X124290000Y-70920000D02*
G75*
G02*
X125517199Y-72166158I-1140000J-2350000D01*
G01*
X125474184Y-74392795D02*
G75*
G02*
X124949999Y-75120000I-2324154J1122775D01*
G01*
X135679999Y-101630000D02*
X136160000Y-101630001D01*
X135680000Y-111769998D02*
X135679999Y-101630000D01*
X136160001Y-111769997D02*
X135680000Y-111769998D01*
X139039999Y-111770000D02*
X139519999Y-111770001D01*
X139519999Y-111770001D02*
X139520000Y-101630000D01*
X139520000Y-101630000D02*
X139040000Y-101630001D01*
X133880000Y-72670000D02*
X134360002Y-72669999D01*
X133880001Y-62529999D02*
X133880000Y-72670000D01*
X134360002Y-62529999D02*
X133880001Y-62529999D01*
X137239998Y-62530001D02*
X137720001Y-62530001D01*
X137720001Y-62530001D02*
X137720001Y-72670000D01*
X137720001Y-72670000D02*
X137240000Y-72669999D01*
D13*
G36*
X133839498Y-90093261D02*
G01*
X133819593Y-90113168D01*
X133799686Y-90093260D01*
X133819593Y-90073354D01*
X133839498Y-90093261D01*
G37*
G36*
X134635737Y-83524294D02*
G01*
X134615832Y-83544200D01*
X134595926Y-83524296D01*
X134615832Y-83504388D01*
X134635737Y-83524294D01*
G37*
G36*
X134914421Y-87465673D02*
G01*
X134894515Y-87485580D01*
X134874609Y-87465674D01*
X134894515Y-87445768D01*
X134914421Y-87465673D01*
G37*
G36*
X131331348Y-90152979D02*
G01*
X131328476Y-90174054D01*
X131304808Y-90179519D01*
X131300043Y-90173684D01*
X131304808Y-90126436D01*
X131316783Y-90120207D01*
X131331348Y-90152979D01*
G37*
G36*
X133029991Y-90166249D02*
G01*
X133036218Y-90178223D01*
X133003449Y-90192790D01*
X132982373Y-90189918D01*
X132976906Y-90166249D01*
X132982743Y-90161484D01*
X133029991Y-90166249D01*
G37*
G36*
X135033858Y-90152979D02*
G01*
X135030982Y-90174054D01*
X135007314Y-90179519D01*
X135002550Y-90173685D01*
X135007315Y-90126436D01*
X135019291Y-90120208D01*
X135033858Y-90152979D01*
G37*
G36*
X134734867Y-87803424D02*
G01*
X134738809Y-87824299D01*
X134697806Y-87843888D01*
X134677704Y-87843108D01*
X134637496Y-87824303D01*
X134672801Y-87785869D01*
X134687154Y-87780459D01*
X134734867Y-87803424D01*
G37*
G36*
X134895763Y-87274169D02*
G01*
X134944280Y-87316377D01*
X134932216Y-87350908D01*
X134854703Y-87366144D01*
X134784725Y-87355094D01*
X134765126Y-87316381D01*
X134784965Y-87290099D01*
X134854703Y-87266614D01*
X134895763Y-87274169D01*
G37*
G36*
X123053756Y-82559413D02*
G01*
X123151179Y-82615177D01*
X123200671Y-82701392D01*
X123193576Y-82798025D01*
X123121236Y-82885044D01*
X123039365Y-82932971D01*
X122957632Y-82938326D01*
X122860270Y-82885046D01*
X122816784Y-82846577D01*
X122770471Y-82749134D01*
X122786579Y-82652469D01*
X122857586Y-82578438D01*
X122975966Y-82548903D01*
X123053756Y-82559413D01*
G37*
G36*
X114707032Y-82611464D02*
G01*
X114752514Y-82671888D01*
X114759857Y-82765647D01*
X114689969Y-82867399D01*
X114617388Y-82920002D01*
X114530721Y-82947023D01*
X114484333Y-82936561D01*
X114397948Y-82887174D01*
X114323513Y-82819078D01*
X114291849Y-82756820D01*
X114307666Y-82713640D01*
X114353825Y-82637385D01*
X114377349Y-82610245D01*
X114481578Y-82556497D01*
X114602887Y-82556065D01*
X114707032Y-82611464D01*
G37*
G36*
X133998137Y-87709623D02*
G01*
X133973529Y-87768167D01*
X133886802Y-87823858D01*
X133729204Y-87878570D01*
X133687782Y-87892220D01*
X133577916Y-87946004D01*
X133510614Y-88004975D01*
X133467538Y-88058986D01*
X133421091Y-88081812D01*
X133401569Y-88045835D01*
X133401622Y-88043977D01*
X133438087Y-87984225D01*
X133527147Y-87914008D01*
X133646794Y-87847802D01*
X133775026Y-87800090D01*
X133813679Y-87788681D01*
X133914009Y-87748522D01*
X133968277Y-87710379D01*
X133987453Y-87686613D01*
X133998137Y-87709623D01*
G37*
G36*
X132237754Y-84383226D02*
G01*
X132330490Y-84389409D01*
X132366457Y-84399351D01*
X132364254Y-84409822D01*
X132341625Y-84476493D01*
X132302418Y-84578503D01*
X132264506Y-84665888D01*
X132221926Y-84716581D01*
X132152474Y-84735644D01*
X132029775Y-84738558D01*
X131916054Y-84736352D01*
X131842817Y-84719609D01*
X131799382Y-84673140D01*
X131759584Y-84581776D01*
X131744933Y-84541963D01*
X131719755Y-84449946D01*
X131720367Y-84402621D01*
X131754512Y-84393770D01*
X131846634Y-84386074D01*
X131973062Y-84381674D01*
X132111024Y-84380686D01*
X132237754Y-84383226D01*
G37*
G36*
X114390630Y-83664549D02*
G01*
X114466217Y-83682423D01*
X114589728Y-83718447D01*
X114739599Y-83766436D01*
X114894486Y-83823659D01*
X115007451Y-83883165D01*
X115042254Y-83933705D01*
X114999320Y-83976024D01*
X114879077Y-84010874D01*
X114709875Y-84044300D01*
X114699027Y-84744118D01*
X114696592Y-84910665D01*
X114695444Y-85135272D01*
X114700776Y-85297939D01*
X114715773Y-85409766D01*
X114743615Y-85481861D01*
X114787489Y-85525320D01*
X114850575Y-85551253D01*
X114936063Y-85570757D01*
X114940749Y-85571746D01*
X115031676Y-85604214D01*
X115078477Y-85645301D01*
X115073609Y-85660352D01*
X115027276Y-85676235D01*
X114927055Y-85686635D01*
X114764389Y-85692318D01*
X114530721Y-85694043D01*
X114381924Y-85693413D01*
X114189565Y-85689191D01*
X114064162Y-85680415D01*
X113997805Y-85666397D01*
X113982584Y-85646449D01*
X114027223Y-85604185D01*
X114115245Y-85567619D01*
X114133359Y-85562653D01*
X114196621Y-85540349D01*
X114244778Y-85507276D01*
X114279891Y-85453600D01*
X114304007Y-85369481D01*
X114319190Y-85245089D01*
X114327489Y-85070583D01*
X114330962Y-84836128D01*
X114331663Y-84531888D01*
X114332557Y-84253179D01*
X114335818Y-84020621D01*
X114341886Y-83853009D01*
X114351197Y-83742721D01*
X114364188Y-83682137D01*
X114381291Y-83663636D01*
X114390630Y-83664549D01*
G37*
G36*
X122861366Y-83665214D02*
G01*
X122877453Y-83666353D01*
X122974694Y-83687828D01*
X123104717Y-83729759D01*
X123245723Y-83783430D01*
X123375924Y-83840113D01*
X123473531Y-83891079D01*
X123516748Y-83927611D01*
X123516980Y-83936765D01*
X123474719Y-83972344D01*
X123380652Y-84000844D01*
X123349909Y-84006641D01*
X123268449Y-84025847D01*
X123210102Y-84054954D01*
X123171015Y-84105585D01*
X123147328Y-84189357D01*
X123135182Y-84317891D01*
X123130724Y-84502808D01*
X123130094Y-84755729D01*
X123130099Y-84773867D01*
X123131797Y-85035130D01*
X123138824Y-85228604D01*
X123154439Y-85365428D01*
X123181898Y-85456747D01*
X123224464Y-85513698D01*
X123285391Y-85547424D01*
X123367937Y-85569069D01*
X123379892Y-85571692D01*
X123472009Y-85605061D01*
X123518602Y-85645302D01*
X123513736Y-85660354D01*
X123467401Y-85676234D01*
X123367183Y-85686635D01*
X123204515Y-85692319D01*
X122970849Y-85694043D01*
X122777479Y-85692994D01*
X122603066Y-85688346D01*
X122491905Y-85679224D01*
X122434970Y-85664807D01*
X122423234Y-85644279D01*
X122455593Y-85609646D01*
X122536035Y-85580931D01*
X122569494Y-85575897D01*
X122634720Y-85560359D01*
X122684170Y-85531754D01*
X122720029Y-85480569D01*
X122744479Y-85397302D01*
X122759700Y-85272442D01*
X122767868Y-85096483D01*
X122771170Y-84859916D01*
X122771788Y-84553233D01*
X122771788Y-83663636D01*
X122861366Y-83665214D01*
G37*
G36*
X114920005Y-87378770D02*
G01*
X115198144Y-87446634D01*
X115442402Y-87580682D01*
X115641354Y-87772571D01*
X115783566Y-88013953D01*
X115809041Y-88095064D01*
X115836093Y-88274063D01*
X115836124Y-88275171D01*
X115842069Y-88475462D01*
X115826716Y-88666271D01*
X115789777Y-88813500D01*
X115677310Y-89008045D01*
X115490340Y-89200458D01*
X115257379Y-89347085D01*
X114994781Y-89435138D01*
X114853485Y-89454618D01*
X114567259Y-89437852D01*
X114299945Y-89345209D01*
X114059702Y-89178923D01*
X113983524Y-89104598D01*
X113839945Y-88908486D01*
X113759543Y-88685208D01*
X113755025Y-88636741D01*
X114122424Y-88636741D01*
X114176955Y-88870543D01*
X114285571Y-89071537D01*
X114447034Y-89225809D01*
X114582701Y-89291711D01*
X114770117Y-89310996D01*
X114959481Y-89255158D01*
X115141501Y-89125537D01*
X115235122Y-89019325D01*
X115361658Y-88795711D01*
X115440276Y-88539751D01*
X115464783Y-88275173D01*
X115428972Y-88025688D01*
X115400506Y-87947741D01*
X115312304Y-87792733D01*
X115197736Y-87657584D01*
X115074073Y-87560825D01*
X114958585Y-87520984D01*
X114872700Y-87519991D01*
X114652828Y-87557873D01*
X114473251Y-87660756D01*
X114323293Y-87833896D01*
X114295693Y-87877621D01*
X114180553Y-88126365D01*
X114123210Y-88384044D01*
X114122424Y-88636741D01*
X113755025Y-88636741D01*
X113734484Y-88416407D01*
X113741617Y-88283661D01*
X113807324Y-88009181D01*
X113935352Y-87774831D01*
X114117803Y-87587578D01*
X114346777Y-87454380D01*
X114614378Y-87382198D01*
X114912707Y-87377993D01*
X114920005Y-87378770D01*
G37*
G36*
X129500086Y-88936596D02*
G01*
X129441868Y-89141926D01*
X129350128Y-89306947D01*
X129227338Y-89414649D01*
X129142769Y-89446565D01*
X129037627Y-89448670D01*
X128903698Y-89412256D01*
X128722340Y-89334367D01*
X128563789Y-89244179D01*
X128330233Y-89048375D01*
X128137158Y-88806576D01*
X127997521Y-88536299D01*
X127927253Y-88266479D01*
X128269717Y-88266479D01*
X128308324Y-88519071D01*
X128381263Y-88764001D01*
X128482931Y-88977933D01*
X128607733Y-89137529D01*
X128714235Y-89208900D01*
X128855054Y-89235157D01*
X128987428Y-89193692D01*
X129096504Y-89090021D01*
X129167430Y-88929658D01*
X129169297Y-88921813D01*
X129184018Y-88772675D01*
X129177530Y-88578507D01*
X129153092Y-88368004D01*
X129113961Y-88169867D01*
X129063391Y-88012797D01*
X129041697Y-87966755D01*
X128948524Y-87816676D01*
X128837472Y-87688347D01*
X128725140Y-87598834D01*
X128628123Y-87565203D01*
X128585923Y-87571095D01*
X128474571Y-87630607D01*
X128372991Y-87737225D01*
X128303642Y-87869864D01*
X128271035Y-88029558D01*
X128269717Y-88266479D01*
X127927253Y-88266479D01*
X127924282Y-88255069D01*
X127917075Y-88067587D01*
X127948920Y-87851820D01*
X128018353Y-87660010D01*
X128118292Y-87505939D01*
X128241650Y-87403390D01*
X128381339Y-87366144D01*
X128537038Y-87393125D01*
X128731036Y-87478584D01*
X128931653Y-87610305D01*
X129122562Y-87775727D01*
X129287433Y-87962288D01*
X129409940Y-88157424D01*
X129448909Y-88248759D01*
X129506074Y-88473010D01*
X129522312Y-88707957D01*
X129516021Y-88772675D01*
X129500086Y-88936596D01*
G37*
G36*
X132040108Y-87678082D02*
G01*
X132111755Y-87775135D01*
X132197813Y-87877142D01*
X132382470Y-88005792D01*
X132623874Y-88100632D01*
X132910672Y-88156252D01*
X133028068Y-88166776D01*
X133189200Y-88174283D01*
X133341597Y-88174872D01*
X133471091Y-88169261D01*
X133563522Y-88158165D01*
X133604727Y-88142301D01*
X133580542Y-88122381D01*
X133564927Y-88104165D01*
X133625851Y-88085124D01*
X133765991Y-88065911D01*
X133900612Y-88045670D01*
X134027754Y-88014733D01*
X134104392Y-87981737D01*
X134110828Y-87977220D01*
X134205293Y-87940523D01*
X134324352Y-87924775D01*
X134338674Y-87924369D01*
X134452777Y-87903423D01*
X134533364Y-87860949D01*
X134557799Y-87837205D01*
X134589680Y-87819484D01*
X134595926Y-87860949D01*
X134614446Y-87902009D01*
X134695456Y-87923510D01*
X134748049Y-87917923D01*
X134795988Y-87875038D01*
X134798434Y-87776295D01*
X134810223Y-87743540D01*
X134864476Y-87692639D01*
X134932455Y-87656756D01*
X134980484Y-87657808D01*
X134982944Y-87661473D01*
X134974018Y-87717156D01*
X134928429Y-87812251D01*
X134857199Y-87926621D01*
X134771339Y-88040131D01*
X134669280Y-88135025D01*
X134482130Y-88253189D01*
X134251354Y-88358155D01*
X133997212Y-88441031D01*
X133739970Y-88492918D01*
X133614445Y-88505202D01*
X133285630Y-88498556D01*
X132965977Y-88440228D01*
X132668809Y-88335676D01*
X132407454Y-88190355D01*
X132195241Y-88009720D01*
X132045490Y-87799226D01*
X132039750Y-87787842D01*
X131997922Y-87686684D01*
X132000103Y-87649346D01*
X132040108Y-87678082D01*
G37*
G36*
X113360164Y-83242681D02*
G01*
X113413110Y-83314078D01*
X113474444Y-83422274D01*
X113510901Y-83487700D01*
X113610913Y-83634870D01*
X113713987Y-83754744D01*
X113789728Y-83834088D01*
X113844793Y-83918462D01*
X113832825Y-83966746D01*
X113754390Y-83982131D01*
X113654861Y-83982131D01*
X113654860Y-84609432D01*
X113654230Y-84724059D01*
X113649533Y-84944012D01*
X113641001Y-85137075D01*
X113629522Y-85285674D01*
X113615999Y-85372232D01*
X113556055Y-85506271D01*
X113445739Y-85646056D01*
X113316459Y-85737723D01*
X113261893Y-85753575D01*
X113118817Y-85758372D01*
X112963882Y-85730721D01*
X112835299Y-85675558D01*
X112805504Y-85653900D01*
X112718439Y-85567012D01*
X112649637Y-85467422D01*
X112612509Y-85377369D01*
X112620459Y-85319101D01*
X112623099Y-85316733D01*
X112680581Y-85319370D01*
X112770960Y-85387753D01*
X112796542Y-85410781D01*
X112929065Y-85483391D01*
X113058248Y-85477266D01*
X113180131Y-85392362D01*
X113207108Y-85362121D01*
X113235646Y-85318959D01*
X113255704Y-85262275D01*
X113269188Y-85178849D01*
X113278007Y-85055461D01*
X113284067Y-84878898D01*
X113289279Y-84635935D01*
X113301911Y-83982131D01*
X113041855Y-83982131D01*
X112953946Y-83981094D01*
X112841308Y-83971645D01*
X112776930Y-83948044D01*
X112740588Y-83905125D01*
X112716140Y-83855026D01*
X112705230Y-83795926D01*
X112741356Y-83762136D01*
X112835329Y-83746845D01*
X112997962Y-83743259D01*
X113296553Y-83743260D01*
X113296553Y-83484482D01*
X113301583Y-83357398D01*
X113315665Y-83262061D01*
X113335694Y-83225705D01*
X113360164Y-83242681D01*
G37*
G36*
X121997428Y-86054176D02*
G01*
X122078452Y-86074118D01*
X122206583Y-86111365D01*
X122361345Y-86160087D01*
X122378920Y-86165873D01*
X122544671Y-86228561D01*
X122650788Y-86284567D01*
X122693149Y-86329724D01*
X122667632Y-86359872D01*
X122570111Y-86370846D01*
X122467622Y-86381678D01*
X122371051Y-86412059D01*
X122359706Y-86418798D01*
X122340930Y-86437028D01*
X122326117Y-86468928D01*
X122314798Y-86522739D01*
X122306504Y-86606710D01*
X122300770Y-86729081D01*
X122297125Y-86898100D01*
X122295101Y-87122008D01*
X122294231Y-87409051D01*
X122294045Y-87767471D01*
X122294043Y-89081675D01*
X122391765Y-89179396D01*
X122395349Y-89182914D01*
X122492920Y-89249565D01*
X122590824Y-89277116D01*
X122657458Y-89288863D01*
X122692164Y-89336833D01*
X122690913Y-89346298D01*
X122670441Y-89367647D01*
X122616002Y-89382126D01*
X122516187Y-89390955D01*
X122359588Y-89395356D01*
X122134796Y-89396551D01*
X122046483Y-89396417D01*
X121847204Y-89394224D01*
X121712065Y-89388391D01*
X121629663Y-89377695D01*
X121588586Y-89360919D01*
X121577430Y-89336833D01*
X121598641Y-89296750D01*
X121683778Y-89277116D01*
X121766880Y-89262387D01*
X121862932Y-89211227D01*
X121864264Y-89210011D01*
X121882517Y-89188694D01*
X121897379Y-89156758D01*
X121909197Y-89106530D01*
X121918315Y-89030347D01*
X121925082Y-88920545D01*
X121929841Y-88769450D01*
X121932940Y-88569400D01*
X121934725Y-88312727D01*
X121935540Y-87991764D01*
X121935739Y-87598844D01*
X121936055Y-87289395D01*
X121937613Y-86928802D01*
X121940616Y-86638501D01*
X121945233Y-86413089D01*
X121951626Y-86247167D01*
X121959966Y-86135335D01*
X121970411Y-86072199D01*
X121983132Y-86052351D01*
X121997428Y-86054176D01*
G37*
G36*
X119127475Y-87416407D02*
G01*
X119299468Y-87518067D01*
X119425736Y-87664568D01*
X119492703Y-87849527D01*
X119493869Y-88001465D01*
X119436543Y-88151923D01*
X119312927Y-88299180D01*
X119117133Y-88452686D01*
X119006065Y-88531057D01*
X118801431Y-88696643D01*
X118668743Y-88843128D01*
X118605506Y-88974809D01*
X118609237Y-89095982D01*
X118677436Y-89210946D01*
X118686267Y-89220688D01*
X118818619Y-89313046D01*
X118965942Y-89336770D01*
X119112626Y-89295949D01*
X119243073Y-89194667D01*
X119341667Y-89037011D01*
X119374805Y-88965388D01*
X119428225Y-88888413D01*
X119466077Y-88887687D01*
X119484875Y-88961448D01*
X119481128Y-89107914D01*
X119469473Y-89229367D01*
X119452211Y-89347364D01*
X119428748Y-89409616D01*
X119392687Y-89430164D01*
X119337639Y-89423053D01*
X119333037Y-89422014D01*
X119229933Y-89417656D01*
X119109092Y-89434558D01*
X119061471Y-89444106D01*
X118851128Y-89447166D01*
X118651589Y-89393399D01*
X118483417Y-89290771D01*
X118367173Y-89147244D01*
X118332642Y-89045125D01*
X118320551Y-88870037D01*
X118349307Y-88693119D01*
X118415910Y-88551082D01*
X118444142Y-88519724D01*
X118537535Y-88435937D01*
X118668092Y-88332081D01*
X118816809Y-88223677D01*
X118934606Y-88138166D01*
X119094032Y-88001581D01*
X119187521Y-87882720D01*
X119220256Y-87774024D01*
X119197413Y-87667923D01*
X119162801Y-87611136D01*
X119061101Y-87535665D01*
X118935116Y-87516097D01*
X118803594Y-87549452D01*
X118685271Y-87632757D01*
X118598887Y-87763031D01*
X118566851Y-87832364D01*
X118511389Y-87911663D01*
X118468957Y-87913446D01*
X118441834Y-87838733D01*
X118432289Y-87688534D01*
X118432293Y-87677833D01*
X118435127Y-87550131D01*
X118450186Y-87477971D01*
X118487642Y-87438747D01*
X118557665Y-87409849D01*
X118700621Y-87373147D01*
X118923335Y-87365972D01*
X119127475Y-87416407D01*
G37*
G36*
X116162343Y-83748786D02*
G01*
X116349712Y-83882186D01*
X116359715Y-83892267D01*
X116437892Y-83985630D01*
X116473231Y-84078948D01*
X116481506Y-84211652D01*
X116472985Y-84334834D01*
X116438225Y-84445186D01*
X116366336Y-84548274D01*
X116246471Y-84659366D01*
X116067781Y-84793723D01*
X115984900Y-84854616D01*
X115785415Y-85024104D01*
X115659789Y-85175709D01*
X115606238Y-85313239D01*
X115622970Y-85440515D01*
X115708201Y-85561348D01*
X115770493Y-85615710D01*
X115853416Y-85647816D01*
X115970890Y-85642425D01*
X116123658Y-85596442D01*
X116269708Y-85481678D01*
X116364002Y-85309977D01*
X116400029Y-85218461D01*
X116437008Y-85170798D01*
X116463215Y-85190727D01*
X116476519Y-85271749D01*
X116474792Y-85407353D01*
X116455904Y-85591030D01*
X116455284Y-85595542D01*
X116434534Y-85706236D01*
X116407692Y-85752763D01*
X116366327Y-85750080D01*
X116363132Y-85748708D01*
X116311124Y-85731847D01*
X116247565Y-85727231D01*
X116150140Y-85735229D01*
X115996534Y-85756212D01*
X115863917Y-85762312D01*
X115660841Y-85716084D01*
X115490939Y-85606206D01*
X115369165Y-85440209D01*
X115323550Y-85337860D01*
X115292957Y-85215672D01*
X115307777Y-85099887D01*
X115367920Y-84955149D01*
X115394196Y-84907146D01*
X115512277Y-84764212D01*
X115696370Y-84617904D01*
X115876051Y-84489965D01*
X116031661Y-84364716D01*
X116132373Y-84260005D01*
X116186615Y-84166808D01*
X116202822Y-84076109D01*
X116202515Y-84062714D01*
X116161810Y-83936444D01*
X116061046Y-83853018D01*
X115912218Y-83822884D01*
X115903185Y-83823159D01*
X115793306Y-83858883D01*
X115683693Y-83938580D01*
X115599486Y-84039357D01*
X115565832Y-84138317D01*
X115554676Y-84187519D01*
X115506114Y-84221003D01*
X115467654Y-84186897D01*
X115445650Y-84100031D01*
X115439997Y-83985563D01*
X115450187Y-83868657D01*
X115475712Y-83774468D01*
X115516068Y-83728160D01*
X115683109Y-83690572D01*
X115938681Y-83684644D01*
X116162343Y-83748786D01*
G37*
G36*
X117724639Y-83698407D02*
G01*
X117849978Y-83736843D01*
X117985165Y-83787282D01*
X118108541Y-83841450D01*
X118198447Y-83891079D01*
X118233230Y-83927899D01*
X118227921Y-83944050D01*
X118171736Y-83995748D01*
X118073984Y-84046495D01*
X117914734Y-84110213D01*
X117914734Y-84720384D01*
X117915616Y-84911409D01*
X117921410Y-85140283D01*
X117934770Y-85306965D01*
X117958158Y-85421893D01*
X117994038Y-85495507D01*
X118044877Y-85538245D01*
X118113136Y-85560541D01*
X118115374Y-85561000D01*
X118198688Y-85594071D01*
X118233231Y-85639301D01*
X118233001Y-85642611D01*
X118214081Y-85663767D01*
X118157365Y-85678500D01*
X118052404Y-85687795D01*
X117888751Y-85692646D01*
X117655956Y-85694045D01*
X117548488Y-85693475D01*
X117336095Y-85687909D01*
X117184718Y-85677139D01*
X117098074Y-85662056D01*
X117079888Y-85643555D01*
X117133880Y-85622531D01*
X117263774Y-85599873D01*
X117366213Y-85584199D01*
X117446131Y-85560729D01*
X117499789Y-85518517D01*
X117532418Y-85445386D01*
X117549243Y-85329163D01*
X117555504Y-85157666D01*
X117556428Y-84918723D01*
X117555637Y-84705031D01*
X117551817Y-84538823D01*
X117542995Y-84422610D01*
X117527204Y-84341060D01*
X117502478Y-84278856D01*
X117466850Y-84220673D01*
X117378876Y-84105418D01*
X117292122Y-84041670D01*
X117190922Y-84033864D01*
X117050728Y-84073309D01*
X116981502Y-84097375D01*
X116880989Y-84129197D01*
X116827830Y-84141577D01*
X116818175Y-84135780D01*
X116780435Y-84082004D01*
X116734935Y-83996037D01*
X116696654Y-83907815D01*
X116680567Y-83847268D01*
X116693848Y-83831223D01*
X116764241Y-83798942D01*
X116873151Y-83765280D01*
X116995428Y-83736646D01*
X117105920Y-83719455D01*
X117179471Y-83720110D01*
X117225273Y-83742643D01*
X117318056Y-83826354D01*
X117416426Y-83952335D01*
X117556426Y-84160223D01*
X117556426Y-83934185D01*
X117559955Y-83838056D01*
X117574025Y-83734153D01*
X117595171Y-83684202D01*
X117630800Y-83680250D01*
X117724639Y-83698407D01*
G37*
G36*
X119578413Y-83725978D02*
G01*
X119792877Y-83835300D01*
X119975266Y-83996917D01*
X120117656Y-84201957D01*
X120140238Y-84259230D01*
X120212123Y-84441543D01*
X120250741Y-84706799D01*
X120225586Y-84988852D01*
X120209499Y-85056786D01*
X120104681Y-85315818D01*
X119944322Y-85524369D01*
X119734050Y-85674599D01*
X119728176Y-85677573D01*
X119585500Y-85739888D01*
X119462538Y-85764261D01*
X119316228Y-85759432D01*
X119113229Y-85715419D01*
X118865141Y-85593216D01*
X118636826Y-85402283D01*
X118567852Y-85319456D01*
X118528876Y-85242055D01*
X118538604Y-85204224D01*
X118592395Y-85216651D01*
X118685602Y-85290023D01*
X118709894Y-85312377D01*
X118821063Y-85397165D01*
X118922577Y-85452729D01*
X118980282Y-85471171D01*
X119196002Y-85491158D01*
X119412255Y-85445304D01*
X119607750Y-85340443D01*
X119761193Y-85183409D01*
X119813321Y-85093030D01*
X119881476Y-84911416D01*
X119918371Y-84722099D01*
X119915268Y-84560411D01*
X119896048Y-84459874D01*
X119184075Y-84459876D01*
X118937997Y-84459844D01*
X118736200Y-84457177D01*
X118597995Y-84447660D01*
X118514998Y-84427074D01*
X118478830Y-84391205D01*
X118481099Y-84335831D01*
X118513422Y-84256735D01*
X118519066Y-84245546D01*
X118923122Y-84245546D01*
X118927714Y-84269758D01*
X118964094Y-84285730D01*
X119044218Y-84295102D01*
X119180041Y-84299522D01*
X119383516Y-84300626D01*
X119531979Y-84299274D01*
X119713721Y-84291850D01*
X119826679Y-84278347D01*
X119865518Y-84259228D01*
X119862377Y-84241735D01*
X119833270Y-84163163D01*
X119783549Y-84057158D01*
X119750594Y-84001764D01*
X119625078Y-83875286D01*
X119469866Y-83805532D01*
X119305696Y-83803517D01*
X119248702Y-83827498D01*
X119151580Y-83895363D01*
X119054449Y-83984100D01*
X118979732Y-84072535D01*
X118949844Y-84139508D01*
X118947134Y-84162712D01*
X118925679Y-84237655D01*
X118923122Y-84245546D01*
X118519066Y-84245546D01*
X118567411Y-84149701D01*
X118609027Y-84072332D01*
X118738705Y-83891230D01*
X118889466Y-83772105D01*
X119076296Y-83701766D01*
X119084968Y-83699727D01*
X119339803Y-83677830D01*
X119578413Y-83725978D01*
G37*
G36*
X126545478Y-86092958D02*
G01*
X126738350Y-86201067D01*
X126919715Y-86370026D01*
X127083314Y-86594502D01*
X127222893Y-86869158D01*
X127332191Y-87188663D01*
X127399737Y-87438192D01*
X127574008Y-87464325D01*
X127637496Y-87476790D01*
X127730461Y-87514859D01*
X127753115Y-87556933D01*
X127704598Y-87590991D01*
X127584054Y-87605015D01*
X127526946Y-87605401D01*
X127454322Y-87614771D01*
X127433095Y-87649465D01*
X127444047Y-87726106D01*
X127450366Y-87759584D01*
X127470580Y-87872146D01*
X127500667Y-88043095D01*
X127538400Y-88259696D01*
X127581559Y-88509221D01*
X127627917Y-88778934D01*
X127661412Y-88971446D01*
X127724075Y-89310281D01*
X127781098Y-89582820D01*
X127835065Y-89797625D01*
X127888561Y-89963266D01*
X127944171Y-90088307D01*
X128004479Y-90181314D01*
X128072069Y-90250855D01*
X128179977Y-90326716D01*
X128299874Y-90360966D01*
X128429327Y-90333789D01*
X128588604Y-90244951D01*
X128725915Y-90175844D01*
X128839788Y-90163451D01*
X128915291Y-90209358D01*
X128942634Y-90311712D01*
X128918379Y-90416238D01*
X128833151Y-90488515D01*
X128780531Y-90513086D01*
X128584845Y-90550909D01*
X128370497Y-90522502D01*
X128151597Y-90431164D01*
X127942258Y-90280194D01*
X127896932Y-90238482D01*
X127778481Y-90116123D01*
X127678408Y-89985639D01*
X127592820Y-89836889D01*
X127517834Y-89659729D01*
X127449560Y-89444013D01*
X127384113Y-89179596D01*
X127317596Y-88856337D01*
X127246129Y-88464092D01*
X127095853Y-87605016D01*
X126889248Y-87605015D01*
X126863908Y-87604905D01*
X126748675Y-87597766D01*
X126688457Y-87574395D01*
X126662423Y-87527697D01*
X126653072Y-87471954D01*
X126672805Y-87429539D01*
X126741796Y-87410414D01*
X126875112Y-87405956D01*
X127063595Y-87405956D01*
X126987888Y-87057602D01*
X126970460Y-86978234D01*
X126922007Y-86772344D01*
X126879268Y-86623808D01*
X126836169Y-86516596D01*
X126786639Y-86434676D01*
X126724620Y-86362023D01*
X126668420Y-86310038D01*
X126564829Y-86259673D01*
X126451703Y-86274489D01*
X126310445Y-86354130D01*
X126197070Y-86419253D01*
X126079840Y-86445368D01*
X126000585Y-86406509D01*
X125964340Y-86303417D01*
X125962048Y-86243642D01*
X125988584Y-86171309D01*
X126071844Y-86114311D01*
X126150238Y-86080619D01*
X126347353Y-86051030D01*
X126545478Y-86092958D01*
G37*
G36*
X134869368Y-84649142D02*
G01*
X134908027Y-84742589D01*
X134904688Y-84800844D01*
X134854705Y-84803785D01*
X134838941Y-84799258D01*
X134804654Y-84818958D01*
X134794985Y-84903316D01*
X134794243Y-84935350D01*
X134778218Y-84999501D01*
X134735267Y-85002843D01*
X134723778Y-84999303D01*
X134682338Y-85016309D01*
X134680617Y-85083761D01*
X134719993Y-85185143D01*
X134734024Y-85212520D01*
X134742426Y-85251448D01*
X134700087Y-85243493D01*
X134663929Y-85238624D01*
X134636593Y-85272998D01*
X134649222Y-85341379D01*
X134701626Y-85422178D01*
X134734257Y-85460120D01*
X134740387Y-85489649D01*
X134681721Y-85494983D01*
X134611850Y-85505811D01*
X134605371Y-85545601D01*
X134664013Y-85623668D01*
X134681253Y-85643456D01*
X134708795Y-85696243D01*
X134678072Y-85732297D01*
X134667239Y-85739646D01*
X134654392Y-85773621D01*
X134709514Y-85819067D01*
X134718761Y-85824929D01*
X134785031Y-85881465D01*
X134774251Y-85919626D01*
X134685501Y-85944210D01*
X134631726Y-85951754D01*
X134465473Y-85962921D01*
X134371869Y-85944764D01*
X134351470Y-85897523D01*
X134404828Y-85821444D01*
X134429819Y-85784680D01*
X134389796Y-85773668D01*
X134351924Y-85765952D01*
X134279735Y-85716725D01*
X134271889Y-85706739D01*
X134260255Y-85658669D01*
X134316807Y-85614653D01*
X134326601Y-85609403D01*
X134374248Y-85577585D01*
X134366235Y-85545729D01*
X134299093Y-85489253D01*
X134283089Y-85476108D01*
X134224915Y-85403627D01*
X134238402Y-85354084D01*
X134322302Y-85335737D01*
X134341340Y-85335622D01*
X134378433Y-85328096D01*
X134370640Y-85294724D01*
X134317125Y-85216137D01*
X134268406Y-85141540D01*
X134259209Y-85096994D01*
X134294507Y-85072536D01*
X134327585Y-85064406D01*
X134416771Y-85071450D01*
X134459008Y-85075323D01*
X134475183Y-85043311D01*
X134436679Y-84997334D01*
X134414978Y-84971227D01*
X134396866Y-84894697D01*
X134398308Y-84869162D01*
X134424466Y-84833833D01*
X134500747Y-84842738D01*
X134570005Y-84854682D01*
X134591020Y-84828271D01*
X134577208Y-84743965D01*
X134576103Y-84738834D01*
X134569962Y-84646522D01*
X134601650Y-84621427D01*
X134667439Y-84666747D01*
X134669811Y-84669079D01*
X134717539Y-84688523D01*
X134769689Y-84639666D01*
X134800029Y-84600656D01*
X134832053Y-84590729D01*
X134869368Y-84649142D01*
G37*
G36*
X120690557Y-83743286D02*
G01*
X120885593Y-83746166D01*
X121011155Y-83754554D01*
X121076296Y-83769487D01*
X121090076Y-83792001D01*
X121043633Y-83833489D01*
X120953894Y-83865271D01*
X120941804Y-83867790D01*
X120819194Y-83904283D01*
X120757908Y-83955267D01*
X120740926Y-84034245D01*
X120745191Y-84059847D01*
X120773984Y-84151895D01*
X120824572Y-84288943D01*
X120890639Y-84456088D01*
X120965869Y-84638425D01*
X121043951Y-84821035D01*
X121118568Y-84989020D01*
X121183406Y-85127467D01*
X121232147Y-85221466D01*
X121258480Y-85256113D01*
X121260366Y-85255578D01*
X121290153Y-85212623D01*
X121340983Y-85111133D01*
X121406992Y-84965519D01*
X121482316Y-84790193D01*
X121561091Y-84599567D01*
X121637457Y-84408059D01*
X121705543Y-84230074D01*
X121759493Y-84080026D01*
X121793436Y-83972328D01*
X121801514Y-83921395D01*
X121776332Y-83889181D01*
X121701372Y-83862696D01*
X121620684Y-83854809D01*
X121533064Y-83823537D01*
X121497807Y-83778812D01*
X121499425Y-83776005D01*
X121551135Y-83763189D01*
X121664736Y-83752788D01*
X121825494Y-83745810D01*
X122018678Y-83743261D01*
X122048792Y-83743290D01*
X122271470Y-83746244D01*
X122421114Y-83754398D01*
X122503531Y-83768266D01*
X122524515Y-83788371D01*
X122521655Y-83794215D01*
X122467335Y-83836951D01*
X122372590Y-83877947D01*
X122358902Y-83882531D01*
X122317222Y-83900624D01*
X122278925Y-83929505D01*
X122239032Y-83978084D01*
X122192561Y-84055260D01*
X122134534Y-84169947D01*
X122059969Y-84331051D01*
X121963886Y-84547477D01*
X121841306Y-84828134D01*
X121730682Y-85082258D01*
X121614981Y-85342510D01*
X121521907Y-85534501D01*
X121445703Y-85660605D01*
X121380607Y-85723197D01*
X121320855Y-85724648D01*
X121260691Y-85667333D01*
X121194353Y-85553628D01*
X121116082Y-85385904D01*
X121020118Y-85166536D01*
X120987431Y-85091730D01*
X120847599Y-84773032D01*
X120734247Y-84518367D01*
X120643354Y-84320137D01*
X120570897Y-84170754D01*
X120512858Y-84062623D01*
X120465211Y-83988150D01*
X120423940Y-83939746D01*
X120385020Y-83909814D01*
X120344429Y-83890761D01*
X120338502Y-83888465D01*
X120257311Y-83842061D01*
X120223824Y-83794250D01*
X120224031Y-83791427D01*
X120249673Y-83768641D01*
X120325131Y-83753776D01*
X120460302Y-83745700D01*
X120665074Y-83743260D01*
X120690557Y-83743286D01*
G37*
G36*
X112204090Y-83743720D02*
G01*
X112384532Y-83747721D01*
X112499464Y-83756632D01*
X112558235Y-83771414D01*
X112570184Y-83793025D01*
X112545750Y-83823825D01*
X112471495Y-83854967D01*
X112411337Y-83875377D01*
X112325922Y-83937058D01*
X112306627Y-83965873D01*
X112253197Y-84062387D01*
X112175408Y-84213000D01*
X112078757Y-84406800D01*
X111968733Y-84632881D01*
X111850837Y-84880323D01*
X111439024Y-85753674D01*
X111533287Y-85985658D01*
X111606947Y-86159451D01*
X111669583Y-86278723D01*
X111734936Y-86358989D01*
X111817808Y-86418362D01*
X111932996Y-86474963D01*
X112021734Y-86519380D01*
X112110487Y-86576753D01*
X112146724Y-86619168D01*
X112138557Y-86741478D01*
X112088264Y-86818122D01*
X112033180Y-86837187D01*
X111935895Y-86847979D01*
X111905345Y-86846125D01*
X111848191Y-86828535D01*
X111790799Y-86787156D01*
X111729718Y-86715635D01*
X111661490Y-86607632D01*
X111582659Y-86456789D01*
X111489772Y-86256763D01*
X111379370Y-86001201D01*
X111247992Y-85683756D01*
X111092191Y-85298077D01*
X111026919Y-85135645D01*
X110889354Y-84797042D01*
X110775037Y-84523362D01*
X110680391Y-84307897D01*
X110601836Y-84143959D01*
X110535796Y-84024844D01*
X110478691Y-83943858D01*
X110426941Y-83894303D01*
X110376969Y-83869481D01*
X110325196Y-83862696D01*
X110299955Y-83855820D01*
X110270846Y-83802977D01*
X110274155Y-83787243D01*
X110303474Y-83765245D01*
X110373797Y-83751805D01*
X110497979Y-83745091D01*
X110688871Y-83743259D01*
X110762849Y-83743824D01*
X110942151Y-83751620D01*
X111059728Y-83767398D01*
X111111109Y-83789648D01*
X111091828Y-83816861D01*
X110997416Y-83847521D01*
X110977977Y-83852361D01*
X110857532Y-83900375D01*
X110803777Y-83971559D01*
X110805528Y-84079430D01*
X110805891Y-84081235D01*
X110829682Y-84164631D01*
X110874514Y-84295458D01*
X110934347Y-84458437D01*
X111003144Y-84638288D01*
X111074869Y-84819731D01*
X111143484Y-84987481D01*
X111202951Y-85126264D01*
X111247233Y-85220795D01*
X111270296Y-85255792D01*
X111271174Y-85255645D01*
X111299486Y-85217059D01*
X111351477Y-85120079D01*
X111420777Y-84978930D01*
X111501008Y-84807844D01*
X111585804Y-84621050D01*
X111668792Y-84432779D01*
X111743598Y-84257261D01*
X111803853Y-84108726D01*
X111843183Y-84001402D01*
X111855216Y-83949525D01*
X111854132Y-83945315D01*
X111805634Y-83893861D01*
X111713968Y-83854119D01*
X111647795Y-83834753D01*
X111585634Y-83803252D01*
X111600141Y-83777813D01*
X111689512Y-83758977D01*
X111851935Y-83747280D01*
X112085607Y-83743259D01*
X112204090Y-83743720D01*
G37*
G36*
X121378124Y-89178335D02*
G01*
X121342131Y-89257264D01*
X121224655Y-89380242D01*
X121056955Y-89447156D01*
X120988287Y-89459437D01*
X120920533Y-89469880D01*
X120895975Y-89466842D01*
X120808740Y-89435766D01*
X120692106Y-89381668D01*
X120571750Y-89316944D01*
X120473337Y-89253986D01*
X120418296Y-89217322D01*
X120378734Y-89220939D01*
X120345854Y-89290203D01*
X120313318Y-89358111D01*
X120233607Y-89435485D01*
X120123267Y-89450280D01*
X119976067Y-89402518D01*
X119785781Y-89292219D01*
X119751984Y-89268428D01*
X119677228Y-89197027D01*
X119660541Y-89147343D01*
X119700882Y-89131346D01*
X119797205Y-89161008D01*
X119828818Y-89175007D01*
X119898151Y-89198430D01*
X119948883Y-89195056D01*
X119983911Y-89156079D01*
X120006123Y-89072700D01*
X120018406Y-88936112D01*
X120023658Y-88737516D01*
X120024684Y-88488068D01*
X120383073Y-88488068D01*
X120383073Y-88776734D01*
X120383073Y-89065402D01*
X120577567Y-89171259D01*
X120635950Y-89202785D01*
X120744069Y-89254975D01*
X120817027Y-89270002D01*
X120879204Y-89249378D01*
X120954977Y-89194602D01*
X121014452Y-89132279D01*
X121062326Y-89006053D01*
X121042501Y-88874984D01*
X120954978Y-88762450D01*
X120948356Y-88757294D01*
X120867846Y-88702489D01*
X120815439Y-88679937D01*
X120785030Y-88671930D01*
X120697814Y-88637094D01*
X120581938Y-88584003D01*
X120383073Y-88488068D01*
X120024684Y-88488068D01*
X120024766Y-88468108D01*
X120025060Y-88271783D01*
X120027103Y-88070667D01*
X120032351Y-87925907D01*
X120042256Y-87824223D01*
X120058258Y-87752330D01*
X120081805Y-87696953D01*
X120114343Y-87644807D01*
X120240812Y-87504548D01*
X120418831Y-87404043D01*
X120619123Y-87374177D01*
X120831685Y-87416171D01*
X121046519Y-87531243D01*
X121150282Y-87617868D01*
X121252705Y-87728345D01*
X121331167Y-87838134D01*
X121373582Y-87930095D01*
X121367874Y-87987092D01*
X121354682Y-87992096D01*
X121283935Y-87981947D01*
X121181871Y-87944572D01*
X121142952Y-87925838D01*
X121048089Y-87856780D01*
X121012265Y-87773078D01*
X120972629Y-87679063D01*
X120894141Y-87593812D01*
X120783303Y-87541472D01*
X120647002Y-87552317D01*
X120498061Y-87640420D01*
X120489984Y-87647106D01*
X120444396Y-87696831D01*
X120416198Y-87764552D01*
X120399751Y-87870813D01*
X120389414Y-88036154D01*
X120374904Y-88355658D01*
X120528283Y-88433124D01*
X120597992Y-88465079D01*
X120750783Y-88524452D01*
X120907933Y-88575702D01*
X121024415Y-88614587D01*
X121222379Y-88718522D01*
X121348528Y-88848678D01*
X121401050Y-89002727D01*
X121400616Y-89006053D01*
X121378124Y-89178335D01*
G37*
G36*
X124575280Y-86263303D02*
G01*
X124842007Y-86324836D01*
X125168418Y-86475435D01*
X125447379Y-86688552D01*
X125673799Y-86960121D01*
X125843905Y-87286520D01*
X125897128Y-87474196D01*
X125930501Y-87725136D01*
X125937002Y-87993476D01*
X125916039Y-88248868D01*
X125867013Y-88460971D01*
X125840087Y-88531142D01*
X125682393Y-88813580D01*
X125464991Y-89061443D01*
X125202533Y-89260421D01*
X124909667Y-89396204D01*
X124770102Y-89435958D01*
X124634183Y-89458087D01*
X124475025Y-89464998D01*
X124264734Y-89459423D01*
X124019262Y-89441322D01*
X123613586Y-89372408D01*
X123219673Y-89250475D01*
X123050472Y-89186673D01*
X123049884Y-88803918D01*
X123043908Y-88581812D01*
X123022706Y-88414461D01*
X122981610Y-88301401D01*
X122915949Y-88230052D01*
X122821046Y-88187827D01*
X122810082Y-88184487D01*
X122726446Y-88143287D01*
X122692164Y-88096905D01*
X122696422Y-88084917D01*
X122729601Y-88067757D01*
X122803801Y-88055749D01*
X122928667Y-88048126D01*
X123113841Y-88044113D01*
X123368966Y-88042946D01*
X123613868Y-88043801D01*
X123797257Y-88047066D01*
X123921676Y-88053660D01*
X123997592Y-88064508D01*
X124035468Y-88080536D01*
X124045768Y-88102664D01*
X124043344Y-88118541D01*
X123998864Y-88152189D01*
X123889113Y-88162382D01*
X123758580Y-88169826D01*
X123630509Y-88206468D01*
X123541767Y-88282569D01*
X123486084Y-88407845D01*
X123457190Y-88592022D01*
X123448812Y-88844815D01*
X123448589Y-89149034D01*
X123617791Y-89218612D01*
X123683729Y-89242275D01*
X123904942Y-89290331D01*
X124153029Y-89310092D01*
X124394795Y-89300187D01*
X124597040Y-89259235D01*
X124792739Y-89164349D01*
X124994227Y-89013574D01*
X125172153Y-88830229D01*
X125301895Y-88636078D01*
X125338324Y-88557477D01*
X125430177Y-88258543D01*
X125469118Y-87933319D01*
X125450916Y-87610913D01*
X125435237Y-87521377D01*
X125337006Y-87182518D01*
X125187023Y-86898061D01*
X124987841Y-86671972D01*
X124742004Y-86508210D01*
X124509804Y-86421072D01*
X124238246Y-86378797D01*
X123974410Y-86395283D01*
X123730541Y-86466741D01*
X123518896Y-86589376D01*
X123351716Y-86759394D01*
X123241255Y-86973001D01*
X123224107Y-87018602D01*
X123170195Y-87115987D01*
X123116842Y-87160050D01*
X123090810Y-87159398D01*
X123069773Y-87133961D01*
X123057544Y-87069036D01*
X123051863Y-86951253D01*
X123050471Y-86767243D01*
X123050472Y-86361565D01*
X123152136Y-86380999D01*
X123155661Y-86381600D01*
X123247482Y-86379612D01*
X123385163Y-86358471D01*
X123540303Y-86322457D01*
X123622014Y-86302072D01*
X123938335Y-86251873D01*
X124265074Y-86238967D01*
X124575280Y-86263303D01*
G37*
G36*
X125527195Y-83706689D02*
G01*
X125653032Y-83746773D01*
X125788342Y-83797481D01*
X125911632Y-83850636D01*
X126001407Y-83898068D01*
X126036172Y-83931607D01*
X126006074Y-83972554D01*
X125926883Y-84006769D01*
X125854700Y-84026225D01*
X125798111Y-84054059D01*
X125759764Y-84100912D01*
X125736114Y-84178906D01*
X125723613Y-84300161D01*
X125718713Y-84476796D01*
X125717869Y-84720935D01*
X125718741Y-84911043D01*
X125724525Y-85140039D01*
X125737876Y-85306813D01*
X125761258Y-85421809D01*
X125797139Y-85495466D01*
X125847988Y-85538232D01*
X125916272Y-85560542D01*
X125918510Y-85560998D01*
X126001824Y-85594069D01*
X126036365Y-85639302D01*
X126028822Y-85656794D01*
X125987008Y-85674913D01*
X125898747Y-85686351D01*
X125752994Y-85692322D01*
X125538715Y-85694045D01*
X125369990Y-85692341D01*
X125191520Y-85684743D01*
X125079747Y-85671532D01*
X125041066Y-85653235D01*
X125041074Y-85652818D01*
X125076292Y-85617234D01*
X125159608Y-85588722D01*
X125252461Y-85558636D01*
X125319864Y-85514750D01*
X125322211Y-85511262D01*
X125338003Y-85440036D01*
X125348186Y-85296385D01*
X125352482Y-85086562D01*
X125350618Y-84816812D01*
X125339657Y-84169135D01*
X125100785Y-84036296D01*
X125072758Y-84020966D01*
X124870721Y-83930792D01*
X124708304Y-83902145D01*
X124575915Y-83934920D01*
X124463962Y-84029004D01*
X124357521Y-84155502D01*
X124370846Y-84781335D01*
X124376281Y-84999617D01*
X124383736Y-85181492D01*
X124394191Y-85308468D01*
X124409291Y-85393632D01*
X124430683Y-85450076D01*
X124460011Y-85490888D01*
X124533218Y-85546028D01*
X124629212Y-85574608D01*
X124688315Y-85586089D01*
X124722573Y-85634326D01*
X124721979Y-85641088D01*
X124704265Y-85663585D01*
X124653311Y-85678843D01*
X124557523Y-85688146D01*
X124405322Y-85692784D01*
X124185111Y-85694044D01*
X123963828Y-85690979D01*
X123790323Y-85681495D01*
X123683710Y-85666385D01*
X123647159Y-85646459D01*
X123683846Y-85622521D01*
X123796946Y-85595383D01*
X123817672Y-85591240D01*
X123924494Y-85561620D01*
X123991807Y-85529842D01*
X123994577Y-85527106D01*
X124012579Y-85473102D01*
X124021999Y-85358663D01*
X124023082Y-85177517D01*
X124016085Y-84923400D01*
X124012452Y-84819177D01*
X124006967Y-84539504D01*
X124011818Y-84322970D01*
X124028730Y-84157385D01*
X124059432Y-84030558D01*
X124105655Y-83930294D01*
X124169131Y-83844400D01*
X124276545Y-83749977D01*
X124440870Y-83686037D01*
X124635169Y-83690079D01*
X124862911Y-83762316D01*
X125127571Y-83902959D01*
X125210884Y-83953108D01*
X125298554Y-84002737D01*
X125340254Y-84021942D01*
X125344375Y-84018321D01*
X125355215Y-83963944D01*
X125359562Y-83865045D01*
X125360202Y-83834274D01*
X125371798Y-83736888D01*
X125393355Y-83687262D01*
X125432330Y-83685391D01*
X125527195Y-83706689D01*
G37*
G36*
X126751372Y-82629972D02*
G01*
X126923412Y-82634915D01*
X127033245Y-82644099D01*
X127089641Y-82658263D01*
X127101381Y-82678147D01*
X127096748Y-82686491D01*
X127036754Y-82724252D01*
X126936112Y-82751944D01*
X126933262Y-82752407D01*
X126849771Y-82767475D01*
X126784795Y-82788428D01*
X126736017Y-82824481D01*
X126701114Y-82884852D01*
X126677763Y-82978760D01*
X126663642Y-83115420D01*
X126656432Y-83304053D01*
X126653809Y-83553874D01*
X126653450Y-83874102D01*
X126653449Y-83897209D01*
X126653845Y-84195490D01*
X126655545Y-84425940D01*
X126659410Y-84599592D01*
X126666298Y-84727490D01*
X126677071Y-84820670D01*
X126692585Y-84890170D01*
X126713703Y-84947027D01*
X126741279Y-85002281D01*
X126821914Y-85129686D01*
X126995692Y-85302567D01*
X127217476Y-85418432D01*
X127491582Y-85479219D01*
X127822342Y-85486869D01*
X128023524Y-85468591D01*
X128250217Y-85416156D01*
X128433566Y-85325713D01*
X128592170Y-85190088D01*
X128646625Y-85129910D01*
X128711375Y-85043109D01*
X128760403Y-84947440D01*
X128796158Y-84831110D01*
X128821092Y-84682326D01*
X128837656Y-84489300D01*
X128848300Y-84240238D01*
X128855476Y-83923351D01*
X128858822Y-83690120D01*
X128859159Y-83405756D01*
X128852774Y-83186461D01*
X128838311Y-83023622D01*
X128814402Y-82908626D01*
X128779693Y-82832857D01*
X128732820Y-82787705D01*
X128672421Y-82764554D01*
X128556815Y-82736752D01*
X128451177Y-82702393D01*
X128420506Y-82674975D01*
X128465696Y-82654188D01*
X128587645Y-82639726D01*
X128787242Y-82631275D01*
X129065388Y-82628526D01*
X129109196Y-82628558D01*
X129347017Y-82630410D01*
X129515264Y-82635621D01*
X129622590Y-82644876D01*
X129677658Y-82658872D01*
X129689128Y-82678291D01*
X129667849Y-82707140D01*
X129596231Y-82739558D01*
X129555577Y-82745943D01*
X129428337Y-82773138D01*
X129355830Y-82807368D01*
X129318015Y-82857101D01*
X129310281Y-82899282D01*
X129300168Y-83013836D01*
X129289821Y-83186962D01*
X129279824Y-83407115D01*
X129270759Y-83662749D01*
X129263210Y-83942319D01*
X129263165Y-83944269D01*
X129255560Y-84257666D01*
X129248205Y-84502169D01*
X129240111Y-84688442D01*
X129230284Y-84827142D01*
X129217739Y-84928938D01*
X129201485Y-85004486D01*
X129180529Y-85064446D01*
X129153883Y-85119487D01*
X129111773Y-85191395D01*
X128926733Y-85412364D01*
X128686032Y-85592803D01*
X128405173Y-85720266D01*
X128270424Y-85746977D01*
X128060477Y-85761628D01*
X127788090Y-85762141D01*
X127618066Y-85757039D01*
X127452437Y-85746162D01*
X127327418Y-85727083D01*
X127221030Y-85696146D01*
X127111287Y-85649704D01*
X127017679Y-85603603D01*
X126815582Y-85476452D01*
X126661387Y-85325446D01*
X126532180Y-85130017D01*
X126414578Y-84917711D01*
X126394673Y-83933405D01*
X126393484Y-83874965D01*
X126387106Y-83581806D01*
X126380825Y-83356447D01*
X126373657Y-83188824D01*
X126364615Y-83068870D01*
X126352712Y-82986516D01*
X126336965Y-82931694D01*
X126316386Y-82894343D01*
X126289991Y-82864387D01*
X126194299Y-82798098D01*
X126074001Y-82752844D01*
X126064887Y-82750874D01*
X125973212Y-82717831D01*
X125926541Y-82677268D01*
X125936091Y-82659467D01*
X125990605Y-82644887D01*
X126099519Y-82635334D01*
X126271224Y-82630112D01*
X126514108Y-82628524D01*
X126751372Y-82629972D01*
G37*
G36*
X118063445Y-89915427D02*
G01*
X118103137Y-89990807D01*
X118113793Y-90065348D01*
X118101996Y-90142995D01*
X118028347Y-90281772D01*
X117900892Y-90404767D01*
X117735582Y-90493906D01*
X117705524Y-90503629D01*
X117540129Y-90531341D01*
X117330642Y-90538835D01*
X117103350Y-90527203D01*
X116884531Y-90497535D01*
X116700472Y-90450926D01*
X116465504Y-90348006D01*
X116256235Y-90204595D01*
X116106531Y-90038003D01*
X116021326Y-89855805D01*
X116016497Y-89797563D01*
X116282445Y-89797563D01*
X116308665Y-89953049D01*
X116408610Y-90117742D01*
X116581241Y-90254734D01*
X116687217Y-90306222D01*
X116918335Y-90367988D01*
X117159103Y-90378480D01*
X117377274Y-90334470D01*
X117432749Y-90309892D01*
X117562278Y-90225616D01*
X117678808Y-90118502D01*
X117762944Y-90008058D01*
X117795297Y-89913801D01*
X117782023Y-89866641D01*
X117725720Y-89770679D01*
X117640281Y-89664392D01*
X117485263Y-89496081D01*
X116991479Y-89515987D01*
X116789368Y-89526832D01*
X116581474Y-89548984D01*
X116436362Y-89583351D01*
X116344502Y-89633715D01*
X116296373Y-89703859D01*
X116282445Y-89797563D01*
X116016497Y-89797563D01*
X116005554Y-89665571D01*
X116064155Y-89474871D01*
X116071029Y-89461931D01*
X116129604Y-89378071D01*
X116208958Y-89314813D01*
X116320850Y-89268518D01*
X116477044Y-89235549D01*
X116689300Y-89212273D01*
X116969382Y-89195058D01*
X117131700Y-89186382D01*
X117342284Y-89170843D01*
X117492388Y-89152323D01*
X117593923Y-89129176D01*
X117658803Y-89099759D01*
X117700303Y-89070354D01*
X117734837Y-89023288D01*
X117711286Y-88973238D01*
X117627986Y-88900447D01*
X117454883Y-88832395D01*
X117218025Y-88808820D01*
X117217989Y-88808819D01*
X116939304Y-88776315D01*
X116705084Y-88684368D01*
X116522399Y-88535747D01*
X116470755Y-88472614D01*
X116395630Y-88340684D01*
X116367510Y-88203753D01*
X116711802Y-88203753D01*
X116727960Y-88337940D01*
X116772039Y-88442610D01*
X116849767Y-88541287D01*
X116880029Y-88572112D01*
X117031278Y-88676813D01*
X117188517Y-88703011D01*
X117356014Y-88651640D01*
X117495531Y-88545082D01*
X117604729Y-88367943D01*
X117662275Y-88131893D01*
X117667707Y-88071317D01*
X117653315Y-87854090D01*
X117583897Y-87681279D01*
X117462747Y-87562271D01*
X117338267Y-87506367D01*
X117162366Y-87488959D01*
X116999522Y-87537606D01*
X116862679Y-87644632D01*
X116764786Y-87802364D01*
X116718783Y-88003134D01*
X116717844Y-88016523D01*
X116711802Y-88203753D01*
X116367510Y-88203753D01*
X116365254Y-88192767D01*
X116371402Y-87999645D01*
X116390450Y-87801416D01*
X116157294Y-87827793D01*
X115924139Y-87854172D01*
X115924137Y-87685104D01*
X115924140Y-87516038D01*
X116221924Y-87543941D01*
X116259180Y-87547353D01*
X116408776Y-87556631D01*
X116517678Y-87549061D01*
X116617749Y-87519712D01*
X116740846Y-87463654D01*
X116801513Y-87434864D01*
X116930635Y-87386395D01*
X117053078Y-87369244D01*
X117211240Y-87375469D01*
X117327024Y-87389636D01*
X117474894Y-87420556D01*
X117580552Y-87457560D01*
X117687856Y-87523429D01*
X117853804Y-87681674D01*
X117965250Y-87870545D01*
X118016218Y-88071318D01*
X118017223Y-88075286D01*
X118004753Y-88281142D01*
X117922860Y-88473362D01*
X117911332Y-88489451D01*
X117828099Y-88576931D01*
X117723036Y-88660841D01*
X117584263Y-88755137D01*
X117739546Y-88825447D01*
X117817723Y-88862772D01*
X117946148Y-88942119D01*
X118014209Y-89022847D01*
X118034171Y-89117100D01*
X118034063Y-89123273D01*
X117993244Y-89242903D01*
X117889089Y-89352591D01*
X117736778Y-89436055D01*
X117618540Y-89480863D01*
X117866167Y-89710011D01*
X117983122Y-89822580D01*
X118062037Y-89913801D01*
X118063445Y-89915427D01*
G37*
G36*
X110799018Y-87406427D02*
G01*
X110952995Y-87410617D01*
X111047066Y-87420663D01*
X111094082Y-87438403D01*
X111106896Y-87465674D01*
X111089296Y-87503193D01*
X111014977Y-87525392D01*
X110950315Y-87534800D01*
X110849559Y-87579134D01*
X110816714Y-87610468D01*
X110798083Y-87655786D01*
X110799235Y-87723036D01*
X110822625Y-87822408D01*
X110870703Y-87964094D01*
X110945926Y-88158283D01*
X111050747Y-88415173D01*
X111086126Y-88500093D01*
X111175441Y-88704875D01*
X111241537Y-88838826D01*
X111286215Y-88905355D01*
X111311284Y-88907875D01*
X111332062Y-88867634D01*
X111387158Y-88746201D01*
X111455069Y-88583871D01*
X111529587Y-88396986D01*
X111604492Y-88201882D01*
X111673573Y-88014899D01*
X111730611Y-87852374D01*
X111769392Y-87730645D01*
X111783702Y-87666050D01*
X111782106Y-87634088D01*
X111751458Y-87571290D01*
X111664264Y-87539326D01*
X111662578Y-87538982D01*
X111579358Y-87506008D01*
X111544828Y-87460697D01*
X111554862Y-87441205D01*
X111600480Y-87424058D01*
X111693015Y-87413234D01*
X111843356Y-87407583D01*
X112062383Y-87405957D01*
X112228066Y-87406822D01*
X112397779Y-87411437D01*
X112505985Y-87421011D01*
X112563202Y-87436631D01*
X112579937Y-87459373D01*
X112575821Y-87472769D01*
X112521234Y-87518587D01*
X112423463Y-87559670D01*
X112302804Y-87615203D01*
X112183359Y-87741867D01*
X112099728Y-87877186D01*
X112326315Y-88417904D01*
X112363752Y-88506482D01*
X112441318Y-88684962D01*
X112506578Y-88828368D01*
X112553582Y-88923829D01*
X112576373Y-88958473D01*
X112598618Y-88930044D01*
X112645793Y-88840974D01*
X112710641Y-88705291D01*
X112786959Y-88537369D01*
X112868531Y-88351590D01*
X112949154Y-88162323D01*
X113022621Y-87983950D01*
X113082721Y-87830843D01*
X113123245Y-87717384D01*
X113137988Y-87657943D01*
X113137841Y-87651921D01*
X113108732Y-87583355D01*
X113017867Y-87545298D01*
X113016016Y-87544884D01*
X112932908Y-87509733D01*
X112898434Y-87462510D01*
X112905443Y-87444045D01*
X112944506Y-87425314D01*
X113028223Y-87413640D01*
X113168234Y-87407648D01*
X113376174Y-87405957D01*
X113537628Y-87406843D01*
X113693611Y-87411534D01*
X113790496Y-87421522D01*
X113840020Y-87438207D01*
X113853920Y-87462991D01*
X113834054Y-87504759D01*
X113764343Y-87547324D01*
X113702481Y-87572801D01*
X113608059Y-87633119D01*
X113589568Y-87658191D01*
X113537902Y-87750723D01*
X113463363Y-87898503D01*
X113371269Y-88090596D01*
X113266934Y-88316070D01*
X113155669Y-88563990D01*
X113138046Y-88603822D01*
X113017525Y-88873925D01*
X112922979Y-89079929D01*
X112849984Y-89230026D01*
X112794109Y-89332417D01*
X112750924Y-89395295D01*
X112716002Y-89426859D01*
X112684915Y-89435305D01*
X112682446Y-89435235D01*
X112647351Y-89423629D01*
X112609472Y-89385618D01*
X112563583Y-89311646D01*
X112504459Y-89192160D01*
X112426874Y-89017599D01*
X112325596Y-88778408D01*
X112244588Y-88587251D01*
X112163520Y-88401569D01*
X112096685Y-88254536D01*
X112049408Y-88157831D01*
X112027006Y-88123127D01*
X112007720Y-88152386D01*
X111962508Y-88244422D01*
X111897276Y-88387827D01*
X111817329Y-88570917D01*
X111727970Y-88782009D01*
X111698045Y-88853559D01*
X111604763Y-89072840D01*
X111533991Y-89230090D01*
X111480501Y-89334788D01*
X111439060Y-89396418D01*
X111404443Y-89424461D01*
X111371417Y-89428399D01*
X111356025Y-89423387D01*
X111321055Y-89392810D01*
X111277859Y-89328197D01*
X111222404Y-89221477D01*
X111150664Y-89064572D01*
X111058616Y-88849416D01*
X110942231Y-88567932D01*
X110887709Y-88435397D01*
X110789916Y-88201045D01*
X110702492Y-87995794D01*
X110630293Y-87830827D01*
X110578175Y-87717332D01*
X110550991Y-87666492D01*
X110486579Y-87615570D01*
X110388963Y-87564657D01*
X110384412Y-87562731D01*
X110304051Y-87512656D01*
X110270847Y-87460844D01*
X110271801Y-87453565D01*
X110297830Y-87430426D01*
X110368199Y-87415804D01*
X110494637Y-87408161D01*
X110688872Y-87405956D01*
X110799018Y-87406427D01*
G37*
G36*
X135350015Y-89177584D02*
G01*
X135357770Y-89184272D01*
X135444400Y-89243773D01*
X135574618Y-89319431D01*
X135723373Y-89396551D01*
X136009249Y-89535894D01*
X136020545Y-89988031D01*
X136020908Y-90004868D01*
X136021736Y-90043532D01*
X136020862Y-90270901D01*
X136008855Y-90422041D01*
X135985811Y-90495635D01*
X135983804Y-90497712D01*
X135959858Y-90508989D01*
X135911304Y-90518619D01*
X135832643Y-90526725D01*
X135718371Y-90533425D01*
X135562988Y-90538836D01*
X135360992Y-90543085D01*
X135106879Y-90546292D01*
X134795151Y-90548576D01*
X134420306Y-90550057D01*
X133976841Y-90550857D01*
X133459255Y-90551097D01*
X133450002Y-90551096D01*
X132940422Y-90550922D01*
X132504534Y-90550307D01*
X132136511Y-90549114D01*
X131830522Y-90547192D01*
X131580737Y-90544405D01*
X131381323Y-90540605D01*
X131226452Y-90535651D01*
X131110294Y-90529397D01*
X131027016Y-90521705D01*
X130970789Y-90512424D01*
X130935783Y-90501416D01*
X130916167Y-90488535D01*
X130890621Y-90450915D01*
X130868634Y-90370952D01*
X130864304Y-90322802D01*
X131145159Y-90322802D01*
X131177619Y-90339882D01*
X131253050Y-90305031D01*
X131269456Y-90295585D01*
X131331234Y-90273403D01*
X131359774Y-90302271D01*
X131373045Y-90323396D01*
X131436879Y-90352037D01*
X131468053Y-90343409D01*
X131476358Y-90305501D01*
X131456435Y-90223668D01*
X131406641Y-90083306D01*
X131375393Y-90033541D01*
X131490598Y-90033541D01*
X131491751Y-90043058D01*
X131530408Y-90073354D01*
X131535633Y-90074557D01*
X131560221Y-90120593D01*
X131570220Y-90212696D01*
X131570328Y-90225385D01*
X131583157Y-90305501D01*
X131585770Y-90321821D01*
X131629938Y-90352037D01*
X131635378Y-90351784D01*
X131676705Y-90315754D01*
X131689655Y-90212695D01*
X131690001Y-90194408D01*
X131693291Y-90172884D01*
X131809093Y-90172884D01*
X131811519Y-90248869D01*
X131829448Y-90328591D01*
X131868810Y-90352037D01*
X131894138Y-90344753D01*
X131920711Y-90290966D01*
X131928529Y-90172883D01*
X131926100Y-90096900D01*
X131910847Y-90029077D01*
X131995074Y-90029077D01*
X132016727Y-90122272D01*
X132040732Y-90172884D01*
X132089209Y-90275093D01*
X132113638Y-90314869D01*
X132160305Y-90346423D01*
X132207579Y-90306602D01*
X132248854Y-90220629D01*
X132528152Y-90220629D01*
X132573480Y-90304264D01*
X132614187Y-90332235D01*
X132704544Y-90351223D01*
X132739220Y-90339053D01*
X132834489Y-90339053D01*
X132863206Y-90352037D01*
X132884789Y-90348380D01*
X132935211Y-90302272D01*
X132938411Y-90294345D01*
X132969881Y-90272567D01*
X133037519Y-90302273D01*
X133104524Y-90337316D01*
X133159810Y-90343199D01*
X133169019Y-90290339D01*
X133136631Y-90172885D01*
X133121281Y-90130743D01*
X133068580Y-90033542D01*
X133202510Y-90033542D01*
X133203667Y-90043058D01*
X133242321Y-90073355D01*
X133247544Y-90074558D01*
X133272133Y-90120595D01*
X133282133Y-90212696D01*
X133282241Y-90225385D01*
X133292640Y-90290338D01*
X133297683Y-90321822D01*
X133341850Y-90352037D01*
X133347289Y-90351785D01*
X133388621Y-90315756D01*
X133401569Y-90212698D01*
X133401912Y-90194409D01*
X133405202Y-90172884D01*
X133521003Y-90172884D01*
X133523432Y-90248870D01*
X133541362Y-90328590D01*
X133580723Y-90352036D01*
X133606051Y-90344753D01*
X133622927Y-90310594D01*
X133680252Y-90310594D01*
X133681448Y-90314972D01*
X133727471Y-90335661D01*
X133819593Y-90344075D01*
X133877989Y-90343152D01*
X133934581Y-90328171D01*
X133949529Y-90292319D01*
X134038559Y-90292319D01*
X134063173Y-90334232D01*
X134157995Y-90352036D01*
X134203053Y-90351027D01*
X134253978Y-90335225D01*
X134273968Y-90283048D01*
X134277432Y-90172883D01*
X134276755Y-90105296D01*
X134266222Y-90028909D01*
X134257060Y-90021011D01*
X134321974Y-90021011D01*
X134332146Y-90088873D01*
X134367945Y-90172884D01*
X134384334Y-90211345D01*
X134409099Y-90260700D01*
X134461972Y-90335817D01*
X134507201Y-90339381D01*
X134535704Y-90300786D01*
X134849565Y-90300786D01*
X134855683Y-90341657D01*
X134888515Y-90352037D01*
X134915304Y-90347302D01*
X134965620Y-90302272D01*
X134968820Y-90294346D01*
X135000288Y-90272564D01*
X135067928Y-90302272D01*
X135126429Y-90334019D01*
X135172658Y-90352037D01*
X135191133Y-90327252D01*
X135184676Y-90244375D01*
X135164543Y-90172884D01*
X135232915Y-90172884D01*
X135235345Y-90248868D01*
X135252972Y-90327252D01*
X135253274Y-90328590D01*
X135292634Y-90352037D01*
X135317962Y-90344754D01*
X135344536Y-90290967D01*
X135352353Y-90172883D01*
X135349924Y-90096900D01*
X135331995Y-90017176D01*
X135319788Y-90009905D01*
X135416118Y-90009905D01*
X135424888Y-90058574D01*
X135466278Y-90160549D01*
X135472170Y-90172883D01*
X135509383Y-90250757D01*
X135570471Y-90329479D01*
X135623819Y-90330063D01*
X135670635Y-90253065D01*
X135705640Y-90168220D01*
X135751905Y-90070674D01*
X135761222Y-90052389D01*
X135768098Y-90004867D01*
X135712061Y-89993730D01*
X135664364Y-90004845D01*
X135631035Y-90053448D01*
X135626544Y-90080920D01*
X135591223Y-90113166D01*
X135572908Y-90106428D01*
X135551411Y-90053446D01*
X135537054Y-90019025D01*
X135473419Y-89993731D01*
X135440811Y-89994838D01*
X135416118Y-90009905D01*
X135319788Y-90009905D01*
X135292633Y-89993730D01*
X135267305Y-90001014D01*
X135240732Y-90054801D01*
X135232915Y-90172884D01*
X135164543Y-90172884D01*
X135149399Y-90119106D01*
X135117296Y-90054561D01*
X135047933Y-89998206D01*
X134975191Y-90006768D01*
X134963752Y-90022282D01*
X134918753Y-90083308D01*
X134871809Y-90214824D01*
X134849565Y-90300786D01*
X134535704Y-90300786D01*
X134554678Y-90275093D01*
X134565346Y-90254946D01*
X134632114Y-90108882D01*
X134648088Y-90022282D01*
X134613563Y-89993730D01*
X134567305Y-90014071D01*
X134517052Y-90083308D01*
X134480556Y-90172884D01*
X134453973Y-90083307D01*
X134425126Y-90027230D01*
X134372316Y-89993729D01*
X134353123Y-89995178D01*
X134321974Y-90021011D01*
X134257060Y-90021011D01*
X134231438Y-89998923D01*
X134157996Y-89993731D01*
X134119019Y-89995851D01*
X134051175Y-90018252D01*
X134044885Y-90053188D01*
X134108231Y-90085721D01*
X134129026Y-90091235D01*
X134157297Y-90102988D01*
X134108230Y-90108550D01*
X134071617Y-90116518D01*
X134038559Y-90150059D01*
X134047540Y-90168903D01*
X134049189Y-90172365D01*
X134108229Y-90205160D01*
X134129026Y-90210672D01*
X134157296Y-90222421D01*
X134108230Y-90227984D01*
X134071429Y-90239496D01*
X134038559Y-90292319D01*
X133949529Y-90292319D01*
X133955752Y-90277392D01*
X133958935Y-90168903D01*
X133958361Y-90106818D01*
X133948071Y-90029428D01*
X133913054Y-89999013D01*
X133838251Y-89993731D01*
X133817186Y-89994488D01*
X133723073Y-90025258D01*
X133686114Y-90089176D01*
X133717543Y-90169846D01*
X133719400Y-90172883D01*
X133740046Y-90206632D01*
X133721997Y-90251311D01*
X133709096Y-90260930D01*
X133680252Y-90310594D01*
X133622927Y-90310594D01*
X133632624Y-90290966D01*
X133640440Y-90172884D01*
X133638012Y-90096898D01*
X133620081Y-90017175D01*
X133580723Y-89993730D01*
X133555393Y-90001015D01*
X133539323Y-90033542D01*
X133528819Y-90054801D01*
X133521003Y-90172884D01*
X133405202Y-90172884D01*
X133415065Y-90108353D01*
X133441380Y-90073356D01*
X133450895Y-90072195D01*
X133481192Y-90033542D01*
X133479989Y-90028317D01*
X133433950Y-90003730D01*
X133341850Y-89993730D01*
X133323564Y-89994074D01*
X133237508Y-90007229D01*
X133202510Y-90033542D01*
X133068580Y-90033542D01*
X133064941Y-90026831D01*
X133003447Y-89993729D01*
X132985639Y-89996196D01*
X132926085Y-90048184D01*
X132870266Y-90172884D01*
X132866711Y-90183368D01*
X132835432Y-90288589D01*
X132835360Y-90292435D01*
X132834489Y-90339053D01*
X132739220Y-90339053D01*
X132777847Y-90325496D01*
X132801386Y-90292435D01*
X132791758Y-90247971D01*
X132724766Y-90244135D01*
X132676847Y-90249353D01*
X132645142Y-90228874D01*
X132650384Y-90213605D01*
X132700598Y-90192789D01*
X132715225Y-90191437D01*
X132769940Y-90149864D01*
X132784137Y-90075129D01*
X132749223Y-90001125D01*
X132739323Y-89992350D01*
X132666176Y-89965700D01*
X132596537Y-89980997D01*
X132572477Y-90020784D01*
X132565518Y-90032292D01*
X132576043Y-90054307D01*
X132635189Y-90075877D01*
X132650369Y-90076760D01*
X132669473Y-90087549D01*
X132615284Y-90114405D01*
X132559476Y-90147876D01*
X132528152Y-90220629D01*
X132248854Y-90220629D01*
X132262606Y-90191984D01*
X132305396Y-90082142D01*
X132321972Y-90020785D01*
X132309827Y-89997434D01*
X132269612Y-89993730D01*
X132227786Y-90013317D01*
X132184354Y-90082654D01*
X132156131Y-90171575D01*
X132123235Y-90082654D01*
X132089242Y-90026877D01*
X132030325Y-89993731D01*
X132023951Y-89994085D01*
X131995074Y-90029077D01*
X131910847Y-90029077D01*
X131908170Y-90017176D01*
X131868810Y-89993730D01*
X131843480Y-90001015D01*
X131827409Y-90033541D01*
X131816905Y-90054801D01*
X131809093Y-90172884D01*
X131693291Y-90172884D01*
X131703154Y-90108352D01*
X131729469Y-90073353D01*
X131738984Y-90072197D01*
X131769280Y-90033541D01*
X131768075Y-90028317D01*
X131722040Y-90003730D01*
X131629938Y-89993730D01*
X131611650Y-89994075D01*
X131525593Y-90007229D01*
X131490598Y-90033541D01*
X131375393Y-90033541D01*
X131360903Y-90010464D01*
X131295531Y-89993059D01*
X131229373Y-90043259D01*
X131175644Y-90156854D01*
X131151571Y-90245942D01*
X131145159Y-90322802D01*
X130864304Y-90322802D01*
X130857007Y-90241651D01*
X130853607Y-90047988D01*
X130854695Y-89959765D01*
X130862702Y-89795053D01*
X130876784Y-89665294D01*
X130894916Y-89592809D01*
X130948181Y-89538153D01*
X131052260Y-89465524D01*
X131183553Y-89392045D01*
X131312622Y-89322975D01*
X131438387Y-89246598D01*
X131520455Y-89186229D01*
X131610032Y-89103988D01*
X131610031Y-89232639D01*
X131608737Y-89267967D01*
X131592537Y-89402655D01*
X131563733Y-89545163D01*
X131548369Y-89604507D01*
X131524526Y-89676415D01*
X131505520Y-89684060D01*
X131483258Y-89636646D01*
X131467380Y-89565515D01*
X131472523Y-89470405D01*
X131483482Y-89434574D01*
X131483883Y-89407046D01*
X131454273Y-89408343D01*
X131380894Y-89440687D01*
X131249990Y-89506289D01*
X131151709Y-89562412D01*
X131065821Y-89627355D01*
X131032761Y-89675491D01*
X131036129Y-89684109D01*
X131056072Y-89695344D01*
X131098925Y-89704953D01*
X131170358Y-89713098D01*
X131276047Y-89719945D01*
X131421657Y-89725656D01*
X131612866Y-89730391D01*
X131855338Y-89734321D01*
X132154752Y-89737603D01*
X132516774Y-89740404D01*
X132947078Y-89742888D01*
X133451333Y-89745214D01*
X133958771Y-89747125D01*
X134394832Y-89748162D01*
X134762051Y-89748217D01*
X135065832Y-89747194D01*
X135311576Y-89744993D01*
X135504694Y-89741520D01*
X135650578Y-89736672D01*
X135754639Y-89730355D01*
X135822278Y-89722474D01*
X135858899Y-89712926D01*
X135869907Y-89701619D01*
X135847263Y-89641682D01*
X135750616Y-89556075D01*
X135581268Y-89465293D01*
X135431977Y-89397839D01*
X135431977Y-89534187D01*
X135431841Y-89546289D01*
X135420748Y-89641341D01*
X135397296Y-89691971D01*
X135381302Y-89691755D01*
X135362963Y-89658335D01*
X135342473Y-89578739D01*
X135317118Y-89442037D01*
X135284172Y-89237304D01*
X135262530Y-89097961D01*
X135350015Y-89177584D01*
G37*
G36*
X136020704Y-84967475D02*
G01*
X136018843Y-85347637D01*
X136009249Y-87306426D01*
X135906663Y-87549912D01*
X135903929Y-87556397D01*
X135834368Y-87710289D01*
X135599680Y-88124054D01*
X135311554Y-88511639D01*
X134980844Y-88862358D01*
X134618413Y-89165519D01*
X134544735Y-89212597D01*
X134235112Y-89410436D01*
X133841802Y-89586424D01*
X133828812Y-89590908D01*
X133589461Y-89650059D01*
X133359970Y-89654912D01*
X133119633Y-89603541D01*
X132847735Y-89494026D01*
X132771700Y-89457047D01*
X132420547Y-89254068D01*
X132309708Y-89169756D01*
X133142556Y-89169756D01*
X133159403Y-89225827D01*
X133215585Y-89252841D01*
X133270315Y-89264209D01*
X133391940Y-89274805D01*
X133521343Y-89272700D01*
X133641047Y-89260136D01*
X133733573Y-89239355D01*
X133781444Y-89212598D01*
X133767185Y-89182104D01*
X133735692Y-89135909D01*
X133718738Y-89045849D01*
X133713465Y-88990900D01*
X133662159Y-88870211D01*
X133569980Y-88795306D01*
X133453815Y-88782952D01*
X133329435Y-88825706D01*
X133209554Y-88930173D01*
X133150951Y-89084184D01*
X133142556Y-89169756D01*
X132309708Y-89169756D01*
X132093496Y-89005289D01*
X131769209Y-88694896D01*
X131706925Y-88628501D01*
X131409209Y-88273719D01*
X131181499Y-87927480D01*
X131017934Y-87579681D01*
X130912642Y-87220225D01*
X130903129Y-87168253D01*
X130891376Y-87075606D01*
X130884818Y-86995046D01*
X131206464Y-86995046D01*
X131229301Y-87036025D01*
X131326699Y-87094316D01*
X131397453Y-87136193D01*
X131528399Y-87235709D01*
X131648392Y-87349276D01*
X131671857Y-87374645D01*
X131764930Y-87471353D01*
X131818523Y-87515041D01*
X131843043Y-87511876D01*
X131848905Y-87468024D01*
X131861309Y-87415399D01*
X131916740Y-87380582D01*
X131993489Y-87410306D01*
X132014025Y-87428332D01*
X132028260Y-87462899D01*
X131971839Y-87492076D01*
X131921765Y-87523253D01*
X131888717Y-87585105D01*
X131908589Y-87695184D01*
X131987545Y-87859415D01*
X132113846Y-88033364D01*
X132273715Y-88202832D01*
X132453382Y-88353614D01*
X132639075Y-88471513D01*
X132817022Y-88542327D01*
X132898610Y-88574322D01*
X132919379Y-88615146D01*
X132864107Y-88654521D01*
X132836204Y-88670017D01*
X132804389Y-88718498D01*
X132823963Y-88739545D01*
X132909655Y-88754212D01*
X133052645Y-88752823D01*
X133241085Y-88736149D01*
X133463132Y-88704952D01*
X133706947Y-88660005D01*
X133747166Y-88651554D01*
X134116962Y-88552608D01*
X134420500Y-88425992D01*
X134667398Y-88265592D01*
X134867271Y-88065300D01*
X135029737Y-87818994D01*
X135083499Y-87717748D01*
X135134083Y-87608995D01*
X135145050Y-87549912D01*
X135117273Y-87529196D01*
X135051626Y-87535544D01*
X134949958Y-87554978D01*
X135038659Y-87460561D01*
X135048502Y-87449778D01*
X135089928Y-87390374D01*
X135083292Y-87366144D01*
X135052680Y-87350987D01*
X135013980Y-87286613D01*
X134991903Y-87247961D01*
X134914769Y-87193451D01*
X134821366Y-87173183D01*
X134747282Y-87198864D01*
X134721096Y-87247012D01*
X134705408Y-87340093D01*
X134694880Y-87404389D01*
X134654260Y-87419822D01*
X134587534Y-87423211D01*
X134478655Y-87464797D01*
X134355388Y-87534217D01*
X134242168Y-87619625D01*
X134147189Y-87704546D01*
X134192405Y-87617587D01*
X134221171Y-87556971D01*
X134237618Y-87507631D01*
X134226139Y-87500760D01*
X134156750Y-87500352D01*
X134042936Y-87512951D01*
X133906084Y-87535880D01*
X133767585Y-87566463D01*
X133696290Y-87577666D01*
X133622575Y-87557960D01*
X133614216Y-87498292D01*
X133677173Y-87409032D01*
X133685285Y-87400857D01*
X133747618Y-87322259D01*
X133745812Y-87260216D01*
X133680252Y-87186990D01*
X133645261Y-87147326D01*
X133617543Y-87080348D01*
X133604125Y-86975281D01*
X133600629Y-86811455D01*
X133602847Y-86671947D01*
X133613905Y-86559214D01*
X133638250Y-86488640D01*
X133680252Y-86439801D01*
X133732449Y-86385204D01*
X133759876Y-86331424D01*
X133738716Y-86283043D01*
X133680252Y-86211598D01*
X133642903Y-86164252D01*
X133616685Y-86092625D01*
X133603959Y-85982531D01*
X133600628Y-85813479D01*
X133600933Y-85772510D01*
X133605875Y-85664871D01*
X133943479Y-85664871D01*
X134031365Y-85736035D01*
X134102327Y-85787735D01*
X134168480Y-85824429D01*
X134170214Y-85825062D01*
X134189509Y-85857268D01*
X134145442Y-85923153D01*
X134126985Y-85944249D01*
X134099276Y-85989418D01*
X134125442Y-86018659D01*
X134216499Y-86051951D01*
X134366786Y-86078577D01*
X134562873Y-86071327D01*
X134765923Y-86043400D01*
X134747225Y-86366371D01*
X134728528Y-86689341D01*
X134844117Y-86689341D01*
X134959705Y-86689341D01*
X134932425Y-86376626D01*
X134905148Y-86063910D01*
X135206314Y-86068082D01*
X135304193Y-86067864D01*
X135467948Y-86054623D01*
X135558435Y-86022372D01*
X135578840Y-85969416D01*
X135532357Y-85894045D01*
X135516233Y-85875689D01*
X135486579Y-85826624D01*
X135515381Y-85812214D01*
X135567807Y-85798124D01*
X135650941Y-85750504D01*
X135701752Y-85707420D01*
X135701031Y-85672733D01*
X135639310Y-85620945D01*
X135548055Y-85551828D01*
X135649263Y-85456748D01*
X135687905Y-85418997D01*
X135741403Y-85347636D01*
X135729042Y-85303048D01*
X135650941Y-85272461D01*
X135607793Y-85260906D01*
X135561096Y-85235583D01*
X135570028Y-85191023D01*
X135632218Y-85106225D01*
X135651341Y-85080030D01*
X135679871Y-85000840D01*
X135636504Y-84954120D01*
X135520151Y-84938226D01*
X135492386Y-84937303D01*
X135450874Y-84918845D01*
X135470387Y-84860611D01*
X135485695Y-84830291D01*
X135515283Y-84727367D01*
X135483943Y-84674504D01*
X135392164Y-84672868D01*
X135381183Y-84675041D01*
X135306965Y-84682268D01*
X135277796Y-84650082D01*
X135272727Y-84558409D01*
X135270189Y-84514494D01*
X135236103Y-84432902D01*
X135167432Y-84421367D01*
X135070797Y-84482380D01*
X135062637Y-84489670D01*
X135018883Y-84516997D01*
X134988752Y-84491776D01*
X134954812Y-84401912D01*
X134954615Y-84401320D01*
X134928586Y-84302870D01*
X134940210Y-84243103D01*
X134996140Y-84187500D01*
X135084590Y-84115874D01*
X134938791Y-84029852D01*
X134900478Y-84007421D01*
X134832298Y-83971549D01*
X134814239Y-83975920D01*
X134833344Y-84019228D01*
X134864981Y-84065278D01*
X134923919Y-84114262D01*
X134928240Y-84116244D01*
X134931569Y-84142606D01*
X134933130Y-84154961D01*
X134865915Y-84227215D01*
X134864466Y-84228471D01*
X134776458Y-84327742D01*
X134715607Y-84435270D01*
X134684320Y-84509270D01*
X134652110Y-84523352D01*
X134596395Y-84480208D01*
X134548729Y-84445133D01*
X134467026Y-84428368D01*
X134418037Y-84476856D01*
X134417313Y-84581778D01*
X134444102Y-84703749D01*
X134294947Y-84675766D01*
X134205838Y-84663987D01*
X134164912Y-84681525D01*
X134170075Y-84743053D01*
X134215378Y-84862533D01*
X134220830Y-84879413D01*
X134203840Y-84923112D01*
X134120366Y-84951116D01*
X134090508Y-84958054D01*
X134014234Y-84998918D01*
X134011330Y-85064018D01*
X134080705Y-85159068D01*
X134162664Y-85246309D01*
X134060801Y-85271875D01*
X134029660Y-85281706D01*
X133967643Y-85333117D01*
X133978472Y-85403063D01*
X134062079Y-85481108D01*
X134165223Y-85548690D01*
X134054353Y-85606780D01*
X133943479Y-85664871D01*
X133605875Y-85664871D01*
X133607464Y-85630269D01*
X133620887Y-85531790D01*
X133639037Y-85494983D01*
X133670960Y-85478803D01*
X133719574Y-85416273D01*
X133726727Y-85401982D01*
X133735563Y-85331822D01*
X133682616Y-85258477D01*
X133638176Y-85196666D01*
X133641891Y-85155685D01*
X133657152Y-85128153D01*
X133672456Y-85039773D01*
X133679165Y-84919172D01*
X133677078Y-84794175D01*
X133665987Y-84692601D01*
X133645686Y-84642271D01*
X133631848Y-84621961D01*
X133606142Y-84539692D01*
X133584599Y-84420957D01*
X133575647Y-84358616D01*
X133553940Y-84268873D01*
X133519507Y-84229647D01*
X133459915Y-84221003D01*
X133385445Y-84237881D01*
X133361756Y-84300627D01*
X133354291Y-84346905D01*
X133321943Y-84380248D01*
X133316721Y-84381455D01*
X133292131Y-84427490D01*
X133282133Y-84519592D01*
X133281789Y-84537879D01*
X133268635Y-84623936D01*
X133242321Y-84658934D01*
X133226216Y-84672412D01*
X133209085Y-84742384D01*
X133203346Y-84849110D01*
X133208563Y-84966464D01*
X133224305Y-85068322D01*
X133250135Y-85128563D01*
X133250273Y-85128705D01*
X133272889Y-85177192D01*
X133226447Y-85228335D01*
X133179937Y-85278489D01*
X133165233Y-85367199D01*
X133214565Y-85452415D01*
X133321570Y-85514968D01*
X133352480Y-85525405D01*
X133421706Y-85553533D01*
X133425323Y-85576442D01*
X133371336Y-85609292D01*
X133333222Y-85634369D01*
X133300512Y-85683029D01*
X133285646Y-85767468D01*
X133282133Y-85909535D01*
X133278793Y-86025558D01*
X133259425Y-86147852D01*
X133220493Y-86213192D01*
X133214422Y-86219705D01*
X133188948Y-86247030D01*
X133167855Y-86332852D01*
X133213668Y-86414755D01*
X133319614Y-86474848D01*
X133344635Y-86482987D01*
X133416404Y-86510797D01*
X133421935Y-86533442D01*
X133369379Y-86565825D01*
X133333579Y-86589391D01*
X133300780Y-86637967D01*
X133285739Y-86722612D01*
X133282134Y-86865022D01*
X133279568Y-86967053D01*
X133260870Y-87098387D01*
X133222415Y-87167084D01*
X133206593Y-87181542D01*
X133161057Y-87269083D01*
X133180545Y-87354773D01*
X133254894Y-87419902D01*
X133373929Y-87445768D01*
X133489613Y-87445768D01*
X133361756Y-87565203D01*
X133295436Y-87622084D01*
X133219893Y-87662795D01*
X133122751Y-87680669D01*
X132975073Y-87684639D01*
X132881024Y-87685667D01*
X132782156Y-87693375D01*
X132739656Y-87711728D01*
X132739163Y-87744357D01*
X132737910Y-87787841D01*
X132673751Y-87803852D01*
X132647357Y-87802896D01*
X132499327Y-87777124D01*
X132345647Y-87726194D01*
X132228944Y-87663548D01*
X132218163Y-87655259D01*
X132182818Y-87620403D01*
X132176545Y-87578206D01*
X132201808Y-87507519D01*
X132261061Y-87387192D01*
X132306399Y-87289569D01*
X132362856Y-87142183D01*
X132394575Y-87024674D01*
X132399219Y-86995585D01*
X132406477Y-86918687D01*
X132386675Y-86900885D01*
X132329519Y-86926676D01*
X132294759Y-86942901D01*
X132180842Y-86984805D01*
X132047449Y-87024295D01*
X131921238Y-87050978D01*
X131821622Y-87050197D01*
X131722082Y-87018177D01*
X131715685Y-87015516D01*
X131586460Y-86979172D01*
X131439180Y-86960715D01*
X131305179Y-86962164D01*
X131215784Y-86985539D01*
X131206464Y-86995046D01*
X130884818Y-86995046D01*
X130881567Y-86955114D01*
X130873548Y-86800301D01*
X130867164Y-86604697D01*
X130862253Y-86361834D01*
X130858667Y-86065236D01*
X130858529Y-86044824D01*
X131306151Y-86044824D01*
X131400965Y-86008775D01*
X131466331Y-85995840D01*
X131597205Y-85983854D01*
X131769765Y-85975722D01*
X131963990Y-85972728D01*
X132076279Y-85972939D01*
X132243184Y-85975604D01*
X132354827Y-85983484D01*
X132427303Y-85999264D01*
X132476705Y-86025627D01*
X132519131Y-86065257D01*
X132521771Y-86068080D01*
X132575300Y-86139471D01*
X132569381Y-86183363D01*
X132497511Y-86205496D01*
X132353188Y-86211598D01*
X132280301Y-86209665D01*
X132200423Y-86200169D01*
X132180323Y-86185404D01*
X132183083Y-86182015D01*
X132178171Y-86133395D01*
X132136205Y-86078467D01*
X132082899Y-86052351D01*
X132066530Y-86059504D01*
X132047963Y-86113318D01*
X132047932Y-86115839D01*
X132015851Y-86180606D01*
X131943544Y-86200216D01*
X131860659Y-86166287D01*
X131817778Y-86137286D01*
X131823706Y-86161834D01*
X131824819Y-86163747D01*
X131819136Y-86201337D01*
X131741771Y-86216177D01*
X131736482Y-86216401D01*
X131683248Y-86221860D01*
X131699267Y-86233067D01*
X131789186Y-86253694D01*
X131832589Y-86260836D01*
X131971201Y-86274527D01*
X132148852Y-86284485D01*
X132337851Y-86288929D01*
X132520303Y-86287527D01*
X132647226Y-86279205D01*
X132719217Y-86262236D01*
X132748852Y-86234964D01*
X132751738Y-86219705D01*
X132751508Y-86132400D01*
X132741587Y-85991352D01*
X132724167Y-85814606D01*
X132701456Y-85620210D01*
X132675646Y-85426211D01*
X132648941Y-85250654D01*
X132623540Y-85111588D01*
X132601643Y-85027060D01*
X132557221Y-84938064D01*
X132482646Y-84834887D01*
X132448957Y-84796582D01*
X132425961Y-84747109D01*
X132434272Y-84680886D01*
X132472833Y-84569249D01*
X132508507Y-84459003D01*
X132516267Y-84370688D01*
X132481277Y-84313075D01*
X132394361Y-84279799D01*
X132246347Y-84264500D01*
X132028057Y-84260815D01*
X131832944Y-84263473D01*
X131678155Y-84276638D01*
X131585507Y-84306609D01*
X131545783Y-84359655D01*
X131549769Y-84442046D01*
X131588255Y-84560047D01*
X131621443Y-84650418D01*
X131635878Y-84724676D01*
X131615699Y-84782581D01*
X131557540Y-84856669D01*
X131514261Y-84918591D01*
X131475797Y-85003438D01*
X131441870Y-85120109D01*
X131409669Y-85280483D01*
X131376384Y-85496439D01*
X131339207Y-85779857D01*
X131306151Y-86044824D01*
X130858529Y-86044824D01*
X130856251Y-85708433D01*
X130854847Y-85284952D01*
X130854297Y-84788323D01*
X130854100Y-84171694D01*
X133384704Y-84171694D01*
X133439979Y-84181191D01*
X133486630Y-84176763D01*
X133517818Y-84142605D01*
X133484862Y-84066329D01*
X133477035Y-84054919D01*
X133444270Y-84040973D01*
X133404447Y-84096189D01*
X133388361Y-84128366D01*
X133384704Y-84171694D01*
X130854100Y-84171694D01*
X130853995Y-83842790D01*
X132773041Y-83842790D01*
X132773428Y-83884056D01*
X132801731Y-83909354D01*
X132875547Y-83920690D01*
X133011911Y-83923846D01*
X133128899Y-83927033D01*
X133276515Y-83937585D01*
X133381662Y-83952689D01*
X133487515Y-83960137D01*
X133600630Y-83938000D01*
X133644089Y-83925253D01*
X133767009Y-83910727D01*
X133907525Y-83912296D01*
X134009540Y-83917053D01*
X134098499Y-83906173D01*
X134136573Y-83872195D01*
X134143554Y-83845365D01*
X134135868Y-83779479D01*
X134130997Y-83774005D01*
X134065412Y-83753086D01*
X133952036Y-83745766D01*
X133816571Y-83751223D01*
X133684712Y-83768635D01*
X133582154Y-83797181D01*
X133522583Y-83818559D01*
X133428268Y-83825232D01*
X133307254Y-83793456D01*
X133275570Y-83783797D01*
X133121750Y-83756352D01*
X132967421Y-83751283D01*
X132860127Y-83763517D01*
X132796199Y-83791171D01*
X132773041Y-83842790D01*
X130853995Y-83842790D01*
X130853942Y-83678227D01*
X132725067Y-83678227D01*
X132760040Y-83691708D01*
X132853652Y-83694159D01*
X132985395Y-83684812D01*
X133023562Y-83680922D01*
X133169645Y-83673102D01*
X133268050Y-83685592D01*
X133343700Y-83720905D01*
X133441380Y-83784907D01*
X133444180Y-83495353D01*
X133444262Y-83488052D01*
X133452924Y-83347924D01*
X133470394Y-83283717D01*
X133490945Y-83293196D01*
X133508850Y-83374136D01*
X133518391Y-83524294D01*
X133521375Y-83683542D01*
X133839686Y-83690008D01*
X134157996Y-83696471D01*
X134153698Y-83570573D01*
X134153303Y-83565675D01*
X134496866Y-83565675D01*
X134550766Y-83589825D01*
X134602664Y-83621810D01*
X134635738Y-83682259D01*
X134640498Y-83696473D01*
X134656270Y-83743569D01*
X134715362Y-83822882D01*
X134715556Y-83823078D01*
X134745021Y-83845364D01*
X134772431Y-83866096D01*
X134794984Y-83853835D01*
X134812030Y-83844290D01*
X134855047Y-83890917D01*
X134892729Y-83928728D01*
X134995439Y-83995911D01*
X135123778Y-84055441D01*
X135202635Y-84086306D01*
X135344241Y-84146252D01*
X135451882Y-84197269D01*
X135460053Y-84201543D01*
X135549691Y-84243277D01*
X135605467Y-84260569D01*
X135609094Y-84258769D01*
X135590539Y-84221476D01*
X135529962Y-84145885D01*
X135439780Y-84045131D01*
X135332415Y-83932351D01*
X135220283Y-83820686D01*
X135115805Y-83723272D01*
X135031397Y-83653249D01*
X134988837Y-83620213D01*
X134904962Y-83544473D01*
X134862165Y-83489573D01*
X134852905Y-83470792D01*
X134781911Y-83419866D01*
X134679769Y-83421047D01*
X134571144Y-83475525D01*
X134557260Y-83486464D01*
X134497767Y-83538296D01*
X134496866Y-83565675D01*
X134153303Y-83565675D01*
X134146954Y-83486844D01*
X134128748Y-83342735D01*
X134103932Y-83185893D01*
X134058464Y-82927117D01*
X133799687Y-82940988D01*
X133671537Y-82951807D01*
X133557926Y-82969697D01*
X133498160Y-82989806D01*
X133475680Y-83001462D01*
X133413802Y-82983143D01*
X133361082Y-82961725D01*
X133250858Y-82942182D01*
X133109998Y-82930578D01*
X133060379Y-82928587D01*
X132939808Y-82926975D01*
X132873593Y-82937951D01*
X132842395Y-82967823D01*
X132826863Y-83022899D01*
X132814119Y-83090926D01*
X132792337Y-83218828D01*
X132768747Y-83365933D01*
X132747143Y-83507817D01*
X132731318Y-83620057D01*
X132725067Y-83678227D01*
X130853942Y-83678227D01*
X130853606Y-82628526D01*
X133442884Y-82628524D01*
X136032160Y-82628527D01*
X136024176Y-84258769D01*
X136020704Y-84967475D01*
G37*
D12*
X128550002Y-95980000D02*
X132150001Y-95980000D01*
X128025817Y-96707205D02*
G75*
G02*
X128550002Y-95980000I2324154J-1122775D01*
G01*
X129210001Y-100180000D02*
G75*
G02*
X127982802Y-98933843I1140000J2350000D01*
G01*
X132150001Y-95980000D02*
G75*
G02*
X132674185Y-96707205I-1800000J-1850000D01*
G01*
X132705459Y-98928371D02*
G75*
G02*
X131460001Y-100180000I-2355458J1098371D01*
G01*
X113600001Y-95680001D02*
X117200000Y-95680001D01*
X113075816Y-96407206D02*
G75*
G02*
X113600001Y-95680001I2324154J-1122775D01*
G01*
X114260000Y-99880001D02*
G75*
G02*
X113032801Y-98633843I1140000J2350000D01*
G01*
X117200000Y-95680001D02*
G75*
G02*
X117724184Y-96407207I-1800000J-1850000D01*
G01*
X117755458Y-98628372D02*
G75*
G02*
X116510000Y-99880001I-2355458J1098371D01*
G01*
X118180000Y-102879998D02*
X118180000Y-103360001D01*
X118180000Y-106719999D02*
X118180002Y-106239998D01*
X128319999Y-106239998D02*
X128319999Y-106720000D01*
X128319999Y-106720000D02*
X118180000Y-106719999D01*
X128320000Y-103360001D02*
X128320001Y-102880000D01*
X128320001Y-102880000D02*
X118180000Y-102879998D01*
X106229999Y-101380000D02*
X106710001Y-101380000D01*
X106230001Y-111520001D02*
X106229999Y-101380000D01*
X106710001Y-111520000D02*
X106230001Y-111520001D01*
X109590000Y-111519999D02*
X110070000Y-111519999D01*
X110070000Y-101380000D02*
X109590000Y-101380001D01*
X110070000Y-111519999D02*
X110070000Y-101380000D01*
X113379999Y-62230001D02*
X113380000Y-72370000D01*
X113380000Y-72370000D02*
X113860001Y-72369998D01*
X113860002Y-62230001D02*
X113379999Y-62230001D01*
X116739998Y-62229999D02*
X117219999Y-62229999D01*
X117219999Y-62229999D02*
X117220001Y-72370000D01*
X117220001Y-72370000D02*
X116739998Y-72369999D01*
%LPC*%
D14*
X128150000Y-64050000D03*
D15*
X141450000Y-93600000D03*
D16*
X141450000Y-80900000D03*
D17*
X125690000Y-73270000D03*
D18*
X123150000Y-70730000D03*
X120609999Y-73270001D03*
D15*
X137600000Y-113050000D03*
D16*
X137600000Y-100350000D03*
D15*
X135800000Y-61250000D03*
D16*
X135800000Y-73950000D03*
D17*
X127810001Y-97830000D03*
D18*
X130350001Y-100370000D03*
X132890001Y-97830001D03*
D17*
X112860000Y-97530001D03*
D18*
X115400000Y-100070001D03*
X117940002Y-97529999D03*
D15*
X129600000Y-104799999D03*
D16*
X116900000Y-104799999D03*
D15*
X108150000Y-112800000D03*
D16*
X108150000Y-100100000D03*
D15*
X115300000Y-60950000D03*
D16*
X115300000Y-73650000D03*
D14*
X128150000Y-112250000D03*
D19*
X146450000Y-70340000D03*
D20*
X146450000Y-67800000D03*
X146449999Y-65259999D03*
D14*
X106800000Y-94050000D03*
%LPD*%
M02*
