G04 #@! TF.GenerationSoftware,KiCad,Pcbnew,9.0.0*
G04 #@! TF.CreationDate,2025-04-29T16:13:28+03:00*
G04 #@! TF.ProjectId,LED-BOARD,4c45442d-424f-4415-9244-2e6b69636164,rev?*
G04 #@! TF.SameCoordinates,Original*
G04 #@! TF.FileFunction,Copper,L2,Bot*
G04 #@! TF.FilePolarity,Positive*
%FSLAX46Y46*%
G04 Gerber Fmt 4.6, Leading zero omitted, Abs format (unit mm)*
G04 Created by KiCad (PCBNEW 9.0.0) date 2025-04-29 16:13:28*
%MOMM*%
%LPD*%
G01*
G04 APERTURE LIST*
G04 #@! TA.AperFunction,ComponentPad*
%ADD10C,5.500000*%
G04 #@! TD*
G04 #@! TA.AperFunction,ComponentPad*
%ADD11C,2.400000*%
G04 #@! TD*
G04 #@! TA.AperFunction,ComponentPad*
%ADD12O,2.400000X2.400000*%
G04 #@! TD*
G04 #@! TA.AperFunction,ComponentPad*
%ADD13R,1.500000X1.500000*%
G04 #@! TD*
G04 #@! TA.AperFunction,ComponentPad*
%ADD14C,1.500000*%
G04 #@! TD*
G04 #@! TA.AperFunction,ComponentPad*
%ADD15R,1.700000X1.700000*%
G04 #@! TD*
G04 #@! TA.AperFunction,ComponentPad*
%ADD16O,1.700000X1.700000*%
G04 #@! TD*
G04 #@! TA.AperFunction,Conductor*
%ADD17C,0.500000*%
G04 #@! TD*
G04 APERTURE END LIST*
D10*
X128150000Y-64050000D03*
D11*
X141450000Y-93600000D03*
D12*
X141450000Y-80900000D03*
D13*
X125690000Y-73270000D03*
D14*
X123150000Y-70730000D03*
X120609999Y-73270001D03*
D11*
X137600000Y-113050000D03*
D12*
X137600000Y-100350000D03*
D11*
X135800000Y-61250000D03*
D12*
X135800000Y-73950000D03*
D13*
X127810001Y-97830000D03*
D14*
X130350001Y-100370000D03*
X132890001Y-97830001D03*
D13*
X112860000Y-97530001D03*
D14*
X115400000Y-100070001D03*
X117940002Y-97529999D03*
D11*
X129600000Y-104799999D03*
D12*
X116900000Y-104799999D03*
D11*
X108150000Y-112800000D03*
D12*
X108150000Y-100100000D03*
D11*
X115300000Y-60950000D03*
D12*
X115300000Y-73650000D03*
D10*
X128150000Y-112250000D03*
D15*
X146450000Y-70340000D03*
D16*
X146450000Y-67800000D03*
X146449999Y-65259999D03*
D10*
X106800000Y-94050000D03*
D17*
X127810001Y-94539999D02*
X127810001Y-97830000D01*
X141450000Y-80900000D02*
X127810001Y-94539999D01*
X143750000Y-83700000D02*
X143750000Y-67959998D01*
X141450000Y-86000000D02*
X143750000Y-83700000D01*
X141450000Y-93600000D02*
X141450000Y-86000000D01*
X143750000Y-67959998D02*
X146449999Y-65259999D01*
G04 #@! TA.AperFunction,Conductor*
G36*
X147592539Y-57070185D02*
G01*
X147638294Y-57122989D01*
X147649500Y-57174500D01*
X147649500Y-64250242D01*
X147629815Y-64317281D01*
X147577011Y-64363036D01*
X147507853Y-64372980D01*
X147444297Y-64343955D01*
X147437819Y-64337923D01*
X147329785Y-64229889D01*
X147157819Y-64104950D01*
X146968413Y-64008443D01*
X146968412Y-64008442D01*
X146968411Y-64008442D01*
X146766242Y-63942753D01*
X146766240Y-63942752D01*
X146766239Y-63942752D01*
X146604956Y-63917207D01*
X146556286Y-63909499D01*
X146343712Y-63909499D01*
X146295041Y-63917207D01*
X146133759Y-63942752D01*
X145931584Y-64008443D01*
X145742178Y-64104950D01*
X145570212Y-64229889D01*
X145419889Y-64380212D01*
X145294950Y-64552178D01*
X145198443Y-64741584D01*
X145132752Y-64943759D01*
X145099499Y-65153712D01*
X145099499Y-65366291D01*
X145114615Y-65461727D01*
X145105661Y-65531020D01*
X145079823Y-65568806D01*
X143167050Y-67481578D01*
X143167044Y-67481586D01*
X143117812Y-67555266D01*
X143117813Y-67555267D01*
X143084921Y-67604494D01*
X143084914Y-67604506D01*
X143028342Y-67741084D01*
X143028340Y-67741090D01*
X142999500Y-67886077D01*
X142999500Y-79760677D01*
X142979815Y-79827716D01*
X142927011Y-79873471D01*
X142857853Y-79883415D01*
X142794297Y-79854390D01*
X142777124Y-79836164D01*
X142756726Y-79809581D01*
X142731247Y-79776376D01*
X142731245Y-79776374D01*
X142731242Y-79776370D01*
X142573629Y-79618757D01*
X142573622Y-79618751D01*
X142396782Y-79483058D01*
X142396780Y-79483057D01*
X142396774Y-79483052D01*
X142203726Y-79371595D01*
X142203722Y-79371593D01*
X141997790Y-79286293D01*
X141997783Y-79286291D01*
X141997781Y-79286290D01*
X141782463Y-79228596D01*
X141782457Y-79228595D01*
X141782452Y-79228594D01*
X141561466Y-79199501D01*
X141561463Y-79199500D01*
X141561457Y-79199500D01*
X141338543Y-79199500D01*
X141338537Y-79199500D01*
X141338533Y-79199501D01*
X141117547Y-79228594D01*
X141117540Y-79228595D01*
X141117537Y-79228596D01*
X140902219Y-79286290D01*
X140902209Y-79286293D01*
X140696277Y-79371593D01*
X140696273Y-79371595D01*
X140503226Y-79483052D01*
X140503217Y-79483058D01*
X140326377Y-79618751D01*
X140326370Y-79618757D01*
X140168757Y-79776370D01*
X140168751Y-79776377D01*
X140033058Y-79953217D01*
X140033052Y-79953226D01*
X139921595Y-80146273D01*
X139921593Y-80146277D01*
X139836293Y-80352209D01*
X139836290Y-80352219D01*
X139778597Y-80567534D01*
X139778594Y-80567547D01*
X139749501Y-80788533D01*
X139749500Y-80788549D01*
X139749500Y-81011450D01*
X139749501Y-81011466D01*
X139778594Y-81232452D01*
X139778595Y-81232457D01*
X139778596Y-81232463D01*
X139778597Y-81232465D01*
X139818725Y-81382226D01*
X139817062Y-81452076D01*
X139786631Y-81502000D01*
X127227051Y-94061579D01*
X127227045Y-94061587D01*
X127177813Y-94135267D01*
X127177814Y-94135268D01*
X127144922Y-94184495D01*
X127144915Y-94184507D01*
X127088343Y-94321085D01*
X127088341Y-94321091D01*
X127059501Y-94466078D01*
X127059501Y-96463023D01*
X127039816Y-96530062D01*
X126987012Y-96575817D01*
X126959866Y-96583266D01*
X126960069Y-96584124D01*
X126952521Y-96585907D01*
X126817672Y-96636202D01*
X126817665Y-96636206D01*
X126702456Y-96722452D01*
X126702453Y-96722455D01*
X126616207Y-96837664D01*
X126616203Y-96837671D01*
X126565909Y-96972517D01*
X126561304Y-97015353D01*
X126559502Y-97032123D01*
X126559501Y-97032135D01*
X126559501Y-98627870D01*
X126559502Y-98627876D01*
X126565909Y-98687483D01*
X126616203Y-98822328D01*
X126616207Y-98822335D01*
X126702453Y-98937544D01*
X126702456Y-98937547D01*
X126817665Y-99023793D01*
X126817672Y-99023797D01*
X126952518Y-99074091D01*
X126952517Y-99074091D01*
X126959445Y-99074835D01*
X127012128Y-99080500D01*
X128607873Y-99080499D01*
X128667484Y-99074091D01*
X128802332Y-99023796D01*
X128917547Y-98937546D01*
X129003797Y-98822331D01*
X129054092Y-98687483D01*
X129060501Y-98627873D01*
X129060500Y-97731578D01*
X131639501Y-97731578D01*
X131639501Y-97928423D01*
X131670291Y-98122827D01*
X131731118Y-98310030D01*
X131819671Y-98483824D01*
X131820477Y-98485406D01*
X131936173Y-98644647D01*
X132075355Y-98783829D01*
X132234596Y-98899525D01*
X132257347Y-98911117D01*
X132409971Y-98988883D01*
X132409973Y-98988883D01*
X132409976Y-98988885D01*
X132510318Y-99021488D01*
X132597174Y-99049710D01*
X132791579Y-99080501D01*
X132791584Y-99080501D01*
X132988423Y-99080501D01*
X133182827Y-99049710D01*
X133370026Y-98988885D01*
X133545406Y-98899525D01*
X133704647Y-98783829D01*
X133843829Y-98644647D01*
X133959525Y-98485406D01*
X134048885Y-98310026D01*
X134109710Y-98122827D01*
X134140501Y-97928423D01*
X134140501Y-97731578D01*
X134109710Y-97537174D01*
X134081488Y-97450318D01*
X134048885Y-97349976D01*
X134048883Y-97349973D01*
X134048883Y-97349971D01*
X133991409Y-97237172D01*
X133959525Y-97174596D01*
X133843829Y-97015355D01*
X133704647Y-96876173D01*
X133545406Y-96760477D01*
X133370030Y-96671118D01*
X133182827Y-96610291D01*
X132988423Y-96579501D01*
X132988418Y-96579501D01*
X132791584Y-96579501D01*
X132791579Y-96579501D01*
X132597174Y-96610291D01*
X132409971Y-96671118D01*
X132234595Y-96760477D01*
X132143742Y-96826486D01*
X132075355Y-96876173D01*
X132075353Y-96876175D01*
X132075352Y-96876175D01*
X131936175Y-97015352D01*
X131936175Y-97015353D01*
X131936173Y-97015355D01*
X131911021Y-97049974D01*
X131820477Y-97174595D01*
X131731118Y-97349971D01*
X131670291Y-97537174D01*
X131639501Y-97731578D01*
X129060500Y-97731578D01*
X129060500Y-97032128D01*
X129054092Y-96972517D01*
X129003797Y-96837669D01*
X129003796Y-96837668D01*
X129003794Y-96837664D01*
X128917548Y-96722455D01*
X128917545Y-96722452D01*
X128802336Y-96636206D01*
X128802329Y-96636202D01*
X128667483Y-96585908D01*
X128659939Y-96584126D01*
X128660475Y-96581853D01*
X128606689Y-96559571D01*
X128566844Y-96502177D01*
X128560501Y-96463024D01*
X128560501Y-94902227D01*
X128580186Y-94835188D01*
X128596815Y-94814551D01*
X140847999Y-82563366D01*
X140909320Y-82529883D01*
X140967768Y-82531273D01*
X141117537Y-82571404D01*
X141338543Y-82600500D01*
X141338550Y-82600500D01*
X141561450Y-82600500D01*
X141561457Y-82600500D01*
X141782463Y-82571404D01*
X141997781Y-82513710D01*
X142203726Y-82428405D01*
X142396774Y-82316948D01*
X142573624Y-82181247D01*
X142731247Y-82023624D01*
X142777124Y-81963836D01*
X142833551Y-81922633D01*
X142903297Y-81918478D01*
X142964218Y-81952690D01*
X142996971Y-82014407D01*
X142999500Y-82039322D01*
X142999500Y-83337769D01*
X142979815Y-83404808D01*
X142963181Y-83425450D01*
X140867050Y-85521580D01*
X140867044Y-85521588D01*
X140817812Y-85595268D01*
X140817813Y-85595269D01*
X140784921Y-85644496D01*
X140784914Y-85644508D01*
X140728342Y-85781086D01*
X140728340Y-85781092D01*
X140699500Y-85926079D01*
X140699500Y-91998141D01*
X140679815Y-92065180D01*
X140637501Y-92105528D01*
X140503226Y-92183052D01*
X140503217Y-92183058D01*
X140326377Y-92318751D01*
X140326370Y-92318757D01*
X140168757Y-92476370D01*
X140168751Y-92476377D01*
X140033058Y-92653217D01*
X140033052Y-92653226D01*
X139921595Y-92846273D01*
X139921593Y-92846277D01*
X139836293Y-93052209D01*
X139836290Y-93052219D01*
X139778597Y-93267534D01*
X139778594Y-93267547D01*
X139749501Y-93488533D01*
X139749500Y-93488549D01*
X139749500Y-93711450D01*
X139749501Y-93711466D01*
X139778594Y-93932452D01*
X139778595Y-93932457D01*
X139778596Y-93932463D01*
X139836290Y-94147780D01*
X139836293Y-94147790D01*
X139908075Y-94321086D01*
X139921595Y-94353726D01*
X140033052Y-94546774D01*
X140033057Y-94546780D01*
X140033058Y-94546782D01*
X140168751Y-94723622D01*
X140168757Y-94723629D01*
X140326370Y-94881242D01*
X140326376Y-94881247D01*
X140503226Y-95016948D01*
X140696274Y-95128405D01*
X140902219Y-95213710D01*
X141117537Y-95271404D01*
X141338543Y-95300500D01*
X141338550Y-95300500D01*
X141561450Y-95300500D01*
X141561457Y-95300500D01*
X141782463Y-95271404D01*
X141997781Y-95213710D01*
X142203726Y-95128405D01*
X142396774Y-95016948D01*
X142573624Y-94881247D01*
X142731247Y-94723624D01*
X142866948Y-94546774D01*
X142978405Y-94353726D01*
X143063710Y-94147781D01*
X143121404Y-93932463D01*
X143150500Y-93711457D01*
X143150500Y-93488543D01*
X143121404Y-93267537D01*
X143063710Y-93052219D01*
X142978405Y-92846274D01*
X142866948Y-92653226D01*
X142731247Y-92476376D01*
X142731242Y-92476370D01*
X142573629Y-92318757D01*
X142573622Y-92318751D01*
X142396782Y-92183058D01*
X142396780Y-92183057D01*
X142396774Y-92183052D01*
X142262498Y-92105527D01*
X142214284Y-92054961D01*
X142200500Y-91998141D01*
X142200500Y-86362229D01*
X142220185Y-86295190D01*
X142236819Y-86274548D01*
X144332948Y-84178419D01*
X144332951Y-84178416D01*
X144415084Y-84055495D01*
X144471658Y-83918913D01*
X144500500Y-83773918D01*
X144500500Y-83626083D01*
X144500500Y-68322227D01*
X144520185Y-68255188D01*
X144536819Y-68234546D01*
X144655126Y-68116239D01*
X144895366Y-67875998D01*
X144956687Y-67842515D01*
X145026378Y-67847499D01*
X145082312Y-67889370D01*
X145105518Y-67944283D01*
X145132754Y-68116243D01*
X145177900Y-68255188D01*
X145198444Y-68318414D01*
X145294951Y-68507820D01*
X145419890Y-68679786D01*
X145533818Y-68793714D01*
X145567303Y-68855037D01*
X145562319Y-68924729D01*
X145520447Y-68980662D01*
X145489471Y-68997577D01*
X145357912Y-69046646D01*
X145357906Y-69046649D01*
X145242812Y-69132809D01*
X145242809Y-69132812D01*
X145156649Y-69247906D01*
X145156645Y-69247913D01*
X145106403Y-69382620D01*
X145106401Y-69382627D01*
X145100000Y-69442155D01*
X145100000Y-70090000D01*
X146016988Y-70090000D01*
X145984075Y-70147007D01*
X145950000Y-70274174D01*
X145950000Y-70405826D01*
X145984075Y-70532993D01*
X146016988Y-70590000D01*
X145100000Y-70590000D01*
X145100000Y-71237844D01*
X145106401Y-71297372D01*
X145106403Y-71297379D01*
X145156645Y-71432086D01*
X145156649Y-71432093D01*
X145242809Y-71547187D01*
X145242812Y-71547190D01*
X145357906Y-71633350D01*
X145357913Y-71633354D01*
X145492620Y-71683596D01*
X145492627Y-71683598D01*
X145552155Y-71689999D01*
X145552172Y-71690000D01*
X146200000Y-71690000D01*
X146200000Y-70773012D01*
X146257007Y-70805925D01*
X146384174Y-70840000D01*
X146515826Y-70840000D01*
X146642993Y-70805925D01*
X146700000Y-70773012D01*
X146700000Y-71690000D01*
X147347828Y-71690000D01*
X147347844Y-71689999D01*
X147407372Y-71683598D01*
X147407383Y-71683595D01*
X147482166Y-71655703D01*
X147551857Y-71650718D01*
X147613181Y-71684202D01*
X147646666Y-71745525D01*
X147649500Y-71771884D01*
X147649500Y-115925500D01*
X147629815Y-115992539D01*
X147577011Y-116038294D01*
X147525500Y-116049500D01*
X98774500Y-116049500D01*
X98707461Y-116029815D01*
X98661706Y-115977011D01*
X98650500Y-115925500D01*
X98650500Y-112688575D01*
X106450000Y-112688575D01*
X106450000Y-112911424D01*
X106479085Y-113132354D01*
X106479088Y-113132367D01*
X106536763Y-113347618D01*
X106622045Y-113553502D01*
X106622054Y-113553520D01*
X106733464Y-113746491D01*
X106733473Y-113746504D01*
X106784040Y-113812403D01*
X106784043Y-113812403D01*
X107585387Y-113011059D01*
X107590889Y-113031591D01*
X107669881Y-113168408D01*
X107781592Y-113280119D01*
X107918409Y-113359111D01*
X107938940Y-113364612D01*
X107137595Y-114165955D01*
X107137595Y-114165956D01*
X107203507Y-114216533D01*
X107396485Y-114327949D01*
X107396497Y-114327954D01*
X107602381Y-114413236D01*
X107817632Y-114470911D01*
X107817645Y-114470914D01*
X108038575Y-114500000D01*
X108261425Y-114500000D01*
X108482354Y-114470914D01*
X108482367Y-114470911D01*
X108697618Y-114413236D01*
X108903502Y-114327954D01*
X108903514Y-114327949D01*
X109096498Y-114216530D01*
X109162403Y-114165957D01*
X109162404Y-114165956D01*
X108361059Y-113364612D01*
X108381591Y-113359111D01*
X108518408Y-113280119D01*
X108630119Y-113168408D01*
X108709111Y-113031591D01*
X108714612Y-113011059D01*
X109515956Y-113812404D01*
X109515957Y-113812403D01*
X109566530Y-113746498D01*
X109677949Y-113553514D01*
X109677954Y-113553502D01*
X109763236Y-113347618D01*
X109820911Y-113132367D01*
X109820914Y-113132354D01*
X109850000Y-112911424D01*
X109850000Y-112688575D01*
X109820914Y-112467645D01*
X109820911Y-112467632D01*
X109763236Y-112252381D01*
X109714510Y-112134747D01*
X109696116Y-112090341D01*
X124900000Y-112090341D01*
X124900000Y-112409658D01*
X124931298Y-112727438D01*
X124931301Y-112727455D01*
X124993591Y-113040617D01*
X124993594Y-113040628D01*
X125086292Y-113346213D01*
X125208493Y-113641232D01*
X125208495Y-113641237D01*
X125359014Y-113922837D01*
X125359025Y-113922855D01*
X125536422Y-114188348D01*
X125536432Y-114188362D01*
X125681418Y-114365027D01*
X126855747Y-113190697D01*
X126929588Y-113292330D01*
X127107670Y-113470412D01*
X127209301Y-113544251D01*
X126034971Y-114718580D01*
X126034972Y-114718581D01*
X126211637Y-114863567D01*
X126211651Y-114863577D01*
X126477144Y-115040974D01*
X126477162Y-115040985D01*
X126758762Y-115191504D01*
X126758767Y-115191506D01*
X127053786Y-115313707D01*
X127359371Y-115406405D01*
X127359382Y-115406408D01*
X127672544Y-115468698D01*
X127672561Y-115468701D01*
X127990341Y-115500000D01*
X128309659Y-115500000D01*
X128627438Y-115468701D01*
X128627455Y-115468698D01*
X128940617Y-115406408D01*
X128940628Y-115406405D01*
X129246213Y-115313707D01*
X129541232Y-115191506D01*
X129541237Y-115191504D01*
X129822837Y-115040985D01*
X129822855Y-115040974D01*
X130088348Y-114863577D01*
X130088361Y-114863567D01*
X130265026Y-114718581D01*
X130265027Y-114718580D01*
X129090698Y-113544251D01*
X129192330Y-113470412D01*
X129370412Y-113292330D01*
X129444251Y-113190698D01*
X130618580Y-114365027D01*
X130618581Y-114365026D01*
X130680698Y-114289338D01*
X130763567Y-114188361D01*
X130763577Y-114188348D01*
X130940974Y-113922855D01*
X130940985Y-113922837D01*
X131091504Y-113641237D01*
X131091506Y-113641232D01*
X131213707Y-113346213D01*
X131306405Y-113040628D01*
X131306408Y-113040617D01*
X131326705Y-112938575D01*
X135900000Y-112938575D01*
X135900000Y-113161424D01*
X135929085Y-113382354D01*
X135929088Y-113382367D01*
X135986763Y-113597618D01*
X136072045Y-113803502D01*
X136072054Y-113803520D01*
X136183464Y-113996491D01*
X136183473Y-113996504D01*
X136234040Y-114062403D01*
X136234043Y-114062403D01*
X137035387Y-113261059D01*
X137040889Y-113281591D01*
X137119881Y-113418408D01*
X137231592Y-113530119D01*
X137368409Y-113609111D01*
X137388940Y-113614612D01*
X136587595Y-114415955D01*
X136587595Y-114415956D01*
X136653507Y-114466533D01*
X136846485Y-114577949D01*
X136846497Y-114577954D01*
X137052381Y-114663236D01*
X137267632Y-114720911D01*
X137267645Y-114720914D01*
X137488575Y-114750000D01*
X137711425Y-114750000D01*
X137932354Y-114720914D01*
X137932367Y-114720911D01*
X138147618Y-114663236D01*
X138353502Y-114577954D01*
X138353514Y-114577949D01*
X138546498Y-114466530D01*
X138612403Y-114415957D01*
X138612404Y-114415956D01*
X137811059Y-113614612D01*
X137831591Y-113609111D01*
X137968408Y-113530119D01*
X138080119Y-113418408D01*
X138159111Y-113281591D01*
X138164612Y-113261059D01*
X138965956Y-114062404D01*
X138965957Y-114062403D01*
X139016530Y-113996498D01*
X139127949Y-113803514D01*
X139127954Y-113803502D01*
X139213236Y-113597618D01*
X139270911Y-113382367D01*
X139270914Y-113382354D01*
X139300000Y-113161424D01*
X139300000Y-112938575D01*
X139270914Y-112717645D01*
X139270911Y-112717632D01*
X139213236Y-112502381D01*
X139127954Y-112296497D01*
X139127949Y-112296485D01*
X139016533Y-112103507D01*
X138965956Y-112037595D01*
X138965955Y-112037595D01*
X138164612Y-112838939D01*
X138159111Y-112818409D01*
X138080119Y-112681592D01*
X137968408Y-112569881D01*
X137831591Y-112490889D01*
X137811058Y-112485387D01*
X138612403Y-111684043D01*
X138612403Y-111684040D01*
X138546504Y-111633473D01*
X138546491Y-111633464D01*
X138353520Y-111522054D01*
X138353502Y-111522045D01*
X138147618Y-111436763D01*
X137932367Y-111379088D01*
X137932354Y-111379085D01*
X137711425Y-111350000D01*
X137488575Y-111350000D01*
X137267645Y-111379085D01*
X137267632Y-111379088D01*
X137052381Y-111436763D01*
X136846497Y-111522045D01*
X136846479Y-111522054D01*
X136653511Y-111633462D01*
X136587595Y-111684042D01*
X137388941Y-112485387D01*
X137368409Y-112490889D01*
X137231592Y-112569881D01*
X137119881Y-112681592D01*
X137040889Y-112818409D01*
X137035387Y-112838940D01*
X136234042Y-112037595D01*
X136183462Y-112103511D01*
X136072054Y-112296479D01*
X136072045Y-112296497D01*
X135986763Y-112502381D01*
X135929088Y-112717632D01*
X135929085Y-112717645D01*
X135900000Y-112938575D01*
X131326705Y-112938575D01*
X131332324Y-112910326D01*
X131368698Y-112727455D01*
X131368701Y-112727438D01*
X131400000Y-112409658D01*
X131400000Y-112090341D01*
X131368701Y-111772561D01*
X131368698Y-111772544D01*
X131365445Y-111756186D01*
X131306408Y-111459382D01*
X131306405Y-111459371D01*
X131213707Y-111153786D01*
X131091506Y-110858767D01*
X131091504Y-110858762D01*
X130940985Y-110577162D01*
X130940974Y-110577144D01*
X130763577Y-110311651D01*
X130763567Y-110311637D01*
X130618581Y-110134972D01*
X130618580Y-110134971D01*
X129444251Y-111309300D01*
X129370412Y-111207670D01*
X129192330Y-111029588D01*
X129090698Y-110955748D01*
X130265027Y-109781418D01*
X130088362Y-109636432D01*
X130088348Y-109636422D01*
X129822855Y-109459025D01*
X129822837Y-109459014D01*
X129541237Y-109308495D01*
X129541232Y-109308493D01*
X129246213Y-109186292D01*
X128940628Y-109093594D01*
X128940617Y-109093591D01*
X128627455Y-109031301D01*
X128627438Y-109031298D01*
X128309659Y-109000000D01*
X127990341Y-109000000D01*
X127672561Y-109031298D01*
X127672544Y-109031301D01*
X127359382Y-109093591D01*
X127359371Y-109093594D01*
X127053786Y-109186292D01*
X126758767Y-109308493D01*
X126758762Y-109308495D01*
X126477162Y-109459014D01*
X126477144Y-109459025D01*
X126211651Y-109636422D01*
X126211650Y-109636423D01*
X126034971Y-109781418D01*
X127209301Y-110955748D01*
X127107670Y-111029588D01*
X126929588Y-111207670D01*
X126855748Y-111309301D01*
X125681418Y-110134971D01*
X125536423Y-110311650D01*
X125536422Y-110311651D01*
X125359025Y-110577144D01*
X125359014Y-110577162D01*
X125208495Y-110858762D01*
X125208493Y-110858767D01*
X125086292Y-111153786D01*
X124993594Y-111459371D01*
X124993591Y-111459382D01*
X124931301Y-111772544D01*
X124931298Y-111772561D01*
X124900000Y-112090341D01*
X109696116Y-112090341D01*
X109677952Y-112046492D01*
X109677949Y-112046485D01*
X109566533Y-111853507D01*
X109515956Y-111787595D01*
X109515955Y-111787595D01*
X108714612Y-112588939D01*
X108709111Y-112568409D01*
X108630119Y-112431592D01*
X108518408Y-112319881D01*
X108381591Y-112240889D01*
X108361058Y-112235387D01*
X109162403Y-111434043D01*
X109162403Y-111434040D01*
X109096504Y-111383473D01*
X109096491Y-111383464D01*
X108903520Y-111272054D01*
X108903502Y-111272045D01*
X108697618Y-111186763D01*
X108482367Y-111129088D01*
X108482354Y-111129085D01*
X108261425Y-111100000D01*
X108038575Y-111100000D01*
X107817645Y-111129085D01*
X107817632Y-111129088D01*
X107602381Y-111186763D01*
X107396497Y-111272045D01*
X107396479Y-111272054D01*
X107203511Y-111383462D01*
X107137595Y-111434042D01*
X107938941Y-112235387D01*
X107918409Y-112240889D01*
X107781592Y-112319881D01*
X107669881Y-112431592D01*
X107590889Y-112568409D01*
X107585387Y-112588940D01*
X106784042Y-111787595D01*
X106733462Y-111853511D01*
X106622054Y-112046479D01*
X106622045Y-112046497D01*
X106536763Y-112252381D01*
X106479088Y-112467632D01*
X106479085Y-112467645D01*
X106450000Y-112688575D01*
X98650500Y-112688575D01*
X98650500Y-104688548D01*
X115199500Y-104688548D01*
X115199500Y-104911449D01*
X115199501Y-104911465D01*
X115228594Y-105132451D01*
X115228595Y-105132456D01*
X115228596Y-105132462D01*
X115228597Y-105132464D01*
X115286290Y-105347779D01*
X115286293Y-105347789D01*
X115371593Y-105553721D01*
X115371595Y-105553725D01*
X115483052Y-105746773D01*
X115483057Y-105746779D01*
X115483058Y-105746781D01*
X115618751Y-105923621D01*
X115618757Y-105923628D01*
X115776370Y-106081241D01*
X115776376Y-106081246D01*
X115953226Y-106216947D01*
X116146274Y-106328404D01*
X116352219Y-106413709D01*
X116567537Y-106471403D01*
X116788543Y-106500499D01*
X116788550Y-106500499D01*
X117011450Y-106500499D01*
X117011457Y-106500499D01*
X117232463Y-106471403D01*
X117447781Y-106413709D01*
X117653726Y-106328404D01*
X117846774Y-106216947D01*
X118023624Y-106081246D01*
X118181247Y-105923623D01*
X118316948Y-105746773D01*
X118428405Y-105553725D01*
X118513710Y-105347780D01*
X118571404Y-105132462D01*
X118600500Y-104911456D01*
X118600500Y-104688548D01*
X127899500Y-104688548D01*
X127899500Y-104911449D01*
X127899501Y-104911465D01*
X127928594Y-105132451D01*
X127928595Y-105132456D01*
X127928596Y-105132462D01*
X127928597Y-105132464D01*
X127986290Y-105347779D01*
X127986293Y-105347789D01*
X128071593Y-105553721D01*
X128071595Y-105553725D01*
X128183052Y-105746773D01*
X128183057Y-105746779D01*
X128183058Y-105746781D01*
X128318751Y-105923621D01*
X128318757Y-105923628D01*
X128476370Y-106081241D01*
X128476376Y-106081246D01*
X128653226Y-106216947D01*
X128846274Y-106328404D01*
X129052219Y-106413709D01*
X129267537Y-106471403D01*
X129488543Y-106500499D01*
X129488550Y-106500499D01*
X129711450Y-106500499D01*
X129711457Y-106500499D01*
X129932463Y-106471403D01*
X130147781Y-106413709D01*
X130353726Y-106328404D01*
X130546774Y-106216947D01*
X130723624Y-106081246D01*
X130881247Y-105923623D01*
X131016948Y-105746773D01*
X131128405Y-105553725D01*
X131213710Y-105347780D01*
X131271404Y-105132462D01*
X131300500Y-104911456D01*
X131300500Y-104688542D01*
X131271404Y-104467536D01*
X131213710Y-104252218D01*
X131128405Y-104046273D01*
X131016948Y-103853225D01*
X130881247Y-103676375D01*
X130881242Y-103676369D01*
X130723629Y-103518756D01*
X130723622Y-103518750D01*
X130546782Y-103383057D01*
X130546780Y-103383056D01*
X130546774Y-103383051D01*
X130353726Y-103271594D01*
X130353722Y-103271592D01*
X130147790Y-103186292D01*
X130147783Y-103186290D01*
X130147781Y-103186289D01*
X129932463Y-103128595D01*
X129932457Y-103128594D01*
X129932452Y-103128593D01*
X129711466Y-103099500D01*
X129711463Y-103099499D01*
X129711457Y-103099499D01*
X129488543Y-103099499D01*
X129488537Y-103099499D01*
X129488533Y-103099500D01*
X129267547Y-103128593D01*
X129267540Y-103128594D01*
X129267537Y-103128595D01*
X129052219Y-103186289D01*
X129052209Y-103186292D01*
X128846277Y-103271592D01*
X128846273Y-103271594D01*
X128653226Y-103383051D01*
X128653217Y-103383057D01*
X128476377Y-103518750D01*
X128476370Y-103518756D01*
X128318757Y-103676369D01*
X128318751Y-103676376D01*
X128183058Y-103853216D01*
X128183052Y-103853225D01*
X128071595Y-104046272D01*
X128071593Y-104046276D01*
X127986293Y-104252208D01*
X127986290Y-104252218D01*
X127928597Y-104467533D01*
X127928594Y-104467546D01*
X127899501Y-104688532D01*
X127899500Y-104688548D01*
X118600500Y-104688548D01*
X118600500Y-104688542D01*
X118571404Y-104467536D01*
X118513710Y-104252218D01*
X118428405Y-104046273D01*
X118316948Y-103853225D01*
X118181247Y-103676375D01*
X118181242Y-103676369D01*
X118023629Y-103518756D01*
X118023622Y-103518750D01*
X117846782Y-103383057D01*
X117846780Y-103383056D01*
X117846774Y-103383051D01*
X117653726Y-103271594D01*
X117653722Y-103271592D01*
X117447790Y-103186292D01*
X117447783Y-103186290D01*
X117447781Y-103186289D01*
X117232463Y-103128595D01*
X117232457Y-103128594D01*
X117232452Y-103128593D01*
X117011466Y-103099500D01*
X117011463Y-103099499D01*
X117011457Y-103099499D01*
X116788543Y-103099499D01*
X116788537Y-103099499D01*
X116788533Y-103099500D01*
X116567547Y-103128593D01*
X116567540Y-103128594D01*
X116567537Y-103128595D01*
X116352219Y-103186289D01*
X116352209Y-103186292D01*
X116146277Y-103271592D01*
X116146273Y-103271594D01*
X115953226Y-103383051D01*
X115953217Y-103383057D01*
X115776377Y-103518750D01*
X115776370Y-103518756D01*
X115618757Y-103676369D01*
X115618751Y-103676376D01*
X115483058Y-103853216D01*
X115483052Y-103853225D01*
X115371595Y-104046272D01*
X115371593Y-104046276D01*
X115286293Y-104252208D01*
X115286290Y-104252218D01*
X115228597Y-104467533D01*
X115228594Y-104467546D01*
X115199501Y-104688532D01*
X115199500Y-104688548D01*
X98650500Y-104688548D01*
X98650500Y-99988549D01*
X106449500Y-99988549D01*
X106449500Y-100211450D01*
X106449501Y-100211466D01*
X106478594Y-100432452D01*
X106478595Y-100432457D01*
X106478596Y-100432463D01*
X106510097Y-100550026D01*
X106536290Y-100647780D01*
X106536293Y-100647790D01*
X106621593Y-100853722D01*
X106621595Y-100853726D01*
X106733052Y-101046774D01*
X106733057Y-101046780D01*
X106733058Y-101046782D01*
X106868751Y-101223622D01*
X106868757Y-101223629D01*
X107026370Y-101381242D01*
X107026377Y-101381248D01*
X107146762Y-101473622D01*
X107203226Y-101516948D01*
X107396274Y-101628405D01*
X107602219Y-101713710D01*
X107817537Y-101771404D01*
X108038543Y-101800500D01*
X108038550Y-101800500D01*
X108261450Y-101800500D01*
X108261457Y-101800500D01*
X108482463Y-101771404D01*
X108697781Y-101713710D01*
X108903726Y-101628405D01*
X109096774Y-101516948D01*
X109273624Y-101381247D01*
X109431247Y-101223624D01*
X109566948Y-101046774D01*
X109678405Y-100853726D01*
X109763710Y-100647781D01*
X109821404Y-100432463D01*
X109850500Y-100211457D01*
X109850500Y-99988543D01*
X109848267Y-99971584D01*
X109848266Y-99971578D01*
X114149500Y-99971578D01*
X114149500Y-100168423D01*
X114180290Y-100362827D01*
X114241117Y-100550030D01*
X114330476Y-100725406D01*
X114446172Y-100884647D01*
X114585354Y-101023829D01*
X114744595Y-101139525D01*
X114827455Y-101181744D01*
X114919970Y-101228883D01*
X114919972Y-101228883D01*
X114919975Y-101228885D01*
X115020317Y-101261488D01*
X115107173Y-101289710D01*
X115301578Y-101320501D01*
X115301583Y-101320501D01*
X115498422Y-101320501D01*
X115692826Y-101289710D01*
X115880025Y-101228885D01*
X116055405Y-101139525D01*
X116214646Y-101023829D01*
X116353828Y-100884647D01*
X116469524Y-100725406D01*
X116558884Y-100550026D01*
X116619709Y-100362827D01*
X116634162Y-100271577D01*
X129099501Y-100271577D01*
X129099501Y-100468422D01*
X129130291Y-100662826D01*
X129191118Y-100850029D01*
X129215454Y-100897790D01*
X129280477Y-101025405D01*
X129396173Y-101184646D01*
X129535355Y-101323828D01*
X129694596Y-101439524D01*
X129761531Y-101473629D01*
X129869971Y-101528882D01*
X129869973Y-101528882D01*
X129869976Y-101528884D01*
X129970318Y-101561487D01*
X130057174Y-101589709D01*
X130251579Y-101620500D01*
X130251584Y-101620500D01*
X130448423Y-101620500D01*
X130642827Y-101589709D01*
X130830026Y-101528884D01*
X131005406Y-101439524D01*
X131164647Y-101323828D01*
X131303829Y-101184646D01*
X131419525Y-101025405D01*
X131508885Y-100850025D01*
X131569710Y-100662826D01*
X131600501Y-100468422D01*
X131600501Y-100271579D01*
X131597698Y-100253883D01*
X131597698Y-100253882D01*
X131595269Y-100238549D01*
X135899500Y-100238549D01*
X135899500Y-100461450D01*
X135899501Y-100461466D01*
X135928594Y-100682452D01*
X135928595Y-100682457D01*
X135928596Y-100682463D01*
X135986290Y-100897780D01*
X135986293Y-100897790D01*
X136048008Y-101046782D01*
X136071595Y-101103726D01*
X136183052Y-101296774D01*
X136183057Y-101296780D01*
X136183058Y-101296782D01*
X136318751Y-101473622D01*
X136318757Y-101473629D01*
X136476370Y-101631242D01*
X136476376Y-101631247D01*
X136653226Y-101766948D01*
X136846274Y-101878405D01*
X137052219Y-101963710D01*
X137267537Y-102021404D01*
X137488543Y-102050500D01*
X137488550Y-102050500D01*
X137711450Y-102050500D01*
X137711457Y-102050500D01*
X137932463Y-102021404D01*
X138147781Y-101963710D01*
X138353726Y-101878405D01*
X138546774Y-101766948D01*
X138723624Y-101631247D01*
X138881247Y-101473624D01*
X139016948Y-101296774D01*
X139128405Y-101103726D01*
X139213710Y-100897781D01*
X139271404Y-100682463D01*
X139300500Y-100461457D01*
X139300500Y-100238543D01*
X139271404Y-100017537D01*
X139213710Y-99802219D01*
X139203336Y-99777175D01*
X139128406Y-99596277D01*
X139128405Y-99596274D01*
X139016948Y-99403226D01*
X138881247Y-99226376D01*
X138881242Y-99226370D01*
X138723629Y-99068757D01*
X138723622Y-99068751D01*
X138546782Y-98933058D01*
X138546780Y-98933057D01*
X138546774Y-98933052D01*
X138353726Y-98821595D01*
X138353722Y-98821593D01*
X138147790Y-98736293D01*
X138147783Y-98736291D01*
X138147781Y-98736290D01*
X137932463Y-98678596D01*
X137932457Y-98678595D01*
X137932452Y-98678594D01*
X137711466Y-98649501D01*
X137711463Y-98649500D01*
X137711457Y-98649500D01*
X137488543Y-98649500D01*
X137488537Y-98649500D01*
X137488533Y-98649501D01*
X137267547Y-98678594D01*
X137267540Y-98678595D01*
X137267537Y-98678596D01*
X137098855Y-98723794D01*
X137052219Y-98736290D01*
X137052209Y-98736293D01*
X136846277Y-98821593D01*
X136846273Y-98821595D01*
X136653226Y-98933052D01*
X136653217Y-98933058D01*
X136476377Y-99068751D01*
X136476370Y-99068757D01*
X136318757Y-99226370D01*
X136318751Y-99226377D01*
X136183058Y-99403217D01*
X136183052Y-99403226D01*
X136071595Y-99596273D01*
X136071593Y-99596277D01*
X135986293Y-99802209D01*
X135986290Y-99802219D01*
X135936369Y-99988530D01*
X135928597Y-100017534D01*
X135928594Y-100017547D01*
X135899501Y-100238533D01*
X135899500Y-100238549D01*
X131595269Y-100238549D01*
X131569710Y-100077173D01*
X131539077Y-99982896D01*
X131508885Y-99889975D01*
X131508883Y-99889972D01*
X131508883Y-99889970D01*
X131446500Y-99767537D01*
X131419525Y-99714595D01*
X131303829Y-99555354D01*
X131164647Y-99416172D01*
X131005406Y-99300476D01*
X130830030Y-99211117D01*
X130642827Y-99150290D01*
X130448423Y-99119500D01*
X130448418Y-99119500D01*
X130251584Y-99119500D01*
X130251579Y-99119500D01*
X130057174Y-99150290D01*
X129869971Y-99211117D01*
X129694595Y-99300476D01*
X129603742Y-99366485D01*
X129535355Y-99416172D01*
X129535353Y-99416174D01*
X129535352Y-99416174D01*
X129396175Y-99555351D01*
X129396175Y-99555352D01*
X129396173Y-99555354D01*
X129366443Y-99596274D01*
X129280477Y-99714594D01*
X129191118Y-99889970D01*
X129130291Y-100077173D01*
X129099501Y-100271577D01*
X116634162Y-100271577D01*
X116638005Y-100247313D01*
X116650500Y-100168423D01*
X116650500Y-99971578D01*
X116619709Y-99777174D01*
X116558882Y-99589971D01*
X116469523Y-99414595D01*
X116461263Y-99403226D01*
X116353828Y-99255355D01*
X116214646Y-99116173D01*
X116055405Y-99000477D01*
X115880029Y-98911118D01*
X115692826Y-98850291D01*
X115498422Y-98819501D01*
X115498417Y-98819501D01*
X115301583Y-98819501D01*
X115301578Y-98819501D01*
X115107173Y-98850291D01*
X114919970Y-98911118D01*
X114744594Y-99000477D01*
X114676832Y-99049710D01*
X114585354Y-99116173D01*
X114585352Y-99116175D01*
X114585351Y-99116175D01*
X114446174Y-99255352D01*
X114446174Y-99255353D01*
X114446172Y-99255355D01*
X114396485Y-99323742D01*
X114330476Y-99414595D01*
X114241117Y-99589971D01*
X114180290Y-99777174D01*
X114149500Y-99971578D01*
X109848266Y-99971578D01*
X109825970Y-99802219D01*
X109821404Y-99767537D01*
X109763710Y-99552219D01*
X109678405Y-99346274D01*
X109566948Y-99153226D01*
X109527867Y-99102294D01*
X109431248Y-98976377D01*
X109431242Y-98976370D01*
X109273629Y-98818757D01*
X109273622Y-98818751D01*
X109096782Y-98683058D01*
X109096780Y-98683057D01*
X109096774Y-98683052D01*
X108903726Y-98571595D01*
X108903722Y-98571593D01*
X108697790Y-98486293D01*
X108697783Y-98486291D01*
X108697781Y-98486290D01*
X108482463Y-98428596D01*
X108482457Y-98428595D01*
X108482452Y-98428594D01*
X108261466Y-98399501D01*
X108261463Y-98399500D01*
X108261457Y-98399500D01*
X108038543Y-98399500D01*
X108038537Y-98399500D01*
X108038533Y-98399501D01*
X107817547Y-98428594D01*
X107817540Y-98428595D01*
X107817537Y-98428596D01*
X107611422Y-98483824D01*
X107602219Y-98486290D01*
X107602209Y-98486293D01*
X107396277Y-98571593D01*
X107396273Y-98571595D01*
X107203226Y-98683052D01*
X107203217Y-98683058D01*
X107026377Y-98818751D01*
X107026370Y-98818757D01*
X106868757Y-98976370D01*
X106868751Y-98976377D01*
X106733058Y-99153217D01*
X106733052Y-99153226D01*
X106621595Y-99346273D01*
X106621593Y-99346277D01*
X106536293Y-99552209D01*
X106536290Y-99552219D01*
X106478597Y-99767534D01*
X106478594Y-99767547D01*
X106449501Y-99988533D01*
X106449500Y-99988549D01*
X98650500Y-99988549D01*
X98650500Y-93890316D01*
X103549500Y-93890316D01*
X103549500Y-94209683D01*
X103580803Y-94527522D01*
X103643109Y-94840754D01*
X103735820Y-95146382D01*
X103858040Y-95441446D01*
X103858042Y-95441451D01*
X104008584Y-95723094D01*
X104008601Y-95723122D01*
X104186012Y-95988638D01*
X104186029Y-95988661D01*
X104388638Y-96235540D01*
X104614459Y-96461361D01*
X104614464Y-96461365D01*
X104614465Y-96461366D01*
X104861344Y-96663975D01*
X104861351Y-96663980D01*
X104861361Y-96663987D01*
X105126877Y-96841398D01*
X105126882Y-96841401D01*
X105126894Y-96841409D01*
X105126903Y-96841413D01*
X105126905Y-96841415D01*
X105408548Y-96991957D01*
X105408550Y-96991957D01*
X105408556Y-96991961D01*
X105703619Y-97114180D01*
X106009240Y-97206889D01*
X106322477Y-97269196D01*
X106640313Y-97300500D01*
X106640316Y-97300500D01*
X106959684Y-97300500D01*
X106959687Y-97300500D01*
X107277523Y-97269196D01*
X107590760Y-97206889D01*
X107896381Y-97114180D01*
X108191444Y-96991961D01*
X108473106Y-96841409D01*
X108636645Y-96732136D01*
X111609500Y-96732136D01*
X111609500Y-98327871D01*
X111609501Y-98327877D01*
X111615908Y-98387484D01*
X111666202Y-98522329D01*
X111666206Y-98522336D01*
X111752452Y-98637545D01*
X111752455Y-98637548D01*
X111867664Y-98723794D01*
X111867671Y-98723798D01*
X112002517Y-98774092D01*
X112002516Y-98774092D01*
X112009444Y-98774836D01*
X112062127Y-98780501D01*
X113657872Y-98780500D01*
X113717483Y-98774092D01*
X113852331Y-98723797D01*
X113967546Y-98637547D01*
X114053796Y-98522332D01*
X114104091Y-98387484D01*
X114110500Y-98327874D01*
X114110499Y-97431576D01*
X116689502Y-97431576D01*
X116689502Y-97628421D01*
X116720292Y-97822825D01*
X116781119Y-98010028D01*
X116870478Y-98185404D01*
X116986174Y-98344645D01*
X117125356Y-98483827D01*
X117284597Y-98599523D01*
X117340257Y-98627883D01*
X117459972Y-98688881D01*
X117459974Y-98688881D01*
X117459977Y-98688883D01*
X117560319Y-98721486D01*
X117647175Y-98749708D01*
X117841580Y-98780499D01*
X117841585Y-98780499D01*
X118038424Y-98780499D01*
X118232828Y-98749708D01*
X118420027Y-98688883D01*
X118595407Y-98599523D01*
X118754648Y-98483827D01*
X118893830Y-98344645D01*
X119009526Y-98185404D01*
X119098886Y-98010024D01*
X119159711Y-97822825D01*
X119174163Y-97731578D01*
X119190502Y-97628421D01*
X119190502Y-97431576D01*
X119159711Y-97237172D01*
X119119748Y-97114180D01*
X119098886Y-97049974D01*
X119098884Y-97049971D01*
X119098884Y-97049969D01*
X119051745Y-96957454D01*
X119009526Y-96874594D01*
X118893830Y-96715353D01*
X118754648Y-96576171D01*
X118595407Y-96460475D01*
X118420031Y-96371116D01*
X118232828Y-96310289D01*
X118038424Y-96279499D01*
X118038419Y-96279499D01*
X117841585Y-96279499D01*
X117841580Y-96279499D01*
X117647175Y-96310289D01*
X117459972Y-96371116D01*
X117284596Y-96460475D01*
X117227199Y-96502177D01*
X117125356Y-96576171D01*
X117125354Y-96576173D01*
X117125353Y-96576173D01*
X116986176Y-96715350D01*
X116986176Y-96715351D01*
X116986174Y-96715353D01*
X116953389Y-96760477D01*
X116870478Y-96874593D01*
X116781119Y-97049969D01*
X116720292Y-97237172D01*
X116689502Y-97431576D01*
X114110499Y-97431576D01*
X114110499Y-96732129D01*
X114104091Y-96672518D01*
X114103568Y-96671117D01*
X114053797Y-96537672D01*
X114053793Y-96537665D01*
X113967547Y-96422456D01*
X113967544Y-96422453D01*
X113852335Y-96336207D01*
X113852328Y-96336203D01*
X113717482Y-96285909D01*
X113717483Y-96285909D01*
X113657883Y-96279502D01*
X113657881Y-96279501D01*
X113657873Y-96279501D01*
X113657864Y-96279501D01*
X112062129Y-96279501D01*
X112062123Y-96279502D01*
X112002516Y-96285909D01*
X111867671Y-96336203D01*
X111867664Y-96336207D01*
X111752455Y-96422453D01*
X111752452Y-96422456D01*
X111666206Y-96537665D01*
X111666202Y-96537672D01*
X111615908Y-96672518D01*
X111610540Y-96722452D01*
X111609501Y-96732124D01*
X111609500Y-96732136D01*
X108636645Y-96732136D01*
X108738656Y-96663975D01*
X108985535Y-96461366D01*
X109211366Y-96235535D01*
X109413975Y-95988656D01*
X109591409Y-95723106D01*
X109741961Y-95441444D01*
X109864180Y-95146381D01*
X109956889Y-94840760D01*
X110019196Y-94527523D01*
X110050500Y-94209687D01*
X110050500Y-93890313D01*
X110019196Y-93572477D01*
X109956889Y-93259240D01*
X109864180Y-92953619D01*
X109741961Y-92658556D01*
X109739107Y-92653217D01*
X109591415Y-92376905D01*
X109591413Y-92376903D01*
X109591409Y-92376894D01*
X109591398Y-92376877D01*
X109413987Y-92111361D01*
X109413980Y-92111351D01*
X109413975Y-92111344D01*
X109211366Y-91864465D01*
X109211365Y-91864464D01*
X109211361Y-91864459D01*
X108985540Y-91638638D01*
X108738661Y-91436029D01*
X108738638Y-91436012D01*
X108473122Y-91258601D01*
X108473094Y-91258584D01*
X108191451Y-91108042D01*
X108191446Y-91108040D01*
X107896382Y-90985820D01*
X107590754Y-90893109D01*
X107277521Y-90830803D01*
X107277522Y-90830803D01*
X107038141Y-90807227D01*
X106959687Y-90799500D01*
X106640313Y-90799500D01*
X106567822Y-90806639D01*
X106322477Y-90830803D01*
X106009245Y-90893109D01*
X105703617Y-90985820D01*
X105408553Y-91108040D01*
X105408548Y-91108042D01*
X105126905Y-91258584D01*
X105126877Y-91258601D01*
X104861361Y-91436012D01*
X104861338Y-91436029D01*
X104614459Y-91638638D01*
X104388638Y-91864459D01*
X104186029Y-92111338D01*
X104186012Y-92111361D01*
X104008601Y-92376877D01*
X104008584Y-92376905D01*
X103858042Y-92658548D01*
X103858040Y-92658553D01*
X103735820Y-92953617D01*
X103643109Y-93259245D01*
X103580803Y-93572477D01*
X103549500Y-93890316D01*
X98650500Y-93890316D01*
X98650500Y-73538549D01*
X113599500Y-73538549D01*
X113599500Y-73761450D01*
X113599501Y-73761466D01*
X113628594Y-73982452D01*
X113628595Y-73982457D01*
X113628596Y-73982463D01*
X113655977Y-74084649D01*
X113686290Y-74197780D01*
X113686293Y-74197790D01*
X113745002Y-74339525D01*
X113771595Y-74403726D01*
X113883052Y-74596774D01*
X113883057Y-74596780D01*
X113883058Y-74596782D01*
X114018751Y-74773622D01*
X114018757Y-74773629D01*
X114176370Y-74931242D01*
X114176376Y-74931247D01*
X114353226Y-75066948D01*
X114546274Y-75178405D01*
X114752219Y-75263710D01*
X114967537Y-75321404D01*
X115188543Y-75350500D01*
X115188550Y-75350500D01*
X115411450Y-75350500D01*
X115411457Y-75350500D01*
X115632463Y-75321404D01*
X115847781Y-75263710D01*
X116053726Y-75178405D01*
X116246774Y-75066948D01*
X116423624Y-74931247D01*
X116581247Y-74773624D01*
X116716948Y-74596774D01*
X116828405Y-74403726D01*
X116913710Y-74197781D01*
X116971404Y-73982463D01*
X117000500Y-73761457D01*
X117000500Y-73538543D01*
X116971404Y-73317537D01*
X116932295Y-73171578D01*
X119359499Y-73171578D01*
X119359499Y-73368423D01*
X119390289Y-73562827D01*
X119451116Y-73750030D01*
X119494148Y-73834484D01*
X119540475Y-73925406D01*
X119656171Y-74084647D01*
X119795353Y-74223829D01*
X119954594Y-74339525D01*
X120029211Y-74377544D01*
X120129969Y-74428883D01*
X120129971Y-74428883D01*
X120129974Y-74428885D01*
X120230316Y-74461488D01*
X120317172Y-74489710D01*
X120511577Y-74520501D01*
X120511582Y-74520501D01*
X120708421Y-74520501D01*
X120902825Y-74489710D01*
X121090024Y-74428885D01*
X121265404Y-74339525D01*
X121424645Y-74223829D01*
X121563827Y-74084647D01*
X121679523Y-73925406D01*
X121768883Y-73750026D01*
X121829708Y-73562827D01*
X121855146Y-73402219D01*
X121860499Y-73368423D01*
X121860499Y-73171578D01*
X121829708Y-72977174D01*
X121768881Y-72789971D01*
X121707116Y-72668751D01*
X121679523Y-72614596D01*
X121674399Y-72607544D01*
X121626555Y-72541691D01*
X121626554Y-72541690D01*
X121576018Y-72472135D01*
X124439500Y-72472135D01*
X124439500Y-74067870D01*
X124439501Y-74067876D01*
X124445908Y-74127483D01*
X124496202Y-74262328D01*
X124496206Y-74262335D01*
X124582452Y-74377544D01*
X124582455Y-74377547D01*
X124697664Y-74463793D01*
X124697671Y-74463797D01*
X124832517Y-74514091D01*
X124832516Y-74514091D01*
X124839444Y-74514835D01*
X124892127Y-74520500D01*
X126487872Y-74520499D01*
X126547483Y-74514091D01*
X126682331Y-74463796D01*
X126797546Y-74377546D01*
X126883796Y-74262331D01*
X126934091Y-74127483D01*
X126940500Y-74067873D01*
X126940500Y-73838549D01*
X134099500Y-73838549D01*
X134099500Y-74061450D01*
X134099501Y-74061466D01*
X134128594Y-74282452D01*
X134128595Y-74282457D01*
X134128596Y-74282463D01*
X134186290Y-74497780D01*
X134186293Y-74497790D01*
X134227294Y-74596774D01*
X134271595Y-74703726D01*
X134383052Y-74896774D01*
X134383057Y-74896780D01*
X134383058Y-74896782D01*
X134518751Y-75073622D01*
X134518757Y-75073629D01*
X134676370Y-75231242D01*
X134676377Y-75231248D01*
X134718683Y-75263710D01*
X134853226Y-75366948D01*
X135046274Y-75478405D01*
X135252219Y-75563710D01*
X135467537Y-75621404D01*
X135688543Y-75650500D01*
X135688550Y-75650500D01*
X135911450Y-75650500D01*
X135911457Y-75650500D01*
X136132463Y-75621404D01*
X136347781Y-75563710D01*
X136553726Y-75478405D01*
X136746774Y-75366948D01*
X136923624Y-75231247D01*
X137081247Y-75073624D01*
X137216948Y-74896774D01*
X137328405Y-74703726D01*
X137413710Y-74497781D01*
X137471404Y-74282463D01*
X137500500Y-74061457D01*
X137500500Y-73838543D01*
X137471404Y-73617537D01*
X137413710Y-73402219D01*
X137328405Y-73196274D01*
X137216948Y-73003226D01*
X137081247Y-72826376D01*
X137081242Y-72826370D01*
X136923629Y-72668757D01*
X136923622Y-72668751D01*
X136746782Y-72533058D01*
X136746780Y-72533057D01*
X136746774Y-72533052D01*
X136553726Y-72421595D01*
X136553722Y-72421593D01*
X136347790Y-72336293D01*
X136347783Y-72336291D01*
X136347781Y-72336290D01*
X136132463Y-72278596D01*
X136132457Y-72278595D01*
X136132452Y-72278594D01*
X135911466Y-72249501D01*
X135911463Y-72249500D01*
X135911457Y-72249500D01*
X135688543Y-72249500D01*
X135688537Y-72249500D01*
X135688533Y-72249501D01*
X135467547Y-72278594D01*
X135467540Y-72278595D01*
X135467537Y-72278596D01*
X135327297Y-72316173D01*
X135252219Y-72336290D01*
X135252209Y-72336293D01*
X135046277Y-72421593D01*
X135046273Y-72421595D01*
X134853226Y-72533052D01*
X134853217Y-72533058D01*
X134676377Y-72668751D01*
X134676370Y-72668757D01*
X134518757Y-72826370D01*
X134518751Y-72826377D01*
X134383058Y-73003217D01*
X134383052Y-73003226D01*
X134271595Y-73196273D01*
X134271593Y-73196277D01*
X134186293Y-73402209D01*
X134186290Y-73402219D01*
X134143256Y-73562827D01*
X134128597Y-73617534D01*
X134128594Y-73617547D01*
X134099501Y-73838533D01*
X134099500Y-73838549D01*
X126940500Y-73838549D01*
X126940499Y-73198805D01*
X126940499Y-72472129D01*
X126940498Y-72472123D01*
X126940497Y-72472116D01*
X126934091Y-72412517D01*
X126917767Y-72368751D01*
X126883797Y-72277671D01*
X126883793Y-72277664D01*
X126797547Y-72162455D01*
X126797544Y-72162452D01*
X126682335Y-72076206D01*
X126682328Y-72076202D01*
X126547482Y-72025908D01*
X126547483Y-72025908D01*
X126487883Y-72019501D01*
X126487881Y-72019500D01*
X126487873Y-72019500D01*
X126487864Y-72019500D01*
X124892129Y-72019500D01*
X124892123Y-72019501D01*
X124832516Y-72025908D01*
X124697671Y-72076202D01*
X124697664Y-72076206D01*
X124582455Y-72162452D01*
X124582452Y-72162455D01*
X124496206Y-72277664D01*
X124496202Y-72277671D01*
X124445908Y-72412517D01*
X124439501Y-72472116D01*
X124439501Y-72472123D01*
X124439500Y-72472135D01*
X121576018Y-72472135D01*
X121576013Y-72472128D01*
X121563827Y-72455355D01*
X121424645Y-72316173D01*
X121265404Y-72200477D01*
X121090028Y-72111118D01*
X120902825Y-72050291D01*
X120708421Y-72019501D01*
X120708416Y-72019501D01*
X120511582Y-72019501D01*
X120511577Y-72019501D01*
X120317172Y-72050291D01*
X120129969Y-72111118D01*
X119954593Y-72200477D01*
X119863740Y-72266486D01*
X119795353Y-72316173D01*
X119795351Y-72316175D01*
X119795350Y-72316175D01*
X119656173Y-72455352D01*
X119656173Y-72455353D01*
X119656171Y-72455355D01*
X119643985Y-72472128D01*
X119540475Y-72614595D01*
X119451116Y-72789971D01*
X119390289Y-72977174D01*
X119359499Y-73171578D01*
X116932295Y-73171578D01*
X116913710Y-73102219D01*
X116828405Y-72896274D01*
X116716948Y-72703226D01*
X116648940Y-72614596D01*
X116581248Y-72526377D01*
X116581242Y-72526370D01*
X116423629Y-72368757D01*
X116423622Y-72368751D01*
X116246782Y-72233058D01*
X116246780Y-72233057D01*
X116246774Y-72233052D01*
X116053726Y-72121595D01*
X116053722Y-72121593D01*
X115847790Y-72036293D01*
X115847783Y-72036291D01*
X115847781Y-72036290D01*
X115632463Y-71978596D01*
X115632457Y-71978595D01*
X115632452Y-71978594D01*
X115411466Y-71949501D01*
X115411463Y-71949500D01*
X115411457Y-71949500D01*
X115188543Y-71949500D01*
X115188537Y-71949500D01*
X115188533Y-71949501D01*
X114967547Y-71978594D01*
X114967540Y-71978595D01*
X114967537Y-71978596D01*
X114814877Y-72019501D01*
X114752219Y-72036290D01*
X114752209Y-72036293D01*
X114546277Y-72121593D01*
X114546273Y-72121595D01*
X114353226Y-72233052D01*
X114353217Y-72233058D01*
X114176377Y-72368751D01*
X114176370Y-72368757D01*
X114018757Y-72526370D01*
X114018751Y-72526377D01*
X113883058Y-72703217D01*
X113883052Y-72703226D01*
X113771595Y-72896273D01*
X113771593Y-72896277D01*
X113686293Y-73102209D01*
X113686291Y-73102216D01*
X113686290Y-73102219D01*
X113661089Y-73196273D01*
X113628597Y-73317534D01*
X113628594Y-73317547D01*
X113599501Y-73538533D01*
X113599500Y-73538549D01*
X98650500Y-73538549D01*
X98650500Y-70631577D01*
X121899500Y-70631577D01*
X121899500Y-70828422D01*
X121930290Y-71022826D01*
X121991117Y-71210029D01*
X122080476Y-71385405D01*
X122196172Y-71544646D01*
X122335354Y-71683828D01*
X122494595Y-71799524D01*
X122577455Y-71841743D01*
X122669970Y-71888882D01*
X122669972Y-71888882D01*
X122669975Y-71888884D01*
X122770317Y-71921487D01*
X122857173Y-71949709D01*
X123051578Y-71980500D01*
X123051583Y-71980500D01*
X123248422Y-71980500D01*
X123442826Y-71949709D01*
X123443469Y-71949500D01*
X123630025Y-71888884D01*
X123805405Y-71799524D01*
X123964646Y-71683828D01*
X124103828Y-71544646D01*
X124219524Y-71385405D01*
X124308884Y-71210025D01*
X124369709Y-71022826D01*
X124400500Y-70828422D01*
X124400500Y-70631577D01*
X124369709Y-70437173D01*
X124338135Y-70340000D01*
X124308884Y-70249975D01*
X124308882Y-70249972D01*
X124308882Y-70249970D01*
X124261743Y-70157455D01*
X124219524Y-70074595D01*
X124103828Y-69915354D01*
X123964646Y-69776172D01*
X123805405Y-69660476D01*
X123630029Y-69571117D01*
X123442826Y-69510290D01*
X123248422Y-69479500D01*
X123248417Y-69479500D01*
X123051583Y-69479500D01*
X123051578Y-69479500D01*
X122857173Y-69510290D01*
X122669970Y-69571117D01*
X122494594Y-69660476D01*
X122403741Y-69726485D01*
X122335354Y-69776172D01*
X122335352Y-69776174D01*
X122335351Y-69776174D01*
X122196174Y-69915351D01*
X122196174Y-69915352D01*
X122196172Y-69915354D01*
X122146485Y-69983741D01*
X122080476Y-70074594D01*
X121991117Y-70249970D01*
X121930290Y-70437173D01*
X121899500Y-70631577D01*
X98650500Y-70631577D01*
X98650500Y-63890313D01*
X124899500Y-63890313D01*
X124899500Y-64209687D01*
X124909019Y-64306340D01*
X124930803Y-64527522D01*
X124993109Y-64840754D01*
X125085820Y-65146382D01*
X125208040Y-65441446D01*
X125208042Y-65441451D01*
X125358584Y-65723094D01*
X125358601Y-65723122D01*
X125536012Y-65988638D01*
X125536029Y-65988661D01*
X125738638Y-66235540D01*
X125964459Y-66461361D01*
X125964464Y-66461365D01*
X125964465Y-66461366D01*
X126211344Y-66663975D01*
X126211351Y-66663980D01*
X126211361Y-66663987D01*
X126476877Y-66841398D01*
X126476882Y-66841401D01*
X126476894Y-66841409D01*
X126476903Y-66841413D01*
X126476905Y-66841415D01*
X126758548Y-66991957D01*
X126758550Y-66991957D01*
X126758556Y-66991961D01*
X127053619Y-67114180D01*
X127359240Y-67206889D01*
X127672477Y-67269196D01*
X127990313Y-67300500D01*
X127990316Y-67300500D01*
X128309684Y-67300500D01*
X128309687Y-67300500D01*
X128627523Y-67269196D01*
X128940760Y-67206889D01*
X129246381Y-67114180D01*
X129541444Y-66991961D01*
X129823106Y-66841409D01*
X130088656Y-66663975D01*
X130335535Y-66461366D01*
X130561366Y-66235535D01*
X130763975Y-65988656D01*
X130941409Y-65723106D01*
X131091961Y-65441444D01*
X131214180Y-65146381D01*
X131306889Y-64840760D01*
X131369196Y-64527523D01*
X131400500Y-64209687D01*
X131400500Y-63890313D01*
X131369196Y-63572477D01*
X131306889Y-63259240D01*
X131214180Y-62953619D01*
X131091961Y-62658556D01*
X131071839Y-62620911D01*
X130941415Y-62376905D01*
X130941413Y-62376903D01*
X130941409Y-62376894D01*
X130941398Y-62376877D01*
X130763987Y-62111361D01*
X130763980Y-62111351D01*
X130763975Y-62111344D01*
X130561366Y-61864465D01*
X130561365Y-61864464D01*
X130561361Y-61864459D01*
X130335540Y-61638638D01*
X130088661Y-61436029D01*
X130088638Y-61436012D01*
X129823122Y-61258601D01*
X129823094Y-61258584D01*
X129795513Y-61243842D01*
X129598525Y-61138549D01*
X134099500Y-61138549D01*
X134099500Y-61361450D01*
X134099501Y-61361466D01*
X134128594Y-61582452D01*
X134128595Y-61582457D01*
X134128596Y-61582463D01*
X134161033Y-61703520D01*
X134186290Y-61797780D01*
X134186293Y-61797790D01*
X134271593Y-62003722D01*
X134271595Y-62003726D01*
X134383052Y-62196774D01*
X134383057Y-62196780D01*
X134383058Y-62196782D01*
X134518751Y-62373622D01*
X134518757Y-62373629D01*
X134676370Y-62531242D01*
X134676376Y-62531247D01*
X134853226Y-62666948D01*
X135046274Y-62778405D01*
X135252219Y-62863710D01*
X135467537Y-62921404D01*
X135688543Y-62950500D01*
X135688550Y-62950500D01*
X135911450Y-62950500D01*
X135911457Y-62950500D01*
X136132463Y-62921404D01*
X136347781Y-62863710D01*
X136553726Y-62778405D01*
X136746774Y-62666948D01*
X136923624Y-62531247D01*
X137081247Y-62373624D01*
X137216948Y-62196774D01*
X137328405Y-62003726D01*
X137413710Y-61797781D01*
X137471404Y-61582463D01*
X137500500Y-61361457D01*
X137500500Y-61138543D01*
X137471404Y-60917537D01*
X137413710Y-60702219D01*
X137328405Y-60496274D01*
X137216948Y-60303226D01*
X137177867Y-60252294D01*
X137081248Y-60126377D01*
X137081242Y-60126370D01*
X136923629Y-59968757D01*
X136923622Y-59968751D01*
X136746782Y-59833058D01*
X136746780Y-59833057D01*
X136746774Y-59833052D01*
X136553726Y-59721595D01*
X136553722Y-59721593D01*
X136347790Y-59636293D01*
X136347783Y-59636291D01*
X136347781Y-59636290D01*
X136132463Y-59578596D01*
X136132457Y-59578595D01*
X136132452Y-59578594D01*
X135911466Y-59549501D01*
X135911463Y-59549500D01*
X135911457Y-59549500D01*
X135688543Y-59549500D01*
X135688537Y-59549500D01*
X135688533Y-59549501D01*
X135467547Y-59578594D01*
X135467540Y-59578595D01*
X135467537Y-59578596D01*
X135252219Y-59636290D01*
X135252209Y-59636293D01*
X135046277Y-59721593D01*
X135046273Y-59721595D01*
X134853226Y-59833052D01*
X134853217Y-59833058D01*
X134676377Y-59968751D01*
X134676370Y-59968757D01*
X134518757Y-60126370D01*
X134518751Y-60126377D01*
X134383058Y-60303217D01*
X134383052Y-60303226D01*
X134271595Y-60496273D01*
X134271593Y-60496277D01*
X134186293Y-60702209D01*
X134186290Y-60702219D01*
X134135142Y-60893109D01*
X134128597Y-60917534D01*
X134128594Y-60917547D01*
X134099501Y-61138533D01*
X134099500Y-61138549D01*
X129598525Y-61138549D01*
X129541451Y-61108042D01*
X129541446Y-61108040D01*
X129246382Y-60985820D01*
X128940754Y-60893109D01*
X128627521Y-60830803D01*
X128627522Y-60830803D01*
X128388141Y-60807227D01*
X128309687Y-60799500D01*
X127990313Y-60799500D01*
X127917822Y-60806639D01*
X127672477Y-60830803D01*
X127359245Y-60893109D01*
X127053617Y-60985820D01*
X126758553Y-61108040D01*
X126758548Y-61108042D01*
X126476905Y-61258584D01*
X126476877Y-61258601D01*
X126211361Y-61436012D01*
X126211338Y-61436029D01*
X125964459Y-61638638D01*
X125738638Y-61864459D01*
X125536029Y-62111338D01*
X125536012Y-62111361D01*
X125358601Y-62376877D01*
X125358584Y-62376905D01*
X125208042Y-62658548D01*
X125208040Y-62658553D01*
X125085820Y-62953617D01*
X124993109Y-63259245D01*
X124930803Y-63572477D01*
X124906639Y-63817822D01*
X124899500Y-63890313D01*
X98650500Y-63890313D01*
X98650500Y-60838575D01*
X113600000Y-60838575D01*
X113600000Y-61061424D01*
X113629085Y-61282354D01*
X113629088Y-61282367D01*
X113686763Y-61497618D01*
X113772045Y-61703502D01*
X113772054Y-61703520D01*
X113883464Y-61896491D01*
X113883473Y-61896504D01*
X113934040Y-61962403D01*
X113934043Y-61962403D01*
X114735387Y-61161059D01*
X114740889Y-61181591D01*
X114819881Y-61318408D01*
X114931592Y-61430119D01*
X115068409Y-61509111D01*
X115088940Y-61514612D01*
X114287595Y-62315955D01*
X114287595Y-62315956D01*
X114353507Y-62366533D01*
X114546485Y-62477949D01*
X114546497Y-62477954D01*
X114752381Y-62563236D01*
X114967632Y-62620911D01*
X114967645Y-62620914D01*
X115188575Y-62650000D01*
X115411425Y-62650000D01*
X115632354Y-62620914D01*
X115632367Y-62620911D01*
X115847618Y-62563236D01*
X116053502Y-62477954D01*
X116053514Y-62477949D01*
X116246498Y-62366530D01*
X116312403Y-62315957D01*
X116312404Y-62315956D01*
X115511059Y-61514612D01*
X115531591Y-61509111D01*
X115668408Y-61430119D01*
X115780119Y-61318408D01*
X115859111Y-61181591D01*
X115864612Y-61161059D01*
X116665956Y-61962404D01*
X116665957Y-61962403D01*
X116716530Y-61896498D01*
X116827949Y-61703514D01*
X116827954Y-61703502D01*
X116913236Y-61497618D01*
X116970911Y-61282367D01*
X116970914Y-61282354D01*
X117000000Y-61061424D01*
X117000000Y-60838575D01*
X116970914Y-60617645D01*
X116970911Y-60617632D01*
X116913236Y-60402381D01*
X116827954Y-60196497D01*
X116827949Y-60196485D01*
X116716533Y-60003507D01*
X116665956Y-59937595D01*
X116665955Y-59937595D01*
X115864612Y-60738939D01*
X115859111Y-60718409D01*
X115780119Y-60581592D01*
X115668408Y-60469881D01*
X115531591Y-60390889D01*
X115511058Y-60385387D01*
X116312403Y-59584043D01*
X116312403Y-59584040D01*
X116246504Y-59533473D01*
X116246491Y-59533464D01*
X116053520Y-59422054D01*
X116053502Y-59422045D01*
X115847618Y-59336763D01*
X115632367Y-59279088D01*
X115632354Y-59279085D01*
X115411425Y-59250000D01*
X115188575Y-59250000D01*
X114967645Y-59279085D01*
X114967632Y-59279088D01*
X114752381Y-59336763D01*
X114546497Y-59422045D01*
X114546479Y-59422054D01*
X114353511Y-59533462D01*
X114287595Y-59584042D01*
X115088941Y-60385387D01*
X115068409Y-60390889D01*
X114931592Y-60469881D01*
X114819881Y-60581592D01*
X114740889Y-60718409D01*
X114735387Y-60738940D01*
X113934042Y-59937595D01*
X113883462Y-60003511D01*
X113772054Y-60196479D01*
X113772045Y-60196497D01*
X113686763Y-60402381D01*
X113629088Y-60617632D01*
X113629085Y-60617645D01*
X113600000Y-60838575D01*
X98650500Y-60838575D01*
X98650500Y-57174500D01*
X98670185Y-57107461D01*
X98722989Y-57061706D01*
X98774500Y-57050500D01*
X147525500Y-57050500D01*
X147592539Y-57070185D01*
G37*
G04 #@! TD.AperFunction*
M02*
