G04 #@! TF.GenerationSoftware,KiCad,Pcbnew,9.0.0*
G04 #@! TF.CreationDate,2025-04-29T16:12:49+03:00*
G04 #@! TF.ProjectId,Embedded-Board,456d6265-6464-4656-942d-426f6172642e,rev?*
G04 #@! TF.SameCoordinates,Original*
G04 #@! TF.FileFunction,Profile,NP*
%FSLAX46Y46*%
G04 Gerber Fmt 4.6, Leading zero omitted, Abs format (unit mm)*
G04 Created by KiCad (PCBNEW 9.0.0) date 2025-04-29 16:12:49*
%MOMM*%
%LPD*%
G01*
G04 APERTURE LIST*
G04 #@! TA.AperFunction,Profile*
%ADD10C,0.100000*%
G04 #@! TD*
%ADD11C,0.150000*%
G04 APERTURE END LIST*
D10*
X75150000Y-54650000D02*
X155150000Y-54650000D01*
X155150000Y-114650000D01*
X75150000Y-114650000D01*
X75150000Y-54650000D01*
X100450000Y-96150000D02*
X108450000Y-96150000D01*
X99450000Y-89150000D02*
X99450000Y-95150000D01*
X109450000Y-95150000D02*
X109450000Y-89150000D01*
X108450000Y-88150000D02*
G75*
G02*
X109450000Y-89150000I0J-1000000D01*
G01*
X100450000Y-96150000D02*
G75*
G02*
X99450000Y-95150000I0J1000000D01*
G01*
X109450000Y-95150000D02*
G75*
G02*
X108450000Y-96150000I-1000000J0D01*
G01*
X108450000Y-88150000D02*
X100450000Y-88150000D01*
X99450000Y-89150000D02*
G75*
G02*
X100450000Y-88150000I1000000J0D01*
G01*
D11*
X103485714Y-92559580D02*
X103438095Y-92607200D01*
X103438095Y-92607200D02*
X103295238Y-92654819D01*
X103295238Y-92654819D02*
X103200000Y-92654819D01*
X103200000Y-92654819D02*
X103057143Y-92607200D01*
X103057143Y-92607200D02*
X102961905Y-92511961D01*
X102961905Y-92511961D02*
X102914286Y-92416723D01*
X102914286Y-92416723D02*
X102866667Y-92226247D01*
X102866667Y-92226247D02*
X102866667Y-92083390D01*
X102866667Y-92083390D02*
X102914286Y-91892914D01*
X102914286Y-91892914D02*
X102961905Y-91797676D01*
X102961905Y-91797676D02*
X103057143Y-91702438D01*
X103057143Y-91702438D02*
X103200000Y-91654819D01*
X103200000Y-91654819D02*
X103295238Y-91654819D01*
X103295238Y-91654819D02*
X103438095Y-91702438D01*
X103438095Y-91702438D02*
X103485714Y-91750057D01*
X103914286Y-92654819D02*
X103914286Y-91654819D01*
X103914286Y-91654819D02*
X104485714Y-92654819D01*
X104485714Y-92654819D02*
X104485714Y-91654819D01*
X105533333Y-92559580D02*
X105485714Y-92607200D01*
X105485714Y-92607200D02*
X105342857Y-92654819D01*
X105342857Y-92654819D02*
X105247619Y-92654819D01*
X105247619Y-92654819D02*
X105104762Y-92607200D01*
X105104762Y-92607200D02*
X105009524Y-92511961D01*
X105009524Y-92511961D02*
X104961905Y-92416723D01*
X104961905Y-92416723D02*
X104914286Y-92226247D01*
X104914286Y-92226247D02*
X104914286Y-92083390D01*
X104914286Y-92083390D02*
X104961905Y-91892914D01*
X104961905Y-91892914D02*
X105009524Y-91797676D01*
X105009524Y-91797676D02*
X105104762Y-91702438D01*
X105104762Y-91702438D02*
X105247619Y-91654819D01*
X105247619Y-91654819D02*
X105342857Y-91654819D01*
X105342857Y-91654819D02*
X105485714Y-91702438D01*
X105485714Y-91702438D02*
X105533333Y-91750057D01*
M02*
