G04 #@! TF.GenerationSoftware,KiCad,Pcbnew,9.0.0*
G04 #@! TF.CreationDate,2025-04-29T16:12:49+03:00*
G04 #@! TF.ProjectId,Embedded-Board,456d6265-6464-4656-942d-426f6172642e,rev?*
G04 #@! TF.SameCoordinates,Original*
G04 #@! TF.FileFunction,Legend,Bot*
G04 #@! TF.FilePolarity,Positive*
%FSLAX46Y46*%
G04 Gerber Fmt 4.6, Leading zero omitted, Abs format (unit mm)*
G04 Created by KiCad (PCBNEW 9.0.0) date 2025-04-29 16:12:49*
%MOMM*%
%LPD*%
G01*
G04 APERTURE LIST*
G04 Aperture macros list*
%AMRoundRect*
0 Rectangle with rounded corners*
0 $1 Rounding radius*
0 $2 $3 $4 $5 $6 $7 $8 $9 X,Y pos of 4 corners*
0 Add a 4 corners polygon primitive as box body*
4,1,4,$2,$3,$4,$5,$6,$7,$8,$9,$2,$3,0*
0 Add four circle primitives for the rounded corners*
1,1,$1+$1,$2,$3*
1,1,$1+$1,$4,$5*
1,1,$1+$1,$6,$7*
1,1,$1+$1,$8,$9*
0 Add four rect primitives between the rounded corners*
20,1,$1+$1,$2,$3,$4,$5,0*
20,1,$1+$1,$4,$5,$6,$7,0*
20,1,$1+$1,$6,$7,$8,$9,0*
20,1,$1+$1,$8,$9,$2,$3,0*%
G04 Aperture macros list end*
%ADD10C,1.000000*%
%ADD11C,0.150000*%
%ADD12C,0.200000*%
%ADD13C,0.625000*%
%ADD14C,0.500000*%
%ADD15C,0.120000*%
%ADD16C,0.000000*%
%ADD17R,1.700000X1.700000*%
%ADD18O,1.700000X1.700000*%
%ADD19RoundRect,0.250000X0.625000X-0.350000X0.625000X0.350000X-0.625000X0.350000X-0.625000X-0.350000X0*%
%ADD20O,1.750000X1.200000*%
%ADD21C,5.500000*%
%ADD22C,2.000000*%
%ADD23R,2.000000X2.000000*%
%ADD24R,3.200000X2.000000*%
%ADD25C,1.000000*%
%ADD26C,0.600000*%
%ADD27O,2.000000X0.900000*%
%ADD28O,1.700000X0.900000*%
%ADD29C,3.200000*%
G04 APERTURE END LIST*
D10*
X111700000Y-68511608D02*
X111700000Y-78888392D01*
D11*
X154650000Y-110700000D02*
X139300000Y-110700000D01*
X109100000Y-110700000D02*
X109100000Y-114150000D01*
X131400000Y-110700000D02*
X109100000Y-110700000D01*
X118250000Y-92400000D02*
X134700000Y-92400000D01*
X134700000Y-96500000D01*
X118250000Y-96500000D01*
X118250000Y-92400000D01*
D12*
G36*
X131640427Y-113139500D02*
G01*
X131107159Y-113139500D01*
X131014661Y-113134145D01*
X130929465Y-113118546D01*
X130850607Y-113093142D01*
X130775824Y-113057582D01*
X130709027Y-113013962D01*
X130649460Y-112962088D01*
X130597708Y-112902413D01*
X130554405Y-112835340D01*
X130519358Y-112760068D01*
X130494376Y-112680626D01*
X130479050Y-112595069D01*
X130473795Y-112502484D01*
X130786865Y-112502484D01*
X130792982Y-112582040D01*
X130810520Y-112651795D01*
X130839417Y-112714897D01*
X130876960Y-112766419D01*
X130923892Y-112808380D01*
X130979835Y-112840162D01*
X131042649Y-112859672D01*
X131116288Y-112866515D01*
X131331087Y-112866515D01*
X131331087Y-112138531D01*
X131116288Y-112138531D01*
X131042653Y-112145394D01*
X130979835Y-112164964D01*
X130923895Y-112196684D01*
X130876960Y-112238628D01*
X130839417Y-112290150D01*
X130810520Y-112353251D01*
X130792984Y-112422937D01*
X130786865Y-112502484D01*
X130473795Y-112502484D01*
X130479061Y-112409954D01*
X130494398Y-112324754D01*
X130519358Y-112245931D01*
X130554335Y-112171140D01*
X130597628Y-112104044D01*
X130649460Y-112043912D01*
X130709088Y-111991464D01*
X130775885Y-111947537D01*
X130850607Y-111911904D01*
X130929468Y-111886456D01*
X131014664Y-111870831D01*
X131107159Y-111865468D01*
X131640427Y-111865468D01*
X131640427Y-113139500D01*
G37*
G36*
X130266695Y-113139500D02*
G01*
X130266695Y-112173061D01*
X129990060Y-112173061D01*
X129977359Y-112487957D01*
X130031892Y-112427867D01*
X130002924Y-112353525D01*
X129960054Y-112287764D01*
X129905374Y-112231999D01*
X129842653Y-112189493D01*
X129773046Y-112162163D01*
X129698898Y-112153058D01*
X129637935Y-112158535D01*
X129586021Y-112171235D01*
X129666114Y-112493434D01*
X129688198Y-112482332D01*
X129719774Y-112472478D01*
X129789866Y-112464302D01*
X129828853Y-112467776D01*
X129864482Y-112477956D01*
X129896594Y-112494728D01*
X129922746Y-112517089D01*
X129943747Y-112544605D01*
X129960054Y-112577179D01*
X129970155Y-112613201D01*
X129973708Y-112655367D01*
X129973708Y-113139500D01*
X130266695Y-113139500D01*
G37*
G36*
X129195245Y-112160439D02*
G01*
X129269335Y-112181999D01*
X129337327Y-112217672D01*
X129397681Y-112265622D01*
X129449100Y-112324365D01*
X129492036Y-112395163D01*
X129522744Y-112472225D01*
X129541778Y-112558414D01*
X129548395Y-112655367D01*
X129541849Y-112749871D01*
X129522880Y-112835235D01*
X129492036Y-112912873D01*
X129449216Y-112984429D01*
X129398655Y-113043423D01*
X129340026Y-113091237D01*
X129273797Y-113126963D01*
X129201818Y-113148493D01*
X129122527Y-113155852D01*
X129058387Y-113150776D01*
X128998776Y-113135848D01*
X128942928Y-113112047D01*
X128893202Y-113081315D01*
X128849324Y-113043768D01*
X128831365Y-113022622D01*
X128831365Y-113139500D01*
X128536473Y-113139500D01*
X128536473Y-112655367D01*
X128822237Y-112655367D01*
X128829427Y-112730197D01*
X128849543Y-112791026D01*
X128882731Y-112842238D01*
X128925985Y-112879295D01*
X128978583Y-112902164D01*
X129042434Y-112910174D01*
X129104635Y-112902191D01*
X129156263Y-112879295D01*
X129198742Y-112842314D01*
X129231753Y-112791026D01*
X129251869Y-112730197D01*
X129259059Y-112655367D01*
X129251867Y-112580549D01*
X129231753Y-112519788D01*
X129198783Y-112468323D01*
X129156263Y-112430646D01*
X129104566Y-112406965D01*
X129042434Y-112398735D01*
X128978653Y-112406993D01*
X128925985Y-112430646D01*
X128882692Y-112468399D01*
X128849543Y-112519788D01*
X128829429Y-112580549D01*
X128822237Y-112655367D01*
X128536473Y-112655367D01*
X128536473Y-112173061D01*
X128825888Y-112173061D01*
X128825888Y-112291923D01*
X128845411Y-112266896D01*
X128885978Y-112228626D01*
X128932588Y-112197209D01*
X128986948Y-112173061D01*
X129046209Y-112158222D01*
X129113478Y-112153058D01*
X129195245Y-112160439D01*
G37*
G36*
X128080600Y-113139500D02*
G01*
X128399147Y-112173061D01*
X128091554Y-112173061D01*
X127913189Y-112800948D01*
X127951450Y-112793725D01*
X127751177Y-112305941D01*
X127580115Y-112305941D01*
X127369047Y-112795551D01*
X127410880Y-112799123D01*
X127232515Y-112173061D01*
X126924922Y-112173061D01*
X127254344Y-113139500D01*
X127469144Y-113139500D01*
X127678387Y-112620838D01*
X127656557Y-112624410D01*
X127865880Y-113139500D01*
X128080600Y-113139500D01*
G37*
G36*
X126774022Y-113139500D02*
G01*
X126774022Y-112173061D01*
X126497387Y-112173061D01*
X126488258Y-112369603D01*
X126546522Y-112391512D01*
X126518935Y-112329543D01*
X126474685Y-112272285D01*
X126418050Y-112224150D01*
X126349980Y-112185841D01*
X126275394Y-112161260D01*
X126197096Y-112153058D01*
X126125436Y-112158433D01*
X126064790Y-112173602D01*
X126013255Y-112197669D01*
X125968122Y-112231693D01*
X125930656Y-112275503D01*
X125900457Y-112330549D01*
X125880002Y-112390603D01*
X125866882Y-112461811D01*
X125862197Y-112546142D01*
X125862197Y-113139500D01*
X126155264Y-113139500D01*
X126155264Y-112569876D01*
X126159722Y-112514508D01*
X126171616Y-112473431D01*
X126192536Y-112439699D01*
X126221704Y-112416040D01*
X126257972Y-112402417D01*
X126304496Y-112398735D01*
X126341723Y-112401759D01*
X126375461Y-112410563D01*
X126406167Y-112425254D01*
X126431899Y-112445172D01*
X126453100Y-112469606D01*
X126469207Y-112497086D01*
X126479384Y-112527234D01*
X126482861Y-112560748D01*
X126482861Y-113139500D01*
X126626616Y-113139500D01*
X126714012Y-113139500D01*
X126774022Y-113139500D01*
G37*
G36*
X125037847Y-113137674D02*
G01*
X124766688Y-113137674D01*
X124759030Y-113033344D01*
X124735778Y-113058295D01*
X124691199Y-113092190D01*
X124640580Y-113119680D01*
X124582847Y-113141325D01*
X124521727Y-113154912D01*
X124457269Y-113159503D01*
X124377962Y-113152160D01*
X124305679Y-113130643D01*
X124238898Y-113094889D01*
X124179799Y-113046984D01*
X124129282Y-112987985D01*
X124086966Y-112916524D01*
X124056676Y-112838892D01*
X124037915Y-112752363D01*
X124031401Y-112655367D01*
X124317165Y-112655367D01*
X124324137Y-112730250D01*
X124343598Y-112791026D01*
X124375956Y-112842572D01*
X124419088Y-112881121D01*
X124471567Y-112905435D01*
X124533711Y-112913825D01*
X124597451Y-112905380D01*
X124650239Y-112881121D01*
X124693576Y-112842607D01*
X124726681Y-112791026D01*
X124746738Y-112730201D01*
X124753908Y-112655367D01*
X124746802Y-112582027D01*
X124726681Y-112520741D01*
X124693428Y-112468734D01*
X124650239Y-112431519D01*
X124597568Y-112408587D01*
X124533711Y-112400561D01*
X124471452Y-112408535D01*
X124419088Y-112431519D01*
X124376103Y-112468768D01*
X124343598Y-112520741D01*
X124324074Y-112581981D01*
X124317165Y-112655367D01*
X124031401Y-112655367D01*
X124037984Y-112559642D01*
X124057005Y-112473697D01*
X124087840Y-112396036D01*
X124130726Y-112324618D01*
X124181845Y-112265609D01*
X124241597Y-112217672D01*
X124309035Y-112182028D01*
X124382821Y-112160454D01*
X124464572Y-112153058D01*
X124523771Y-112157635D01*
X124581021Y-112171315D01*
X124635421Y-112193023D01*
X124684769Y-112221323D01*
X124728494Y-112255906D01*
X124744859Y-112274007D01*
X124744859Y-111792677D01*
X125037847Y-111792677D01*
X125037847Y-113137674D01*
G37*
G36*
X123755083Y-113558065D02*
G01*
X123534886Y-113039403D01*
X123531235Y-113188635D01*
X123997109Y-112173061D01*
X123667687Y-112173061D01*
X123463842Y-112659019D01*
X123432963Y-112737286D01*
X123411134Y-112817380D01*
X123451141Y-112841035D01*
X123426534Y-112772769D01*
X123396529Y-112684500D01*
X123218164Y-112173061D01*
X122886916Y-112173061D01*
X123298257Y-113139500D01*
X123465668Y-113558065D01*
X123755083Y-113558065D01*
G37*
G36*
X122136547Y-113139500D02*
G01*
X122136547Y-111865468D01*
X121859911Y-111865468D01*
X121192017Y-112775468D01*
X121252027Y-112766419D01*
X121266633Y-112651716D01*
X121276635Y-112544396D01*
X121283938Y-112436996D01*
X121287589Y-112318721D01*
X121288462Y-112180364D01*
X121288462Y-111865468D01*
X120988172Y-111865468D01*
X120988172Y-113139500D01*
X121268459Y-113139500D01*
X121965485Y-112200367D01*
X121872691Y-112213147D01*
X121857212Y-112361427D01*
X121846338Y-112469780D01*
X121839908Y-112555350D01*
X121837209Y-112630839D01*
X121836256Y-112713632D01*
X121836256Y-113139500D01*
X122136547Y-113139500D01*
G37*
G36*
X120682960Y-113139500D02*
G01*
X120682960Y-112173061D01*
X120391719Y-112173061D01*
X120391719Y-113139500D01*
X120682960Y-113139500D01*
G37*
G36*
X120537379Y-111981996D02*
G01*
X120590627Y-111977143D01*
X120632579Y-111963777D01*
X120665655Y-111942862D01*
X120690942Y-111913858D01*
X120706521Y-111877323D01*
X120712092Y-111830938D01*
X120706695Y-111789354D01*
X120691070Y-111754071D01*
X120664782Y-111723538D01*
X120630944Y-111700966D01*
X120589190Y-111686787D01*
X120537379Y-111681706D01*
X120484086Y-111686582D01*
X120442466Y-111699965D01*
X120409976Y-111720839D01*
X120385114Y-111749732D01*
X120369849Y-111785709D01*
X120364412Y-111830938D01*
X120369773Y-111873747D01*
X120385178Y-111909606D01*
X120410849Y-111940163D01*
X120444102Y-111962696D01*
X120485529Y-111976891D01*
X120537379Y-111981996D01*
G37*
G36*
X119694851Y-113157677D02*
G01*
X119786442Y-113150162D01*
X119869640Y-113128247D01*
X119946006Y-113092190D01*
X120014887Y-113043119D01*
X120073180Y-112983664D01*
X120121672Y-112912873D01*
X120157146Y-112834791D01*
X120178775Y-112749476D01*
X120186207Y-112655367D01*
X120178775Y-112561259D01*
X120157146Y-112475944D01*
X120121672Y-112397862D01*
X120073177Y-112327076D01*
X120014884Y-112267648D01*
X119946006Y-112218625D01*
X119869635Y-112182522D01*
X119786438Y-112160582D01*
X119694851Y-112153058D01*
X119609637Y-112158285D01*
X119530770Y-112173560D01*
X119457349Y-112198542D01*
X119388695Y-112233793D01*
X119331834Y-112276220D01*
X119285335Y-112325945D01*
X119443696Y-112515264D01*
X119503786Y-112460651D01*
X119540009Y-112437989D01*
X119580228Y-112420644D01*
X119622836Y-112409713D01*
X119667545Y-112406038D01*
X119733466Y-112414225D01*
X119789471Y-112437869D01*
X119836192Y-112475689D01*
X119871390Y-112526139D01*
X119892990Y-112585572D01*
X119900522Y-112655367D01*
X119892875Y-112721938D01*
X119870517Y-112780945D01*
X119834609Y-112831628D01*
X119787645Y-112870167D01*
X119731828Y-112894530D01*
X119667545Y-112902871D01*
X119621380Y-112899821D01*
X119580228Y-112891043D01*
X119541679Y-112876225D01*
X119506485Y-112855561D01*
X119474320Y-112829521D01*
X119443696Y-112797376D01*
X119287161Y-112988441D01*
X119332384Y-113035755D01*
X119389127Y-113077019D01*
X119459175Y-113112193D01*
X119533743Y-113137317D01*
X119612056Y-113152523D01*
X119694851Y-113157677D01*
G37*
G36*
X118770952Y-112160661D02*
G01*
X118859870Y-112182691D01*
X118940434Y-112218625D01*
X119013613Y-112267847D01*
X119075169Y-112327047D01*
X119126101Y-112396989D01*
X119163565Y-112474697D01*
X119186418Y-112560238D01*
X119194288Y-112655367D01*
X119186420Y-112750498D01*
X119163567Y-112836067D01*
X119126101Y-112913825D01*
X119075177Y-112983723D01*
X119013621Y-113042925D01*
X118940434Y-113092190D01*
X118859874Y-113128078D01*
X118770956Y-113150082D01*
X118671974Y-113157677D01*
X118572992Y-113150082D01*
X118484074Y-113128078D01*
X118403515Y-113092190D01*
X118330389Y-113042888D01*
X118269164Y-112983687D01*
X118218800Y-112913825D01*
X118181832Y-112836118D01*
X118159261Y-112750543D01*
X118151487Y-112655367D01*
X118448126Y-112655367D01*
X118454274Y-112725168D01*
X118475432Y-112784596D01*
X118510254Y-112835379D01*
X118555525Y-112873818D01*
X118609551Y-112898186D01*
X118671974Y-112906522D01*
X118734600Y-112898209D01*
X118789376Y-112873818D01*
X118835360Y-112835313D01*
X118870342Y-112784596D01*
X118891500Y-112725168D01*
X118897649Y-112655367D01*
X118891522Y-112585442D01*
X118870342Y-112525265D01*
X118835299Y-112473824D01*
X118789376Y-112435170D01*
X118734595Y-112410719D01*
X118671974Y-112402387D01*
X118609556Y-112410742D01*
X118555525Y-112435170D01*
X118510315Y-112473757D01*
X118475432Y-112525265D01*
X118454252Y-112585442D01*
X118448126Y-112655367D01*
X118151487Y-112655367D01*
X118159263Y-112560193D01*
X118181835Y-112474646D01*
X118218800Y-112396989D01*
X118269172Y-112327083D01*
X118330397Y-112267884D01*
X118403515Y-112218625D01*
X118484079Y-112182691D01*
X118572996Y-112160661D01*
X118671974Y-112153058D01*
X118770952Y-112160661D01*
G37*
G36*
X117959231Y-113139500D02*
G01*
X117959231Y-111792677D01*
X117668069Y-111792677D01*
X117668069Y-113139500D01*
X117959231Y-113139500D01*
G37*
G36*
X117142349Y-112160439D02*
G01*
X117216439Y-112181999D01*
X117284431Y-112217672D01*
X117344785Y-112265622D01*
X117396204Y-112324365D01*
X117439140Y-112395163D01*
X117469848Y-112472225D01*
X117488882Y-112558414D01*
X117495499Y-112655367D01*
X117488953Y-112749871D01*
X117469984Y-112835235D01*
X117439140Y-112912873D01*
X117396320Y-112984429D01*
X117345759Y-113043423D01*
X117287130Y-113091237D01*
X117220901Y-113126963D01*
X117148922Y-113148493D01*
X117069631Y-113155852D01*
X117005491Y-113150776D01*
X116945880Y-113135848D01*
X116890032Y-113112047D01*
X116840306Y-113081315D01*
X116796428Y-113043768D01*
X116778469Y-113022622D01*
X116778469Y-113139500D01*
X116483577Y-113139500D01*
X116483577Y-112655367D01*
X116769341Y-112655367D01*
X116776531Y-112730197D01*
X116796647Y-112791026D01*
X116829835Y-112842238D01*
X116873089Y-112879295D01*
X116925687Y-112902164D01*
X116989538Y-112910174D01*
X117051739Y-112902191D01*
X117103367Y-112879295D01*
X117145846Y-112842314D01*
X117178857Y-112791026D01*
X117198973Y-112730197D01*
X117206163Y-112655367D01*
X117198970Y-112580549D01*
X117178857Y-112519788D01*
X117145887Y-112468323D01*
X117103367Y-112430646D01*
X117051670Y-112406965D01*
X116989538Y-112398735D01*
X116925757Y-112406993D01*
X116873089Y-112430646D01*
X116829796Y-112468399D01*
X116796647Y-112519788D01*
X116776533Y-112580549D01*
X116769341Y-112655367D01*
X116483577Y-112655367D01*
X116483577Y-112173061D01*
X116772992Y-112173061D01*
X116772992Y-112291923D01*
X116792515Y-112266896D01*
X116833082Y-112228626D01*
X116879692Y-112197209D01*
X116934052Y-112173061D01*
X116993312Y-112158222D01*
X117060582Y-112153058D01*
X117142349Y-112160439D01*
G37*
G36*
X115901650Y-113157677D02*
G01*
X115995425Y-113152283D01*
X116078364Y-113136848D01*
X116151932Y-113112193D01*
X116221007Y-113077320D01*
X116277800Y-113036662D01*
X116323866Y-112990267D01*
X116147328Y-112837383D01*
X116086914Y-112886582D01*
X116020004Y-112920255D01*
X115949333Y-112940305D01*
X115885298Y-112946609D01*
X115839814Y-112941132D01*
X115806078Y-112925653D01*
X115785201Y-112901998D01*
X115777898Y-112870167D01*
X115785976Y-112838043D01*
X115810682Y-112813728D01*
X115865294Y-112791899D01*
X115963565Y-112762767D01*
X116045700Y-112738079D01*
X116111845Y-112710933D01*
X116170306Y-112677445D01*
X116214720Y-112640841D01*
X116247157Y-112600332D01*
X116271159Y-112556223D01*
X116285984Y-112507750D01*
X116291162Y-112451522D01*
X116283080Y-112386911D01*
X116259331Y-112329596D01*
X116222278Y-112278961D01*
X116173761Y-112234977D01*
X116116601Y-112200013D01*
X116050009Y-112174014D01*
X115978958Y-112158321D01*
X115905301Y-112153058D01*
X115826430Y-112157694D01*
X115752417Y-112171315D01*
X115681656Y-112193321D01*
X115616838Y-112222276D01*
X115557086Y-112258439D01*
X115504914Y-112300464D01*
X115657798Y-112471526D01*
X115692300Y-112442435D01*
X115731461Y-112416119D01*
X115773299Y-112393947D01*
X115816159Y-112376986D01*
X115859207Y-112365812D01*
X115896173Y-112362380D01*
X115944435Y-112366904D01*
X115979917Y-112381510D01*
X116001747Y-112405165D01*
X116009049Y-112436996D01*
X115999048Y-112471605D01*
X115970789Y-112498832D01*
X115912604Y-112523440D01*
X115803379Y-112557096D01*
X115721199Y-112583035D01*
X115655972Y-112609883D01*
X115598974Y-112642777D01*
X115557701Y-112679022D01*
X115532279Y-112712384D01*
X115514042Y-112750940D01*
X115503164Y-112793033D01*
X115499437Y-112839209D01*
X115505334Y-112899387D01*
X115522601Y-112953864D01*
X115551351Y-113003920D01*
X115589523Y-113047720D01*
X115636740Y-113085291D01*
X115694233Y-113116797D01*
X115756117Y-113139069D01*
X115824880Y-113152883D01*
X115901650Y-113157677D01*
G37*
G36*
X114357571Y-113139500D02*
G01*
X114867184Y-111865468D01*
X114545064Y-111865468D01*
X114299386Y-112515264D01*
X114262078Y-112613535D01*
X114234772Y-112691802D01*
X114212943Y-112765466D01*
X114190161Y-112850084D01*
X114246599Y-112850084D01*
X114217467Y-112740065D01*
X114184763Y-112639968D01*
X114139200Y-112515264D01*
X113902571Y-111865468D01*
X113585928Y-111865468D01*
X114099193Y-113139500D01*
X114357571Y-113139500D01*
G37*
G36*
X113433441Y-113139500D02*
G01*
X113433441Y-112173061D01*
X113142200Y-112173061D01*
X113142200Y-113139500D01*
X113433441Y-113139500D01*
G37*
G36*
X113287861Y-111981996D02*
G01*
X113341108Y-111977143D01*
X113383060Y-111963777D01*
X113416137Y-111942862D01*
X113441424Y-111913858D01*
X113457003Y-111877323D01*
X113462574Y-111830938D01*
X113457177Y-111789354D01*
X113441552Y-111754071D01*
X113415264Y-111723538D01*
X113381426Y-111700966D01*
X113339671Y-111686787D01*
X113287861Y-111681706D01*
X113234567Y-111686582D01*
X113192947Y-111699965D01*
X113160457Y-111720839D01*
X113135596Y-111749732D01*
X113120331Y-111785709D01*
X113114894Y-111830938D01*
X113120255Y-111873747D01*
X113135659Y-111909606D01*
X113161331Y-111940163D01*
X113194583Y-111962696D01*
X113236010Y-111976891D01*
X113287861Y-111981996D01*
G37*
G36*
X112585363Y-112160439D02*
G01*
X112659454Y-112181999D01*
X112727445Y-112217672D01*
X112787800Y-112265622D01*
X112839218Y-112324365D01*
X112882155Y-112395163D01*
X112912862Y-112472225D01*
X112931897Y-112558414D01*
X112938514Y-112655367D01*
X112931967Y-112749871D01*
X112912998Y-112835235D01*
X112882155Y-112912873D01*
X112839334Y-112984429D01*
X112788773Y-113043423D01*
X112730144Y-113091237D01*
X112663916Y-113126963D01*
X112591936Y-113148493D01*
X112512646Y-113155852D01*
X112448506Y-113150776D01*
X112388894Y-113135848D01*
X112333047Y-113112047D01*
X112283320Y-113081315D01*
X112239443Y-113043768D01*
X112221484Y-113022623D01*
X112221484Y-113139500D01*
X111926591Y-113139500D01*
X111926591Y-112655367D01*
X112212355Y-112655367D01*
X112219546Y-112730197D01*
X112239662Y-112791026D01*
X112272850Y-112842238D01*
X112316104Y-112879295D01*
X112368702Y-112902164D01*
X112432553Y-112910174D01*
X112494754Y-112902191D01*
X112546382Y-112879295D01*
X112588861Y-112842314D01*
X112621871Y-112791026D01*
X112641987Y-112730197D01*
X112649178Y-112655367D01*
X112641985Y-112580549D01*
X112621871Y-112519788D01*
X112588901Y-112468323D01*
X112546382Y-112430646D01*
X112494685Y-112406965D01*
X112432553Y-112398735D01*
X112368771Y-112406993D01*
X112316104Y-112430646D01*
X112272810Y-112468399D01*
X112239662Y-112519788D01*
X112219548Y-112580549D01*
X112212355Y-112655367D01*
X111926591Y-112655367D01*
X111926591Y-112173061D01*
X112216007Y-112173061D01*
X112216007Y-112291922D01*
X112235529Y-112266896D01*
X112276097Y-112228626D01*
X112322707Y-112197209D01*
X112377067Y-112173061D01*
X112436327Y-112158222D01*
X112503597Y-112153058D01*
X112585363Y-112160439D01*
G37*
G36*
X111668610Y-113139500D02*
G01*
X111668610Y-111792677D01*
X111377448Y-111792677D01*
X111377448Y-113139500D01*
X111668610Y-113139500D01*
G37*
G36*
X110675262Y-113157677D02*
G01*
X110780431Y-113150045D01*
X110872578Y-113128196D01*
X110953803Y-113093063D01*
X111027390Y-113044247D01*
X111088246Y-112985647D01*
X111137565Y-112916524D01*
X111173524Y-112839553D01*
X111195488Y-112754883D01*
X111203052Y-112660845D01*
X111193720Y-112553004D01*
X111166697Y-112457000D01*
X111122674Y-112369825D01*
X111064774Y-112295940D01*
X110993422Y-112235608D01*
X110909192Y-112190366D01*
X110815939Y-112162607D01*
X110711697Y-112153058D01*
X110612944Y-112162394D01*
X110525156Y-112189493D01*
X110446042Y-112233285D01*
X110378702Y-112291415D01*
X110324377Y-112362335D01*
X110284003Y-112446125D01*
X110260520Y-112538104D01*
X110254871Y-112640841D01*
X110256697Y-112719109D01*
X111026514Y-112719109D01*
X111068426Y-112555271D01*
X110493325Y-112555271D01*
X110524204Y-112589880D01*
X110524204Y-112553445D01*
X110533191Y-112510186D01*
X110552463Y-112472478D01*
X110580730Y-112440995D01*
X110617077Y-112416993D01*
X110659092Y-112402093D01*
X110708045Y-112396910D01*
X110775397Y-112404355D01*
X110829098Y-112425169D01*
X110872808Y-112459557D01*
X110904588Y-112507088D01*
X110923238Y-112564568D01*
X110930068Y-112639015D01*
X110921307Y-112715289D01*
X110896412Y-112778246D01*
X110855399Y-112830435D01*
X110798141Y-112870167D01*
X110729407Y-112894260D01*
X110644384Y-112902871D01*
X110584625Y-112898113D01*
X110534285Y-112884693D01*
X110486218Y-112861458D01*
X110429584Y-112822857D01*
X110293052Y-113015748D01*
X110351712Y-113060602D01*
X110413232Y-113095841D01*
X110477880Y-113123013D01*
X110543334Y-113142198D01*
X110609860Y-113153845D01*
X110675262Y-113157677D01*
G37*
D13*
G36*
X121079439Y-57963066D02*
G01*
X121079439Y-55894940D01*
X121810794Y-55894940D01*
X121810794Y-58650000D01*
X120024921Y-58650000D01*
X120024921Y-57963066D01*
X121079439Y-57963066D01*
G37*
G36*
X118618954Y-55835871D02*
G01*
X118861055Y-55892101D01*
X119086401Y-55983644D01*
X119191611Y-56042015D01*
X119290844Y-56108147D01*
X119383903Y-56181843D01*
X119470173Y-56262601D01*
X119549086Y-56349842D01*
X119620458Y-56443383D01*
X119683507Y-56542183D01*
X119738347Y-56646481D01*
X119784181Y-56754815D01*
X119821219Y-56867842D01*
X119848820Y-56983818D01*
X119867108Y-57103705D01*
X119876391Y-57272775D01*
X119857301Y-57512387D01*
X119801005Y-57740088D01*
X119708987Y-57952920D01*
X119582982Y-58147394D01*
X119425257Y-58319601D01*
X119238777Y-58465474D01*
X119135903Y-58527293D01*
X119027206Y-58581138D01*
X118913449Y-58626509D01*
X118794685Y-58663223D01*
X118672176Y-58690754D01*
X118545495Y-58709030D01*
X118365596Y-58718387D01*
X118109399Y-58699302D01*
X117866318Y-58643099D01*
X117640221Y-58551642D01*
X117534742Y-58493359D01*
X117435295Y-58427341D01*
X117342111Y-58353818D01*
X117255768Y-58273270D01*
X117176872Y-58186320D01*
X117105560Y-58093118D01*
X117042647Y-57994755D01*
X116987981Y-57890947D01*
X116942375Y-57783208D01*
X116905591Y-57670835D01*
X116878277Y-57555610D01*
X116860292Y-57436537D01*
X116851443Y-57272775D01*
X116851842Y-57267738D01*
X117591499Y-57267738D01*
X117610408Y-57439091D01*
X117665839Y-57597869D01*
X117755515Y-57739175D01*
X117876133Y-57857288D01*
X117946586Y-57905791D01*
X118022977Y-57946422D01*
X118104218Y-57978461D01*
X118190250Y-58001670D01*
X118363917Y-58019548D01*
X118542334Y-58000653D01*
X118707061Y-57945402D01*
X118852725Y-57856491D01*
X118916592Y-57800544D01*
X118973421Y-57737809D01*
X119022541Y-57669027D01*
X119063583Y-57594564D01*
X119095686Y-57515887D01*
X119118843Y-57432694D01*
X119136335Y-57267738D01*
X119117426Y-57095631D01*
X119061997Y-56936136D01*
X118972356Y-56794209D01*
X118851856Y-56675603D01*
X118781521Y-56626908D01*
X118705261Y-56586097D01*
X118624207Y-56553908D01*
X118538377Y-56530554D01*
X118363917Y-56512417D01*
X118185938Y-56531312D01*
X118021536Y-56586579D01*
X117876026Y-56675566D01*
X117755288Y-56794445D01*
X117706073Y-56863400D01*
X117664915Y-56938058D01*
X117632659Y-57016994D01*
X117609336Y-57100468D01*
X117591499Y-57267738D01*
X116851842Y-57267738D01*
X116870531Y-57031508D01*
X116926809Y-56802318D01*
X117018765Y-56588167D01*
X117144629Y-56392538D01*
X117302106Y-56219322D01*
X117488205Y-56072557D01*
X117590832Y-56010327D01*
X117699254Y-55956082D01*
X117812695Y-55910327D01*
X117931113Y-55873233D01*
X118053239Y-55845327D01*
X118179509Y-55826674D01*
X118363917Y-55816782D01*
X118618954Y-55835871D01*
G37*
G36*
X115961483Y-58669539D02*
G01*
X115761509Y-58669539D01*
X115122356Y-57306206D01*
X114478166Y-58669539D01*
X114276513Y-58669539D01*
X113356939Y-55894940D01*
X114148285Y-55894940D01*
X114527625Y-57154012D01*
X115091673Y-55900130D01*
X115146323Y-55900130D01*
X115710218Y-57157370D01*
X116091390Y-55894940D01*
X116882584Y-55894940D01*
X115961483Y-58669539D01*
G37*
G36*
X110632410Y-58708618D02*
G01*
X110391521Y-58689795D01*
X110161746Y-58634271D01*
X109943492Y-58542917D01*
X109738348Y-58416310D01*
X109600178Y-58303633D01*
X110017223Y-57748133D01*
X110110190Y-57824532D01*
X110208040Y-57890583D01*
X110297400Y-57938451D01*
X110390264Y-57975924D01*
X110476826Y-57999814D01*
X110566070Y-58013473D01*
X110632410Y-58016495D01*
X110799563Y-57997556D01*
X110962569Y-57940783D01*
X111111455Y-57848212D01*
X111177008Y-57790280D01*
X111235631Y-57725191D01*
X111285323Y-57655245D01*
X111326740Y-57579456D01*
X111358051Y-57501336D01*
X111380169Y-57418669D01*
X111394600Y-57274454D01*
X111375769Y-57108549D01*
X111320330Y-56953342D01*
X111230014Y-56813335D01*
X111107759Y-56694597D01*
X111036074Y-56645290D01*
X110958704Y-56603947D01*
X110876566Y-56571190D01*
X110790146Y-56547439D01*
X110616992Y-56529056D01*
X110459139Y-56547812D01*
X110287941Y-56606690D01*
X110116397Y-56706319D01*
X110020581Y-56783679D01*
X109600178Y-56246650D01*
X109792631Y-56095506D01*
X110011813Y-55972042D01*
X110128335Y-55923015D01*
X110247178Y-55883588D01*
X110366199Y-55854372D01*
X110485477Y-55835335D01*
X110618671Y-55826552D01*
X110874272Y-55845627D01*
X111117333Y-55901853D01*
X111343897Y-55993432D01*
X111449771Y-56051838D01*
X111549622Y-56117975D01*
X111643280Y-56191659D01*
X111730080Y-56272349D01*
X111809426Y-56359432D01*
X111881148Y-56452725D01*
X111944405Y-56551090D01*
X111999367Y-56654828D01*
X112045174Y-56762320D01*
X112082110Y-56874342D01*
X112109493Y-56988964D01*
X112127510Y-57107301D01*
X112136335Y-57269264D01*
X112131522Y-57390177D01*
X112117369Y-57506994D01*
X112061684Y-57730811D01*
X111970723Y-57939494D01*
X111845735Y-58130966D01*
X111688312Y-58302135D01*
X111501032Y-58448963D01*
X111288012Y-58566842D01*
X111055113Y-58651276D01*
X110933589Y-58679747D01*
X110809584Y-58698674D01*
X110632410Y-58708618D01*
G37*
G36*
X108270384Y-55835871D02*
G01*
X108512485Y-55892101D01*
X108737831Y-55983644D01*
X108843042Y-56042015D01*
X108942274Y-56108147D01*
X109035334Y-56181843D01*
X109121604Y-56262601D01*
X109200516Y-56349842D01*
X109271888Y-56443383D01*
X109334938Y-56542183D01*
X109389778Y-56646481D01*
X109435611Y-56754815D01*
X109472650Y-56867842D01*
X109500250Y-56983818D01*
X109518538Y-57103705D01*
X109527821Y-57272775D01*
X109508731Y-57512387D01*
X109452436Y-57740088D01*
X109360417Y-57952920D01*
X109234413Y-58147394D01*
X109076687Y-58319601D01*
X108890208Y-58465474D01*
X108787334Y-58527293D01*
X108678637Y-58581138D01*
X108564879Y-58626509D01*
X108446116Y-58663223D01*
X108323607Y-58690754D01*
X108196926Y-58709030D01*
X108017027Y-58718387D01*
X107760830Y-58699302D01*
X107517748Y-58643099D01*
X107291651Y-58551642D01*
X107186173Y-58493359D01*
X107086726Y-58427341D01*
X106993542Y-58353818D01*
X106907199Y-58273270D01*
X106828302Y-58186320D01*
X106756991Y-58093118D01*
X106694078Y-57994755D01*
X106639411Y-57890947D01*
X106593805Y-57783208D01*
X106557021Y-57670835D01*
X106529707Y-57555610D01*
X106511723Y-57436537D01*
X106502874Y-57272775D01*
X106503273Y-57267738D01*
X107242930Y-57267738D01*
X107261839Y-57439091D01*
X107317270Y-57597869D01*
X107406946Y-57739175D01*
X107527564Y-57857288D01*
X107598016Y-57905791D01*
X107674407Y-57946422D01*
X107755649Y-57978461D01*
X107841681Y-58001670D01*
X108015348Y-58019548D01*
X108193764Y-58000653D01*
X108358491Y-57945402D01*
X108504156Y-57856491D01*
X108568022Y-57800544D01*
X108624852Y-57737809D01*
X108673972Y-57669027D01*
X108715013Y-57594564D01*
X108747117Y-57515887D01*
X108770274Y-57432694D01*
X108787766Y-57267738D01*
X108768856Y-57095631D01*
X108713428Y-56936136D01*
X108623786Y-56794209D01*
X108503287Y-56675603D01*
X108432951Y-56626908D01*
X108356692Y-56586097D01*
X108275638Y-56553908D01*
X108189808Y-56530554D01*
X108015348Y-56512417D01*
X107837368Y-56531312D01*
X107672967Y-56586579D01*
X107527456Y-56675566D01*
X107406718Y-56794445D01*
X107357503Y-56863400D01*
X107316346Y-56938058D01*
X107284089Y-57016994D01*
X107260766Y-57100468D01*
X107242930Y-57267738D01*
X106503273Y-57267738D01*
X106521962Y-57031508D01*
X106578239Y-56802318D01*
X106670195Y-56588167D01*
X106796059Y-56392538D01*
X106953536Y-56219322D01*
X107139636Y-56072557D01*
X107242263Y-56010327D01*
X107350685Y-55956082D01*
X107464125Y-55910327D01*
X107582543Y-55873233D01*
X107704670Y-55845327D01*
X107830939Y-55826674D01*
X108015348Y-55816782D01*
X108270384Y-55835871D01*
G37*
G36*
X105285476Y-58689078D02*
G01*
X105056526Y-58669900D01*
X104946850Y-58646258D01*
X104841793Y-58613611D01*
X104743809Y-58572963D01*
X104652039Y-58524121D01*
X104569999Y-58469327D01*
X104495363Y-58407344D01*
X104431583Y-58341503D01*
X104375988Y-58269499D01*
X104331117Y-58195076D01*
X104294957Y-58115387D01*
X104268908Y-58033758D01*
X104252046Y-57947566D01*
X104244696Y-57838045D01*
X104249520Y-57748336D01*
X104263752Y-57663383D01*
X104318730Y-57507630D01*
X104409415Y-57365536D01*
X104539514Y-57233357D01*
X104716186Y-57109016D01*
X104960785Y-56987164D01*
X105136911Y-56916850D01*
X105268882Y-56864121D01*
X105368338Y-56814691D01*
X105431087Y-56760875D01*
X105447385Y-56729920D01*
X105452935Y-56694988D01*
X105434361Y-56629607D01*
X105378177Y-56572877D01*
X105282744Y-56533623D01*
X105194953Y-56524171D01*
X105050317Y-56544331D01*
X104972690Y-56570114D01*
X104898254Y-56606980D01*
X104842623Y-56646303D01*
X104795691Y-56693833D01*
X104769360Y-56732540D01*
X104347278Y-56325876D01*
X104419341Y-56196059D01*
X104529246Y-56078429D01*
X104676175Y-55979014D01*
X104762915Y-55938252D01*
X104856793Y-55905011D01*
X104957912Y-55879728D01*
X105065071Y-55863233D01*
X105203502Y-55855861D01*
X105415525Y-55874862D01*
X105518291Y-55898471D01*
X105616605Y-55930921D01*
X105709813Y-55971860D01*
X105796948Y-56020815D01*
X105875991Y-56076405D01*
X105947606Y-56138940D01*
X106009208Y-56205793D01*
X106062413Y-56278417D01*
X106105003Y-56353339D01*
X106138566Y-56432924D01*
X106161771Y-56513646D01*
X106175480Y-56598091D01*
X106179252Y-56672854D01*
X106174467Y-56761768D01*
X106160514Y-56844853D01*
X106106876Y-56995859D01*
X106019146Y-57131428D01*
X105894216Y-57255620D01*
X105725466Y-57371007D01*
X105531550Y-57467254D01*
X105530187Y-57467858D01*
X105330403Y-57558611D01*
X105153765Y-57652380D01*
X105082690Y-57700747D01*
X105027681Y-57750289D01*
X104992162Y-57801147D01*
X104979562Y-57853463D01*
X104997784Y-57916251D01*
X105051634Y-57967385D01*
X105148254Y-58006438D01*
X105287155Y-58022601D01*
X105457093Y-58003634D01*
X105538320Y-57980163D01*
X105614809Y-57947965D01*
X105684820Y-57907953D01*
X105748179Y-57860271D01*
X105800917Y-57808685D01*
X105846013Y-57751033D01*
X106288703Y-58185022D01*
X106209163Y-58314010D01*
X106090289Y-58433196D01*
X105931004Y-58537786D01*
X105733723Y-58620466D01*
X105506292Y-58673037D01*
X105285476Y-58689078D01*
G37*
G36*
X102023613Y-55894940D02*
G01*
X104077695Y-55894940D01*
X104077695Y-56578668D01*
X103416407Y-56578668D01*
X103416407Y-58650000D01*
X102683221Y-58650000D01*
X102683221Y-56578668D01*
X102023613Y-56578668D01*
X102023613Y-55894940D01*
G37*
G36*
X98786021Y-55894940D02*
G01*
X99423495Y-57387111D01*
X100059289Y-55894940D01*
X100850484Y-55894940D01*
X99585916Y-58679309D01*
X99254357Y-58679309D01*
X97984599Y-55894940D01*
X98786021Y-55894940D01*
G37*
G36*
X97711352Y-58650000D02*
G01*
X96979998Y-58650000D01*
X96979998Y-55894940D01*
X97711352Y-55894940D01*
X97711352Y-58650000D01*
G37*
G36*
X95642768Y-58689078D02*
G01*
X95413818Y-58669900D01*
X95304143Y-58646258D01*
X95199085Y-58613611D01*
X95101101Y-58572963D01*
X95009332Y-58524121D01*
X94927291Y-58469327D01*
X94852656Y-58407344D01*
X94788875Y-58341503D01*
X94733281Y-58269499D01*
X94688410Y-58195076D01*
X94652250Y-58115387D01*
X94626200Y-58033758D01*
X94609339Y-57947566D01*
X94601988Y-57838045D01*
X94606813Y-57748336D01*
X94621044Y-57663383D01*
X94676022Y-57507630D01*
X94766708Y-57365536D01*
X94896806Y-57233357D01*
X95073479Y-57109016D01*
X95318078Y-56987164D01*
X95494203Y-56916850D01*
X95626175Y-56864121D01*
X95725631Y-56814691D01*
X95788379Y-56760875D01*
X95804678Y-56729920D01*
X95810227Y-56694988D01*
X95791654Y-56629607D01*
X95735469Y-56572877D01*
X95640037Y-56533623D01*
X95552246Y-56524171D01*
X95407609Y-56544331D01*
X95329982Y-56570114D01*
X95255546Y-56606980D01*
X95199915Y-56646303D01*
X95152983Y-56693833D01*
X95126653Y-56732540D01*
X94704570Y-56325876D01*
X94776634Y-56196059D01*
X94886538Y-56078429D01*
X95033468Y-55979014D01*
X95120207Y-55938252D01*
X95214085Y-55905011D01*
X95315205Y-55879728D01*
X95422364Y-55863233D01*
X95560794Y-55855861D01*
X95772818Y-55874862D01*
X95875583Y-55898471D01*
X95973897Y-55930921D01*
X96067105Y-55971860D01*
X96154240Y-56020815D01*
X96233283Y-56076405D01*
X96304899Y-56138940D01*
X96366500Y-56205793D01*
X96419706Y-56278417D01*
X96462295Y-56353339D01*
X96495858Y-56432924D01*
X96519064Y-56513646D01*
X96532772Y-56598091D01*
X96536544Y-56672854D01*
X96531760Y-56761768D01*
X96517807Y-56844853D01*
X96464168Y-56995859D01*
X96376438Y-57131428D01*
X96251508Y-57255620D01*
X96082758Y-57371007D01*
X95888843Y-57467254D01*
X95887479Y-57467858D01*
X95687696Y-57558611D01*
X95511057Y-57652380D01*
X95439983Y-57700747D01*
X95384973Y-57750289D01*
X95349455Y-57801147D01*
X95336854Y-57853463D01*
X95355077Y-57916251D01*
X95408926Y-57967385D01*
X95505547Y-58006438D01*
X95644447Y-58022601D01*
X95814386Y-58003634D01*
X95895612Y-57980163D01*
X95972102Y-57947965D01*
X96042113Y-57907953D01*
X96105471Y-57860271D01*
X96158209Y-57808685D01*
X96203306Y-57751033D01*
X96645996Y-58185022D01*
X96566455Y-58314010D01*
X96447582Y-58433196D01*
X96288296Y-58537786D01*
X96091015Y-58620466D01*
X95863584Y-58673037D01*
X95642768Y-58689078D01*
G37*
G36*
X94470860Y-58855163D02*
G01*
X93835218Y-58855163D01*
X92710633Y-55690234D01*
X93349786Y-55690234D01*
X94470860Y-58855163D01*
G37*
G36*
X90788289Y-55894940D02*
G01*
X90788289Y-57235986D01*
X92199860Y-55871127D01*
X92435707Y-55871127D01*
X92435707Y-58650000D01*
X91704352Y-58650000D01*
X91704352Y-57305901D01*
X90287591Y-58679309D01*
X90055102Y-58679309D01*
X90055102Y-55894940D01*
X90788289Y-55894940D01*
G37*
G36*
X89578066Y-58650000D02*
G01*
X88846711Y-58650000D01*
X88846711Y-55894940D01*
X89578066Y-55894940D01*
X89578066Y-58650000D01*
G37*
G36*
X88365705Y-58650000D02*
G01*
X87634198Y-58650000D01*
X87634198Y-57453668D01*
X86897653Y-58650000D01*
X86041429Y-58650000D01*
X86779806Y-57544343D01*
X86631760Y-57455630D01*
X86563750Y-57397890D01*
X86501808Y-57332482D01*
X86446866Y-57260191D01*
X86399585Y-57181481D01*
X86361515Y-57098836D01*
X86332314Y-57011195D01*
X86313225Y-56922246D01*
X86303831Y-56829780D01*
X87041146Y-56829780D01*
X87045873Y-56882044D01*
X87059422Y-56929804D01*
X87111462Y-57012781D01*
X87193698Y-57073941D01*
X87298940Y-57104709D01*
X87338511Y-57106690D01*
X87637709Y-57105011D01*
X87637709Y-56553022D01*
X87338511Y-56553022D01*
X87228061Y-56571935D01*
X87177766Y-56595034D01*
X87133056Y-56626590D01*
X87096990Y-56664196D01*
X87068795Y-56708667D01*
X87050726Y-56756183D01*
X87041867Y-56809016D01*
X87041146Y-56829780D01*
X86303831Y-56829780D01*
X86303820Y-56829671D01*
X86302922Y-56790548D01*
X86321976Y-56612045D01*
X86378327Y-56443053D01*
X86470690Y-56287748D01*
X86597172Y-56151186D01*
X86672415Y-56091587D01*
X86754789Y-56038869D01*
X86843966Y-55993501D01*
X86939429Y-55956064D01*
X87040173Y-55927211D01*
X87146288Y-55907221D01*
X87323246Y-55894940D01*
X88369064Y-55894940D01*
X88365705Y-58650000D01*
G37*
G36*
X120951212Y-62889078D02*
G01*
X120722262Y-62869900D01*
X120612586Y-62846258D01*
X120507529Y-62813611D01*
X120409545Y-62772963D01*
X120317775Y-62724121D01*
X120235735Y-62669327D01*
X120161099Y-62607344D01*
X120097319Y-62541503D01*
X120041725Y-62469499D01*
X119996854Y-62395076D01*
X119960694Y-62315387D01*
X119934644Y-62233758D01*
X119917783Y-62147566D01*
X119910432Y-62038045D01*
X119915257Y-61948336D01*
X119929488Y-61863383D01*
X119984466Y-61707630D01*
X120075152Y-61565536D01*
X120205250Y-61433357D01*
X120381922Y-61309016D01*
X120626522Y-61187164D01*
X120802647Y-61116850D01*
X120934618Y-61064121D01*
X121034075Y-61014691D01*
X121096823Y-60960875D01*
X121113122Y-60929920D01*
X121118671Y-60894988D01*
X121100097Y-60829607D01*
X121043913Y-60772877D01*
X120948480Y-60733623D01*
X120860689Y-60724171D01*
X120716053Y-60744331D01*
X120638426Y-60770114D01*
X120563990Y-60806980D01*
X120508359Y-60846303D01*
X120461427Y-60893833D01*
X120435096Y-60932540D01*
X120013014Y-60525876D01*
X120085077Y-60396059D01*
X120194982Y-60278429D01*
X120341912Y-60179014D01*
X120428651Y-60138252D01*
X120522529Y-60105011D01*
X120623649Y-60079728D01*
X120730808Y-60063233D01*
X120869238Y-60055861D01*
X121081262Y-60074862D01*
X121184027Y-60098471D01*
X121282341Y-60130921D01*
X121375549Y-60171860D01*
X121462684Y-60220815D01*
X121541727Y-60276405D01*
X121613343Y-60338940D01*
X121674944Y-60405793D01*
X121728150Y-60478417D01*
X121770739Y-60553339D01*
X121804302Y-60632924D01*
X121827507Y-60713646D01*
X121841216Y-60798091D01*
X121844988Y-60872854D01*
X121840204Y-60961768D01*
X121826250Y-61044853D01*
X121772612Y-61195859D01*
X121684882Y-61331428D01*
X121559952Y-61455620D01*
X121391202Y-61571007D01*
X121197287Y-61667254D01*
X121195923Y-61667858D01*
X120996140Y-61758611D01*
X120819501Y-61852380D01*
X120748426Y-61900747D01*
X120693417Y-61950289D01*
X120657899Y-62001147D01*
X120645298Y-62053463D01*
X120663520Y-62116251D01*
X120717370Y-62167385D01*
X120813991Y-62206438D01*
X120952891Y-62222601D01*
X121122830Y-62203634D01*
X121204056Y-62180163D01*
X121280545Y-62147965D01*
X121350556Y-62107953D01*
X121413915Y-62060271D01*
X121466653Y-62008685D01*
X121511749Y-61951033D01*
X121954439Y-62385022D01*
X121874899Y-62514010D01*
X121756025Y-62633196D01*
X121596740Y-62737786D01*
X121399459Y-62820466D01*
X121172028Y-62873037D01*
X120951212Y-62889078D01*
G37*
G36*
X119575972Y-62850000D02*
G01*
X118844617Y-62850000D01*
X118844617Y-62039113D01*
X118535192Y-62039113D01*
X118331388Y-62020209D01*
X118136776Y-61964265D01*
X117956876Y-61873049D01*
X117798334Y-61749784D01*
X117729297Y-61677726D01*
X117668022Y-61599611D01*
X117615533Y-61516837D01*
X117571752Y-61429250D01*
X117537835Y-61339326D01*
X117513308Y-61245851D01*
X117494771Y-61064584D01*
X118200274Y-61064584D01*
X118218993Y-61168760D01*
X118273130Y-61258158D01*
X118312439Y-61295000D01*
X118358835Y-61325035D01*
X118411681Y-61347439D01*
X118470267Y-61361350D01*
X118535192Y-61365919D01*
X118844617Y-61364087D01*
X118844617Y-60770119D01*
X118535192Y-60770119D01*
X118471179Y-60774879D01*
X118412128Y-60788660D01*
X118358394Y-60810916D01*
X118311223Y-60840807D01*
X118271634Y-60877284D01*
X118240016Y-60919784D01*
X118217504Y-60966510D01*
X118204056Y-61017586D01*
X118200274Y-61064584D01*
X117494771Y-61064584D01*
X117494412Y-61061073D01*
X117513340Y-60876566D01*
X117569485Y-60700130D01*
X117661858Y-60535651D01*
X117788608Y-60388507D01*
X117946084Y-60265138D01*
X118034578Y-60214428D01*
X118128491Y-60171971D01*
X118226442Y-60138501D01*
X118328511Y-60114173D01*
X118430486Y-60099824D01*
X118535192Y-60094940D01*
X119575972Y-60094940D01*
X119575972Y-62850000D01*
G37*
G36*
X115398961Y-60775157D02*
G01*
X115398961Y-60094940D01*
X117184835Y-60094940D01*
X117184835Y-62850000D01*
X115398961Y-62850000D01*
X115398961Y-62164746D01*
X116462028Y-62164746D01*
X116462028Y-61769988D01*
X115587028Y-61769988D01*
X115587028Y-61159839D01*
X116462028Y-61159839D01*
X116462028Y-60775157D01*
X115398961Y-60775157D01*
G37*
G36*
X113609730Y-62908618D02*
G01*
X113368842Y-62889795D01*
X113139067Y-62834271D01*
X112920812Y-62742917D01*
X112715668Y-62616310D01*
X112577499Y-62503633D01*
X112994543Y-61948133D01*
X113087510Y-62024532D01*
X113185360Y-62090583D01*
X113274720Y-62138451D01*
X113367584Y-62175924D01*
X113454146Y-62199814D01*
X113543390Y-62213473D01*
X113609730Y-62216495D01*
X113776884Y-62197556D01*
X113939889Y-62140783D01*
X114088775Y-62048212D01*
X114154329Y-61990280D01*
X114212952Y-61925191D01*
X114262644Y-61855245D01*
X114304060Y-61779456D01*
X114335371Y-61701336D01*
X114357490Y-61618669D01*
X114371920Y-61474454D01*
X114353089Y-61308549D01*
X114297650Y-61153342D01*
X114207335Y-61013335D01*
X114085080Y-60894597D01*
X114013394Y-60845290D01*
X113936025Y-60803947D01*
X113853886Y-60771190D01*
X113767466Y-60747439D01*
X113594312Y-60729056D01*
X113436459Y-60747812D01*
X113265261Y-60806690D01*
X113093717Y-60906319D01*
X112997902Y-60983679D01*
X112577499Y-60446650D01*
X112769951Y-60295506D01*
X112989133Y-60172042D01*
X113105655Y-60123015D01*
X113224498Y-60083588D01*
X113343520Y-60054372D01*
X113462797Y-60035335D01*
X113595991Y-60026552D01*
X113851593Y-60045627D01*
X114094654Y-60101853D01*
X114321217Y-60193432D01*
X114427091Y-60251838D01*
X114526942Y-60317975D01*
X114620600Y-60391659D01*
X114707400Y-60472349D01*
X114786746Y-60559432D01*
X114858469Y-60652725D01*
X114921726Y-60751090D01*
X114976687Y-60854828D01*
X115022494Y-60962320D01*
X115059431Y-61074342D01*
X115086813Y-61188964D01*
X115104830Y-61307301D01*
X115113655Y-61469264D01*
X115108842Y-61590177D01*
X115094689Y-61706994D01*
X115039004Y-61930811D01*
X114948043Y-62139494D01*
X114823056Y-62330966D01*
X114665633Y-62502135D01*
X114478352Y-62648963D01*
X114265332Y-62766842D01*
X114032433Y-62851276D01*
X113910910Y-62879747D01*
X113786905Y-62898674D01*
X113609730Y-62908618D01*
G37*
G36*
X110381603Y-60094940D02*
G01*
X112435685Y-60094940D01*
X112435685Y-60778668D01*
X111774398Y-60778668D01*
X111774398Y-62850000D01*
X111041211Y-62850000D01*
X111041211Y-60778668D01*
X110381603Y-60778668D01*
X110381603Y-60094940D01*
G37*
G36*
X110069125Y-62850000D02*
G01*
X109337617Y-62850000D01*
X109337617Y-61653668D01*
X108601072Y-62850000D01*
X107744849Y-62850000D01*
X108483225Y-61744343D01*
X108335179Y-61655630D01*
X108267169Y-61597890D01*
X108205227Y-61532482D01*
X108150285Y-61460191D01*
X108103004Y-61381481D01*
X108064935Y-61298836D01*
X108035733Y-61211195D01*
X108016645Y-61122246D01*
X108007250Y-61029780D01*
X108744565Y-61029780D01*
X108749292Y-61082044D01*
X108762841Y-61129804D01*
X108814881Y-61212781D01*
X108897118Y-61273941D01*
X109002360Y-61304709D01*
X109041931Y-61306690D01*
X109341128Y-61305011D01*
X109341128Y-60753022D01*
X109041931Y-60753022D01*
X108931480Y-60771935D01*
X108881185Y-60795034D01*
X108836475Y-60826590D01*
X108800410Y-60864196D01*
X108772215Y-60908667D01*
X108754146Y-60956183D01*
X108745286Y-61009016D01*
X108744565Y-61029780D01*
X108007250Y-61029780D01*
X108007239Y-61029671D01*
X108006341Y-60990548D01*
X108025395Y-60812045D01*
X108081747Y-60643053D01*
X108174110Y-60487748D01*
X108300591Y-60351186D01*
X108375835Y-60291587D01*
X108458209Y-60238869D01*
X108547385Y-60193501D01*
X108642849Y-60156064D01*
X108743592Y-60127211D01*
X108849707Y-60107221D01*
X109026666Y-60094940D01*
X110072483Y-60094940D01*
X110069125Y-62850000D01*
G37*
G36*
X106345751Y-60035871D02*
G01*
X106587852Y-60092101D01*
X106813198Y-60183644D01*
X106918408Y-60242015D01*
X107017641Y-60308147D01*
X107110700Y-60381843D01*
X107196970Y-60462601D01*
X107275882Y-60549842D01*
X107347255Y-60643383D01*
X107410304Y-60742183D01*
X107465144Y-60846481D01*
X107510978Y-60954815D01*
X107548016Y-61067842D01*
X107575617Y-61183818D01*
X107593905Y-61303705D01*
X107603188Y-61472775D01*
X107584098Y-61712387D01*
X107527802Y-61940088D01*
X107435784Y-62152920D01*
X107309779Y-62347394D01*
X107152054Y-62519601D01*
X106965574Y-62665474D01*
X106862700Y-62727293D01*
X106754003Y-62781138D01*
X106640246Y-62826509D01*
X106521482Y-62863223D01*
X106398973Y-62890754D01*
X106272292Y-62909030D01*
X106092393Y-62918387D01*
X105836196Y-62899302D01*
X105593114Y-62843099D01*
X105367018Y-62751642D01*
X105261539Y-62693359D01*
X105162092Y-62627341D01*
X105068908Y-62553818D01*
X104982565Y-62473270D01*
X104903668Y-62386320D01*
X104832357Y-62293118D01*
X104769444Y-62194755D01*
X104714778Y-62090947D01*
X104669172Y-61983208D01*
X104632388Y-61870835D01*
X104605074Y-61755610D01*
X104587089Y-61636537D01*
X104578240Y-61472775D01*
X104578639Y-61467738D01*
X105318296Y-61467738D01*
X105337205Y-61639091D01*
X105392636Y-61797869D01*
X105482312Y-61939175D01*
X105602930Y-62057288D01*
X105673383Y-62105791D01*
X105749774Y-62146422D01*
X105831015Y-62178461D01*
X105917047Y-62201670D01*
X106090714Y-62219548D01*
X106269130Y-62200653D01*
X106433857Y-62145402D01*
X106579522Y-62056491D01*
X106643389Y-62000544D01*
X106700218Y-61937809D01*
X106749338Y-61869027D01*
X106790379Y-61794564D01*
X106822483Y-61715887D01*
X106845640Y-61632694D01*
X106863132Y-61467738D01*
X106844223Y-61295631D01*
X106788794Y-61136136D01*
X106699153Y-60994209D01*
X106578653Y-60875603D01*
X106508318Y-60826908D01*
X106432058Y-60786097D01*
X106351004Y-60753908D01*
X106265174Y-60730554D01*
X106090714Y-60712417D01*
X105912735Y-60731312D01*
X105748333Y-60786579D01*
X105602822Y-60875566D01*
X105482085Y-60994445D01*
X105432870Y-61063400D01*
X105391712Y-61138058D01*
X105359456Y-61216994D01*
X105336133Y-61300468D01*
X105318296Y-61467738D01*
X104578639Y-61467738D01*
X104597328Y-61231508D01*
X104653606Y-61002318D01*
X104745562Y-60788167D01*
X104871426Y-60592538D01*
X105028903Y-60419322D01*
X105215002Y-60272557D01*
X105317629Y-60210327D01*
X105426051Y-60156082D01*
X105539492Y-60110327D01*
X105657909Y-60073233D01*
X105780036Y-60045327D01*
X105906306Y-60026674D01*
X106090714Y-60016782D01*
X106345751Y-60035871D01*
G37*
G36*
X101561230Y-60065631D02*
G01*
X102743824Y-61688014D01*
X103926570Y-60065631D01*
X104220424Y-60065631D01*
X104220424Y-62850000D01*
X103489070Y-62850000D01*
X103489070Y-61756555D01*
X102745655Y-62803899D01*
X102740465Y-62803899D01*
X101998730Y-61756555D01*
X101998730Y-62850000D01*
X101267376Y-62850000D01*
X101267376Y-60065631D01*
X101561230Y-60065631D01*
G37*
G36*
X99002939Y-60775157D02*
G01*
X99002939Y-60094940D01*
X100788812Y-60094940D01*
X100788812Y-62850000D01*
X99002939Y-62850000D01*
X99002939Y-62164746D01*
X100066006Y-62164746D01*
X100066006Y-61769988D01*
X99191006Y-61769988D01*
X99191006Y-61159839D01*
X100066006Y-61159839D01*
X100066006Y-60775157D01*
X99002939Y-60775157D01*
G37*
G36*
X96711331Y-60094940D02*
G01*
X98765413Y-60094940D01*
X98765413Y-60778668D01*
X98104125Y-60778668D01*
X98104125Y-62850000D01*
X97370939Y-62850000D01*
X97370939Y-60778668D01*
X96711331Y-60778668D01*
X96711331Y-60094940D01*
G37*
G36*
X94616338Y-60775157D02*
G01*
X94616338Y-60094940D01*
X96402211Y-60094940D01*
X96402211Y-62850000D01*
X94616338Y-62850000D01*
X94616338Y-62164746D01*
X95679405Y-62164746D01*
X95679405Y-61769988D01*
X94804405Y-61769988D01*
X94804405Y-61159839D01*
X95679405Y-61159839D01*
X95679405Y-60775157D01*
X94616338Y-60775157D01*
G37*
G36*
X94207994Y-62850000D02*
G01*
X93476487Y-62850000D01*
X93476487Y-61653668D01*
X92739942Y-62850000D01*
X91883718Y-62850000D01*
X92622095Y-61744343D01*
X92474049Y-61655630D01*
X92406039Y-61597890D01*
X92344097Y-61532482D01*
X92289155Y-61460191D01*
X92241874Y-61381481D01*
X92203804Y-61298836D01*
X92174603Y-61211195D01*
X92155514Y-61122246D01*
X92146120Y-61029780D01*
X92883435Y-61029780D01*
X92888162Y-61082044D01*
X92901711Y-61129804D01*
X92953750Y-61212781D01*
X93035987Y-61273941D01*
X93141229Y-61304709D01*
X93180800Y-61306690D01*
X93479998Y-61305011D01*
X93479998Y-60753022D01*
X93180800Y-60753022D01*
X93070350Y-60771935D01*
X93020055Y-60795034D01*
X92975345Y-60826590D01*
X92939279Y-60864196D01*
X92911084Y-60908667D01*
X92893015Y-60956183D01*
X92884156Y-61009016D01*
X92883435Y-61029780D01*
X92146120Y-61029780D01*
X92146109Y-61029671D01*
X92145211Y-60990548D01*
X92164265Y-60812045D01*
X92220616Y-60643053D01*
X92312979Y-60487748D01*
X92439461Y-60351186D01*
X92514704Y-60291587D01*
X92597078Y-60238869D01*
X92686254Y-60193501D01*
X92781718Y-60156064D01*
X92882462Y-60127211D01*
X92988577Y-60107221D01*
X93165535Y-60094940D01*
X94211352Y-60094940D01*
X94207994Y-62850000D01*
G37*
D11*
X149714284Y-63812295D02*
X150095236Y-63812295D01*
X150095236Y-63812295D02*
X150095236Y-63012295D01*
X149447617Y-63393247D02*
X149180951Y-63393247D01*
X149066665Y-63812295D02*
X149447617Y-63812295D01*
X149447617Y-63812295D02*
X149447617Y-63012295D01*
X149447617Y-63012295D02*
X149066665Y-63012295D01*
X148723807Y-63812295D02*
X148723807Y-63012295D01*
X148723807Y-63012295D02*
X148533331Y-63012295D01*
X148533331Y-63012295D02*
X148419045Y-63050390D01*
X148419045Y-63050390D02*
X148342855Y-63126580D01*
X148342855Y-63126580D02*
X148304760Y-63202771D01*
X148304760Y-63202771D02*
X148266664Y-63355152D01*
X148266664Y-63355152D02*
X148266664Y-63469438D01*
X148266664Y-63469438D02*
X148304760Y-63621819D01*
X148304760Y-63621819D02*
X148342855Y-63698009D01*
X148342855Y-63698009D02*
X148419045Y-63774200D01*
X148419045Y-63774200D02*
X148533331Y-63812295D01*
X148533331Y-63812295D02*
X148723807Y-63812295D01*
X150159523Y-68150390D02*
X150235713Y-68112295D01*
X150235713Y-68112295D02*
X150349999Y-68112295D01*
X150349999Y-68112295D02*
X150464285Y-68150390D01*
X150464285Y-68150390D02*
X150540475Y-68226580D01*
X150540475Y-68226580D02*
X150578570Y-68302771D01*
X150578570Y-68302771D02*
X150616666Y-68455152D01*
X150616666Y-68455152D02*
X150616666Y-68569438D01*
X150616666Y-68569438D02*
X150578570Y-68721819D01*
X150578570Y-68721819D02*
X150540475Y-68798009D01*
X150540475Y-68798009D02*
X150464285Y-68874200D01*
X150464285Y-68874200D02*
X150349999Y-68912295D01*
X150349999Y-68912295D02*
X150273808Y-68912295D01*
X150273808Y-68912295D02*
X150159523Y-68874200D01*
X150159523Y-68874200D02*
X150121427Y-68836104D01*
X150121427Y-68836104D02*
X150121427Y-68569438D01*
X150121427Y-68569438D02*
X150273808Y-68569438D01*
X149778570Y-68912295D02*
X149778570Y-68112295D01*
X149778570Y-68112295D02*
X149321427Y-68912295D01*
X149321427Y-68912295D02*
X149321427Y-68112295D01*
X148940475Y-68912295D02*
X148940475Y-68112295D01*
X148940475Y-68112295D02*
X148749999Y-68112295D01*
X148749999Y-68112295D02*
X148635713Y-68150390D01*
X148635713Y-68150390D02*
X148559523Y-68226580D01*
X148559523Y-68226580D02*
X148521428Y-68302771D01*
X148521428Y-68302771D02*
X148483332Y-68455152D01*
X148483332Y-68455152D02*
X148483332Y-68569438D01*
X148483332Y-68569438D02*
X148521428Y-68721819D01*
X148521428Y-68721819D02*
X148559523Y-68798009D01*
X148559523Y-68798009D02*
X148635713Y-68874200D01*
X148635713Y-68874200D02*
X148749999Y-68912295D01*
X148749999Y-68912295D02*
X148940475Y-68912295D01*
X150730952Y-65662295D02*
X150235714Y-65662295D01*
X150235714Y-65662295D02*
X150502380Y-65967057D01*
X150502380Y-65967057D02*
X150388095Y-65967057D01*
X150388095Y-65967057D02*
X150311904Y-66005152D01*
X150311904Y-66005152D02*
X150273809Y-66043247D01*
X150273809Y-66043247D02*
X150235714Y-66119438D01*
X150235714Y-66119438D02*
X150235714Y-66309914D01*
X150235714Y-66309914D02*
X150273809Y-66386104D01*
X150273809Y-66386104D02*
X150311904Y-66424200D01*
X150311904Y-66424200D02*
X150388095Y-66462295D01*
X150388095Y-66462295D02*
X150616666Y-66462295D01*
X150616666Y-66462295D02*
X150692857Y-66424200D01*
X150692857Y-66424200D02*
X150730952Y-66386104D01*
X149892856Y-66386104D02*
X149854761Y-66424200D01*
X149854761Y-66424200D02*
X149892856Y-66462295D01*
X149892856Y-66462295D02*
X149930952Y-66424200D01*
X149930952Y-66424200D02*
X149892856Y-66386104D01*
X149892856Y-66386104D02*
X149892856Y-66462295D01*
X149588095Y-65662295D02*
X149092857Y-65662295D01*
X149092857Y-65662295D02*
X149359523Y-65967057D01*
X149359523Y-65967057D02*
X149245238Y-65967057D01*
X149245238Y-65967057D02*
X149169047Y-66005152D01*
X149169047Y-66005152D02*
X149130952Y-66043247D01*
X149130952Y-66043247D02*
X149092857Y-66119438D01*
X149092857Y-66119438D02*
X149092857Y-66309914D01*
X149092857Y-66309914D02*
X149130952Y-66386104D01*
X149130952Y-66386104D02*
X149169047Y-66424200D01*
X149169047Y-66424200D02*
X149245238Y-66462295D01*
X149245238Y-66462295D02*
X149473809Y-66462295D01*
X149473809Y-66462295D02*
X149550000Y-66424200D01*
X149550000Y-66424200D02*
X149588095Y-66386104D01*
X148864285Y-65662295D02*
X148597618Y-66462295D01*
X148597618Y-66462295D02*
X148330952Y-65662295D01*
D12*
X133559524Y-94049628D02*
X133416667Y-94097247D01*
X133416667Y-94097247D02*
X133178572Y-94097247D01*
X133178572Y-94097247D02*
X133083334Y-94049628D01*
X133083334Y-94049628D02*
X133035715Y-94002008D01*
X133035715Y-94002008D02*
X132988096Y-93906770D01*
X132988096Y-93906770D02*
X132988096Y-93811532D01*
X132988096Y-93811532D02*
X133035715Y-93716294D01*
X133035715Y-93716294D02*
X133083334Y-93668675D01*
X133083334Y-93668675D02*
X133178572Y-93621056D01*
X133178572Y-93621056D02*
X133369048Y-93573437D01*
X133369048Y-93573437D02*
X133464286Y-93525818D01*
X133464286Y-93525818D02*
X133511905Y-93478199D01*
X133511905Y-93478199D02*
X133559524Y-93382961D01*
X133559524Y-93382961D02*
X133559524Y-93287723D01*
X133559524Y-93287723D02*
X133511905Y-93192485D01*
X133511905Y-93192485D02*
X133464286Y-93144866D01*
X133464286Y-93144866D02*
X133369048Y-93097247D01*
X133369048Y-93097247D02*
X133130953Y-93097247D01*
X133130953Y-93097247D02*
X132988096Y-93144866D01*
X132559524Y-93430580D02*
X132559524Y-94430580D01*
X132559524Y-93478199D02*
X132464286Y-93430580D01*
X132464286Y-93430580D02*
X132273810Y-93430580D01*
X132273810Y-93430580D02*
X132178572Y-93478199D01*
X132178572Y-93478199D02*
X132130953Y-93525818D01*
X132130953Y-93525818D02*
X132083334Y-93621056D01*
X132083334Y-93621056D02*
X132083334Y-93906770D01*
X132083334Y-93906770D02*
X132130953Y-94002008D01*
X132130953Y-94002008D02*
X132178572Y-94049628D01*
X132178572Y-94049628D02*
X132273810Y-94097247D01*
X132273810Y-94097247D02*
X132464286Y-94097247D01*
X132464286Y-94097247D02*
X132559524Y-94049628D01*
X131273810Y-94049628D02*
X131369048Y-94097247D01*
X131369048Y-94097247D02*
X131559524Y-94097247D01*
X131559524Y-94097247D02*
X131654762Y-94049628D01*
X131654762Y-94049628D02*
X131702381Y-93954389D01*
X131702381Y-93954389D02*
X131702381Y-93573437D01*
X131702381Y-93573437D02*
X131654762Y-93478199D01*
X131654762Y-93478199D02*
X131559524Y-93430580D01*
X131559524Y-93430580D02*
X131369048Y-93430580D01*
X131369048Y-93430580D02*
X131273810Y-93478199D01*
X131273810Y-93478199D02*
X131226191Y-93573437D01*
X131226191Y-93573437D02*
X131226191Y-93668675D01*
X131226191Y-93668675D02*
X131702381Y-93763913D01*
X130369048Y-94049628D02*
X130464286Y-94097247D01*
X130464286Y-94097247D02*
X130654762Y-94097247D01*
X130654762Y-94097247D02*
X130750000Y-94049628D01*
X130750000Y-94049628D02*
X130797619Y-94002008D01*
X130797619Y-94002008D02*
X130845238Y-93906770D01*
X130845238Y-93906770D02*
X130845238Y-93621056D01*
X130845238Y-93621056D02*
X130797619Y-93525818D01*
X130797619Y-93525818D02*
X130750000Y-93478199D01*
X130750000Y-93478199D02*
X130654762Y-93430580D01*
X130654762Y-93430580D02*
X130464286Y-93430580D01*
X130464286Y-93430580D02*
X130369048Y-93478199D01*
X130083333Y-93430580D02*
X129702381Y-93430580D01*
X129940476Y-93097247D02*
X129940476Y-93954389D01*
X129940476Y-93954389D02*
X129892857Y-94049628D01*
X129892857Y-94049628D02*
X129797619Y-94097247D01*
X129797619Y-94097247D02*
X129702381Y-94097247D01*
X129369047Y-94097247D02*
X129369047Y-93430580D01*
X129369047Y-93621056D02*
X129321428Y-93525818D01*
X129321428Y-93525818D02*
X129273809Y-93478199D01*
X129273809Y-93478199D02*
X129178571Y-93430580D01*
X129178571Y-93430580D02*
X129083333Y-93430580D01*
X128607142Y-94097247D02*
X128702380Y-94049628D01*
X128702380Y-94049628D02*
X128749999Y-94002008D01*
X128749999Y-94002008D02*
X128797618Y-93906770D01*
X128797618Y-93906770D02*
X128797618Y-93621056D01*
X128797618Y-93621056D02*
X128749999Y-93525818D01*
X128749999Y-93525818D02*
X128702380Y-93478199D01*
X128702380Y-93478199D02*
X128607142Y-93430580D01*
X128607142Y-93430580D02*
X128464285Y-93430580D01*
X128464285Y-93430580D02*
X128369047Y-93478199D01*
X128369047Y-93478199D02*
X128321428Y-93525818D01*
X128321428Y-93525818D02*
X128273809Y-93621056D01*
X128273809Y-93621056D02*
X128273809Y-93906770D01*
X128273809Y-93906770D02*
X128321428Y-94002008D01*
X128321428Y-94002008D02*
X128369047Y-94049628D01*
X128369047Y-94049628D02*
X128464285Y-94097247D01*
X128464285Y-94097247D02*
X128607142Y-94097247D01*
X127845237Y-94097247D02*
X127845237Y-93430580D01*
X127845237Y-93525818D02*
X127797618Y-93478199D01*
X127797618Y-93478199D02*
X127702380Y-93430580D01*
X127702380Y-93430580D02*
X127559523Y-93430580D01*
X127559523Y-93430580D02*
X127464285Y-93478199D01*
X127464285Y-93478199D02*
X127416666Y-93573437D01*
X127416666Y-93573437D02*
X127416666Y-94097247D01*
X127416666Y-93573437D02*
X127369047Y-93478199D01*
X127369047Y-93478199D02*
X127273809Y-93430580D01*
X127273809Y-93430580D02*
X127130952Y-93430580D01*
X127130952Y-93430580D02*
X127035713Y-93478199D01*
X127035713Y-93478199D02*
X126988094Y-93573437D01*
X126988094Y-93573437D02*
X126988094Y-94097247D01*
X126130952Y-94049628D02*
X126226190Y-94097247D01*
X126226190Y-94097247D02*
X126416666Y-94097247D01*
X126416666Y-94097247D02*
X126511904Y-94049628D01*
X126511904Y-94049628D02*
X126559523Y-93954389D01*
X126559523Y-93954389D02*
X126559523Y-93573437D01*
X126559523Y-93573437D02*
X126511904Y-93478199D01*
X126511904Y-93478199D02*
X126416666Y-93430580D01*
X126416666Y-93430580D02*
X126226190Y-93430580D01*
X126226190Y-93430580D02*
X126130952Y-93478199D01*
X126130952Y-93478199D02*
X126083333Y-93573437D01*
X126083333Y-93573437D02*
X126083333Y-93668675D01*
X126083333Y-93668675D02*
X126559523Y-93763913D01*
X125797618Y-93430580D02*
X125416666Y-93430580D01*
X125654761Y-93097247D02*
X125654761Y-93954389D01*
X125654761Y-93954389D02*
X125607142Y-94049628D01*
X125607142Y-94049628D02*
X125511904Y-94097247D01*
X125511904Y-94097247D02*
X125416666Y-94097247D01*
X124702380Y-94049628D02*
X124797618Y-94097247D01*
X124797618Y-94097247D02*
X124988094Y-94097247D01*
X124988094Y-94097247D02*
X125083332Y-94049628D01*
X125083332Y-94049628D02*
X125130951Y-93954389D01*
X125130951Y-93954389D02*
X125130951Y-93573437D01*
X125130951Y-93573437D02*
X125083332Y-93478199D01*
X125083332Y-93478199D02*
X124988094Y-93430580D01*
X124988094Y-93430580D02*
X124797618Y-93430580D01*
X124797618Y-93430580D02*
X124702380Y-93478199D01*
X124702380Y-93478199D02*
X124654761Y-93573437D01*
X124654761Y-93573437D02*
X124654761Y-93668675D01*
X124654761Y-93668675D02*
X125130951Y-93763913D01*
X124226189Y-94097247D02*
X124226189Y-93430580D01*
X124226189Y-93621056D02*
X124178570Y-93525818D01*
X124178570Y-93525818D02*
X124130951Y-93478199D01*
X124130951Y-93478199D02*
X124035713Y-93430580D01*
X124035713Y-93430580D02*
X123940475Y-93430580D01*
X122511903Y-93573437D02*
X122369046Y-93621056D01*
X122369046Y-93621056D02*
X122321427Y-93668675D01*
X122321427Y-93668675D02*
X122273808Y-93763913D01*
X122273808Y-93763913D02*
X122273808Y-93906770D01*
X122273808Y-93906770D02*
X122321427Y-94002008D01*
X122321427Y-94002008D02*
X122369046Y-94049628D01*
X122369046Y-94049628D02*
X122464284Y-94097247D01*
X122464284Y-94097247D02*
X122845236Y-94097247D01*
X122845236Y-94097247D02*
X122845236Y-93097247D01*
X122845236Y-93097247D02*
X122511903Y-93097247D01*
X122511903Y-93097247D02*
X122416665Y-93144866D01*
X122416665Y-93144866D02*
X122369046Y-93192485D01*
X122369046Y-93192485D02*
X122321427Y-93287723D01*
X122321427Y-93287723D02*
X122321427Y-93382961D01*
X122321427Y-93382961D02*
X122369046Y-93478199D01*
X122369046Y-93478199D02*
X122416665Y-93525818D01*
X122416665Y-93525818D02*
X122511903Y-93573437D01*
X122511903Y-93573437D02*
X122845236Y-93573437D01*
X121702379Y-94097247D02*
X121797617Y-94049628D01*
X121797617Y-94049628D02*
X121845236Y-94002008D01*
X121845236Y-94002008D02*
X121892855Y-93906770D01*
X121892855Y-93906770D02*
X121892855Y-93621056D01*
X121892855Y-93621056D02*
X121845236Y-93525818D01*
X121845236Y-93525818D02*
X121797617Y-93478199D01*
X121797617Y-93478199D02*
X121702379Y-93430580D01*
X121702379Y-93430580D02*
X121559522Y-93430580D01*
X121559522Y-93430580D02*
X121464284Y-93478199D01*
X121464284Y-93478199D02*
X121416665Y-93525818D01*
X121416665Y-93525818D02*
X121369046Y-93621056D01*
X121369046Y-93621056D02*
X121369046Y-93906770D01*
X121369046Y-93906770D02*
X121416665Y-94002008D01*
X121416665Y-94002008D02*
X121464284Y-94049628D01*
X121464284Y-94049628D02*
X121559522Y-94097247D01*
X121559522Y-94097247D02*
X121702379Y-94097247D01*
X120511903Y-94097247D02*
X120511903Y-93573437D01*
X120511903Y-93573437D02*
X120559522Y-93478199D01*
X120559522Y-93478199D02*
X120654760Y-93430580D01*
X120654760Y-93430580D02*
X120845236Y-93430580D01*
X120845236Y-93430580D02*
X120940474Y-93478199D01*
X120511903Y-94049628D02*
X120607141Y-94097247D01*
X120607141Y-94097247D02*
X120845236Y-94097247D01*
X120845236Y-94097247D02*
X120940474Y-94049628D01*
X120940474Y-94049628D02*
X120988093Y-93954389D01*
X120988093Y-93954389D02*
X120988093Y-93859151D01*
X120988093Y-93859151D02*
X120940474Y-93763913D01*
X120940474Y-93763913D02*
X120845236Y-93716294D01*
X120845236Y-93716294D02*
X120607141Y-93716294D01*
X120607141Y-93716294D02*
X120511903Y-93668675D01*
X120035712Y-94097247D02*
X120035712Y-93430580D01*
X120035712Y-93621056D02*
X119988093Y-93525818D01*
X119988093Y-93525818D02*
X119940474Y-93478199D01*
X119940474Y-93478199D02*
X119845236Y-93430580D01*
X119845236Y-93430580D02*
X119749998Y-93430580D01*
X118988093Y-94097247D02*
X118988093Y-93097247D01*
X118988093Y-94049628D02*
X119083331Y-94097247D01*
X119083331Y-94097247D02*
X119273807Y-94097247D01*
X119273807Y-94097247D02*
X119369045Y-94049628D01*
X119369045Y-94049628D02*
X119416664Y-94002008D01*
X119416664Y-94002008D02*
X119464283Y-93906770D01*
X119464283Y-93906770D02*
X119464283Y-93621056D01*
X119464283Y-93621056D02*
X119416664Y-93525818D01*
X119416664Y-93525818D02*
X119369045Y-93478199D01*
X119369045Y-93478199D02*
X119273807Y-93430580D01*
X119273807Y-93430580D02*
X119083331Y-93430580D01*
X119083331Y-93430580D02*
X118988093Y-93478199D01*
X131773809Y-95040524D02*
X131535714Y-95707191D01*
X131535714Y-95707191D02*
X131297619Y-95040524D01*
X130392857Y-95707191D02*
X130964285Y-95707191D01*
X130678571Y-95707191D02*
X130678571Y-94707191D01*
X130678571Y-94707191D02*
X130773809Y-94850048D01*
X130773809Y-94850048D02*
X130869047Y-94945286D01*
X130869047Y-94945286D02*
X130964285Y-94992905D01*
X129964285Y-95611952D02*
X129916666Y-95659572D01*
X129916666Y-95659572D02*
X129964285Y-95707191D01*
X129964285Y-95707191D02*
X130011904Y-95659572D01*
X130011904Y-95659572D02*
X129964285Y-95611952D01*
X129964285Y-95611952D02*
X129964285Y-95707191D01*
X129297619Y-94707191D02*
X129202381Y-94707191D01*
X129202381Y-94707191D02*
X129107143Y-94754810D01*
X129107143Y-94754810D02*
X129059524Y-94802429D01*
X129059524Y-94802429D02*
X129011905Y-94897667D01*
X129011905Y-94897667D02*
X128964286Y-95088143D01*
X128964286Y-95088143D02*
X128964286Y-95326238D01*
X128964286Y-95326238D02*
X129011905Y-95516714D01*
X129011905Y-95516714D02*
X129059524Y-95611952D01*
X129059524Y-95611952D02*
X129107143Y-95659572D01*
X129107143Y-95659572D02*
X129202381Y-95707191D01*
X129202381Y-95707191D02*
X129297619Y-95707191D01*
X129297619Y-95707191D02*
X129392857Y-95659572D01*
X129392857Y-95659572D02*
X129440476Y-95611952D01*
X129440476Y-95611952D02*
X129488095Y-95516714D01*
X129488095Y-95516714D02*
X129535714Y-95326238D01*
X129535714Y-95326238D02*
X129535714Y-95088143D01*
X129535714Y-95088143D02*
X129488095Y-94897667D01*
X129488095Y-94897667D02*
X129440476Y-94802429D01*
X129440476Y-94802429D02*
X129392857Y-94754810D01*
X129392857Y-94754810D02*
X129297619Y-94707191D01*
X127821428Y-95421476D02*
X127345238Y-95421476D01*
X127916666Y-95707191D02*
X127583333Y-94707191D01*
X127583333Y-94707191D02*
X127250000Y-95707191D01*
X126916666Y-95040524D02*
X126916666Y-96040524D01*
X126916666Y-95088143D02*
X126821428Y-95040524D01*
X126821428Y-95040524D02*
X126630952Y-95040524D01*
X126630952Y-95040524D02*
X126535714Y-95088143D01*
X126535714Y-95088143D02*
X126488095Y-95135762D01*
X126488095Y-95135762D02*
X126440476Y-95231000D01*
X126440476Y-95231000D02*
X126440476Y-95516714D01*
X126440476Y-95516714D02*
X126488095Y-95611952D01*
X126488095Y-95611952D02*
X126535714Y-95659572D01*
X126535714Y-95659572D02*
X126630952Y-95707191D01*
X126630952Y-95707191D02*
X126821428Y-95707191D01*
X126821428Y-95707191D02*
X126916666Y-95659572D01*
X126011904Y-95707191D02*
X126011904Y-95040524D01*
X126011904Y-95231000D02*
X125964285Y-95135762D01*
X125964285Y-95135762D02*
X125916666Y-95088143D01*
X125916666Y-95088143D02*
X125821428Y-95040524D01*
X125821428Y-95040524D02*
X125726190Y-95040524D01*
X125392856Y-95611952D02*
X125345237Y-95659572D01*
X125345237Y-95659572D02*
X125392856Y-95707191D01*
X125392856Y-95707191D02*
X125440475Y-95659572D01*
X125440475Y-95659572D02*
X125392856Y-95611952D01*
X125392856Y-95611952D02*
X125392856Y-95707191D01*
X124202380Y-94802429D02*
X124154761Y-94754810D01*
X124154761Y-94754810D02*
X124059523Y-94707191D01*
X124059523Y-94707191D02*
X123821428Y-94707191D01*
X123821428Y-94707191D02*
X123726190Y-94754810D01*
X123726190Y-94754810D02*
X123678571Y-94802429D01*
X123678571Y-94802429D02*
X123630952Y-94897667D01*
X123630952Y-94897667D02*
X123630952Y-94992905D01*
X123630952Y-94992905D02*
X123678571Y-95135762D01*
X123678571Y-95135762D02*
X124249999Y-95707191D01*
X124249999Y-95707191D02*
X123630952Y-95707191D01*
X123011904Y-94707191D02*
X122916666Y-94707191D01*
X122916666Y-94707191D02*
X122821428Y-94754810D01*
X122821428Y-94754810D02*
X122773809Y-94802429D01*
X122773809Y-94802429D02*
X122726190Y-94897667D01*
X122726190Y-94897667D02*
X122678571Y-95088143D01*
X122678571Y-95088143D02*
X122678571Y-95326238D01*
X122678571Y-95326238D02*
X122726190Y-95516714D01*
X122726190Y-95516714D02*
X122773809Y-95611952D01*
X122773809Y-95611952D02*
X122821428Y-95659572D01*
X122821428Y-95659572D02*
X122916666Y-95707191D01*
X122916666Y-95707191D02*
X123011904Y-95707191D01*
X123011904Y-95707191D02*
X123107142Y-95659572D01*
X123107142Y-95659572D02*
X123154761Y-95611952D01*
X123154761Y-95611952D02*
X123202380Y-95516714D01*
X123202380Y-95516714D02*
X123249999Y-95326238D01*
X123249999Y-95326238D02*
X123249999Y-95088143D01*
X123249999Y-95088143D02*
X123202380Y-94897667D01*
X123202380Y-94897667D02*
X123154761Y-94802429D01*
X123154761Y-94802429D02*
X123107142Y-94754810D01*
X123107142Y-94754810D02*
X123011904Y-94707191D01*
X122297618Y-94802429D02*
X122249999Y-94754810D01*
X122249999Y-94754810D02*
X122154761Y-94707191D01*
X122154761Y-94707191D02*
X121916666Y-94707191D01*
X121916666Y-94707191D02*
X121821428Y-94754810D01*
X121821428Y-94754810D02*
X121773809Y-94802429D01*
X121773809Y-94802429D02*
X121726190Y-94897667D01*
X121726190Y-94897667D02*
X121726190Y-94992905D01*
X121726190Y-94992905D02*
X121773809Y-95135762D01*
X121773809Y-95135762D02*
X122345237Y-95707191D01*
X122345237Y-95707191D02*
X121726190Y-95707191D01*
X120821428Y-94707191D02*
X121297618Y-94707191D01*
X121297618Y-94707191D02*
X121345237Y-95183381D01*
X121345237Y-95183381D02*
X121297618Y-95135762D01*
X121297618Y-95135762D02*
X121202380Y-95088143D01*
X121202380Y-95088143D02*
X120964285Y-95088143D01*
X120964285Y-95088143D02*
X120869047Y-95135762D01*
X120869047Y-95135762D02*
X120821428Y-95183381D01*
X120821428Y-95183381D02*
X120773809Y-95278619D01*
X120773809Y-95278619D02*
X120773809Y-95516714D01*
X120773809Y-95516714D02*
X120821428Y-95611952D01*
X120821428Y-95611952D02*
X120869047Y-95659572D01*
X120869047Y-95659572D02*
X120964285Y-95707191D01*
X120964285Y-95707191D02*
X121202380Y-95707191D01*
X121202380Y-95707191D02*
X121297618Y-95659572D01*
X121297618Y-95659572D02*
X121345237Y-95611952D01*
D14*
G36*
X107318614Y-69254344D02*
G01*
X107318614Y-70082816D01*
X107973551Y-70082816D01*
X107973551Y-69254344D01*
X108558635Y-69254344D01*
X108558635Y-71458392D01*
X107973551Y-71458392D01*
X107973551Y-70629798D01*
X107318614Y-70629798D01*
X107318614Y-71458392D01*
X106734874Y-71458392D01*
X106734874Y-69254344D01*
X107318614Y-69254344D01*
G37*
G36*
X106515300Y-71458392D02*
G01*
X105875505Y-71458392D01*
X105763398Y-71200471D01*
X104940300Y-71200471D01*
X104829658Y-71458392D01*
X104188398Y-71458392D01*
X104503436Y-70772558D01*
X105126290Y-70772558D01*
X105578872Y-70772558D01*
X105351849Y-70250366D01*
X105126290Y-70772558D01*
X104503436Y-70772558D01*
X105213729Y-69226256D01*
X105491311Y-69226256D01*
X106515300Y-71458392D01*
G37*
G36*
X103966137Y-71458392D02*
G01*
X103380931Y-71458392D01*
X103380931Y-70501326D01*
X102791695Y-71458392D01*
X102106716Y-71458392D01*
X102697418Y-70573866D01*
X102578981Y-70502896D01*
X102524573Y-70456704D01*
X102475019Y-70404378D01*
X102431065Y-70346544D01*
X102393241Y-70283576D01*
X102362785Y-70217461D01*
X102339424Y-70147348D01*
X102324153Y-70076189D01*
X102316638Y-70002216D01*
X102906489Y-70002216D01*
X102910271Y-70044027D01*
X102921110Y-70082235D01*
X102962742Y-70148617D01*
X103028532Y-70197544D01*
X103112725Y-70222159D01*
X103144382Y-70223744D01*
X103383740Y-70222401D01*
X103383740Y-69780810D01*
X103144382Y-69780810D01*
X103056021Y-69795940D01*
X103015786Y-69814419D01*
X102980018Y-69839664D01*
X102951165Y-69869748D01*
X102928609Y-69905325D01*
X102914154Y-69943338D01*
X102907066Y-69985605D01*
X102906489Y-70002216D01*
X102316638Y-70002216D01*
X102316629Y-70002129D01*
X102315910Y-69970830D01*
X102331153Y-69828028D01*
X102376235Y-69692834D01*
X102450125Y-69568591D01*
X102551310Y-69459341D01*
X102611505Y-69411662D01*
X102677404Y-69369487D01*
X102748745Y-69333193D01*
X102825116Y-69303243D01*
X102905711Y-69280161D01*
X102990603Y-69264169D01*
X103132170Y-69254344D01*
X103968824Y-69254344D01*
X103966137Y-71458392D01*
G37*
G36*
X100572871Y-69254344D02*
G01*
X101082850Y-70448081D01*
X101591486Y-69254344D01*
X102224441Y-69254344D01*
X101212787Y-71481839D01*
X100947540Y-71481839D01*
X99931734Y-69254344D01*
X100572871Y-69254344D01*
G37*
G36*
X98284438Y-69798517D02*
G01*
X98284438Y-69254344D01*
X99713136Y-69254344D01*
X99713136Y-71458392D01*
X98284438Y-71458392D01*
X98284438Y-70910188D01*
X99134891Y-70910188D01*
X99134891Y-70594382D01*
X98434891Y-70594382D01*
X98434891Y-70106263D01*
X99134891Y-70106263D01*
X99134891Y-69798517D01*
X98284438Y-69798517D01*
G37*
G36*
X97443632Y-71458392D02*
G01*
X96862578Y-71458392D01*
X96862578Y-70506821D01*
X96181751Y-69254344D01*
X96846214Y-69254344D01*
X97152494Y-69892917D01*
X97460118Y-69254344D01*
X98123115Y-69254344D01*
X97443632Y-70506821D01*
X97443632Y-71458392D01*
G37*
G36*
X92980338Y-69230897D02*
G01*
X93926413Y-70528803D01*
X94872609Y-69230897D01*
X95107693Y-69230897D01*
X95107693Y-71458392D01*
X94522609Y-71458392D01*
X94522609Y-70583636D01*
X93927878Y-71421511D01*
X93923726Y-71421511D01*
X93330338Y-70583636D01*
X93330338Y-71458392D01*
X92745254Y-71458392D01*
X92745254Y-69230897D01*
X92980338Y-69230897D01*
G37*
G36*
X91255006Y-71505286D02*
G01*
X91062296Y-71490228D01*
X90878476Y-71445809D01*
X90703872Y-71372725D01*
X90539757Y-71271440D01*
X90429221Y-71181298D01*
X90762857Y-70736898D01*
X90837231Y-70798017D01*
X90915510Y-70850859D01*
X90986999Y-70889153D01*
X91061290Y-70919131D01*
X91130540Y-70938243D01*
X91201934Y-70949171D01*
X91255006Y-70951588D01*
X91388729Y-70936437D01*
X91519134Y-70891018D01*
X91638243Y-70816961D01*
X91690685Y-70770616D01*
X91737584Y-70718545D01*
X91777338Y-70662588D01*
X91810470Y-70601957D01*
X91835520Y-70539461D01*
X91853214Y-70473327D01*
X91864759Y-70357955D01*
X91849694Y-70225231D01*
X91805343Y-70101065D01*
X91733090Y-69989060D01*
X91635286Y-69894069D01*
X91577938Y-69854624D01*
X91516042Y-69821550D01*
X91450331Y-69795344D01*
X91381195Y-69776343D01*
X91242672Y-69761636D01*
X91116390Y-69776642D01*
X90979431Y-69823744D01*
X90842196Y-69903447D01*
X90765544Y-69965335D01*
X90429221Y-69535712D01*
X90583184Y-69414797D01*
X90758529Y-69316025D01*
X90851747Y-69276804D01*
X90946821Y-69245263D01*
X91042038Y-69221890D01*
X91137460Y-69206660D01*
X91244016Y-69199634D01*
X91448497Y-69214894D01*
X91642946Y-69259874D01*
X91824196Y-69333138D01*
X91908896Y-69379863D01*
X91988776Y-69432772D01*
X92063703Y-69491719D01*
X92133142Y-69556271D01*
X92196619Y-69625938D01*
X92253997Y-69700572D01*
X92304603Y-69779264D01*
X92348572Y-69862254D01*
X92385218Y-69948248D01*
X92414767Y-70037866D01*
X92436673Y-70129563D01*
X92451086Y-70224233D01*
X92458147Y-70353803D01*
X92454296Y-70450534D01*
X92442974Y-70543987D01*
X92398426Y-70723041D01*
X92325657Y-70889987D01*
X92225667Y-71043164D01*
X92099729Y-71180100D01*
X91949904Y-71297562D01*
X91779488Y-71391865D01*
X91593169Y-71459413D01*
X91495950Y-71482190D01*
X91396746Y-71497331D01*
X91255006Y-71505286D01*
G37*
G36*
X90181803Y-71458392D02*
G01*
X89241224Y-71458392D01*
X89159056Y-71454560D01*
X89080702Y-71443369D01*
X88933869Y-71399735D01*
X88803078Y-71329630D01*
X88691555Y-71235629D01*
X88603196Y-71121358D01*
X88568946Y-71058130D01*
X88541923Y-70991863D01*
X88522494Y-70923513D01*
X88510773Y-70853313D01*
X88507030Y-70784892D01*
X88514759Y-70714672D01*
X89067568Y-70714672D01*
X89071350Y-70756341D01*
X89082195Y-70793236D01*
X89122721Y-70853704D01*
X89188086Y-70898070D01*
X89278598Y-70923333D01*
X89330006Y-70926675D01*
X89618579Y-70926675D01*
X89618579Y-70505600D01*
X89325976Y-70506943D01*
X89265648Y-70510793D01*
X89212813Y-70522104D01*
X89170682Y-70538985D01*
X89135452Y-70561716D01*
X89108749Y-70588245D01*
X89088538Y-70619484D01*
X89068364Y-70694333D01*
X89067568Y-70714672D01*
X88514759Y-70714672D01*
X88521850Y-70650255D01*
X88565299Y-70524735D01*
X88635527Y-70412262D01*
X88728786Y-70319007D01*
X88781971Y-70281903D01*
X88837718Y-70252437D01*
X88894268Y-70231303D01*
X88951480Y-70218463D01*
X89006018Y-70214341D01*
X88952931Y-70199280D01*
X88885613Y-70146299D01*
X88850914Y-70103653D01*
X88819769Y-70052296D01*
X88794846Y-69995359D01*
X88776612Y-69931924D01*
X88776542Y-69931263D01*
X89256245Y-69931263D01*
X89260051Y-69968595D01*
X89271060Y-70001714D01*
X89312283Y-70054886D01*
X89379350Y-70091270D01*
X89473050Y-70106215D01*
X89479117Y-70106263D01*
X89618579Y-70106263D01*
X89618579Y-69762980D01*
X89474965Y-69762980D01*
X89422683Y-69766831D01*
X89375603Y-69778155D01*
X89336914Y-69795392D01*
X89304742Y-69818695D01*
X89281738Y-69845169D01*
X89265699Y-69876286D01*
X89256245Y-69931263D01*
X88776542Y-69931263D01*
X88765439Y-69826727D01*
X88780629Y-69707787D01*
X88826186Y-69592528D01*
X88901867Y-69485349D01*
X89006102Y-69392118D01*
X89067880Y-69352733D01*
X89135269Y-69319183D01*
X89207338Y-69292177D01*
X89284089Y-69272014D01*
X89363632Y-69259391D01*
X89446878Y-69254405D01*
X89457257Y-69254344D01*
X90181803Y-69254344D01*
X90181803Y-71458392D01*
G37*
G36*
X87363607Y-71520918D02*
G01*
X87185387Y-71505652D01*
X87099568Y-71486754D01*
X87017144Y-71460721D01*
X86938215Y-71427681D01*
X86863582Y-71388018D01*
X86793889Y-71342170D01*
X86729332Y-71290307D01*
X86670928Y-71233345D01*
X86618397Y-71171047D01*
X86572844Y-71104802D01*
X86533783Y-71033920D01*
X86502143Y-70960089D01*
X86477520Y-70882291D01*
X86460530Y-70802242D01*
X86451035Y-70718839D01*
X86449040Y-70658130D01*
X86449040Y-69254344D01*
X87038276Y-69254344D01*
X87038276Y-70656664D01*
X87052994Y-70748216D01*
X87095813Y-70829659D01*
X87164977Y-70897189D01*
X87255996Y-70943794D01*
X87306599Y-70956712D01*
X87358730Y-70961787D01*
X87364951Y-70961846D01*
X87465948Y-70946746D01*
X87514137Y-70927963D01*
X87558580Y-70902259D01*
X87597639Y-70870619D01*
X87631049Y-70833097D01*
X87656713Y-70792239D01*
X87675469Y-70746761D01*
X87689061Y-70656664D01*
X87689061Y-69254344D01*
X88278297Y-69254344D01*
X88278297Y-70658130D01*
X88274445Y-70742224D01*
X88263118Y-70823250D01*
X88218670Y-70977024D01*
X88146383Y-71117611D01*
X88047714Y-71242491D01*
X87924596Y-71348474D01*
X87779837Y-71431972D01*
X87700447Y-71464192D01*
X87617253Y-71489474D01*
X87530796Y-71507514D01*
X87441415Y-71518059D01*
X87363607Y-71520918D01*
G37*
G36*
X86083653Y-71458392D02*
G01*
X85498447Y-71458392D01*
X85498447Y-70501326D01*
X84909211Y-71458392D01*
X84224232Y-71458392D01*
X84814933Y-70573866D01*
X84696496Y-70502896D01*
X84642088Y-70456704D01*
X84592535Y-70404378D01*
X84548581Y-70346544D01*
X84510756Y-70283576D01*
X84480301Y-70217461D01*
X84456939Y-70147348D01*
X84441669Y-70076189D01*
X84434153Y-70002216D01*
X85024005Y-70002216D01*
X85027787Y-70044027D01*
X85038626Y-70082235D01*
X85080258Y-70148617D01*
X85146047Y-70197544D01*
X85230241Y-70222159D01*
X85261898Y-70223744D01*
X85501256Y-70222401D01*
X85501256Y-69780810D01*
X85261898Y-69780810D01*
X85173537Y-69795940D01*
X85133301Y-69814419D01*
X85097533Y-69839664D01*
X85068681Y-69869748D01*
X85046125Y-69905325D01*
X85031670Y-69943338D01*
X85024582Y-69985605D01*
X85024005Y-70002216D01*
X84434153Y-70002216D01*
X84434144Y-70002129D01*
X84433426Y-69970830D01*
X84448669Y-69828028D01*
X84493750Y-69692834D01*
X84567641Y-69568591D01*
X84668826Y-69459341D01*
X84729021Y-69411662D01*
X84794920Y-69369487D01*
X84866261Y-69333193D01*
X84942632Y-69303243D01*
X85023227Y-69280161D01*
X85108119Y-69264169D01*
X85249685Y-69254344D01*
X86086339Y-69254344D01*
X86083653Y-71458392D01*
G37*
G36*
X82697226Y-69254344D02*
G01*
X82697226Y-70327181D01*
X83826482Y-69235293D01*
X84015160Y-69235293D01*
X84015160Y-71458392D01*
X83430076Y-71458392D01*
X83430076Y-70383112D01*
X82296667Y-71481839D01*
X82110676Y-71481839D01*
X82110676Y-69254344D01*
X82697226Y-69254344D01*
G37*
G36*
X80300348Y-69798517D02*
G01*
X80300348Y-69254344D01*
X81729047Y-69254344D01*
X81729047Y-71458392D01*
X80300348Y-71458392D01*
X80300348Y-70910188D01*
X81150802Y-70910188D01*
X81150802Y-70594382D01*
X80450802Y-70594382D01*
X80450802Y-70106263D01*
X81150802Y-70106263D01*
X81150802Y-69798517D01*
X80300348Y-69798517D01*
G37*
G36*
X79459542Y-71458392D02*
G01*
X78878489Y-71458392D01*
X78878489Y-70506821D01*
X78197662Y-69254344D01*
X78862124Y-69254344D01*
X79168405Y-69892917D01*
X79476029Y-69254344D01*
X80139026Y-69254344D01*
X79459542Y-70506821D01*
X79459542Y-71458392D01*
G37*
G36*
X108555949Y-74818392D02*
G01*
X107970743Y-74818392D01*
X107970743Y-73861326D01*
X107381507Y-74818392D01*
X106696528Y-74818392D01*
X107287229Y-73933866D01*
X107168792Y-73862896D01*
X107114384Y-73816704D01*
X107064831Y-73764378D01*
X107020877Y-73706544D01*
X106983052Y-73643576D01*
X106952597Y-73577461D01*
X106929235Y-73507348D01*
X106913964Y-73436189D01*
X106906449Y-73362216D01*
X107496301Y-73362216D01*
X107500083Y-73404027D01*
X107510922Y-73442235D01*
X107552554Y-73508617D01*
X107618343Y-73557544D01*
X107702537Y-73582159D01*
X107734193Y-73583744D01*
X107973551Y-73582401D01*
X107973551Y-73140810D01*
X107734193Y-73140810D01*
X107645833Y-73155940D01*
X107605597Y-73174419D01*
X107569829Y-73199664D01*
X107540977Y-73229748D01*
X107518421Y-73265325D01*
X107503966Y-73303338D01*
X107496878Y-73345605D01*
X107496301Y-73362216D01*
X106906449Y-73362216D01*
X106906440Y-73362129D01*
X106905722Y-73330830D01*
X106920965Y-73188028D01*
X106966046Y-73052834D01*
X107039937Y-72928591D01*
X107141122Y-72819341D01*
X107201317Y-72771662D01*
X107267216Y-72729487D01*
X107338557Y-72693193D01*
X107414928Y-72663243D01*
X107495523Y-72640161D01*
X107580415Y-72624169D01*
X107721981Y-72614344D01*
X108558635Y-72614344D01*
X108555949Y-74818392D01*
G37*
G36*
X106216835Y-74818392D02*
G01*
X105635781Y-74818392D01*
X105635781Y-73866821D01*
X104954954Y-72614344D01*
X105619417Y-72614344D01*
X105925697Y-73252917D01*
X106233321Y-72614344D01*
X106896318Y-72614344D01*
X106216835Y-73866821D01*
X106216835Y-74818392D01*
G37*
G36*
X105376151Y-74818392D02*
G01*
X104736357Y-74818392D01*
X104624249Y-74560471D01*
X103801151Y-74560471D01*
X103690509Y-74818392D01*
X103049249Y-74818392D01*
X103364287Y-74132558D01*
X103987142Y-74132558D01*
X104439724Y-74132558D01*
X104212700Y-73610366D01*
X103987142Y-74132558D01*
X103364287Y-74132558D01*
X104074581Y-72586256D01*
X104352163Y-72586256D01*
X105376151Y-74818392D01*
G37*
G36*
X101511741Y-72614344D02*
G01*
X101511741Y-73687181D01*
X102640997Y-72595293D01*
X102829675Y-72595293D01*
X102829675Y-74818392D01*
X102244591Y-74818392D01*
X102244591Y-73743112D01*
X101111182Y-74841839D01*
X100925191Y-74841839D01*
X100925191Y-72614344D01*
X101511741Y-72614344D01*
G37*
G36*
X98371755Y-72614344D02*
G01*
X98371755Y-73687181D01*
X99501011Y-72595293D01*
X99689689Y-72595293D01*
X99689689Y-74818392D01*
X99104605Y-74818392D01*
X99104605Y-73743112D01*
X97971196Y-74841839D01*
X97785205Y-74841839D01*
X97785205Y-72614344D01*
X98371755Y-72614344D01*
G37*
G36*
X97566242Y-74818392D02*
G01*
X96926448Y-74818392D01*
X96814340Y-74560471D01*
X95991242Y-74560471D01*
X95880600Y-74818392D01*
X95239340Y-74818392D01*
X95554378Y-74132558D01*
X96177233Y-74132558D01*
X96629815Y-74132558D01*
X96402791Y-73610366D01*
X96177233Y-74132558D01*
X95554378Y-74132558D01*
X96264672Y-72586256D01*
X96542254Y-72586256D01*
X97566242Y-74818392D01*
G37*
G36*
X94621894Y-74857470D02*
G01*
X94605530Y-74857470D01*
X94426496Y-74842263D01*
X94256656Y-74797424D01*
X94100251Y-74724599D01*
X94028496Y-74678418D01*
X93961888Y-74626304D01*
X93900976Y-74568754D01*
X93845995Y-74505999D01*
X93797822Y-74439115D01*
X93756244Y-74367812D01*
X93722162Y-74293704D01*
X93695210Y-74215970D01*
X93676061Y-74136530D01*
X93664477Y-74054215D01*
X93660799Y-73973555D01*
X93670324Y-72615810D01*
X94256873Y-72614344D01*
X94246004Y-73970869D01*
X94260945Y-74064016D01*
X94305698Y-74152566D01*
X94378389Y-74228308D01*
X94423328Y-74258224D01*
X94473026Y-74281653D01*
X94525245Y-74297440D01*
X94580709Y-74305595D01*
X94608217Y-74306581D01*
X94617864Y-74306581D01*
X94686316Y-74302492D01*
X94742849Y-74289505D01*
X94827983Y-74245081D01*
X94858443Y-74222927D01*
X95153733Y-74705796D01*
X95075232Y-74752056D01*
X94995066Y-74789629D01*
X94917336Y-74817202D01*
X94836381Y-74837481D01*
X94660954Y-74856891D01*
X94621894Y-74857470D01*
G37*
G36*
X93664218Y-74818392D02*
G01*
X93024424Y-74818392D01*
X92912316Y-74560471D01*
X92089218Y-74560471D01*
X91978576Y-74818392D01*
X91337316Y-74818392D01*
X91652354Y-74132558D01*
X92275209Y-74132558D01*
X92727791Y-74132558D01*
X92500767Y-73610366D01*
X92275209Y-74132558D01*
X91652354Y-74132558D01*
X92362648Y-72586256D01*
X92640230Y-72586256D01*
X93664218Y-74818392D01*
G37*
G36*
X88990387Y-72590897D02*
G01*
X89936461Y-73888803D01*
X90882658Y-72590897D01*
X91117742Y-72590897D01*
X91117742Y-74818392D01*
X90532658Y-74818392D01*
X90532658Y-73943636D01*
X89937927Y-74781511D01*
X89933775Y-74781511D01*
X89340387Y-73943636D01*
X89340387Y-74818392D01*
X88755303Y-74818392D01*
X88755303Y-72590897D01*
X88990387Y-72590897D01*
G37*
G36*
X88372452Y-74818392D02*
G01*
X87787369Y-74818392D01*
X87787369Y-72614344D01*
X88372452Y-72614344D01*
X88372452Y-74818392D01*
G37*
G36*
X107240701Y-75974344D02*
G01*
X107240701Y-77047181D01*
X108369958Y-75955293D01*
X108558635Y-75955293D01*
X108558635Y-78178392D01*
X107973551Y-78178392D01*
X107973551Y-77103112D01*
X106840143Y-78201839D01*
X106654152Y-78201839D01*
X106654152Y-75974344D01*
X107240701Y-75974344D01*
G37*
G36*
X106272522Y-78178392D02*
G01*
X105687438Y-78178392D01*
X105687438Y-75974344D01*
X106272522Y-75974344D01*
X106272522Y-78178392D01*
G37*
G36*
X104197923Y-78225286D02*
G01*
X104005213Y-78210228D01*
X103821393Y-78165809D01*
X103646789Y-78092725D01*
X103482674Y-77991440D01*
X103372138Y-77901298D01*
X103705774Y-77456898D01*
X103780148Y-77518017D01*
X103858427Y-77570859D01*
X103929916Y-77609153D01*
X104004207Y-77639131D01*
X104073457Y-77658243D01*
X104144851Y-77669171D01*
X104197923Y-77671588D01*
X104331646Y-77656437D01*
X104462051Y-77611018D01*
X104581159Y-77536961D01*
X104633602Y-77490616D01*
X104680501Y-77438545D01*
X104720254Y-77382588D01*
X104753387Y-77321957D01*
X104778437Y-77259461D01*
X104796131Y-77193327D01*
X104807676Y-77077955D01*
X104792611Y-76945231D01*
X104748260Y-76821065D01*
X104676007Y-76709060D01*
X104578203Y-76614069D01*
X104520855Y-76574624D01*
X104458959Y-76541550D01*
X104393248Y-76515344D01*
X104324112Y-76496343D01*
X104185589Y-76481636D01*
X104059307Y-76496642D01*
X103922348Y-76543744D01*
X103785113Y-76623447D01*
X103708461Y-76685335D01*
X103372138Y-76255712D01*
X103526101Y-76134797D01*
X103701446Y-76036025D01*
X103794664Y-75996804D01*
X103889738Y-75965263D01*
X103984955Y-75941890D01*
X104080377Y-75926660D01*
X104186933Y-75919634D01*
X104391414Y-75934894D01*
X104585863Y-75979874D01*
X104767113Y-76053138D01*
X104851813Y-76099863D01*
X104931693Y-76152772D01*
X105006620Y-76211719D01*
X105076059Y-76276271D01*
X105139536Y-76345938D01*
X105196914Y-76420572D01*
X105247520Y-76499264D01*
X105291489Y-76582254D01*
X105328135Y-76668248D01*
X105357684Y-76757866D01*
X105379590Y-76849563D01*
X105394003Y-76944233D01*
X105401064Y-77073803D01*
X105397213Y-77170534D01*
X105385891Y-77263987D01*
X105341343Y-77443041D01*
X105268574Y-77609987D01*
X105168584Y-77763164D01*
X105042646Y-77900100D01*
X104892821Y-78017562D01*
X104722405Y-78111865D01*
X104536086Y-78179413D01*
X104438867Y-78202190D01*
X104339663Y-78217331D01*
X104197923Y-78225286D01*
G37*
G36*
X102308303Y-75927089D02*
G01*
X102501984Y-75972072D01*
X102682261Y-76045307D01*
X102766429Y-76092004D01*
X102845815Y-76144909D01*
X102920263Y-76203866D01*
X102989279Y-76268473D01*
X103052409Y-76338266D01*
X103109506Y-76413098D01*
X103159946Y-76492138D01*
X103203818Y-76575577D01*
X103240485Y-76662244D01*
X103270116Y-76752665D01*
X103292196Y-76845446D01*
X103306826Y-76941356D01*
X103314253Y-77076612D01*
X103298981Y-77268302D01*
X103253944Y-77450462D01*
X103180330Y-77620728D01*
X103079526Y-77776307D01*
X102953345Y-77914072D01*
X102804162Y-78030771D01*
X102721863Y-78080226D01*
X102634905Y-78123302D01*
X102543899Y-78159599D01*
X102448888Y-78188970D01*
X102350881Y-78210995D01*
X102249536Y-78225616D01*
X102105617Y-78233102D01*
X101900659Y-78217834D01*
X101706194Y-78172871D01*
X101525317Y-78099706D01*
X101440934Y-78053079D01*
X101361376Y-78000265D01*
X101286829Y-77941446D01*
X101217755Y-77877008D01*
X101154637Y-77807448D01*
X101097589Y-77732886D01*
X101047258Y-77654196D01*
X101003525Y-77571150D01*
X100967040Y-77484958D01*
X100937613Y-77395060D01*
X100915762Y-77302880D01*
X100901374Y-77207621D01*
X100894295Y-77076612D01*
X100894614Y-77072582D01*
X101486339Y-77072582D01*
X101501467Y-77209665D01*
X101545812Y-77336687D01*
X101617552Y-77449732D01*
X101714047Y-77544222D01*
X101770409Y-77583025D01*
X101831522Y-77615529D01*
X101896515Y-77641161D01*
X101965340Y-77659728D01*
X102104274Y-77674030D01*
X102247007Y-77658914D01*
X102378789Y-77614713D01*
X102495320Y-77543585D01*
X102546414Y-77498827D01*
X102591877Y-77448639D01*
X102631173Y-77393614D01*
X102664006Y-77334043D01*
X102689689Y-77271101D01*
X102708215Y-77204547D01*
X102722208Y-77072582D01*
X102707081Y-76934897D01*
X102662738Y-76807300D01*
X102591025Y-76693759D01*
X102494625Y-76598875D01*
X102438357Y-76559918D01*
X102377349Y-76527270D01*
X102312506Y-76501518D01*
X102243842Y-76482835D01*
X102104274Y-76468325D01*
X101961890Y-76483441D01*
X101830369Y-76527655D01*
X101713961Y-76598845D01*
X101617370Y-76693948D01*
X101577998Y-76749112D01*
X101545072Y-76808838D01*
X101519267Y-76871987D01*
X101500609Y-76938766D01*
X101486339Y-77072582D01*
X100894614Y-77072582D01*
X100909565Y-76883599D01*
X100954587Y-76700246D01*
X101028152Y-76528926D01*
X101128843Y-76372422D01*
X101254825Y-76233850D01*
X101403704Y-76116437D01*
X101485806Y-76066653D01*
X101572544Y-76023258D01*
X101663296Y-75986654D01*
X101758030Y-75956978D01*
X101855732Y-75934653D01*
X101956747Y-75919731D01*
X102104274Y-75911818D01*
X102308303Y-75927089D01*
G37*
G36*
X100022958Y-77628845D02*
G01*
X100022958Y-75974344D01*
X100608042Y-75974344D01*
X100608042Y-78178392D01*
X99179344Y-78178392D01*
X99179344Y-77628845D01*
X100022958Y-77628845D01*
G37*
G36*
X99094225Y-78178392D02*
G01*
X98454431Y-78178392D01*
X98342323Y-77920471D01*
X97519225Y-77920471D01*
X97408583Y-78178392D01*
X96767323Y-78178392D01*
X97082361Y-77492558D01*
X97705216Y-77492558D01*
X98157798Y-77492558D01*
X97930774Y-76970366D01*
X97705216Y-77492558D01*
X97082361Y-77492558D01*
X97792655Y-75946256D01*
X98070237Y-75946256D01*
X99094225Y-78178392D01*
G37*
G36*
X95928471Y-78209655D02*
G01*
X95745311Y-78194312D01*
X95657571Y-78175398D01*
X95573525Y-78149280D01*
X95495138Y-78116762D01*
X95421722Y-78077689D01*
X95356090Y-78033853D01*
X95296381Y-77984267D01*
X95245357Y-77931594D01*
X95200881Y-77873991D01*
X95164985Y-77814452D01*
X95136057Y-77750701D01*
X95115217Y-77685399D01*
X95101728Y-77616445D01*
X95095847Y-77528828D01*
X95099707Y-77457060D01*
X95111092Y-77389098D01*
X95155074Y-77264496D01*
X95227623Y-77150820D01*
X95331702Y-77045078D01*
X95473040Y-76945605D01*
X95668719Y-76848123D01*
X95809619Y-76791872D01*
X95915196Y-76749689D01*
X95994761Y-76710144D01*
X96044960Y-76667092D01*
X96057999Y-76642328D01*
X96062438Y-76614382D01*
X96047580Y-76562078D01*
X96002632Y-76516693D01*
X95926286Y-76485290D01*
X95856053Y-76477729D01*
X95740344Y-76493857D01*
X95678243Y-76514483D01*
X95618694Y-76543976D01*
X95574189Y-76575434D01*
X95536643Y-76613458D01*
X95515579Y-76644424D01*
X95177913Y-76319093D01*
X95235564Y-76215239D01*
X95323487Y-76121135D01*
X95441031Y-76041603D01*
X95510422Y-76008993D01*
X95585525Y-75982401D01*
X95666421Y-75962174D01*
X95752148Y-75948978D01*
X95862892Y-75943081D01*
X96032511Y-75958281D01*
X96114723Y-75977169D01*
X96193374Y-76003129D01*
X96267941Y-76035880D01*
X96337649Y-76075044D01*
X96400883Y-76119516D01*
X96458176Y-76169544D01*
X96507457Y-76223026D01*
X96550021Y-76281125D01*
X96584093Y-76341063D01*
X96610943Y-76404731D01*
X96629508Y-76469309D01*
X96640475Y-76536865D01*
X96643492Y-76596675D01*
X96639664Y-76667806D01*
X96628502Y-76734274D01*
X96585591Y-76855079D01*
X96515407Y-76963534D01*
X96415463Y-77062888D01*
X96280463Y-77155198D01*
X96125331Y-77232195D01*
X96124240Y-77232678D01*
X95964413Y-77305281D01*
X95823102Y-77380296D01*
X95766243Y-77418989D01*
X95722235Y-77458623D01*
X95693821Y-77499310D01*
X95683740Y-77541162D01*
X95698318Y-77591393D01*
X95741398Y-77632300D01*
X95818694Y-77663543D01*
X95929815Y-77676472D01*
X96065765Y-77661299D01*
X96130746Y-77642523D01*
X96191938Y-77616764D01*
X96247947Y-77584755D01*
X96298634Y-77546608D01*
X96340824Y-77505340D01*
X96376901Y-77459218D01*
X96731053Y-77806410D01*
X96667421Y-77909600D01*
X96572322Y-78004949D01*
X96444893Y-78088621D01*
X96287069Y-78154765D01*
X96105124Y-78196822D01*
X95928471Y-78209655D01*
G37*
G36*
X92485502Y-75974344D02*
G01*
X92995481Y-77168081D01*
X93504117Y-75974344D01*
X94137072Y-75974344D01*
X93125418Y-78201839D01*
X92860170Y-78201839D01*
X91844364Y-75974344D01*
X92485502Y-75974344D01*
G37*
G36*
X91625767Y-78178392D02*
G01*
X91040683Y-78178392D01*
X91040683Y-75974344D01*
X91625767Y-75974344D01*
X91625767Y-78178392D01*
G37*
G36*
X90821231Y-78178392D02*
G01*
X90181437Y-78178392D01*
X90069330Y-77920471D01*
X89246231Y-77920471D01*
X89135589Y-78178392D01*
X88494330Y-78178392D01*
X88809368Y-77492558D01*
X89432222Y-77492558D01*
X89884804Y-77492558D01*
X89657780Y-76970366D01*
X89432222Y-77492558D01*
X88809368Y-77492558D01*
X89519661Y-75946256D01*
X89797243Y-75946256D01*
X90821231Y-78178392D01*
G37*
G36*
X87689672Y-77628845D02*
G01*
X87689672Y-75974344D01*
X88274755Y-75974344D01*
X88274755Y-78178392D01*
X86846057Y-78178392D01*
X86846057Y-77628845D01*
X87689672Y-77628845D01*
G37*
G36*
X85169574Y-76518517D02*
G01*
X85169574Y-75974344D01*
X86598272Y-75974344D01*
X86598272Y-78178392D01*
X85169574Y-78178392D01*
X85169574Y-77630188D01*
X86020027Y-77630188D01*
X86020027Y-77314382D01*
X85320027Y-77314382D01*
X85320027Y-76826263D01*
X86020027Y-76826263D01*
X86020027Y-76518517D01*
X85169574Y-76518517D01*
G37*
D12*
G36*
X153581524Y-113207677D02*
G01*
X153703482Y-113199839D01*
X153808151Y-113177672D01*
X153904345Y-113140401D01*
X153987389Y-113090355D01*
X154061318Y-113027968D01*
X154127493Y-112954697D01*
X153940079Y-112741802D01*
X153874760Y-112818874D01*
X153814094Y-112871938D01*
X153757190Y-112905640D01*
X153694824Y-112928993D01*
X153631627Y-112942851D01*
X153566998Y-112947473D01*
X153519265Y-112944171D01*
X153477855Y-112934773D01*
X153441358Y-112918462D01*
X153415940Y-112897464D01*
X153399650Y-112870292D01*
X153394031Y-112836422D01*
X153397495Y-112810306D01*
X153407684Y-112787286D01*
X153423599Y-112767092D01*
X153445072Y-112749105D01*
X153501510Y-112719021D01*
X153570649Y-112695366D01*
X153645266Y-112678061D01*
X153746788Y-112650785D01*
X153829028Y-112619876D01*
X153902106Y-112580504D01*
X153959209Y-112535258D01*
X154004630Y-112481280D01*
X154036524Y-112420556D01*
X154055407Y-112353350D01*
X154062005Y-112275848D01*
X154057575Y-112219860D01*
X154044528Y-112167647D01*
X154022871Y-112118440D01*
X153977095Y-112051760D01*
X153917297Y-111994688D01*
X153846430Y-111949121D01*
X153763540Y-111914595D01*
X153674666Y-111893511D01*
X153581524Y-111886415D01*
X153460704Y-111893517D01*
X153365852Y-111912769D01*
X153280738Y-111945519D01*
X153211142Y-111988338D01*
X153151439Y-112042336D01*
X153101044Y-112106612D01*
X153292109Y-112290454D01*
X153332549Y-112246634D01*
X153374980Y-112212186D01*
X153421065Y-112184798D01*
X153469600Y-112164876D01*
X153520286Y-112152556D01*
X153572396Y-112148445D01*
X153624815Y-112152107D01*
X153666142Y-112162098D01*
X153701841Y-112179054D01*
X153727105Y-112200359D01*
X153743404Y-112227209D01*
X153748934Y-112259496D01*
X153744290Y-112288460D01*
X153730757Y-112312283D01*
X153710076Y-112332427D01*
X153681621Y-112351417D01*
X153610656Y-112380549D01*
X153526912Y-112399600D01*
X153429777Y-112423331D01*
X153345848Y-112452387D01*
X153269091Y-112489517D01*
X153205744Y-112532480D01*
X153153091Y-112584464D01*
X153114697Y-112644404D01*
X153091171Y-112712641D01*
X153082866Y-112794589D01*
X153090507Y-112881090D01*
X153112295Y-112955220D01*
X153147480Y-113019311D01*
X153195241Y-113075189D01*
X153253621Y-113121788D01*
X153324019Y-113159494D01*
X153400067Y-113185656D01*
X153485411Y-113201983D01*
X153581524Y-113207677D01*
G37*
G36*
X152457439Y-113207677D02*
G01*
X152549030Y-113200162D01*
X152632228Y-113178247D01*
X152708594Y-113142190D01*
X152777475Y-113093119D01*
X152835768Y-113033664D01*
X152884260Y-112962873D01*
X152919734Y-112884791D01*
X152941364Y-112799476D01*
X152948795Y-112705367D01*
X152941364Y-112611259D01*
X152919734Y-112525944D01*
X152884260Y-112447862D01*
X152835765Y-112377076D01*
X152777472Y-112317648D01*
X152708594Y-112268625D01*
X152632223Y-112232522D01*
X152549026Y-112210582D01*
X152457439Y-112203058D01*
X152372225Y-112208285D01*
X152293359Y-112223560D01*
X152219938Y-112248542D01*
X152151283Y-112283793D01*
X152094423Y-112326220D01*
X152047923Y-112375945D01*
X152206284Y-112565264D01*
X152266374Y-112510651D01*
X152302597Y-112487989D01*
X152342816Y-112470644D01*
X152385424Y-112459713D01*
X152430133Y-112456038D01*
X152496055Y-112464225D01*
X152552059Y-112487869D01*
X152598781Y-112525689D01*
X152633978Y-112576139D01*
X152655578Y-112635572D01*
X152663110Y-112705367D01*
X152655463Y-112771938D01*
X152633105Y-112830945D01*
X152597197Y-112881628D01*
X152550233Y-112920167D01*
X152494416Y-112944530D01*
X152430133Y-112952871D01*
X152383968Y-112949821D01*
X152342816Y-112941043D01*
X152304267Y-112926225D01*
X152269073Y-112905561D01*
X152236909Y-112879521D01*
X152206284Y-112847376D01*
X152049749Y-113038441D01*
X152094972Y-113085755D01*
X152151715Y-113127019D01*
X152221763Y-113162193D01*
X152296332Y-113187317D01*
X152374645Y-113202523D01*
X152457439Y-113207677D01*
G37*
G36*
X151889563Y-113189500D02*
G01*
X151889563Y-111842677D01*
X151603798Y-111842677D01*
X151603798Y-112419603D01*
X151662063Y-112441512D01*
X151634475Y-112379543D01*
X151590225Y-112322285D01*
X151533590Y-112274150D01*
X151465520Y-112235841D01*
X151390934Y-112211260D01*
X151312637Y-112203058D01*
X151240976Y-112208433D01*
X151180330Y-112223602D01*
X151128795Y-112247669D01*
X151083662Y-112281693D01*
X151046196Y-112325503D01*
X151015997Y-112380549D01*
X150995542Y-112440603D01*
X150982422Y-112511811D01*
X150977737Y-112596142D01*
X150977737Y-113189500D01*
X151270804Y-113189500D01*
X151270804Y-112619876D01*
X151275262Y-112564508D01*
X151287156Y-112523431D01*
X151308076Y-112489699D01*
X151337244Y-112466040D01*
X151373512Y-112452417D01*
X151420036Y-112448735D01*
X151457264Y-112451759D01*
X151491001Y-112460563D01*
X151521707Y-112475254D01*
X151547439Y-112495172D01*
X151568640Y-112519606D01*
X151584747Y-112547086D01*
X151594924Y-112577234D01*
X151598401Y-112610748D01*
X151598401Y-113189500D01*
X151742156Y-113189500D01*
X151829552Y-113189500D01*
X151889563Y-113189500D01*
G37*
G36*
X150274598Y-113207677D02*
G01*
X150379768Y-113200045D01*
X150471915Y-113178196D01*
X150553139Y-113143063D01*
X150626727Y-113094247D01*
X150687582Y-113035647D01*
X150736901Y-112966524D01*
X150772860Y-112889553D01*
X150794824Y-112804883D01*
X150802389Y-112710845D01*
X150793057Y-112603004D01*
X150766033Y-112507000D01*
X150722010Y-112419825D01*
X150664111Y-112345940D01*
X150592758Y-112285608D01*
X150508528Y-112240366D01*
X150415275Y-112212607D01*
X150311033Y-112203058D01*
X150212281Y-112212394D01*
X150124493Y-112239493D01*
X150045378Y-112283285D01*
X149978039Y-112341415D01*
X149923713Y-112412335D01*
X149883340Y-112496125D01*
X149859857Y-112588104D01*
X149854208Y-112690841D01*
X149856033Y-112769109D01*
X150625850Y-112769109D01*
X150667762Y-112605271D01*
X150092662Y-112605271D01*
X150123540Y-112639880D01*
X150123540Y-112603445D01*
X150132527Y-112560186D01*
X150151799Y-112522478D01*
X150180066Y-112490995D01*
X150216414Y-112466993D01*
X150258429Y-112452093D01*
X150307382Y-112446910D01*
X150374733Y-112454355D01*
X150428435Y-112475169D01*
X150472144Y-112509557D01*
X150503924Y-112557088D01*
X150522575Y-112614568D01*
X150529405Y-112689015D01*
X150520643Y-112765289D01*
X150495748Y-112828246D01*
X150454736Y-112880435D01*
X150397477Y-112920167D01*
X150328743Y-112944260D01*
X150243720Y-112952871D01*
X150183962Y-112948113D01*
X150133621Y-112934693D01*
X150085554Y-112911458D01*
X150028921Y-112872857D01*
X149892389Y-113065748D01*
X149951049Y-113110602D01*
X150012568Y-113145841D01*
X150077216Y-113173013D01*
X150142671Y-113192198D01*
X150209197Y-113203845D01*
X150274598Y-113207677D01*
G37*
G36*
X149671318Y-113189500D02*
G01*
X149671318Y-112223061D01*
X149394683Y-112223061D01*
X149385554Y-112397774D01*
X149423815Y-112399600D01*
X149398860Y-112354774D01*
X149368329Y-112315934D01*
X149332313Y-112282446D01*
X149291887Y-112254971D01*
X149248056Y-112233285D01*
X149202665Y-112217663D01*
X149155910Y-112208065D01*
X149108919Y-112204883D01*
X149040089Y-112210521D01*
X148979769Y-112226713D01*
X148925437Y-112254957D01*
X148877847Y-112296804D01*
X148839910Y-112351118D01*
X148808628Y-112426906D01*
X148854112Y-112423255D01*
X148839586Y-112394123D01*
X148812651Y-112352681D01*
X148778623Y-112314982D01*
X148739289Y-112282251D01*
X148695831Y-112254971D01*
X148649260Y-112233296D01*
X148601132Y-112217663D01*
X148552266Y-112207992D01*
X148506512Y-112204883D01*
X148431175Y-112210314D01*
X148368201Y-112225538D01*
X148315447Y-112249494D01*
X148269165Y-112283653D01*
X148230788Y-112327753D01*
X148199871Y-112383248D01*
X148178911Y-112443920D01*
X148165511Y-112515466D01*
X148160738Y-112599793D01*
X148160738Y-113189500D01*
X148453725Y-113189500D01*
X148453725Y-112623448D01*
X148458202Y-112568156D01*
X148470157Y-112527082D01*
X148490724Y-112493195D01*
X148518340Y-112469691D01*
X148552832Y-112455646D01*
X148597560Y-112450561D01*
X148634614Y-112453841D01*
X148667572Y-112463341D01*
X148697416Y-112478498D01*
X148722185Y-112497871D01*
X148742448Y-112521501D01*
X148757746Y-112548832D01*
X148767163Y-112579235D01*
X148770447Y-112614399D01*
X148770447Y-113189500D01*
X149063435Y-113189500D01*
X149063435Y-112621623D01*
X149067835Y-112569561D01*
X149079866Y-112528908D01*
X149100573Y-112494920D01*
X149129002Y-112470644D01*
X149163830Y-112455745D01*
X149205364Y-112450561D01*
X149242488Y-112453842D01*
X149275456Y-112463341D01*
X149305300Y-112478498D01*
X149330068Y-112497871D01*
X149350332Y-112521501D01*
X149365630Y-112548832D01*
X149375089Y-112579001D01*
X149378331Y-112612573D01*
X149378331Y-113189500D01*
X149671318Y-113189500D01*
G37*
G36*
X147635335Y-112210439D02*
G01*
X147709425Y-112231999D01*
X147777417Y-112267672D01*
X147837771Y-112315622D01*
X147889190Y-112374365D01*
X147932126Y-112445163D01*
X147962834Y-112522225D01*
X147981868Y-112608414D01*
X147988485Y-112705367D01*
X147981939Y-112799871D01*
X147962970Y-112885235D01*
X147932126Y-112962873D01*
X147889306Y-113034429D01*
X147838745Y-113093423D01*
X147780116Y-113141237D01*
X147713887Y-113176963D01*
X147641908Y-113198493D01*
X147562617Y-113205852D01*
X147498477Y-113200776D01*
X147438866Y-113185848D01*
X147383018Y-113162047D01*
X147333292Y-113131315D01*
X147289414Y-113093768D01*
X147271455Y-113072622D01*
X147271455Y-113189500D01*
X146976563Y-113189500D01*
X146976563Y-112705367D01*
X147262327Y-112705367D01*
X147269517Y-112780197D01*
X147289633Y-112841026D01*
X147322821Y-112892238D01*
X147366075Y-112929295D01*
X147418673Y-112952164D01*
X147482524Y-112960174D01*
X147544725Y-112952191D01*
X147596353Y-112929295D01*
X147638832Y-112892314D01*
X147671843Y-112841026D01*
X147691959Y-112780197D01*
X147699149Y-112705367D01*
X147691957Y-112630549D01*
X147671843Y-112569788D01*
X147638873Y-112518323D01*
X147596353Y-112480646D01*
X147544656Y-112456965D01*
X147482524Y-112448735D01*
X147418743Y-112456993D01*
X147366075Y-112480646D01*
X147322782Y-112518399D01*
X147289633Y-112569788D01*
X147269519Y-112630549D01*
X147262327Y-112705367D01*
X146976563Y-112705367D01*
X146976563Y-112223061D01*
X147265978Y-112223061D01*
X147265978Y-112341923D01*
X147285501Y-112316896D01*
X147326068Y-112278626D01*
X147372678Y-112247209D01*
X147427038Y-112223061D01*
X147486299Y-112208222D01*
X147553568Y-112203058D01*
X147635335Y-112210439D01*
G37*
G36*
X146640314Y-113189500D02*
G01*
X146640314Y-111979209D01*
X146349152Y-111979209D01*
X146349152Y-113189500D01*
X146640314Y-113189500D01*
G37*
G36*
X146811455Y-112477867D02*
G01*
X146811455Y-112223061D01*
X146161659Y-112223061D01*
X146161659Y-112477867D01*
X146811455Y-112477867D01*
G37*
G36*
X145980119Y-113189500D02*
G01*
X145980119Y-112223061D01*
X145688878Y-112223061D01*
X145688878Y-113189500D01*
X145980119Y-113189500D01*
G37*
G36*
X145834538Y-112031996D02*
G01*
X145887786Y-112027143D01*
X145929738Y-112013777D01*
X145962814Y-111992862D01*
X145988101Y-111963858D01*
X146003680Y-111927323D01*
X146009251Y-111880938D01*
X146003854Y-111839354D01*
X145988229Y-111804071D01*
X145961941Y-111773538D01*
X145928103Y-111750966D01*
X145886349Y-111736787D01*
X145834538Y-111731706D01*
X145781245Y-111736582D01*
X145739625Y-111749965D01*
X145707135Y-111770839D01*
X145682274Y-111799732D01*
X145667008Y-111835709D01*
X145661571Y-111880938D01*
X145666932Y-111923747D01*
X145682337Y-111959606D01*
X145708008Y-111990163D01*
X145741261Y-112012696D01*
X145782688Y-112026891D01*
X145834538Y-112031996D01*
G37*
G36*
X144992010Y-113207677D02*
G01*
X145083601Y-113200162D01*
X145166799Y-113178247D01*
X145243165Y-113142190D01*
X145312046Y-113093119D01*
X145370339Y-113033664D01*
X145418831Y-112962873D01*
X145454305Y-112884791D01*
X145475934Y-112799476D01*
X145483366Y-112705367D01*
X145475934Y-112611259D01*
X145454305Y-112525944D01*
X145418831Y-112447862D01*
X145370336Y-112377076D01*
X145312043Y-112317648D01*
X145243165Y-112268625D01*
X145166794Y-112232522D01*
X145083597Y-112210582D01*
X144992010Y-112203058D01*
X144906796Y-112208285D01*
X144827930Y-112223560D01*
X144754508Y-112248542D01*
X144685854Y-112283793D01*
X144628994Y-112326220D01*
X144582494Y-112375945D01*
X144740855Y-112565264D01*
X144800945Y-112510651D01*
X144837168Y-112487989D01*
X144877387Y-112470644D01*
X144919995Y-112459713D01*
X144964704Y-112456038D01*
X145030625Y-112464225D01*
X145086630Y-112487869D01*
X145133351Y-112525689D01*
X145168549Y-112576139D01*
X145190149Y-112635572D01*
X145197681Y-112705367D01*
X145190034Y-112771938D01*
X145167676Y-112830945D01*
X145131768Y-112881628D01*
X145084804Y-112920167D01*
X145028987Y-112944530D01*
X144964704Y-112952871D01*
X144918539Y-112949821D01*
X144877387Y-112941043D01*
X144838838Y-112926225D01*
X144803644Y-112905561D01*
X144771479Y-112879521D01*
X144740855Y-112847376D01*
X144584320Y-113038441D01*
X144629543Y-113085755D01*
X144686286Y-113127019D01*
X144756334Y-113162193D01*
X144830903Y-113187317D01*
X144909215Y-113202523D01*
X144992010Y-113207677D01*
G37*
G36*
X142916093Y-113189500D02*
G01*
X143043496Y-113058445D01*
X143152642Y-112956522D01*
X143420228Y-112672584D01*
X143540328Y-112533353D01*
X143585639Y-112470742D01*
X143617723Y-112416904D01*
X143642619Y-112363430D01*
X143658682Y-112315934D01*
X143668373Y-112269242D01*
X143671383Y-112228538D01*
X143665483Y-112164612D01*
X143648211Y-112106497D01*
X143619549Y-112052952D01*
X143581041Y-112005565D01*
X143533474Y-111965020D01*
X143475714Y-111931026D01*
X143412986Y-111906740D01*
X143342750Y-111891661D01*
X143263693Y-111886415D01*
X143173215Y-111894066D01*
X143090806Y-111916420D01*
X143015605Y-111952935D01*
X142952527Y-112001038D01*
X142902702Y-112060528D01*
X142870608Y-112128441D01*
X143099855Y-112264973D01*
X143134768Y-112198355D01*
X143167247Y-112163051D01*
X143206381Y-112142705D01*
X143252739Y-112135744D01*
X143290863Y-112139178D01*
X143320131Y-112148524D01*
X143344396Y-112164321D01*
X143362043Y-112185832D01*
X143372709Y-112212376D01*
X143376570Y-112246716D01*
X143370443Y-112282357D01*
X143348390Y-112331413D01*
X143317163Y-112381080D01*
X143276473Y-112435162D01*
X143187251Y-112537084D01*
X143105332Y-112619876D01*
X142970705Y-112767283D01*
X142845128Y-112881906D01*
X142555712Y-113189500D01*
X142916093Y-113189500D01*
G37*
G36*
X143376570Y-113207677D02*
G01*
X143471158Y-113201331D01*
X143556533Y-113182960D01*
X143634075Y-113153144D01*
X143705745Y-113111529D01*
X143765373Y-113061894D01*
X143814265Y-113003912D01*
X143851244Y-112938205D01*
X143873256Y-112868307D01*
X143880705Y-112792764D01*
X143872024Y-112706679D01*
X143846409Y-112627487D01*
X143803390Y-112553436D01*
X143745654Y-112489997D01*
X143670558Y-112436284D01*
X143574938Y-112392376D01*
X143392922Y-112568915D01*
X143459001Y-112588138D01*
X143508908Y-112612656D01*
X143545806Y-112641706D01*
X143573927Y-112678377D01*
X143590876Y-112720872D01*
X143596767Y-112770934D01*
X143589237Y-112829603D01*
X143567635Y-112878334D01*
X143532390Y-112918027D01*
X143482144Y-112948426D01*
X143422311Y-112966439D01*
X143347438Y-112972954D01*
X143276775Y-112965370D01*
X143211858Y-112942949D01*
X143152688Y-112907049D01*
X143099061Y-112858251D01*
X143054234Y-112799185D01*
X143018015Y-112728149D01*
X142992412Y-112649689D01*
X142976103Y-112559786D01*
X142704945Y-112559786D01*
X142727558Y-112673178D01*
X142761383Y-112775459D01*
X142806998Y-112870494D01*
X142862353Y-112954697D01*
X142928169Y-113029157D01*
X143002536Y-113091228D01*
X143085198Y-113140993D01*
X143175423Y-113177672D01*
X143271513Y-113200015D01*
X143376570Y-113207677D01*
G37*
G36*
X141817488Y-113189500D02*
G01*
X141508149Y-113189500D01*
X141508149Y-112763632D01*
X141267869Y-112763632D01*
X141189390Y-112757132D01*
X141118579Y-112738228D01*
X141054022Y-112707193D01*
X140995856Y-112665095D01*
X140946313Y-112614118D01*
X140904789Y-112553436D01*
X140874307Y-112486558D01*
X140855702Y-112413297D01*
X140849736Y-112337764D01*
X141165946Y-112337764D01*
X141171128Y-112381167D01*
X141186029Y-112417857D01*
X141209348Y-112448900D01*
X141238816Y-112472470D01*
X141273154Y-112487419D01*
X141311527Y-112492473D01*
X141513546Y-112492473D01*
X141513546Y-112188531D01*
X141311527Y-112188531D01*
X141273046Y-112193151D01*
X141238816Y-112206709D01*
X141209306Y-112228462D01*
X141186029Y-112257670D01*
X141171234Y-112293036D01*
X141165946Y-112337764D01*
X140849736Y-112337764D01*
X140849303Y-112332286D01*
X140855655Y-112254964D01*
X140874208Y-112184427D01*
X140904789Y-112119392D01*
X140946225Y-112060482D01*
X140995749Y-112010965D01*
X141054022Y-111970080D01*
X141118474Y-111940087D01*
X141189296Y-111921773D01*
X141267869Y-111915468D01*
X141817488Y-111915468D01*
X141817488Y-113189500D01*
G37*
G36*
X140034717Y-113207677D02*
G01*
X140129661Y-113202135D01*
X140217644Y-113185944D01*
X140299604Y-113159494D01*
X140377272Y-113122569D01*
X140447094Y-113077136D01*
X140509800Y-113022963D01*
X140564456Y-112960784D01*
X140610174Y-112891291D01*
X140647205Y-112813720D01*
X140673608Y-112731744D01*
X140689822Y-112643174D01*
X140695388Y-112547006D01*
X140689552Y-112453450D01*
X140672460Y-112366428D01*
X140644426Y-112284977D01*
X140605811Y-112207947D01*
X140558876Y-112138722D01*
X140503370Y-112076607D01*
X140440096Y-112022425D01*
X140369386Y-111976684D01*
X140290476Y-111939202D01*
X140207269Y-111912172D01*
X140118097Y-111895641D01*
X140022016Y-111889987D01*
X139931835Y-111895929D01*
X139843652Y-111913721D01*
X139759024Y-111943162D01*
X139680766Y-111983813D01*
X139610001Y-112034865D01*
X139550585Y-112093832D01*
X139739904Y-112310457D01*
X139779519Y-112272646D01*
X139820870Y-112240366D01*
X139865565Y-112213840D01*
X139914617Y-112194008D01*
X139966841Y-112181770D01*
X140023842Y-112177577D01*
X140094937Y-112184252D01*
X140161247Y-112204010D01*
X140221925Y-112235941D01*
X140274124Y-112278626D01*
X140316680Y-112331436D01*
X140349613Y-112396028D01*
X140369854Y-112467915D01*
X140376919Y-112550658D01*
X140369871Y-112631755D01*
X140349613Y-112702669D01*
X140316586Y-112766555D01*
X140273171Y-112820070D01*
X140219312Y-112862969D01*
X140153944Y-112894686D01*
X140081319Y-112913579D01*
X139998361Y-112920167D01*
X139941112Y-112916026D01*
X139887310Y-112903815D01*
X139836306Y-112884317D01*
X139789992Y-112859204D01*
X139747639Y-112828723D01*
X139710772Y-112794589D01*
X139561539Y-113031139D01*
X139612810Y-113078070D01*
X139682592Y-113122186D01*
X139761125Y-113157487D01*
X139850002Y-113184975D01*
X139942364Y-113202029D01*
X140034717Y-113207677D01*
G37*
G36*
X139351026Y-113189500D02*
G01*
X138770449Y-113189500D01*
X138672949Y-113183360D01*
X138587560Y-113165845D01*
X138509243Y-113135434D01*
X138442931Y-113093054D01*
X138388298Y-113038223D01*
X138348232Y-112972001D01*
X138324061Y-112896061D01*
X138315449Y-112803639D01*
X138317056Y-112789112D01*
X138619391Y-112789112D01*
X138624652Y-112832118D01*
X138639474Y-112866507D01*
X138663214Y-112894353D01*
X138694959Y-112914690D01*
X138732842Y-112926670D01*
X138781403Y-112931042D01*
X139059864Y-112931042D01*
X139059864Y-112658058D01*
X138790532Y-112658058D01*
X138739954Y-112662177D01*
X138699563Y-112673536D01*
X138665112Y-112692820D01*
X138640347Y-112718147D01*
X138624840Y-112749711D01*
X138619391Y-112789112D01*
X138317056Y-112789112D01*
X138324339Y-112723255D01*
X138350058Y-112653533D01*
X138391508Y-112592567D01*
X138447456Y-112541609D01*
X138514831Y-112503362D01*
X138542662Y-112494591D01*
X138527940Y-112489264D01*
X138476797Y-112455959D01*
X138436502Y-112412380D01*
X138407302Y-112360252D01*
X138389201Y-112299639D01*
X138389189Y-112299503D01*
X138683132Y-112299503D01*
X138687671Y-112337440D01*
X138700437Y-112367769D01*
X138721418Y-112392453D01*
X138751398Y-112411427D01*
X138787207Y-112422791D01*
X138832364Y-112426906D01*
X139059864Y-112426906D01*
X139059864Y-112173926D01*
X138843239Y-112173926D01*
X138790830Y-112178295D01*
X138751869Y-112189987D01*
X138723218Y-112207662D01*
X138701150Y-112232509D01*
X138687818Y-112262582D01*
X138683132Y-112299503D01*
X138389189Y-112299503D01*
X138382841Y-112228538D01*
X138388308Y-112164421D01*
X138403957Y-112108820D01*
X138429278Y-112060176D01*
X138464206Y-112018006D01*
X138509442Y-111982252D01*
X138566683Y-111952776D01*
X138628450Y-111932856D01*
X138701791Y-111920048D01*
X138788706Y-111915468D01*
X139351026Y-111915468D01*
X139351026Y-113189500D01*
G37*
D11*
X143050000Y-75199771D02*
X143050000Y-75628342D01*
X143050000Y-75628342D02*
X143078571Y-75714057D01*
X143078571Y-75714057D02*
X143135714Y-75771200D01*
X143135714Y-75771200D02*
X143221428Y-75799771D01*
X143221428Y-75799771D02*
X143278571Y-75799771D01*
X142507143Y-75399771D02*
X142507143Y-75799771D01*
X142650000Y-75171200D02*
X142792857Y-75599771D01*
X142792857Y-75599771D02*
X142421428Y-75599771D01*
X135876379Y-69412987D02*
X135876379Y-69841558D01*
X135876379Y-69841558D02*
X135904950Y-69927273D01*
X135904950Y-69927273D02*
X135962093Y-69984416D01*
X135962093Y-69984416D02*
X136047807Y-70012987D01*
X136047807Y-70012987D02*
X136104950Y-70012987D01*
X135276379Y-70012987D02*
X135619236Y-70012987D01*
X135447807Y-70012987D02*
X135447807Y-69412987D01*
X135447807Y-69412987D02*
X135504950Y-69498701D01*
X135504950Y-69498701D02*
X135562093Y-69555844D01*
X135562093Y-69555844D02*
X135619236Y-69584416D01*
D15*
X80250000Y-58700000D02*
G75*
G02*
X78850000Y-58700000I-700000J0D01*
G01*
X78850000Y-58700000D02*
G75*
G02*
X80250000Y-58700000I700000J0D01*
G01*
X141520000Y-76970000D02*
X141520000Y-78300000D01*
X141520000Y-79570001D02*
X141520000Y-92330000D01*
X142850000Y-76970000D02*
X141520000Y-76970000D01*
X144180000Y-79570001D02*
X141520000Y-79570001D01*
X144180000Y-79570001D02*
X144180000Y-92330000D01*
X144180000Y-92330000D02*
X141520000Y-92330000D01*
D16*
G36*
X79575037Y-93334921D02*
G01*
X79600594Y-93338465D01*
X79629148Y-93350325D01*
X79645032Y-93380074D01*
X79653064Y-93439678D01*
X79658062Y-93541102D01*
X79659309Y-93625231D01*
X79651864Y-93724286D01*
X79633629Y-93777690D01*
X79610355Y-93796863D01*
X79558407Y-93808532D01*
X79558172Y-93808485D01*
X79536672Y-93794170D01*
X79522431Y-93754961D01*
X79513460Y-93681225D01*
X79507770Y-93563327D01*
X79499968Y-93326303D01*
X79575037Y-93334921D01*
G37*
G36*
X80061761Y-93335153D02*
G01*
X80076343Y-93337012D01*
X80109241Y-93347082D01*
X80127659Y-93373360D01*
X80136927Y-93428374D01*
X80142372Y-93524653D01*
X80142532Y-93617951D01*
X80134792Y-93706417D01*
X80120581Y-93761329D01*
X80105678Y-93783871D01*
X80074254Y-93803947D01*
X80018684Y-93811111D01*
X79924289Y-93808922D01*
X79851642Y-93804406D01*
X79791451Y-93794845D01*
X79764158Y-93777243D01*
X79757733Y-93747140D01*
X79762349Y-93720639D01*
X79793510Y-93694740D01*
X79865360Y-93679873D01*
X79972987Y-93666420D01*
X79981041Y-93496593D01*
X79982539Y-93465744D01*
X79988442Y-93386695D01*
X79999706Y-93346394D01*
X80022192Y-93333121D01*
X80061761Y-93335153D01*
G37*
G36*
X82302891Y-93331041D02*
G01*
X82384746Y-93381013D01*
X82440111Y-93456111D01*
X82462580Y-93546695D01*
X82445748Y-93643123D01*
X82383214Y-93735757D01*
X82303821Y-93795050D01*
X82213393Y-93814407D01*
X82166393Y-93808528D01*
X82088060Y-93775797D01*
X82028261Y-93724969D01*
X82004450Y-93668250D01*
X82006093Y-93654426D01*
X82035939Y-93620238D01*
X82088523Y-93615817D01*
X82144450Y-93644460D01*
X82161638Y-93657657D01*
X82220499Y-93671006D01*
X82269007Y-93638794D01*
X82295057Y-93567229D01*
X82295675Y-93537017D01*
X82272413Y-93475728D01*
X82224086Y-93446226D01*
X82164070Y-93459511D01*
X82127835Y-93478090D01*
X82061879Y-93490019D01*
X82019403Y-93467047D01*
X82012630Y-93423402D01*
X82046082Y-93372331D01*
X82115559Y-93332903D01*
X82200951Y-93315831D01*
X82302891Y-93331041D01*
G37*
G36*
X78106412Y-93330404D02*
G01*
X78191181Y-93333366D01*
X78238816Y-93341401D01*
X78259747Y-93356866D01*
X78264407Y-93382111D01*
X78248651Y-93422508D01*
X78190413Y-93442652D01*
X78154174Y-93449152D01*
X78127884Y-93468677D01*
X78115240Y-93514011D01*
X78108956Y-93599153D01*
X78105176Y-93658564D01*
X78097558Y-93736380D01*
X78089620Y-93780774D01*
X78089398Y-93781393D01*
X78057059Y-93811807D01*
X78010298Y-93804431D01*
X77969379Y-93762362D01*
X77960808Y-93739796D01*
X77946982Y-93665760D01*
X77941525Y-93575886D01*
X77941208Y-93539823D01*
X77935362Y-93475242D01*
X77917413Y-93444413D01*
X77881260Y-93432857D01*
X77842727Y-93417842D01*
X77812020Y-93377172D01*
X77810760Y-93364749D01*
X77820211Y-93346452D01*
X77853971Y-93335968D01*
X77921867Y-93331208D01*
X78033726Y-93330085D01*
X78106412Y-93330404D01*
G37*
G36*
X80632203Y-93554308D02*
G01*
X80631979Y-93589924D01*
X80628757Y-93689509D01*
X80622511Y-93762971D01*
X80614266Y-93796469D01*
X80578291Y-93814892D01*
X80528029Y-93801639D01*
X80487448Y-93755739D01*
X80470762Y-93687945D01*
X80470649Y-93681040D01*
X80455145Y-93637611D01*
X80403496Y-93626060D01*
X80378072Y-93623134D01*
X80308005Y-93590938D01*
X80251695Y-93536440D01*
X80229281Y-93478072D01*
X80412913Y-93478072D01*
X80414039Y-93485497D01*
X80441838Y-93513275D01*
X80457110Y-93511560D01*
X80470763Y-93478072D01*
X80466373Y-93455858D01*
X80441838Y-93442869D01*
X80433861Y-93446523D01*
X80412913Y-93478072D01*
X80229281Y-93478072D01*
X80228602Y-93476303D01*
X80236935Y-93411486D01*
X80272334Y-93362723D01*
X80343328Y-93337360D01*
X80458256Y-93330085D01*
X80632203Y-93330085D01*
X80632203Y-93478072D01*
X80632203Y-93554308D01*
G37*
G36*
X81906959Y-93584782D02*
G01*
X81877687Y-93683403D01*
X81807993Y-93766722D01*
X81779180Y-93785606D01*
X81679269Y-93813368D01*
X81573235Y-93799548D01*
X81480439Y-93745407D01*
X81461657Y-93727405D01*
X81426455Y-93681511D01*
X81414446Y-93627384D01*
X81418001Y-93558793D01*
X81587394Y-93558793D01*
X81590626Y-93621269D01*
X81607518Y-93660311D01*
X81646114Y-93674779D01*
X81681604Y-93672791D01*
X81730411Y-93637511D01*
X81751899Y-93574627D01*
X81737889Y-93499738D01*
X81704749Y-93454189D01*
X81647674Y-93442602D01*
X81612013Y-93453806D01*
X81592174Y-93487557D01*
X81587394Y-93558793D01*
X81418001Y-93558793D01*
X81418837Y-93542668D01*
X81428740Y-93485887D01*
X81477378Y-93386759D01*
X81556751Y-93327789D01*
X81659467Y-93313014D01*
X81778129Y-93346475D01*
X81848291Y-93398669D01*
X81896823Y-93485118D01*
X81905926Y-93574627D01*
X81906959Y-93584782D01*
G37*
G36*
X78802542Y-93554307D02*
G01*
X78802308Y-93589787D01*
X78798922Y-93689605D01*
X78792351Y-93763447D01*
X78783674Y-93797399D01*
X78776768Y-93803490D01*
X78732533Y-93812284D01*
X78693797Y-93779056D01*
X78673030Y-93713286D01*
X78672367Y-93706927D01*
X78660993Y-93649605D01*
X78646124Y-93626060D01*
X78637850Y-93629898D01*
X78601600Y-93663425D01*
X78552508Y-93720234D01*
X78504369Y-93771329D01*
X78440011Y-93809437D01*
X78388692Y-93803746D01*
X78357656Y-93753037D01*
X78351570Y-93706231D01*
X78348445Y-93618905D01*
X78350417Y-93517602D01*
X78351428Y-93496539D01*
X78357494Y-93411365D01*
X78368407Y-93365579D01*
X78389435Y-93347022D01*
X78425847Y-93343538D01*
X78460364Y-93347100D01*
X78491043Y-93373165D01*
X78507183Y-93437712D01*
X78521251Y-93531886D01*
X78587903Y-93431319D01*
X78612381Y-93396965D01*
X78667510Y-93345427D01*
X78728549Y-93330418D01*
X78802542Y-93330085D01*
X78802542Y-93554307D01*
G37*
G36*
X79337794Y-93589637D02*
G01*
X79364407Y-93680250D01*
X79380405Y-93751204D01*
X79381142Y-93787332D01*
X79360072Y-93807554D01*
X79305422Y-93806972D01*
X79233051Y-93760594D01*
X79180745Y-93723126D01*
X79138930Y-93706780D01*
X79105583Y-93720243D01*
X79058157Y-93760595D01*
X79014053Y-93795409D01*
X78956759Y-93814407D01*
X78939834Y-93813359D01*
X78914796Y-93794478D01*
X78917437Y-93740412D01*
X78928012Y-93696054D01*
X78955473Y-93607072D01*
X78972585Y-93558793D01*
X79125424Y-93558793D01*
X79128460Y-93577360D01*
X79152330Y-93599153D01*
X79164708Y-93594598D01*
X79179237Y-93558793D01*
X79176202Y-93540225D01*
X79152330Y-93518432D01*
X79139953Y-93522986D01*
X79125424Y-93558793D01*
X78972585Y-93558793D01*
X78990462Y-93508353D01*
X79025577Y-93420401D01*
X79053419Y-93363719D01*
X79083123Y-93340713D01*
X79146495Y-93330341D01*
X79212548Y-93343064D01*
X79255565Y-93377172D01*
X79271298Y-93410118D01*
X79305209Y-93494537D01*
X79327226Y-93558793D01*
X79337794Y-93589637D01*
G37*
G36*
X81304873Y-93552684D02*
G01*
X81304622Y-93589616D01*
X81301214Y-93689593D01*
X81294653Y-93763472D01*
X81286005Y-93797399D01*
X81279098Y-93803491D01*
X81234863Y-93812284D01*
X81196127Y-93779056D01*
X81175361Y-93713286D01*
X81165608Y-93663428D01*
X81145096Y-93629441D01*
X81125357Y-93636974D01*
X81116525Y-93690032D01*
X81114595Y-93715460D01*
X81089475Y-93775453D01*
X81045440Y-93802942D01*
X80995446Y-93787500D01*
X80974562Y-93763062D01*
X80955085Y-93705073D01*
X80951275Y-93677698D01*
X80928178Y-93639513D01*
X80910196Y-93644734D01*
X80901271Y-93688444D01*
X80900024Y-93706379D01*
X80877575Y-93765666D01*
X80837779Y-93802464D01*
X80794823Y-93801682D01*
X80790805Y-93797056D01*
X80778377Y-93750314D01*
X80769883Y-93665691D01*
X80766737Y-93555580D01*
X80766738Y-93326837D01*
X80866784Y-93335189D01*
X80926289Y-93344188D01*
X80967249Y-93371339D01*
X80991757Y-93430985D01*
X80994216Y-93439335D01*
X81015830Y-93495465D01*
X81034133Y-93518433D01*
X81035949Y-93518020D01*
X81055424Y-93489850D01*
X81077328Y-93430985D01*
X81097316Y-93379234D01*
X81134103Y-93347462D01*
X81203972Y-93335189D01*
X81304873Y-93326837D01*
X81304873Y-93552684D01*
G37*
G36*
X81667580Y-92307627D02*
G01*
X81666372Y-92392577D01*
X81657309Y-92483120D01*
X81635464Y-92555477D01*
X81596227Y-92630509D01*
X81591716Y-92638021D01*
X81472638Y-92788126D01*
X81324005Y-92893507D01*
X81143432Y-92955879D01*
X81087575Y-92964768D01*
X80916776Y-92962518D01*
X80746365Y-92922285D01*
X80592419Y-92849044D01*
X80471021Y-92747773D01*
X80387814Y-92632925D01*
X80328079Y-92481457D01*
X80309700Y-92307627D01*
X80740032Y-92307627D01*
X80741509Y-92332373D01*
X80761136Y-92413898D01*
X80796728Y-92493065D01*
X80839508Y-92553058D01*
X80880696Y-92577063D01*
X80906974Y-92579032D01*
X80968538Y-92589021D01*
X81046170Y-92587658D01*
X81134741Y-92549276D01*
X81197442Y-92482155D01*
X81199510Y-92478168D01*
X81225470Y-92389089D01*
X81230058Y-92283900D01*
X81214361Y-92184862D01*
X81179467Y-92114238D01*
X81179370Y-92114131D01*
X81087958Y-92044907D01*
X80990116Y-92022303D01*
X80896123Y-92041798D01*
X80816258Y-92098865D01*
X80760801Y-92188983D01*
X80740032Y-92307627D01*
X80309700Y-92307627D01*
X80309322Y-92304048D01*
X80309994Y-92272712D01*
X80343085Y-92089435D01*
X80423040Y-91928610D01*
X80545773Y-91796448D01*
X80707199Y-91699163D01*
X80740507Y-91686603D01*
X80877088Y-91659278D01*
X81031828Y-91655527D01*
X81182255Y-91674714D01*
X81305894Y-91716199D01*
X81325430Y-91726421D01*
X81479067Y-91832139D01*
X81585367Y-91961078D01*
X81647237Y-92117991D01*
X81665035Y-92283900D01*
X81667580Y-92307627D01*
G37*
G36*
X78649344Y-91129392D02*
G01*
X78869809Y-91137183D01*
X78883263Y-91473517D01*
X78896716Y-91809852D01*
X79206144Y-91809852D01*
X79515572Y-91809852D01*
X79529025Y-91473517D01*
X79542479Y-91137182D01*
X79768882Y-91129295D01*
X79803840Y-91128247D01*
X79917309Y-91128832D01*
X79986157Y-91137899D01*
X80017357Y-91156203D01*
X80020366Y-91164581D01*
X80027536Y-91220628D01*
X80033165Y-91318848D01*
X80037298Y-91451241D01*
X80039986Y-91609810D01*
X80041276Y-91786559D01*
X80041215Y-91973487D01*
X80039852Y-92162597D01*
X80037233Y-92345890D01*
X80033406Y-92515369D01*
X80028421Y-92663036D01*
X80022322Y-92780892D01*
X80015160Y-92860940D01*
X80006981Y-92895181D01*
X79978660Y-92909422D01*
X79894187Y-92920830D01*
X79758093Y-92920742D01*
X79542479Y-92913030D01*
X79529025Y-92563242D01*
X79515572Y-92213454D01*
X79206144Y-92213454D01*
X78896716Y-92213453D01*
X78883263Y-92563242D01*
X78869809Y-92913030D01*
X78658731Y-92920934D01*
X78575171Y-92922397D01*
X78464905Y-92915079D01*
X78406833Y-92894961D01*
X78405291Y-92893605D01*
X78393969Y-92876509D01*
X78385211Y-92845066D01*
X78378806Y-92793641D01*
X78374541Y-92716597D01*
X78372204Y-92608298D01*
X78371582Y-92463104D01*
X78372465Y-92275383D01*
X78374638Y-92039493D01*
X78375580Y-91959751D01*
X78378921Y-91758068D01*
X78383297Y-91575007D01*
X78388455Y-91417607D01*
X78394139Y-91292906D01*
X78400096Y-91207941D01*
X78406072Y-91169752D01*
X78408742Y-91164512D01*
X78429314Y-91142626D01*
X78468483Y-91130772D01*
X78537931Y-91127006D01*
X78649344Y-91129392D01*
G37*
G36*
X77468698Y-91086124D02*
G01*
X77645822Y-91114019D01*
X77799830Y-91182931D01*
X77924747Y-91286539D01*
X78014602Y-91418519D01*
X78063419Y-91572549D01*
X78065225Y-91742307D01*
X78049990Y-91816306D01*
X77996375Y-91931562D01*
X77904836Y-92026555D01*
X77770197Y-92105965D01*
X77587281Y-92174473D01*
X77458855Y-92222119D01*
X77352633Y-92285551D01*
X77299779Y-92355435D01*
X77300316Y-92431736D01*
X77354266Y-92514421D01*
X77400936Y-92551042D01*
X77498799Y-92578601D01*
X77612761Y-92564541D01*
X77733815Y-92510594D01*
X77852953Y-92418494D01*
X77853108Y-92418346D01*
X77899434Y-92378152D01*
X77927534Y-92361441D01*
X77928893Y-92361865D01*
X77953023Y-92388160D01*
X77996225Y-92447208D01*
X78050157Y-92527699D01*
X78157616Y-92693959D01*
X78086594Y-92768091D01*
X78014166Y-92824066D01*
X77906908Y-92882309D01*
X77786319Y-92931848D01*
X77672458Y-92963230D01*
X77665291Y-92964463D01*
X77551288Y-92969752D01*
X77414389Y-92957685D01*
X77279336Y-92931632D01*
X77170869Y-92894959D01*
X77030305Y-92805134D01*
X76923847Y-92678653D01*
X76859942Y-92519309D01*
X76838497Y-92326943D01*
X76838762Y-92302572D01*
X76855613Y-92165152D01*
X76902889Y-92054842D01*
X76986436Y-91965016D01*
X77112101Y-91889055D01*
X77285730Y-91820336D01*
X77388857Y-91782293D01*
X77514803Y-91721605D01*
X77592255Y-91661976D01*
X77618644Y-91605070D01*
X77604245Y-91574423D01*
X77564830Y-91527331D01*
X77529489Y-91501338D01*
X77435471Y-91475676D01*
X77321426Y-91484340D01*
X77201589Y-91527331D01*
X77199224Y-91528536D01*
X77120345Y-91566188D01*
X77074249Y-91576285D01*
X77046908Y-91557262D01*
X77024291Y-91507555D01*
X77023905Y-91506543D01*
X76991812Y-91428713D01*
X76954089Y-91344987D01*
X76951000Y-91338455D01*
X76927568Y-91280638D01*
X76930952Y-91247660D01*
X76962554Y-91218594D01*
X76986064Y-91203455D01*
X77081754Y-91160704D01*
X77203711Y-91123114D01*
X77331565Y-91096290D01*
X77444951Y-91085837D01*
X77468698Y-91086124D01*
G37*
G36*
X83160454Y-91847374D02*
G01*
X83161073Y-92053358D01*
X83160899Y-92221741D01*
X83159574Y-92436154D01*
X83156821Y-92603933D01*
X83152468Y-92729403D01*
X83146351Y-92816889D01*
X83138297Y-92870717D01*
X83128136Y-92895212D01*
X83105542Y-92907745D01*
X83024690Y-92920516D01*
X82892701Y-92920773D01*
X82690572Y-92913030D01*
X82682964Y-92610329D01*
X82678837Y-92501450D01*
X82671922Y-92400930D01*
X82663537Y-92332743D01*
X82654684Y-92307627D01*
X82647730Y-92312267D01*
X82616919Y-92351957D01*
X82570693Y-92423473D01*
X82516132Y-92516155D01*
X82499875Y-92544774D01*
X82436357Y-92654397D01*
X82376814Y-92754208D01*
X82332309Y-92825583D01*
X82266365Y-92926483D01*
X82014327Y-92926483D01*
X81974082Y-92926379D01*
X81867585Y-92924006D01*
X81802936Y-92917364D01*
X81770913Y-92904940D01*
X81762288Y-92885225D01*
X81762398Y-92883652D01*
X81779093Y-92843243D01*
X81820118Y-92769432D01*
X81879635Y-92672193D01*
X81951804Y-92561501D01*
X81957543Y-92552938D01*
X82030451Y-92442792D01*
X82092156Y-92347151D01*
X82136304Y-92276010D01*
X82156540Y-92239369D01*
X82156836Y-92238573D01*
X82145320Y-92199768D01*
X82081378Y-92161843D01*
X81974828Y-92101930D01*
X81884808Y-92003855D01*
X81832818Y-91872443D01*
X81816572Y-91707688D01*
X82304677Y-91707688D01*
X82306624Y-91804954D01*
X82338619Y-91884858D01*
X82340083Y-91886720D01*
X82392522Y-91927370D01*
X82465393Y-91958851D01*
X82513367Y-91971392D01*
X82607377Y-91983676D01*
X82659181Y-91966808D01*
X82665969Y-91951129D01*
X82673875Y-91891681D01*
X82677028Y-91805315D01*
X82675786Y-91708161D01*
X82670502Y-91616348D01*
X82661530Y-91546008D01*
X82649223Y-91513267D01*
X82638207Y-91508366D01*
X82574216Y-91504917D01*
X82490848Y-91520867D01*
X82409826Y-91550678D01*
X82352866Y-91588815D01*
X82331525Y-91619112D01*
X82304677Y-91707688D01*
X81816572Y-91707688D01*
X81816102Y-91702922D01*
X81820594Y-91613183D01*
X81860423Y-91446054D01*
X81941241Y-91313656D01*
X82062810Y-91216311D01*
X82224892Y-91154338D01*
X82238984Y-91151366D01*
X82323925Y-91140528D01*
X82445060Y-91131752D01*
X82588338Y-91125874D01*
X82739709Y-91123729D01*
X82811957Y-91123764D01*
X82942907Y-91124552D01*
X83032282Y-91127359D01*
X83088603Y-91133459D01*
X83120395Y-91144128D01*
X83136181Y-91160640D01*
X83144482Y-91184269D01*
X83145810Y-91191918D01*
X83149817Y-91248936D01*
X83153424Y-91350233D01*
X83156491Y-91488568D01*
X83158881Y-91656695D01*
X83160107Y-91805315D01*
X83160454Y-91847374D01*
G37*
G36*
X89092202Y-92119280D02*
G01*
X89091091Y-92284009D01*
X89088495Y-92415554D01*
X89083029Y-92516186D01*
X89073262Y-92597635D01*
X89057765Y-92671631D01*
X89035110Y-92749904D01*
X89003866Y-92844185D01*
X88962848Y-92959112D01*
X88812913Y-93299101D01*
X88632925Y-93598017D01*
X88419811Y-93860458D01*
X88170497Y-94091022D01*
X88018082Y-94206869D01*
X87738188Y-94382103D01*
X87443099Y-94516864D01*
X87116737Y-94619209D01*
X87052700Y-94634017D01*
X86804659Y-94668758D01*
X86530064Y-94677789D01*
X86244632Y-94661797D01*
X85964082Y-94621467D01*
X85704131Y-94557488D01*
X85403727Y-94439032D01*
X85108030Y-94270377D01*
X84832754Y-94060538D01*
X84584056Y-93815603D01*
X84368092Y-93541657D01*
X84191017Y-93244785D01*
X84058987Y-92931075D01*
X83999083Y-92727286D01*
X83932918Y-92360520D01*
X83923339Y-92108550D01*
X84292569Y-92108550D01*
X84322520Y-92443856D01*
X84404376Y-92775656D01*
X84538345Y-93099564D01*
X84599313Y-93214626D01*
X84692180Y-93362723D01*
X84800429Y-93500579D01*
X84938723Y-93648294D01*
X84979724Y-93688782D01*
X85211599Y-93887121D01*
X85457996Y-94044236D01*
X85730441Y-94166533D01*
X86040466Y-94260417D01*
X86139481Y-94276746D01*
X86280461Y-94288121D01*
X86444283Y-94293616D01*
X86615676Y-94293272D01*
X86779367Y-94287135D01*
X86920087Y-94275244D01*
X87022564Y-94257646D01*
X87102892Y-94235454D01*
X87430368Y-94115720D01*
X87723260Y-93956732D01*
X87986173Y-93755625D01*
X88223708Y-93509531D01*
X88407216Y-93256128D01*
X88561282Y-92959317D01*
X88668267Y-92644583D01*
X88727134Y-92317881D01*
X88736842Y-91985168D01*
X88696354Y-91652399D01*
X88604630Y-91325530D01*
X88563812Y-91222632D01*
X88412427Y-90932246D01*
X88219077Y-90664910D01*
X87990282Y-90427716D01*
X87732558Y-90227755D01*
X87452425Y-90072116D01*
X87386889Y-90043207D01*
X87176903Y-89964289D01*
X86973983Y-89913215D01*
X86758628Y-89885975D01*
X86511335Y-89878557D01*
X86329791Y-89882147D01*
X86179139Y-89893491D01*
X86042953Y-89915827D01*
X85901495Y-89952408D01*
X85735031Y-90006485D01*
X85688885Y-90023519D01*
X85543150Y-90088542D01*
X85393159Y-90168972D01*
X85257457Y-90254340D01*
X85154589Y-90334176D01*
X85089368Y-90393961D01*
X85494775Y-90819385D01*
X85623497Y-90953828D01*
X85835708Y-91172426D01*
X86027964Y-91366491D01*
X86197587Y-91533448D01*
X86341900Y-91670721D01*
X86458225Y-91775737D01*
X86543886Y-91845921D01*
X86596206Y-91878697D01*
X86643407Y-91893015D01*
X86707523Y-91898588D01*
X86779842Y-91886305D01*
X86867404Y-91853373D01*
X86977247Y-91797001D01*
X87116411Y-91714396D01*
X87291937Y-91602767D01*
X87458700Y-91495084D01*
X87613304Y-91397212D01*
X87734223Y-91324605D01*
X87827430Y-91274882D01*
X87898902Y-91245664D01*
X87954614Y-91234575D01*
X88000542Y-91239234D01*
X88042660Y-91257263D01*
X88086944Y-91286282D01*
X88118960Y-91313653D01*
X88173746Y-91402263D01*
X88185595Y-91503484D01*
X88151117Y-91600711D01*
X88150802Y-91601189D01*
X88118770Y-91643655D01*
X88057344Y-91719944D01*
X87972191Y-91823300D01*
X87868978Y-91946963D01*
X87753373Y-92084179D01*
X87631043Y-92228188D01*
X87507654Y-92372234D01*
X87388875Y-92509559D01*
X87360312Y-92542752D01*
X87296231Y-92618109D01*
X87215977Y-92713133D01*
X87130491Y-92814891D01*
X87119016Y-92828536D01*
X86994911Y-92966415D01*
X86887059Y-93063576D01*
X86786273Y-93125807D01*
X86683365Y-93158900D01*
X86569146Y-93168644D01*
X86542873Y-93168388D01*
X86425718Y-93156109D01*
X86330578Y-93118852D01*
X86232260Y-93047564D01*
X86231866Y-93047222D01*
X86203600Y-93013265D01*
X86148897Y-92939197D01*
X86070951Y-92829632D01*
X85972958Y-92689180D01*
X85858115Y-92522454D01*
X85729619Y-92334066D01*
X85590664Y-92128627D01*
X85444449Y-91910752D01*
X85433063Y-91893724D01*
X85289155Y-91679135D01*
X85154285Y-91479153D01*
X85031416Y-91298099D01*
X84923512Y-91140284D01*
X84833535Y-91010026D01*
X84764451Y-90911642D01*
X84719221Y-90849446D01*
X84700811Y-90827755D01*
X84678003Y-90843216D01*
X84643072Y-90888295D01*
X84512065Y-91125470D01*
X84387548Y-91444970D01*
X84314314Y-91774126D01*
X84292569Y-92108550D01*
X83923339Y-92108550D01*
X83919013Y-91994748D01*
X83956814Y-91633988D01*
X84045778Y-91282261D01*
X84185350Y-90943584D01*
X84374982Y-90621977D01*
X84402089Y-90580540D01*
X84438640Y-90515663D01*
X84452966Y-90476116D01*
X84446596Y-90457227D01*
X84415814Y-90399004D01*
X84365314Y-90314910D01*
X84301568Y-90216066D01*
X84202333Y-90053845D01*
X84139415Y-89917574D01*
X84117985Y-89814768D01*
X84137976Y-89745096D01*
X84199321Y-89708225D01*
X84244825Y-89700596D01*
X84315009Y-89707640D01*
X84391080Y-89742303D01*
X84482311Y-89809361D01*
X84597976Y-89913593D01*
X84656309Y-89968128D01*
X84732945Y-90036800D01*
X84789547Y-90083830D01*
X84816848Y-90101271D01*
X84843465Y-90088742D01*
X84901072Y-90051173D01*
X84975163Y-89997313D01*
X85018525Y-89965277D01*
X85279313Y-89804172D01*
X85577474Y-89670166D01*
X85918969Y-89560500D01*
X85932531Y-89556963D01*
X86095898Y-89526890D01*
X86291983Y-89508129D01*
X86503758Y-89500840D01*
X86714193Y-89505192D01*
X86906258Y-89521347D01*
X87062925Y-89549469D01*
X87152230Y-89572048D01*
X87244049Y-89594615D01*
X87305085Y-89608865D01*
X87372561Y-89629849D01*
X87481894Y-89674713D01*
X87611263Y-89735098D01*
X87746804Y-89804187D01*
X87874654Y-89875162D01*
X87980952Y-89941208D01*
X88110147Y-90036340D01*
X88334489Y-90239457D01*
X88542750Y-90474956D01*
X88726002Y-90731089D01*
X88875318Y-90996108D01*
X88981769Y-91258263D01*
X89009707Y-91347296D01*
X89042817Y-91463097D01*
X89065914Y-91566353D01*
X89080699Y-91670332D01*
X89088875Y-91788301D01*
X89092142Y-91933528D01*
X89092159Y-91985168D01*
X89092202Y-92119280D01*
G37*
D15*
X128026379Y-67243216D02*
X128026379Y-68573216D01*
X128026379Y-68573216D02*
X129356379Y-68573216D01*
X130626380Y-65913216D02*
X130626380Y-68573216D01*
X130626380Y-65913216D02*
X143386379Y-65913216D01*
X130626380Y-68573216D02*
X143386379Y-68573216D01*
X143386379Y-65913216D02*
X143386379Y-68573216D01*
X80250000Y-60950000D02*
G75*
G02*
X78850000Y-60950000I-700000J0D01*
G01*
X78850000Y-60950000D02*
G75*
G02*
X80250000Y-60950000I700000J0D01*
G01*
%LPC*%
D17*
X77550000Y-112179999D03*
D18*
X77550000Y-109639999D03*
X77550000Y-107100000D03*
X77550000Y-104559999D03*
X77550000Y-102019999D03*
D17*
X152850000Y-68440000D03*
D18*
X152850000Y-65900000D03*
X152849999Y-63359999D03*
D17*
X145300000Y-56950000D03*
D18*
X142760000Y-56950000D03*
X140220001Y-56950000D03*
X137680000Y-56950000D03*
X135140000Y-56950000D03*
X132600000Y-56950000D03*
X130060000Y-56950000D03*
X127519999Y-56950000D03*
X124980000Y-56950000D03*
D19*
X92700000Y-93150000D03*
D20*
X92700000Y-91149999D03*
D21*
X113800000Y-92150000D03*
D22*
X131900000Y-101150000D03*
X138400000Y-101150000D03*
X131900000Y-105650000D03*
X138400000Y-105650000D03*
D21*
X135150000Y-110350000D03*
D23*
X87650000Y-100900000D03*
D22*
X87650000Y-105900000D03*
X87650000Y-103400000D03*
D24*
X95150000Y-97800000D03*
X95150000Y-109000000D03*
D22*
X102150000Y-105900000D03*
X102150000Y-100900000D03*
D17*
X139250000Y-85940000D03*
D18*
X139250000Y-83400000D03*
X136710000Y-85940000D03*
X136710000Y-83400000D03*
X134170001Y-85940000D03*
X134170000Y-83400000D03*
X131630000Y-85940000D03*
X131630000Y-83400000D03*
X129090000Y-85940000D03*
X129090000Y-83400000D03*
X126550000Y-85940000D03*
X126550000Y-83400000D03*
X124010000Y-85940000D03*
X124010000Y-83400000D03*
X121469999Y-85940000D03*
X121470000Y-83400000D03*
X118930000Y-85940000D03*
X118930000Y-83400000D03*
X116390000Y-85940000D03*
X116390000Y-83400000D03*
X113850000Y-85940000D03*
X113850000Y-83400000D03*
X111310001Y-85940000D03*
X111310000Y-83400000D03*
X108770000Y-85940000D03*
X108770000Y-83400000D03*
X106230000Y-85940000D03*
X106230000Y-83400000D03*
X103690000Y-85940000D03*
X103690000Y-83400000D03*
X101150001Y-85940000D03*
X101150000Y-83400000D03*
X98609999Y-85940000D03*
X98610000Y-83400000D03*
X96070000Y-85940000D03*
X96070000Y-83400000D03*
X93530000Y-85940000D03*
X93530000Y-83400000D03*
X90990000Y-85940000D03*
X90990000Y-83400000D03*
D17*
X153000000Y-89729999D03*
D18*
X153000000Y-87189999D03*
X153000000Y-84650000D03*
X153000000Y-82109999D03*
X153000000Y-79569999D03*
D25*
X77150000Y-84650000D03*
X77150000Y-87650000D03*
D26*
X82470000Y-57185000D03*
X82470000Y-62965000D03*
D27*
X82970000Y-55750000D03*
D28*
X78790000Y-55750000D03*
D27*
X82970000Y-64400000D03*
D28*
X78790000Y-64400000D03*
D21*
X135150000Y-62150000D03*
D25*
X79550000Y-58700000D03*
D17*
X142850000Y-78300000D03*
D18*
X142850000Y-80840000D03*
X142850000Y-83379999D03*
X142850000Y-85920001D03*
X142850000Y-88460000D03*
X142850000Y-91000000D03*
D17*
X129356379Y-67243216D03*
D18*
X131896379Y-67243216D03*
X134436378Y-67243216D03*
X136976380Y-67243216D03*
X139516379Y-67243216D03*
X142056379Y-67243216D03*
D29*
X125606378Y-103993215D03*
X145806379Y-68493216D03*
X138650000Y-94150000D03*
X138650000Y-75149998D03*
D25*
X79550000Y-60950000D03*
D29*
X125606379Y-68493216D03*
X145806378Y-103993215D03*
%LPD*%
M02*
