M48
; DRILL file {KiCad 9.0.0} date 2025-04-29T13:35:47+0300
; FORMAT={-:-/ absolute / metric / decimal}
; #@! TF.CreationDate,2025-04-29T13:35:47+03:00
; #@! TF.GenerationSoftware,Kicad,Pcbnew,9.0.0
; #@! TF.FileFunction,Plated,1,2,PTH
FMAT,2
METRIC
; #@! TA.AperFunction,Plated,PTH,ComponentDrill
T1C0.200
; #@! TA.AperFunction,Plated,PTH,ViaDrill
T2C0.300
; #@! TA.AperFunction,Plated,PTH,ViaDrill
T3C0.500
; #@! TA.AperFunction,Plated,PTH,ComponentDrill
T4C0.600
; #@! TA.AperFunction,Plated,PTH,ComponentDrill
T5C0.750
; #@! TA.AperFunction,Plated,PTH,ComponentDrill
T6C0.800
; #@! TA.AperFunction,Plated,PTH,ComponentDrill
T7C1.000
; #@! TA.AperFunction,Plated,PTH,ComponentDrill
T8C1.100
; #@! TA.AperFunction,Plated,PTH,ComponentDrill
T9C1.200
; #@! TA.AperFunction,Plated,PTH,ComponentDrill
T10C1.500
; #@! TA.AperFunction,Plated,PTH,ComponentDrill
T11C3.200
%
G90
G05
T1
X114.1Y-102.3
X114.1Y-103.4
X114.1Y-104.5
X115.2Y-102.3
X115.2Y-103.4
X115.2Y-104.5
X116.3Y-102.3
X116.3Y-103.4
X116.3Y-104.5
T2
X79.5Y-85.85
X79.55Y-58.7
X79.55Y-60.95
X79.55Y-66.65
X79.55Y-72.65
X79.65Y-112.25
X79.75Y-111.1
X79.9Y-94.85
X80.2Y-83.9
X80.2Y-94.05
X81.85Y-59.95
X81.85Y-61.4
X85.05Y-75.15
X85.05Y-100.85
X85.75Y-75.85
X85.75Y-107.6
X86.652Y-76.552
X98.95Y-68.3
X99.05Y-71.8
X100.35Y-68.7
X100.35Y-71.7
X101.6Y-67.95
X101.6Y-71.7
X104.2Y-57.25
X105.15Y-60.15
X105.15Y-62.15
X107.95Y-60.9
X108.0Y-59.65
X108.95Y-74.9
X109.05Y-55.5
X109.25Y-61.1
X109.25Y-62.15
X109.25Y-63.15
X109.5Y-71.1
X109.55Y-75.4
X109.8Y-55.6
X109.9Y-70.5
X110.1Y-75.95
X110.3Y-61.1
X110.3Y-62.15
X110.3Y-63.15
X110.35Y-57.25
X110.65Y-70.45
X110.7Y-64.7
X111.3Y-61.1
X111.3Y-62.15
X111.3Y-63.15
X111.3Y-78.8
X112.15Y-56.2
X112.45Y-55.5
X112.9Y-63.15
X113.35Y-56.85
X114.1Y-57.15
X114.15Y-57.9
X114.15Y-68.55
X114.3Y-58.7
X115.0Y-68.25
X115.0Y-78.85
X115.15Y-59.05
X115.25Y-59.8
X115.35Y-60.5
X116.1Y-68.25
X116.9Y-70.95
X117.1Y-60.1
X117.65Y-67.75
X118.95Y-59.25
X118.95Y-66.2
X119.95Y-60.35
X120.05Y-102.6
X120.2Y-110.35
X127.4Y-66.55
X132.0Y-60.25
X132.8Y-79.2
X133.65Y-81.65
X134.45Y-80.1
X135.35Y-81.05
X136.3Y-79.25
X137.05Y-59.15
X143.3Y-105.6
X143.95Y-64.75
T3
X80.692Y-109.591
X81.0Y-75.65
X81.0Y-81.55
X81.0Y-100.75
X82.0Y-80.55
X82.0Y-94.95
X82.0Y-103.15
X82.05Y-105.8
X82.1Y-108.35
X83.25Y-98.45
X84.35Y-99.55
X84.85Y-57.65
X84.95Y-64.3
X85.2Y-55.75
X86.0Y-63.9
X86.175Y-65.875
X87.7Y-63.65
X96.3Y-78.4
X101.45Y-62.8
X108.85Y-98.7
X113.209Y-70.841
X113.55Y-106.4
X114.65Y-110.15
X115.65Y-98.6
X118.1Y-106.25
X118.35Y-103.95
X123.8Y-61.5
X127.2Y-92.8
X127.2Y-95.7
X132.6Y-80.6
X135.45Y-97.35
X147.05Y-87.2
X147.075Y-78.3
X147.075Y-82.05
X147.075Y-84.7
X147.1Y-93.45
X148.5Y-65.7
T5
X92.7Y-91.15
X92.7Y-93.15
T6
X169.86Y-95.63
X172.4Y-98.17
X174.94Y-95.63
X177.61Y-71.37
X180.15Y-68.83
X182.69Y-71.37
X184.81Y-95.93
X187.35Y-98.47
X189.89Y-95.93
T7
X77.55Y-102.02
X77.55Y-104.56
X77.55Y-107.1
X77.55Y-109.64
X77.55Y-112.18
X87.65Y-100.9
X87.65Y-103.4
X87.65Y-105.9
X90.99Y-83.4
X90.99Y-85.94
X93.53Y-83.4
X93.53Y-85.94
X96.07Y-83.4
X96.07Y-85.94
X98.61Y-85.94
X98.61Y-83.4
X101.15Y-83.4
X101.15Y-85.94
X102.15Y-100.9
X102.15Y-105.9
X103.69Y-83.4
X103.69Y-85.94
X106.23Y-83.4
X106.23Y-85.94
X108.77Y-83.4
X108.77Y-85.94
X111.31Y-83.4
X111.31Y-85.94
X113.85Y-83.4
X113.85Y-85.94
X116.39Y-83.4
X116.39Y-85.94
X118.93Y-83.4
X118.93Y-85.94
X121.47Y-85.94
X121.47Y-83.4
X124.01Y-83.4
X124.01Y-85.94
X124.98Y-56.95
X126.55Y-83.4
X126.55Y-85.94
X127.52Y-56.95
X129.09Y-83.4
X129.09Y-85.94
X129.356Y-67.243
X130.06Y-56.95
X131.63Y-83.4
X131.63Y-85.94
X131.896Y-67.243
X132.6Y-56.95
X134.17Y-83.4
X134.17Y-85.94
X134.436Y-67.243
X135.14Y-56.95
X136.71Y-83.4
X136.71Y-85.94
X136.976Y-67.243
X137.68Y-56.95
X139.25Y-83.4
X139.25Y-85.94
X139.516Y-67.243
X140.22Y-56.95
X142.056Y-67.243
X142.76Y-56.95
X142.85Y-78.3
X142.85Y-80.84
X142.85Y-83.38
X142.85Y-85.92
X142.85Y-88.46
X142.85Y-91.0
X145.3Y-56.95
X152.85Y-63.36
X152.85Y-65.9
X152.85Y-68.44
X153.0Y-79.57
X153.0Y-82.11
X153.0Y-84.65
X153.0Y-87.19
X153.0Y-89.73
X203.45Y-63.36
X203.45Y-65.9
X203.45Y-68.44
T8
X131.9Y-101.15
X131.9Y-105.65
X138.4Y-101.15
X138.4Y-105.65
T9
X165.15Y-98.2
X165.15Y-110.9
X172.3Y-59.05
X172.3Y-71.75
X173.9Y-102.9
X186.6Y-102.9
X192.8Y-59.35
X192.8Y-72.05
X194.6Y-98.45
X194.6Y-111.15
X198.45Y-79.0
X198.45Y-91.7
T11
X113.8Y-92.15
X135.15Y-62.15
X135.15Y-110.35
X163.8Y-92.15
X185.15Y-62.15
X185.15Y-110.35
T4
G00X79.19Y-55.75
M15
G01X78.39Y-55.75
M16
G05
G00X79.19Y-64.4
M15
G01X78.39Y-64.4
M16
G05
G00X83.52Y-55.75
M15
G01X82.42Y-55.75
M16
G05
G00X83.52Y-64.4
M15
G01X82.42Y-64.4
M16
G05
T10
G00X94.5Y-97.8
M15
G01X95.8Y-97.8
M16
G05
G00X94.5Y-109.0
M15
G01X95.8Y-109.0
M16
G05
M30
