G04 #@! TF.GenerationSoftware,KiCad,Pcbnew,9.0.0*
G04 #@! TF.CreationDate,2025-04-29T13:35:45+03:00*
G04 #@! TF.ProjectId,Embedded-Board,456d6265-6464-4656-942d-426f6172642e,rev?*
G04 #@! TF.SameCoordinates,Original*
G04 #@! TF.FileFunction,Soldermask,Top*
G04 #@! TF.FilePolarity,Negative*
%FSLAX46Y46*%
G04 Gerber Fmt 4.6, Leading zero omitted, Abs format (unit mm)*
G04 Created by KiCad (PCBNEW 9.0.0) date 2025-04-29 13:35:45*
%MOMM*%
%LPD*%
G01*
G04 APERTURE LIST*
G04 Aperture macros list*
%AMRoundRect*
0 Rectangle with rounded corners*
0 $1 Rounding radius*
0 $2 $3 $4 $5 $6 $7 $8 $9 X,Y pos of 4 corners*
0 Add a 4 corners polygon primitive as box body*
4,1,4,$2,$3,$4,$5,$6,$7,$8,$9,$2,$3,0*
0 Add four circle primitives for the rounded corners*
1,1,$1+$1,$2,$3*
1,1,$1+$1,$4,$5*
1,1,$1+$1,$6,$7*
1,1,$1+$1,$8,$9*
0 Add four rect primitives between the rounded corners*
20,1,$1+$1,$2,$3,$4,$5,0*
20,1,$1+$1,$4,$5,$6,$7,0*
20,1,$1+$1,$6,$7,$8,$9,0*
20,1,$1+$1,$8,$9,$2,$3,0*%
%AMFreePoly0*
4,1,6,1.000000,0.000000,0.500000,-0.750000,-0.500000,-0.750000,-0.500000,0.750000,0.500000,0.750000,1.000000,0.000000,1.000000,0.000000,$1*%
%AMFreePoly1*
4,1,6,0.500000,-0.750000,-0.650000,-0.750000,-0.150000,0.000000,-0.650000,0.750000,0.500000,0.750000,0.500000,-0.750000,0.500000,-0.750000,$1*%
G04 Aperture macros list end*
%ADD10C,0.000000*%
%ADD11R,1.500000X1.000000*%
%ADD12FreePoly0,0.000000*%
%ADD13FreePoly1,0.000000*%
%ADD14R,1.700000X1.700000*%
%ADD15O,1.700000X1.700000*%
%ADD16RoundRect,0.135000X-0.135000X-0.185000X0.135000X-0.185000X0.135000X0.185000X-0.135000X0.185000X0*%
%ADD17RoundRect,0.250000X-0.325000X-0.650000X0.325000X-0.650000X0.325000X0.650000X-0.325000X0.650000X0*%
%ADD18RoundRect,0.250000X0.250000X0.475000X-0.250000X0.475000X-0.250000X-0.475000X0.250000X-0.475000X0*%
%ADD19RoundRect,0.162500X0.162500X-0.650000X0.162500X0.650000X-0.162500X0.650000X-0.162500X-0.650000X0*%
%ADD20RoundRect,0.140000X-0.170000X0.140000X-0.170000X-0.140000X0.170000X-0.140000X0.170000X0.140000X0*%
%ADD21RoundRect,0.250000X-0.262500X-0.450000X0.262500X-0.450000X0.262500X0.450000X-0.262500X0.450000X0*%
%ADD22C,3.000000*%
%ADD23RoundRect,0.140000X-0.140000X-0.170000X0.140000X-0.170000X0.140000X0.170000X-0.140000X0.170000X0*%
%ADD24RoundRect,0.250000X1.500000X-0.925000X1.500000X0.925000X-1.500000X0.925000X-1.500000X-0.925000X0*%
%ADD25C,5.500000*%
%ADD26R,0.750000X1.000000*%
%ADD27RoundRect,0.135000X0.185000X-0.135000X0.185000X0.135000X-0.185000X0.135000X-0.185000X-0.135000X0*%
%ADD28RoundRect,0.140000X0.140000X0.170000X-0.140000X0.170000X-0.140000X-0.170000X0.140000X-0.170000X0*%
%ADD29RoundRect,0.218750X0.256250X-0.218750X0.256250X0.218750X-0.256250X0.218750X-0.256250X-0.218750X0*%
%ADD30RoundRect,0.243750X0.150260X-0.494975X0.494975X-0.150260X-0.150260X0.494975X-0.494975X0.150260X0*%
%ADD31RoundRect,0.250000X-0.475000X0.250000X-0.475000X-0.250000X0.475000X-0.250000X0.475000X0.250000X0*%
%ADD32RoundRect,0.200000X-0.200000X-0.275000X0.200000X-0.275000X0.200000X0.275000X-0.200000X0.275000X0*%
%ADD33RoundRect,0.135000X0.135000X0.185000X-0.135000X0.185000X-0.135000X-0.185000X0.135000X-0.185000X0*%
%ADD34R,2.200000X2.200000*%
%ADD35R,1.250000X2.200000*%
%ADD36C,2.000000*%
%ADD37C,1.000000*%
%ADD38RoundRect,0.225000X0.250000X-0.225000X0.250000X0.225000X-0.250000X0.225000X-0.250000X-0.225000X0*%
%ADD39R,1.400000X1.200000*%
%ADD40RoundRect,0.375000X0.375000X-0.625000X0.375000X0.625000X-0.375000X0.625000X-0.375000X-0.625000X0*%
%ADD41RoundRect,0.500000X1.400000X-0.500000X1.400000X0.500000X-1.400000X0.500000X-1.400000X-0.500000X0*%
%ADD42RoundRect,0.135000X-0.185000X0.135000X-0.185000X-0.135000X0.185000X-0.135000X0.185000X0.135000X0*%
%ADD43RoundRect,0.200000X-0.275000X0.200000X-0.275000X-0.200000X0.275000X-0.200000X0.275000X0.200000X0*%
%ADD44C,1.500000*%
%ADD45RoundRect,0.150000X-0.512500X-0.150000X0.512500X-0.150000X0.512500X0.150000X-0.512500X0.150000X0*%
%ADD46RoundRect,0.250000X0.625000X-0.350000X0.625000X0.350000X-0.625000X0.350000X-0.625000X-0.350000X0*%
%ADD47O,1.750000X1.200000*%
%ADD48RoundRect,0.250000X-0.250000X-0.475000X0.250000X-0.475000X0.250000X0.475000X-0.250000X0.475000X0*%
%ADD49RoundRect,0.200000X0.200000X0.275000X-0.200000X0.275000X-0.200000X-0.275000X0.200000X-0.275000X0*%
%ADD50RoundRect,0.050000X0.050000X-0.387500X0.050000X0.387500X-0.050000X0.387500X-0.050000X-0.387500X0*%
%ADD51RoundRect,0.050000X0.387500X-0.050000X0.387500X0.050000X-0.387500X0.050000X-0.387500X-0.050000X0*%
%ADD52R,3.200000X3.200000*%
%ADD53RoundRect,0.140000X0.170000X-0.140000X0.170000X0.140000X-0.170000X0.140000X-0.170000X-0.140000X0*%
%ADD54RoundRect,0.087500X-0.325000X-0.087500X0.325000X-0.087500X0.325000X0.087500X-0.325000X0.087500X0*%
%ADD55RoundRect,0.087500X-0.087500X-0.325000X0.087500X-0.325000X0.087500X0.325000X-0.087500X0.325000X0*%
%ADD56R,2.700000X2.700000*%
%ADD57R,2.000000X2.000000*%
%ADD58R,3.200000X2.000000*%
%ADD59RoundRect,0.250000X0.707107X0.176777X0.176777X0.707107X-0.707107X-0.176777X-0.176777X-0.707107X0*%
%ADD60RoundRect,0.218750X-0.218750X-0.256250X0.218750X-0.256250X0.218750X0.256250X-0.218750X0.256250X0*%
%ADD61R,0.800000X1.000000*%
%ADD62R,1.500000X0.700000*%
%ADD63C,0.600000*%
%ADD64R,1.140000X0.600000*%
%ADD65R,1.140000X0.300000*%
%ADD66O,2.000000X0.900000*%
%ADD67O,1.700000X0.900000*%
%ADD68RoundRect,0.150000X-0.150000X0.587500X-0.150000X-0.587500X0.150000X-0.587500X0.150000X0.587500X0*%
%ADD69C,2.400000*%
%ADD70O,2.400000X2.400000*%
%ADD71R,1.500000X1.500000*%
%ADD72C,3.200000*%
G04 APERTURE END LIST*
D10*
G36*
X111550000Y-100300000D02*
G01*
X110049999Y-100300001D01*
X110050000Y-100000000D01*
X111550001Y-99999999D01*
X111550000Y-100300000D01*
G37*
G36*
X83125000Y-95950000D02*
G01*
X85575000Y-95950000D01*
X85575000Y-97450000D01*
X83125000Y-97450000D01*
X83125000Y-95950000D01*
G37*
D11*
X110799999Y-100800001D03*
X110800001Y-99499999D03*
D12*
X83625000Y-96700000D03*
D13*
X85075000Y-96700000D03*
D14*
X77550000Y-112179999D03*
D15*
X77550000Y-109639999D03*
X77550000Y-107100000D03*
X77550000Y-104559999D03*
X77550000Y-102019999D03*
D16*
X102415000Y-60275000D03*
X103435000Y-60275000D03*
D17*
X116900000Y-97300000D03*
X119850000Y-97300000D03*
D18*
X103125000Y-58625000D03*
X101225002Y-58625000D03*
D19*
X99060000Y-73237500D03*
X100330000Y-73237500D03*
X101600000Y-73237500D03*
X102870000Y-73237500D03*
X102870000Y-66062500D03*
X101600000Y-66062500D03*
X100330000Y-66062500D03*
X99060000Y-66062500D03*
D20*
X111300000Y-67820000D03*
X111300000Y-68780000D03*
X107700000Y-67825000D03*
X107700000Y-68785000D03*
D16*
X104540000Y-58050000D03*
X105560000Y-58050000D03*
D21*
X148375000Y-79600000D03*
X150200000Y-79600000D03*
D22*
X197149998Y-116649999D03*
D23*
X82570000Y-67200000D03*
X83530000Y-67200000D03*
D24*
X108500000Y-109450000D03*
X108500000Y-103400000D03*
D21*
X148387500Y-82100000D03*
X150212500Y-82100000D03*
D25*
X163800000Y-92150000D03*
D21*
X148387500Y-84650000D03*
X150212500Y-84650000D03*
D26*
X80400000Y-66650000D03*
X80400000Y-72650000D03*
X76700000Y-66650000D03*
X76700000Y-72650000D03*
D27*
X97365000Y-73859999D03*
X97365000Y-72840001D03*
D28*
X120330000Y-64550000D03*
X119370000Y-64550000D03*
D29*
X77550000Y-96687501D03*
X77550000Y-95112499D03*
D30*
X186437088Y-89262913D03*
X187762912Y-87937087D03*
D31*
X89600000Y-92950002D03*
X89600000Y-94849998D03*
D32*
X116425000Y-99650000D03*
X118075000Y-99650000D03*
D33*
X103434999Y-61400000D03*
X102415001Y-61400000D03*
D34*
X179250000Y-76650000D03*
D35*
X181525000Y-76650000D03*
D36*
X78150003Y-51649999D03*
D37*
X119700000Y-58600000D03*
D38*
X113500000Y-109125000D03*
X113500000Y-107575000D03*
D32*
X115525000Y-109300000D03*
X117175000Y-109300000D03*
D39*
X119950000Y-63000000D03*
X122150000Y-63000000D03*
X122150000Y-61300000D03*
X119950000Y-61300000D03*
D28*
X103425000Y-62550000D03*
X102465000Y-62550000D03*
D18*
X103124999Y-56450000D03*
X101225001Y-56450000D03*
D40*
X124925000Y-97425000D03*
X127225000Y-97424999D03*
D41*
X127225000Y-91125001D03*
D40*
X129525000Y-97425000D03*
D42*
X118200000Y-60840001D03*
X118200000Y-61859999D03*
D37*
X116750000Y-58550000D03*
D14*
X152850000Y-68440000D03*
D15*
X152850000Y-65900000D03*
X152849999Y-63359999D03*
D14*
X145300000Y-56950000D03*
D15*
X142760000Y-56950000D03*
X140220001Y-56950000D03*
X137680000Y-56950000D03*
X135140000Y-56950000D03*
X132600000Y-56950000D03*
X130060000Y-56950000D03*
X127519999Y-56950000D03*
X124980000Y-56950000D03*
D22*
X197149999Y-52650001D03*
D43*
X87650000Y-93275000D03*
X87650000Y-94925000D03*
D44*
X120050000Y-102600000D03*
D14*
X203450000Y-68440000D03*
D15*
X203450000Y-65900000D03*
X203449999Y-63359999D03*
D23*
X98515000Y-64350000D03*
X99475000Y-64350000D03*
D45*
X95187500Y-77450000D03*
X95187500Y-78400000D03*
X95187500Y-79350000D03*
X97462500Y-79350000D03*
X97462500Y-77450000D03*
D25*
X185150000Y-110350000D03*
D33*
X87059999Y-62550000D03*
X86040001Y-62550000D03*
D46*
X92700000Y-93150000D03*
D47*
X92700000Y-91149999D03*
D42*
X97390000Y-65465001D03*
X97390000Y-66484999D03*
D23*
X121770000Y-59725000D03*
X122730000Y-59725000D03*
D48*
X112900002Y-97499999D03*
X114799998Y-97500001D03*
D49*
X114875000Y-99650000D03*
X113225000Y-99650000D03*
D50*
X107700000Y-65587500D03*
X108100001Y-65587500D03*
X108500000Y-65587500D03*
X108900000Y-65587500D03*
X109300000Y-65587500D03*
X109699999Y-65587500D03*
X110100000Y-65587500D03*
X110500000Y-65587500D03*
X110900001Y-65587500D03*
X111300000Y-65587500D03*
X111700000Y-65587500D03*
X112100000Y-65587500D03*
X112499999Y-65587500D03*
X112900000Y-65587500D03*
D51*
X113737500Y-64750000D03*
X113737500Y-64349999D03*
X113737500Y-63950000D03*
X113737500Y-63550000D03*
X113737500Y-63150000D03*
X113737500Y-62750001D03*
X113737500Y-62350000D03*
X113737500Y-61950000D03*
X113737500Y-61549999D03*
X113737500Y-61150000D03*
X113737500Y-60750000D03*
X113737500Y-60350000D03*
X113737500Y-59950001D03*
X113737500Y-59550000D03*
D50*
X112900000Y-58712500D03*
X112499999Y-58712500D03*
X112100000Y-58712500D03*
X111700000Y-58712500D03*
X111300000Y-58712500D03*
X110900001Y-58712500D03*
X110500000Y-58712500D03*
X110100000Y-58712500D03*
X109699999Y-58712500D03*
X109300000Y-58712500D03*
X108900000Y-58712500D03*
X108500000Y-58712500D03*
X108100001Y-58712500D03*
X107700000Y-58712500D03*
D51*
X106862500Y-59550000D03*
X106862500Y-59950001D03*
X106862500Y-60350000D03*
X106862500Y-60750000D03*
X106862500Y-61150000D03*
X106862500Y-61549999D03*
X106862500Y-61950000D03*
X106862500Y-62350000D03*
X106862500Y-62750001D03*
X106862500Y-63150000D03*
X106862500Y-63550000D03*
X106862500Y-63950000D03*
X106862500Y-64349999D03*
X106862500Y-64750000D03*
D52*
X110300000Y-62150000D03*
D25*
X113800000Y-92150000D03*
D31*
X131975000Y-90675001D03*
X131975000Y-92574999D03*
D32*
X91650000Y-79300000D03*
X93300000Y-79300000D03*
D36*
X78150000Y-117650000D03*
D53*
X117125000Y-61855000D03*
X117125000Y-60895000D03*
D22*
X83150001Y-116649999D03*
D36*
X131900000Y-101150000D03*
X138400000Y-101150000D03*
X131900000Y-105650000D03*
X138400000Y-105650000D03*
D25*
X135150000Y-110350000D03*
D54*
X113237500Y-102425000D03*
X113237500Y-103075000D03*
X113237500Y-103725000D03*
X113237500Y-104375000D03*
D55*
X114225000Y-105362500D03*
X114875000Y-105362500D03*
X115525000Y-105362500D03*
X116175000Y-105362500D03*
D54*
X117162500Y-104375000D03*
X117162500Y-103725000D03*
X117162500Y-103075000D03*
X117162500Y-102425000D03*
D55*
X116175000Y-101437500D03*
X115525000Y-101437500D03*
X114875000Y-101437500D03*
X114225000Y-101437500D03*
D56*
X115200000Y-103400000D03*
D36*
X202150000Y-51650000D03*
D28*
X103430000Y-63700000D03*
X102470000Y-63700000D03*
D21*
X148437500Y-87200000D03*
X150262500Y-87200000D03*
D22*
X83150002Y-52650001D03*
D57*
X87650000Y-100900000D03*
D36*
X87650000Y-105900000D03*
X87650000Y-103400000D03*
D58*
X95150000Y-97800000D03*
X95150000Y-109000000D03*
D36*
X102150000Y-105900000D03*
X102150000Y-100900000D03*
D25*
X185150000Y-62150000D03*
D18*
X106899999Y-56400000D03*
X105000001Y-56400000D03*
D53*
X108200000Y-56880000D03*
X108200000Y-55920000D03*
D14*
X139250000Y-85940000D03*
D15*
X139250000Y-83400000D03*
X136710000Y-85940000D03*
X136710000Y-83400000D03*
X134170001Y-85940000D03*
X134170000Y-83400000D03*
X131630000Y-85940000D03*
X131630000Y-83400000D03*
X129090000Y-85940000D03*
X129090000Y-83400000D03*
X126550000Y-85940000D03*
X126550000Y-83400000D03*
X124010000Y-85940000D03*
X124010000Y-83400000D03*
X121469999Y-85940000D03*
X121470000Y-83400000D03*
X118930000Y-85940000D03*
X118930000Y-83400000D03*
X116390000Y-85940000D03*
X116390000Y-83400000D03*
X113850000Y-85940000D03*
X113850000Y-83400000D03*
X111310001Y-85940000D03*
X111310000Y-83400000D03*
X108770000Y-85940000D03*
X108770000Y-83400000D03*
X106230000Y-85940000D03*
X106230000Y-83400000D03*
X103690000Y-85940000D03*
X103690000Y-83400000D03*
X101150001Y-85940000D03*
X101150000Y-83400000D03*
X98609999Y-85940000D03*
X98610000Y-83400000D03*
X96070000Y-85940000D03*
X96070000Y-83400000D03*
X93530000Y-85940000D03*
X93530000Y-83400000D03*
X90990000Y-85940000D03*
X90990000Y-83400000D03*
D16*
X82540000Y-66000000D03*
X83560000Y-66000000D03*
D59*
X174239950Y-89589949D03*
X172260050Y-87610051D03*
D14*
X153000000Y-89729999D03*
D15*
X153000000Y-87189999D03*
X153000000Y-84650000D03*
X153000000Y-82109999D03*
X153000000Y-79569999D03*
D32*
X91650000Y-77400000D03*
X93300000Y-77400000D03*
D60*
X76762499Y-78750000D03*
X78337501Y-78750000D03*
D44*
X123250000Y-108350000D03*
D60*
X76812499Y-75700000D03*
X78387501Y-75700000D03*
D49*
X117175000Y-107300000D03*
X115525000Y-107300000D03*
D32*
X99250000Y-77450000D03*
X100900000Y-77450000D03*
D53*
X118200000Y-59830000D03*
X118200000Y-58870000D03*
D61*
X78250000Y-82500000D03*
X76050000Y-82500000D03*
D37*
X77150000Y-84650000D03*
X77150000Y-87650000D03*
D61*
X78250000Y-89800000D03*
X76050000Y-89800000D03*
D62*
X78900000Y-83900000D03*
X78900000Y-86900000D03*
X78900000Y-88400000D03*
D49*
X121150000Y-109250000D03*
X119500000Y-109250000D03*
D36*
X202149997Y-117650001D03*
D16*
X85340001Y-58850000D03*
X86359999Y-58850000D03*
D63*
X82470000Y-57185000D03*
X82470000Y-62965000D03*
D64*
X83540000Y-56875000D03*
X83540000Y-57675000D03*
D65*
X83540000Y-58825001D03*
X83540000Y-59825000D03*
X83540000Y-60325000D03*
X83540000Y-61324999D03*
D64*
X83540000Y-63275000D03*
X83540000Y-62475000D03*
D65*
X83540000Y-61825000D03*
X83540000Y-60825000D03*
X83540000Y-59325000D03*
X83540000Y-58325000D03*
D66*
X82970000Y-55750000D03*
D67*
X78790000Y-55750000D03*
D66*
X82970000Y-64400000D03*
D67*
X78790000Y-64400000D03*
D48*
X99350000Y-79650000D03*
X101250000Y-79650000D03*
D25*
X135150000Y-62150000D03*
D68*
X121050000Y-105350000D03*
X119150000Y-105350000D03*
X120100000Y-107225001D03*
D53*
X111300000Y-56930000D03*
X111300000Y-55970000D03*
D69*
X172300000Y-59050000D03*
D70*
X172300000Y-71750000D03*
D69*
X165150000Y-110900000D03*
D70*
X165150000Y-98200000D03*
D69*
X186600000Y-102899999D03*
D70*
X173900000Y-102899999D03*
D14*
X142850000Y-78300000D03*
D15*
X142850000Y-80840000D03*
X142850000Y-83379999D03*
X142850000Y-85920001D03*
X142850000Y-88460000D03*
X142850000Y-91000000D03*
D71*
X169860000Y-95630001D03*
D44*
X172400000Y-98170001D03*
X174940002Y-95629999D03*
D71*
X184810001Y-95930000D03*
D44*
X187350001Y-98470000D03*
X189890001Y-95930001D03*
D14*
X129356379Y-67243216D03*
D15*
X131896379Y-67243216D03*
X134436378Y-67243216D03*
X136976380Y-67243216D03*
X139516379Y-67243216D03*
X142056379Y-67243216D03*
D72*
X125606378Y-103993215D03*
D69*
X192800000Y-59350000D03*
D70*
X192800000Y-72050000D03*
D72*
X145806379Y-68493216D03*
X138650000Y-94150000D03*
X138650000Y-75149998D03*
D69*
X194600000Y-111150000D03*
D70*
X194600000Y-98450000D03*
D72*
X125606379Y-68493216D03*
D71*
X182690000Y-71370000D03*
D44*
X180150000Y-68830000D03*
X177609999Y-71370001D03*
D72*
X145806378Y-103993215D03*
D69*
X198450000Y-91700000D03*
D70*
X198450000Y-79000000D03*
M02*
